<?xml version="1.0" encoding="utf-8"?>
<!-- Generator: Adobe Illustrator 19.2.0, SVG Export Plug-In . SVG Version: 6.00 Build 0)  -->
<svg version="1.1" id="Capa_1" xmlns="http://www.w3.org/2000/svg" xmlns:xlink="http://www.w3.org/1999/xlink" x="0px" y="0px"
	 viewBox="0 0 255.1 255.1" style="enable-background:new 0 0 255.1 255.1;" xml:space="preserve">
<style type="text/css">
	.st0{fill:#A0D9B3;}
	.st1{fill:none;stroke:#144733;stroke-linecap:round;stroke-miterlimit:10;}
	.st2{fill:none;stroke:#144733;stroke-linecap:round;stroke-miterlimit:10;stroke-dasharray:0.2,1.997;}
	.st3{fill:#FFFFFF;}
	.st4{fill-rule:evenodd;clip-rule:evenodd;fill:#144733;}
	.st5{fill:#144733;}
	.st6{fill:none;stroke:#144733;stroke-linecap:round;stroke-miterlimit:10;stroke-dasharray:0.2,2;}
	.st7{fill:#B86B79;}
	.st8{fill:none;stroke:#722C3C;stroke-linecap:round;stroke-miterlimit:10;}
	.st9{fill:none;stroke:#722C3C;stroke-linecap:round;stroke-miterlimit:10;stroke-dasharray:0.2,1.997;}
	.st10{fill:none;stroke:#722C3C;stroke-linecap:round;stroke-miterlimit:10;stroke-dasharray:0.2,2;}
	.st11{fill:#722C3C;}
	.st12{fill-rule:evenodd;clip-rule:evenodd;fill:#722C3C;}
	.st13{fill:#D8C2D7;}
	.st14{fill:none;stroke:#5F3653;stroke-linecap:round;stroke-miterlimit:10;}
	.st15{fill:none;stroke:#5F3653;stroke-linecap:round;stroke-miterlimit:10;stroke-dasharray:0.2,1.997;}
	.st16{fill:none;stroke:#5F3653;stroke-linecap:round;stroke-miterlimit:10;stroke-dasharray:0.2,2;}
	.st17{fill:#5F3653;}
	.st18{fill-rule:evenodd;clip-rule:evenodd;fill:#5F3653;}
	.st19{fill:#FADF8D;}
	.st20{fill:none;stroke:#9F8315;stroke-linecap:round;stroke-miterlimit:10;}
	.st21{fill:none;stroke:#9F8315;stroke-linecap:round;stroke-miterlimit:10;stroke-dasharray:0.2,1.997;}
	.st22{fill:none;stroke:#9F8315;stroke-linecap:round;stroke-miterlimit:10;stroke-dasharray:0.2,2;}
	.st23{fill:#6F561B;}
	.st24{fill-rule:evenodd;clip-rule:evenodd;fill:#6F561B;}
</style>
<g>
	<g>
		<path class="st7" d="M255.1,127.6c0,70.5-57.1,127.6-127.6,127.6C57.1,255.1,0,198,0,127.6C0,57.1,57.1,0,127.6,0
			C198,0,255.1,57.1,255.1,127.6"/>
		<path class="st8" d="M57.2,223.5C57.2,223.5,57.1,223.5,57.2,223.5"/>
		<path class="st9" d="M55.5,222.3c-28.5-21.7-47-56.1-47-94.7c0-65.7,53.3-119,119-119c65.7,0,119,53.3,119,119
			c0,39.1-18.8,73.7-47.9,95.4"/>
		<path class="st8" d="M197.9,223.6C197.8,223.6,197.8,223.6,197.9,223.6"/>
		<line class="st10" x1="156" y1="136.9" x2="218.6" y2="136.9"/>
		<line class="st10" x1="36.5" y1="136.9" x2="121.9" y2="136.9"/>
	</g>
	<g>
		<path class="st11" d="M71.6,223.9c0.2,0.1,0.5,0.3,0.7,0.4c-1.2,2.4-2.5,4.7-3.7,7.1c-0.3-0.1-0.5-0.3-0.8-0.4
			c0.6-1.1,1.1-2.1,1.7-3.2c-1.4-0.8-2.8-1.5-4.2-2.4c-0.6,1-1.2,2.1-1.8,3.1c-0.3-0.1-0.5-0.3-0.8-0.4c1.4-2.3,2.7-4.6,4.1-6.9
			c0.2,0.1,0.5,0.3,0.7,0.4c-0.6,1.1-1.2,2.1-1.9,3.2c1.4,0.8,2.8,1.6,4.2,2.4C70.4,226.1,71,225,71.6,223.9"/>
		<path class="st11" d="M72.1,232.6c0.6,0.3,1.1,0.3,1.5,0.1c0.1,0.2,0.2,0.4,0.3,0.6c-0.5,0.2-1.2,0.2-2-0.2
			c-1.3-0.6-1.8-1.9-1.2-2.9c0.5-1,1.8-1.4,2.9-0.8c1.2,0.6,1.6,1.8,1,3c-1.1-0.5-2.2-1-3.3-1.6C71.1,231.6,71.4,232.2,72.1,232.6
			 M74,231.5c0.2-0.6,0-1.2-0.7-1.6c-0.7-0.3-1.3-0.2-1.7,0.4C72.4,230.8,73.2,231.2,74,231.5"/>
		<path class="st11" d="M75.4,232.5c0.5-1.1,1.7-1.4,2.9-1c0.7,0.3,1.1,0.7,1.3,1.2c-0.2,0.1-0.4,0.1-0.7,0.2
			c-0.1-0.4-0.4-0.7-0.9-0.9c-0.8-0.3-1.5,0-1.8,0.7c-0.3,0.7-0.1,1.5,0.7,1.9c0.5,0.2,1,0.2,1.4,0.1c0.1,0.2,0.2,0.4,0.3,0.6
			c-0.5,0.2-1.2,0.2-2-0.1C75.4,234.8,74.9,233.6,75.4,232.5"/>
		<path class="st11" d="M82.4,228.6c0.2,0.1,0.5,0.2,0.7,0.3c-0.6,1.6-1.3,3.2-1.9,4.7c0.5-0.3,1-0.4,1.6-0.1c0.9,0.3,1.3,1.1,1,2.1
			l-0.8,2.2c-0.3-0.1-0.5-0.2-0.8-0.3c0.3-0.7,0.5-1.4,0.8-2.2c0.2-0.6,0-1.1-0.6-1.3c-0.7-0.3-1.3-0.1-1.6,0.6
			c-0.3,0.7-0.5,1.3-0.8,2c-0.2-0.1-0.5-0.2-0.8-0.3C80.3,233.7,81.4,231.2,82.4,228.6"/>
		<path class="st11" d="M84.6,236.3c0.4-1.1,1.6-1.6,2.8-1.2c1.2,0.4,1.8,1.5,1.5,2.6c-0.4,1.1-1.6,1.6-2.8,1.2
			C84.8,238.6,84.2,237.4,84.6,236.3 M88.1,237.5c0.3-0.8-0.1-1.5-0.9-1.8c-0.8-0.3-1.6,0.1-1.8,0.9c-0.3,0.8,0.1,1.5,0.9,1.8
			C87.1,238.7,87.9,238.3,88.1,237.5"/>
		<path class="st11" d="M94.9,239.1c0.2-0.7-0.1-1-0.7-1.2c-0.5-0.1-0.9-0.1-1.3,0.2c-0.1-0.2-0.2-0.3-0.4-0.5
			c0.6-0.4,1.2-0.5,1.9-0.3c1,0.3,1.5,1,1.3,2c-0.2,0.8-0.4,1.5-0.6,2.3c-0.3-0.1-0.5-0.1-0.8-0.2c0-0.1,0.1-0.3,0.1-0.4
			c-0.4,0.2-0.9,0.3-1.4,0.1c-0.9-0.2-1.5-0.8-1.2-1.7c0.2-0.8,1.1-0.9,1.9-0.7C94,238.9,94.5,239,94.9,239.1L94.9,239.1z
			 M93.5,239.4c-0.5-0.1-0.9-0.1-1.1,0.3c-0.1,0.4,0.2,0.7,0.8,0.9c0.6,0.2,1.3,0,1.4-0.5c0-0.1,0.1-0.3,0.1-0.4
			C94.3,239.6,93.9,239.5,93.5,239.4"/>
		<path class="st11" d="M99.5,238.7c0.3,0.1,0.5,0.1,0.8,0.2c0,0.2-0.1,0.3-0.1,0.5c0.3-0.3,0.8-0.5,1.4-0.3c0.5,0.1,0.9,0.4,1.1,1
			c0.4-0.4,0.9-0.5,1.6-0.4c0.9,0.2,1.4,0.8,1.2,1.8l-0.4,2.4c-0.3,0-0.5-0.1-0.8-0.1c0.1-0.8,0.3-1.6,0.4-2.4
			c0.1-0.6-0.1-1-0.7-1.1c-0.7-0.1-1.1,0.2-1.3,0.8c-0.1,0.7-0.3,1.5-0.4,2.2c-0.3-0.1-0.5-0.1-0.8-0.2c0.2-0.8,0.3-1.6,0.5-2.3
			c0.1-0.6-0.1-1-0.7-1.1c-0.7-0.1-1.1,0.1-1.3,0.8c-0.2,0.7-0.3,1.4-0.5,2.2c-0.3-0.1-0.5-0.1-0.8-0.2
			C98.9,241.3,99.2,240,99.5,238.7"/>
		<path class="st11" d="M109.3,242.1c0.1-0.7-0.2-1-0.8-1.1c-0.5-0.1-0.9,0-1.3,0.4c-0.1-0.2-0.3-0.3-0.4-0.5
			c0.5-0.4,1.1-0.6,1.8-0.5c1.1,0.2,1.6,0.8,1.5,1.8c-0.1,0.8-0.2,1.6-0.3,2.4c-0.3,0-0.5-0.1-0.8-0.1c0-0.1,0-0.3,0.1-0.4
			c-0.3,0.3-0.8,0.4-1.4,0.3c-0.9-0.1-1.6-0.7-1.4-1.5c0.1-0.8,1-1,1.8-0.9C108.4,242,108.9,242.1,109.3,242.1
			C109.3,242.1,109.3,242.1,109.3,242.1 M108,242.5c-0.5-0.1-1,0-1,0.5c-0.1,0.4,0.3,0.7,0.8,0.8c0.6,0.1,1.2-0.1,1.3-0.7
			c0-0.1,0-0.3,0.1-0.4C108.8,242.7,108.4,242.6,108,242.5"/>
		<path class="st11" d="M111.5,240.9c0.3,0,0.5,0.1,0.8,0.1c0,0.2-0.1,0.4-0.1,0.6c0.3-0.4,0.9-0.6,1.5-0.5c0.9,0.1,1.5,0.7,1.4,1.8
			c-0.1,0.8-0.2,1.6-0.2,2.4c-0.3,0-0.5-0.1-0.8-0.1c0.1-0.8,0.2-1.5,0.2-2.3c0.1-0.7-0.2-1-0.9-1.1c-0.7-0.1-1.3,0.3-1.4,1
			c-0.1,0.7-0.2,1.4-0.3,2.1c-0.3,0-0.5-0.1-0.8-0.1L111.5,240.9z"/>
		<path class="st11" d="M116.1,243.4c0.1-1.2,1.2-1.9,2.4-1.8c1.2,0.1,2.1,1,2.1,2.2c-0.1,1.2-1.1,2-2.4,1.9
			C116.9,245.5,116,244.5,116.1,243.4 M119.8,243.7c0-0.8-0.5-1.5-1.3-1.5c-0.8-0.1-1.5,0.5-1.5,1.3c-0.1,0.8,0.5,1.5,1.3,1.5
			C119.1,245,119.7,244.5,119.8,243.7"/>
		<path class="st11" d="M123.7,243.8c0-1.2,1-2,2.2-2c0.7,0,1.3,0.2,1.6,0.6c-0.2,0.1-0.4,0.3-0.5,0.4c-0.3-0.3-0.6-0.4-1.1-0.4
			c-0.8,0-1.4,0.6-1.4,1.4c0,0.8,0.5,1.4,1.3,1.4c0.6,0,1-0.2,1.3-0.5c0.2,0.1,0.4,0.3,0.5,0.4c-0.4,0.4-1,0.7-1.8,0.7
			C124.6,245.9,123.7,245,123.7,243.8"/>
		<path class="st11" d="M128.3,243.9c0-1.2,1-2,2.2-2.1c1.2,0,2.2,0.8,2.3,2c0.1,1.2-0.9,2.1-2.2,2.1
			C129.3,245.9,128.3,245.1,128.3,243.9 M132,243.8c0-0.8-0.6-1.4-1.5-1.4c-0.8,0-1.4,0.6-1.4,1.4c0,0.8,0.6,1.4,1.5,1.4
			C131.4,245.3,132,244.6,132,243.8"/>
		<path class="st11" d="M133.7,241.8c0.3,0,0.5,0,0.8,0c0,0.2,0,0.4,0,0.6c0.2-0.5,0.8-0.8,1.4-0.8c0.9-0.1,1.6,0.4,1.7,1.5
			c0.1,0.8,0.1,1.6,0.2,2.4c-0.3,0-0.5,0-0.8,0.1c-0.1-0.8-0.1-1.5-0.2-2.3c-0.1-0.7-0.4-1-1.1-0.9c-0.7,0-1.2,0.5-1.2,1.3l0.1,2.1
			c-0.3,0-0.5,0-0.8,0C133.8,244.4,133.8,243.1,133.7,241.8"/>
		<path class="st11" d="M141,243.2c-0.1-1.2,0.7-2.1,1.9-2.3c0.7-0.1,1.3,0.1,1.7,0.4c-0.2,0.2-0.3,0.3-0.5,0.5
			c-0.3-0.2-0.7-0.3-1.2-0.3c-0.8,0.1-1.3,0.8-1.2,1.6c0.1,0.8,0.7,1.3,1.5,1.2c0.6-0.1,1-0.3,1.2-0.6c0.2,0.1,0.4,0.2,0.6,0.3
			c-0.3,0.5-0.9,0.8-1.7,0.9C142.2,245.1,141.1,244.3,141,243.2"/>
		<path class="st11" d="M148.5,241.7c-0.1-0.7-0.5-0.9-1.1-0.8c-0.5,0.1-0.9,0.3-1.1,0.7c-0.2-0.1-0.4-0.2-0.6-0.3
			c0.3-0.6,0.9-0.9,1.6-1c1.1-0.2,1.8,0.2,2,1.3c0.1,0.8,0.3,1.6,0.4,2.3c-0.3,0-0.5,0.1-0.8,0.1c0-0.1,0-0.3-0.1-0.4
			c-0.2,0.4-0.7,0.6-1.2,0.7c-0.9,0.1-1.7-0.1-1.8-1c-0.1-0.8,0.6-1.3,1.5-1.4C147.6,241.9,148,241.8,148.5,241.7
			C148.5,241.7,148.5,241.7,148.5,241.7 M147.3,242.5c-0.5,0.1-0.9,0.3-0.8,0.7c0.1,0.4,0.5,0.6,1.1,0.5c0.6-0.1,1.2-0.5,1.1-1
			c0-0.1,0-0.3-0.1-0.4C148.2,242.4,147.8,242.4,147.3,242.5"/>
		<path class="st11" d="M150.2,239.9c0.3,0,0.5-0.1,0.8-0.1l0.1,0.6c0.2-0.5,0.6-0.9,1.1-1c0.3-0.1,0.5,0,0.7,0
			c0,0.2-0.1,0.4-0.1,0.7c-0.2,0-0.3,0-0.5,0c-0.6,0.1-1,0.7-0.8,1.4c0.1,0.7,0.3,1.3,0.4,2c-0.3,0-0.5,0.1-0.8,0.1
			C150.7,242.4,150.5,241.1,150.2,239.9"/>
		<path class="st11" d="M153.2,237.7c-0.1-0.3,0.1-0.5,0.4-0.6c0.3-0.1,0.6,0.1,0.6,0.4c0.1,0.3-0.1,0.5-0.4,0.6
			C153.5,238.1,153.2,238,153.2,237.7 M153.6,239.2c0.3-0.1,0.5-0.1,0.8-0.2c0.3,1.3,0.6,2.5,0.8,3.8c-0.3,0.1-0.5,0.1-0.8,0.2
			L153.6,239.2z"/>
		<path class="st11" d="M155.7,238.7c0.3-0.1,0.5-0.1,0.8-0.2c0,0.2,0.1,0.4,0.1,0.6c0.2-0.5,0.6-0.9,1.2-1c0.9-0.2,1.7,0.1,2,1.1
			c0.2,0.8,0.4,1.5,0.6,2.3c-0.3,0.1-0.5,0.1-0.8,0.2c-0.2-0.7-0.4-1.5-0.6-2.2c-0.2-0.7-0.6-0.9-1.2-0.7c-0.7,0.2-1.1,0.7-0.9,1.4
			c0.2,0.7,0.3,1.4,0.5,2.1c-0.3,0.1-0.5,0.1-0.8,0.2C156.3,241.2,156,240,155.7,238.7 M156.7,237c-0.2,0-0.2,0.2-0.2,0.5
			c-0.2,0-0.4,0-0.6,0.1c0-0.6,0.2-1,0.6-1.1c0.5-0.1,0.9,0.2,1.2,0.1c0.2,0,0.2-0.2,0.2-0.5c0.2,0,0.4,0,0.6-0.1
			c0,0.6-0.1,1-0.6,1.1C157.4,237.3,157,236.9,156.7,237"/>
		<path class="st11" d="M160.9,239.4c-0.3-1.1,0.4-2.2,1.6-2.6c1.2-0.3,2.4,0.2,2.7,1.3c0.4,1.1-0.4,2.2-1.6,2.6
			C162.4,241.1,161.2,240.5,160.9,239.4 M164.5,238.4c-0.2-0.8-1-1.2-1.8-0.9c-0.8,0.2-1.2,1-1,1.8c0.2,0.8,0.9,1.2,1.8,1
			C164.3,239.9,164.7,239.1,164.5,238.4"/>
		<path class="st11" d="M167.9,235.2c0.2-0.1,0.5-0.2,0.7-0.3c0.1,0.2,0.1,0.4,0.2,0.6c0.1-0.6,0.5-1,1.2-1.2
			c1.1-0.4,2.3,0.1,2.7,1.2c0.4,1.1-0.1,2.2-1.3,2.6c-0.7,0.3-1.3,0.2-1.7-0.2c0.3,1,0.7,2,1,3c-0.3,0.1-0.5,0.2-0.8,0.3
			C169.3,239.2,168.6,237.2,167.9,235.2 M171.9,235.8c-0.3-0.8-1-1.1-1.8-0.8c-0.8,0.3-1.1,1-0.9,1.8c0.3,0.8,1,1.1,1.8,0.8
			C171.9,237.3,172.2,236.6,171.9,235.8"/>
		<path class="st11" d="M176,233.7c-0.3-0.7-0.7-0.7-1.3-0.5c-0.5,0.2-0.8,0.5-0.9,1c-0.2-0.1-0.4-0.1-0.6-0.2
			c0.2-0.6,0.6-1.1,1.3-1.4c1-0.4,1.8-0.2,2.2,0.8c0.3,0.7,0.6,1.5,0.9,2.2c-0.2,0.1-0.5,0.2-0.7,0.3c-0.1-0.1-0.1-0.3-0.2-0.4
			c-0.1,0.4-0.5,0.8-1.1,1c-0.9,0.3-1.7,0.2-2-0.5c-0.3-0.7,0.3-1.4,1.1-1.7C175.3,234,175.7,233.9,176,233.7
			C176.1,233.7,176,233.7,176,233.7 M175.1,234.7c-0.5,0.2-0.8,0.5-0.7,0.9c0.2,0.4,0.6,0.5,1.2,0.2c0.6-0.2,1-0.8,0.8-1.3
			c-0.1-0.1-0.1-0.3-0.2-0.4C175.9,234.4,175.5,234.6,175.1,234.7"/>
		<path class="st11" d="M177.4,231.5c0.2-0.1,0.5-0.2,0.7-0.3c0.1,0.2,0.2,0.4,0.3,0.6c0-0.6,0.4-1,0.8-1.2c0.3-0.1,0.5-0.2,0.7-0.1
			c0,0.2,0,0.4,0,0.7c-0.2,0-0.3,0-0.5,0.1c-0.6,0.3-0.8,0.9-0.5,1.6c0.3,0.6,0.6,1.2,0.8,1.9c-0.2,0.1-0.5,0.2-0.7,0.3L177.4,231.5
			z"/>
		<path class="st11" d="M183.5,230.2c-0.3-0.6-0.8-0.7-1.3-0.4c-0.5,0.2-0.7,0.6-0.9,1c-0.2,0-0.4-0.1-0.6-0.1
			c0.2-0.7,0.6-1.1,1.2-1.4c1-0.5,1.8-0.3,2.3,0.6c0.4,0.7,0.7,1.4,1.1,2.1c-0.2,0.1-0.5,0.2-0.7,0.4c-0.1-0.1-0.1-0.3-0.2-0.4
			c-0.1,0.4-0.5,0.8-1,1.1c-0.8,0.4-1.7,0.4-2-0.4c-0.3-0.7,0.2-1.4,1-1.8C182.7,230.7,183.1,230.5,183.5,230.2
			C183.5,230.3,183.5,230.3,183.5,230.2 M182.7,231.3c-0.5,0.2-0.8,0.6-0.6,1c0.2,0.4,0.6,0.4,1.2,0.2c0.6-0.3,1-0.8,0.7-1.3
			c-0.1-0.1-0.1-0.3-0.2-0.4C183.4,231,183,231.2,182.7,231.3"/>
		<path class="st11" d="M186.8,227.5c-0.1-0.2-0.2-0.4-0.3-0.5c0.2-0.1,0.3-0.2,0.5-0.3c-0.2-0.4-0.5-0.9-0.7-1.3
			c0.2-0.1,0.5-0.3,0.7-0.4l0.7,1.3c0.3-0.2,0.6-0.3,0.9-0.5c0.1,0.2,0.2,0.4,0.3,0.5c-0.3,0.2-0.6,0.4-0.9,0.5
			c0.4,0.6,0.7,1.3,1.1,1.9c0.2,0.3,0.4,0.4,0.7,0.3c0.2-0.1,0.3-0.3,0.3-0.4c0.2,0.1,0.4,0.2,0.6,0.3c-0.1,0.2-0.3,0.5-0.7,0.7
			c-0.6,0.4-1.2,0.3-1.6-0.4c-0.4-0.6-0.7-1.3-1.1-1.9C187.1,227.4,187,227.4,186.8,227.5"/>
		<path class="st11" d="M188.7,224c-0.1-0.2,0-0.6,0.2-0.7c0.2-0.1,0.6-0.1,0.7,0.1c0.1,0.2,0,0.6-0.2,0.7
			C189.2,224.3,188.9,224.2,188.7,224 M189.6,225.2c0.2-0.1,0.5-0.3,0.7-0.4c0.7,1.1,1.3,2.2,2,3.3c-0.2,0.1-0.5,0.3-0.7,0.4
			C190.9,227.5,190.3,226.4,189.6,225.2"/>
		<path class="st3" d="M87.5,91.1c0.7-1.8,1-3.9,1-6.4h1c0,2.8-0.5,5.3-1.3,7.2l4.3,5.1h-1.3l-3.5-4.1c-1.6,2.8-4.1,4.4-7.3,4.4
			c-3.5,0-6.7-2.3-6.7-6c0-4,3.2-5.8,6.3-7.6l-0.9-1c-1.2-1.5-1.8-2.9-1.8-4.3c0-2.5,1.8-4.2,4.3-4.2c2.4,0,4,1.9,4,4.2
			c0,2.4-1.9,4.1-4.1,5.5L87.5,91.1z M80.6,84.5c-2.9,1.7-5.8,3.2-5.8,6.9c0,3.1,2.6,5,5.6,5c3.1,0,5.3-1.5,6.6-4.2L80.6,84.5z
			 M84.6,78.5c0-1.9-1.2-3.3-3-3.3c-1.9,0-3.2,1.3-3.2,3.3c0,1.2,0.5,2.4,1.5,3.5l1,1.2C82.8,82,84.6,80.6,84.6,78.5"/>
		<polygon class="st3" points="83.2,100.2 83.1,100.2 73.8,100.2 73.8,101.1 83.1,101.1 83.2,101.1 92.5,101.1 92.5,100.2 		"/>
		<path class="st3" d="M71.1,51.5c-4.1,0-7.6-3.1-7.6-7.5s3.5-7.5,7.4-7.5c3.2,0,5.1,1.3,6.3,3.1l-2.9,2c-0.6-0.9-1.5-1.7-3.3-1.7
			c-2.2,0-3.5,1.8-3.5,4.1c0,2.3,1.4,4.1,3.6,4.1c1.9,0,2.8-0.9,3.4-2l3,1.9C76.1,50.4,74.1,51.5,71.1,51.5"/>
		<path class="st3" d="M87.3,49.5h-5.1l-0.7,1.8h-3.8l7.1-14.9c0.1-0.2,0.2-0.2,0.3,0l7.1,14.9h-4L87.3,49.5z M83.4,46.7H86
			l-1.3-3.1L83.4,46.7z"/>
		<path class="st3" d="M92.7,51.1l6.5-11.1h-5.4v-3.3h11.4c0.1,0,0.2,0,0.1,0.2L98.7,48h5.9v3.3H92.7C92.6,51.3,92.5,51.2,92.7,51.1
			"/>
		<path class="st3" d="M106.7,45.6v-9h3.9v8.9c0,1.7,0.8,2.6,2.4,2.6c1.7,0,2.4-0.9,2.4-2.6v-8.9h3.9v9c0,3.9-2.7,5.9-6.3,5.9
			C109.4,51.5,106.7,49.5,106.7,45.6"/>
		<polygon class="st3" points="121.8,36.6 132.1,36.6 132.1,39.9 125.7,39.9 125.7,42.3 131,42.3 131,45.5 125.7,45.5 125.7,48 
			132.4,48 132.4,51.3 121.8,51.3 		"/>
		<polygon class="st3" points="134.3,36.6 138.2,36.6 138.2,48 144.4,48 144.4,51.3 134.3,51.3 		"/>
		<path class="st3" d="M154.9,49.5h-5.1l-0.7,1.8h-3.8l7.1-14.9c0.1-0.2,0.2-0.2,0.3,0l7.1,14.9h-4L154.9,49.5z M151,46.7h2.6
			l-1.3-3.1L151,46.7z"/>
		<path class="st3" d="M166.3,36.6h5.7c4.2,0,7.4,2.8,7.4,7.3c0,4.5-3.2,7.3-7.4,7.3h-5.7V36.6z M171.5,48c2.4,0,3.8-1.6,3.8-4
			c0-2.4-1.5-4-3.8-4h-1.3v8H171.5z"/>
		<polygon class="st3" points="181.1,36.6 191.3,36.6 191.3,39.9 185,39.9 185,42.3 190.3,42.3 190.3,45.5 185,45.5 185,48 
			191.6,48 191.6,51.3 181.1,51.3 		"/>
		<path class="st3" d="M66.1,69.6h-1.2v-3.8h2.5c1.8,0,2.8-1.1,2.8-2.5c0-1.5-1-2.6-2.8-2.6h-2.8v9h-1.2v-9.9h4
			c2.5,0,3.9,1.5,3.9,3.6c0,2-1.4,3.5-3.9,3.5h-1.4V69.6z M64.9,65.5v-4.6h2.5c1.6,0,2.5,1,2.5,2.3c0,1.3-0.9,2.3-2.5,2.3H64.9z
			 M67.4,64.6c0.9,0,1.4-0.5,1.4-1.3c0-0.8-0.5-1.3-1.4-1.3h-1.2v2.6H67.4z"/>
		<path class="st3" d="M72.3,64.7c0-3,2.5-5.1,5.3-5.1c2.9,0,5.3,2.1,5.3,5.1c0,3-2.5,5.1-5.3,5.1C74.7,69.8,72.3,67.7,72.3,64.7
			 M81.7,64.7c0-2.4-1.8-4.1-4.1-4.1c-2.3,0-4.1,1.7-4.1,4.1c0,2.4,1.8,4.1,4.1,4.1C79.9,68.7,81.7,67,81.7,64.7 M73.7,64.7
			c0-2.2,1.7-3.8,3.8-3.8c2.2,0,3.8,1.6,3.8,3.8c0,2.2-1.7,3.8-3.8,3.8C75.4,68.5,73.7,66.9,73.7,64.7 M80.2,64.7
			c0-1.6-1-2.8-2.6-2.8c-1.7,0-2.6,1.2-2.6,2.8c0,1.6,1,2.8,2.6,2.8C79.3,67.5,80.2,66.2,80.2,64.7"/>
		<path class="st3" d="M84.2,59.7h1.2v9h5.7v1h-6.9V59.7z M91.1,68.4h-5.4v-8.7h1.2v7.7h4.2V68.4z"/>
		<path class="st3" d="M92.3,59.7h1.2v9h5.7v1h-6.9V59.7z M99.2,68.4h-5.4v-8.7h1.2v7.7h4.2V68.4z"/>
		<path class="st3" d="M99.7,64.7c0-3,2.5-5.1,5.3-5.1c2.9,0,5.3,2.1,5.3,5.1c0,3-2.5,5.1-5.3,5.1C102.2,69.8,99.7,67.7,99.7,64.7
			 M109.1,64.7c0-2.4-1.8-4.1-4.1-4.1c-2.3,0-4.1,1.7-4.1,4.1c0,2.4,1.8,4.1,4.1,4.1C107.4,68.7,109.1,67,109.1,64.7 M101.2,64.7
			c0-2.2,1.7-3.8,3.8-3.8c2.2,0,3.8,1.6,3.8,3.8c0,2.2-1.7,3.8-3.8,3.8C102.8,68.5,101.2,66.9,101.2,64.7 M107.7,64.7
			c0-1.6-1-2.8-2.6-2.8s-2.6,1.2-2.6,2.8c0,1.6,0.9,2.8,2.6,2.8S107.7,66.2,107.7,64.7"/>
		<path class="st3" d="M114.7,64.7c0-3,2.5-5.1,5.3-5.1s5.3,2.1,5.3,5.1c0,3-2.5,5.1-5.3,5.1S114.7,67.7,114.7,64.7 M124.1,64.7
			c0-2.4-1.8-4.1-4.1-4.1s-4.1,1.7-4.1,4.1c0,2.4,1.8,4.1,4.1,4.1S124.1,67,124.1,64.7 M116.2,64.7c0-2.2,1.7-3.8,3.8-3.8
			c2.2,0,3.8,1.6,3.8,3.8c0,2.2-1.7,3.8-3.8,3.8C117.8,68.5,116.2,66.9,116.2,64.7 M122.6,64.7c0-1.6-1-2.8-2.6-2.8
			c-1.7,0-2.6,1.2-2.6,2.8c0,1.6,0.9,2.8,2.6,2.8C121.7,67.5,122.6,66.2,122.6,64.7"/>
		<path class="st3" d="M127.8,69.6h-1.2v-9.9h4c2.5,0,3.9,1.5,3.9,3.5c0,1.3-0.6,2.4-1.8,2.9l2.1,3.5h-1.3l-2.3-4.1
			c1.4-0.2,2.2-1.1,2.2-2.4c0-1.5-1-2.5-2.8-2.5h-2.8V69.6z M128.1,65.4v-4.4h2.5c1.6,0,2.5,0.9,2.5,2.3c0,1.3-0.9,2.1-2.5,2.1
			H128.1z M129.3,69.6h-1.2v-4h2.5c0.1,0,0.2,0,0.3,0l2.3,4h-1.3l-1.8-3.1h-0.9V69.6z M130.5,64.5c0.9,0,1.4-0.5,1.4-1.3
			c0-0.8-0.5-1.3-1.4-1.3h-1.2v2.5H130.5z"/>
		<path class="st3" d="M140.9,65v-0.9h4.3v4.3c-0.9,0.8-2.1,1.4-4.3,1.4c-2.9,0-5.4-2.1-5.4-5.1c0-3,2.4-5.1,5.3-5.1
			c1.8,0,3.1,0.7,4,1.8l-0.8,0.7c-0.7-0.9-1.8-1.5-3.2-1.5c-2.3,0-4,1.7-4,4.1c0,2.4,1.7,4.1,4.1,4.1c1.6,0,2.5-0.4,3.3-1V65H140.9z
			 M142.9,66.2h-2v-0.9h3v2.5c-0.6,0.4-1.5,0.8-3,0.8c-2.3,0-3.9-1.6-3.9-3.8c0-2.2,1.6-3.8,3.8-3.8c1.3,0,2.3,0.5,3,1.4L143,63
			c-0.5-0.6-1.2-1.1-2.2-1.1c-1.6,0-2.5,1.2-2.5,2.8s0.9,2.9,2.7,2.9c1,0,1.5-0.2,1.9-0.4V66.2z"/>
		<path class="st3" d="M146.8,69.6h-1.2l4.8-10.1c0.1-0.1,0.3-0.1,0.3,0l4.8,10.1h-1.2l-3.7-8.1L146.8,69.6z M152.2,68.5h-3.4
			l-0.5,1.2h-1.2l0.9-2h5l0.9,2h-1.3L152.2,68.5z M150.5,62.2l2.4,5.2h-4.8L150.5,62.2z M149.6,66.5h1.7l-0.9-2L149.6,66.5z"/>
		<path class="st3" d="M157.5,69.6h-1.1V59.6c0-0.1,0-0.2,0.2,0l6.3,5.2v-5h1.1V67l-6.5-5.3V69.6z M158.9,64.6v5h-1.1v-7.3l6.5,5.3
			v-7.9h1.1v10.1c0,0.1,0,0.2-0.2,0L158.9,64.6z"/>
		<path class="st3" d="M167.1,59.7h1.2v9.9h-1.2V59.7z M168.6,59.7h1.2v9.9h-1.2V59.7z"/>
		<path class="st3" d="M176.3,69.8c-2.8,0-5.2-2.1-5.2-5.1c0-3,2.4-5.1,5-5.1c2.2,0,3.5,0.9,4.3,2.1l-0.9,0.6
			c-0.6-1-1.6-1.7-3.4-1.7c-2.1,0-3.8,1.7-3.8,4.1c0,2.4,1.7,4.1,3.9,4.1c1.7,0,2.7-0.7,3.5-1.9l0.9,0.6
			C179.7,69.1,178.3,69.8,176.3,69.8 M179.3,62.5l-0.9,0.6c-0.4-0.6-1-1.2-2.2-1.2c-1.5,0-2.4,1.2-2.4,2.8c0,1.6,0.9,2.8,2.4,2.8
			c1.3,0,1.9-0.6,2.3-1.4l0.9,0.6c-0.7,1.2-1.7,1.8-3.2,1.8c-2.1,0-3.7-1.6-3.7-3.8s1.6-3.8,3.6-3.8
			C177.8,60.9,178.7,61.6,179.3,62.5"/>
		<path class="st3" d="M181,64.7c0-3,2.5-5.1,5.3-5.1c2.9,0,5.3,2.1,5.3,5.1c0,3-2.5,5.1-5.3,5.1C183.4,69.8,181,67.7,181,64.7
			 M190.4,64.7c0-2.4-1.8-4.1-4.1-4.1s-4.1,1.7-4.1,4.1c0,2.4,1.8,4.1,4.1,4.1S190.4,67,190.4,64.7 M182.5,64.7
			c0-2.2,1.7-3.8,3.8-3.8c2.2,0,3.8,1.6,3.8,3.8c0,2.2-1.7,3.8-3.8,3.8C184.1,68.5,182.5,66.9,182.5,64.7 M188.9,64.7
			c0-1.6-1-2.8-2.6-2.8c-1.7,0-2.6,1.2-2.6,2.8c0,1.6,0.9,2.8,2.6,2.8C188,67.5,188.9,66.2,188.9,64.7"/>
		<rect x="63.5" y="100.2" class="st3" width="3.6" height="26.7"/>
		<path class="st3" d="M73.8,108.9h3.3v2.9c1.2-2.2,3.5-3.3,6.2-3.3c3.9,0,6.9,2.5,6.9,7.4v11.1h-3.3v-10.7c0-3.2-1.5-4.7-4.4-4.7
			c-3.2,0-5.4,2-5.4,5.5v10h-3.3V108.9z"/>
		<path class="st3" d="M93.8,111.7v-2.9h2.4v-7h3.3v7h4.5v2.9h-4.5v10.1c0,1.8,0.6,2.6,1.9,2.6c0.8,0,1.5-0.4,2-0.8l1.4,2.4
			c-0.8,0.8-2.1,1.3-3.8,1.3c-3,0-4.9-1.6-4.9-5.3v-10.3H93.8z"/>
		<path class="st3" d="M117.1,124.5c2.8,0,4.4-1,5.6-2.4l2.1,2c-1.6,2-4.1,3.2-7.7,3.2c-5.9,0-9.9-4.1-9.9-9.4
			c0-5.4,4.2-9.5,9.5-9.5c5.8,0,9.3,4.5,9.2,10.7h-15.1C111.3,122.5,113.6,124.5,117.1,124.5 M122.5,116.3c-0.4-2.8-2.2-5-5.6-5
			c-3.1,0-5.3,2-5.9,5H122.5z"/>
		<path class="st3" d="M129.8,133.7l2.8-1.4c1.2,2.5,3.5,3.9,6.3,3.9c3.7,0,5.9-2.2,5.9-6.3v-6c-1.3,2.2-3.6,3.5-6.5,3.5
			c-5,0-8.9-4.1-8.9-9.4c0-5.4,3.9-9.5,8.9-9.5c3,0,5.2,1.3,6.5,3.5v-3.1h3.3v21c0,5.7-3.4,9.2-9.1,9.2
			C134.6,139.1,131.5,137.1,129.8,133.7 M144.8,117.9c0-3.8-2.4-6.5-6-6.5c-3.6,0-6,2.7-6,6.5c0,3.8,2.4,6.5,6,6.5
			C142.4,124.4,144.8,121.7,144.8,117.9"/>
		<path class="st3" d="M153.8,108.9h3.3v3c1.2-2.4,3.2-3.5,5.3-3.5c1.3,0,2,0.2,2.8,0.7l-1.1,2.9c-0.6-0.3-1.3-0.5-2.2-0.5
			c-2.7,0-4.7,2.2-4.7,5.9v9.5h-3.3V108.9z"/>
		<path class="st3" d="M179.3,115.9c0-3.3-1.6-4.5-4.2-4.5c-2.3,0-3.8,0.9-5.1,2.6l-2.1-1.9c1.8-2.4,4.2-3.6,7.3-3.6
			c4.6,0,7.5,2.4,7.5,7.4v11.1h-3.3v-2c-1.2,1.5-3.2,2.5-5.6,2.5c-3.8,0-6.9-1.9-6.9-5.8c0-3.7,3.2-5.5,7.1-5.5h5.4V115.9z
			 M174,118.7c-2.2,0-3.9,0.8-3.9,2.9c0,2,1.5,3.1,4.1,3.1c2.7,0,5.1-1.4,5.1-3.9v-2H174z"/>
		<rect x="188.2" y="104.8" class="st3" width="3.4" height="22.1"/>
		<path class="st3" d="M118.2,87.4c0-3.3-1.6-4.5-4.2-4.5c-2.3,0-3.8,0.9-5.1,2.6l-2.1-1.9c1.8-2.4,4.2-3.6,7.3-3.6
			c4.6,0,7.4,2.4,7.4,7.4v11.1h-3.3v-2c-1.2,1.5-3.2,2.5-5.6,2.5c-3.8,0-6.8-1.9-6.8-5.8c0-3.7,3.2-5.5,7.1-5.5h5.4V87.4z M113,90.3
			c-2.2,0-3.9,0.8-3.9,2.8c0,2,1.5,3.1,4,3.1c2.7,0,5.1-1.4,5.1-3.9v-2H113z"/>
		<path class="st3" d="M127,80.5h3.3v3c1.1-2.4,3.2-3.5,5.3-3.5c1.3,0,2,0.2,2.8,0.7l-1.1,2.8c-0.6-0.3-1.3-0.5-2.2-0.5
			c-2.7,0-4.7,2.2-4.7,5.9v9.5H127V80.5z"/>
		<path class="st3" d="M141.9,80.5h3.3v3c1.2-2.4,3.2-3.5,5.3-3.5c1.3,0,2,0.2,2.8,0.7l-1.1,2.8c-0.6-0.3-1.3-0.5-2.2-0.5
			c-2.7,0-4.7,2.2-4.7,5.9v9.5h-3.3V80.5z"/>
		<path class="st3" d="M155.1,89.5c0-5.4,4.2-9.5,9.6-9.5c5.3,0,9.5,4.1,9.5,9.5c0,5.4-4.2,9.4-9.5,9.4
			C159.3,98.9,155.1,94.9,155.1,89.5 M170.7,89.5c0-3.8-2.5-6.6-6.1-6.6c-3.6,0-6.1,2.8-6.1,6.6c0,3.7,2.5,6.6,6.1,6.6
			C168.3,96.1,170.7,93.2,170.7,89.5"/>
		<polygon class="st3" points="176.2,98.3 186.3,83.3 177.5,83.3 177.5,80.5 191.6,80.5 191.6,80.7 181.5,95.6 191.4,95.6 
			191.4,98.5 176.2,98.5 		"/>
		<path class="st3" d="M154,55.5l0.9,0.7l-2.3,3l-0.9-0.7L154,55.5z M152.8,59.3l2.3-3L156,57l-2.3,3L152.8,59.3z"/>
		<path class="st12" d="M119.9,214.3c-2.5-2.1-4.8-4.2-7.2-6.3c-1.4-1.2-1.6-2.7-0.5-3.8c1.1-1.2,2.5-1,3.8,0.5c2,2.3,4,4.6,6,6.9
			c0.6,0.7,1,0.9,1.9,0.6c3.4-1.1,6.6-0.2,9.3,2c2.2,1.9,4.7,2.5,7.3,3.1c2,0.5,3.9,1.2,5.4,2.9c0.8,1,0.8,2.5-0.1,3.4
			c-0.1,0.1-0.2,0.1-0.3,0.2c-2,1.3-3.9,2.7-5.6,4.5c-2.1,2.2-5.1,2.6-8,3c-4.4,0.5-8.9,0.5-13.2-0.5c-3-0.7-5.8-1.8-7.5-4.7
			c-0.2-0.3-0.6-0.4-0.9-0.6c-0.9-0.5-1.8-0.9-2.6-1.5c-1.8-1.4-1.9-3.4,0-4.5c2-1.2,4.3-1.9,6.4-2.7c0.5-0.2,1.1-0.3,1.7-0.3
			C117.5,216.4,118.7,215.6,119.9,214.3 M140.2,221c-0.5,1.3-1.1,1.1-1.7,0.2c-0.6-0.9-1.3-1.7-2-2.5c-1.9-2.1-4-3.9-6.5-5
			c-2-0.9-4-1.1-6.1,0.1c0.5,0.4,1,0.8,1.5,0.7c1.4-0.2,2.5,0.3,3.5,1.1c1.3,1.1,1.8,2.9,3.5,3.6c0.1,0.1,0.2,0.6,0.2,0.8
			c0,0.1-0.5,0.2-0.7,0.2c-1.6-0.4-2.9-2.2-4.8-0.8c0,0-0.1,0-0.1,0c-1.7-0.9-3,0.7-4.5,0.8c-0.3,0-0.6,0.1-0.9,0.1
			c0.1-0.4,0.1-0.8,0.2-1.1c0.2-0.4,0.7-0.8,0.8-1.2c0.6-1.6-0.6-2.2-1.9-3.1c-1.9,2-3.7,4.1-5.7,6.1c-0.3,0.3-0.7,0.5-1,0.8
			c-0.2-0.3-0.5-0.7-0.7-1.1c-0.4,0.2-0.9,0.5-1.5,0.9c0.8,0.4,1.2,0.8,1.8,0.9c2.2,0.5,4.5,1.1,6.8,1.2c4.3,0.2,8.7,0.2,13,0
			c2.3-0.1,4.6-0.8,6.9-1.4C140.8,222.3,141.2,221.8,140.2,221 M115.9,218.3c-0.1-0.2-0.2-0.3-0.2-0.5c-2.5,0.5-4.9,1-7.1,2.5
			c-1.4,1-1.5,2.2,0,3.1c1.3,0.8,2.6,1.4,4.1,1.8c8.1,2.1,16.2,2.2,24.4,0.7c2.4-0.4,4.7-1.3,6.9-2.4c1.7-0.8,1.7-2.4,0.1-3.4
			c-1.9-1.2-4.1-2-6.5-1.9c0.7,0.6,1.4,1.1,2.2,1.5c1.1,0.4,2.3,0.7,2.3,2.1c0,1.5-1.5,1.6-2.5,2c0,0-0.1,0-0.1,0
			c-8.1,2.1-16.2,1.8-24.4,0.5c-1.1-0.2-2.1-0.5-3.1-1c-0.6-0.3-1.3-1-1.3-1.5c0-0.6,0.7-1.3,1.3-1.7c0.5-0.4,1.3-0.4,1.9-0.7
			C114.6,219.1,115.3,218.7,115.9,218.3 M140.1,226.9c-9,1.7-17.9,1.6-26.9,0c1.4,1,2.9,1.9,4.5,2.4c4.3,1.4,8.8,1.5,13.3,1
			c2.3-0.3,4.5-1,6.6-1.7C138.5,228.2,139.2,227.4,140.1,226.9 M128.9,217.6c-1.2-1.7-1.9-1.9-3.6-1.8c-0.7,0-1.5-0.3-2-0.8
			c-2.8-3.1-5.5-6.3-8.2-9.5c-0.6-0.7-1.2-1.1-2-0.4c-0.8,0.8-0.4,1.5,0.3,2.1c3.2,2.7,6.4,5.5,9.6,8.3c0.4,0.4,0.6,1,0.8,1.6
			c0.1,0.5,0,1,0,1.5C125.5,218.2,127.2,217.9,128.9,217.6"/>
		<path class="st12" d="M125.3,202.1c-0.2,0.4-0.3,0.6-0.4,0.7c-0.7,0.8-0.3,1.5,0.2,2.2c0.9,1.1,0.9,2.5,0,3.4
			c-0.2,0.2-0.5,0.2-0.8,0.3c-0.1-0.3-0.3-0.7-0.2-0.9c0.8-1,0.3-1.8-0.4-2.7c-0.8-1-0.7-2.3,0.2-3.1c0.2-0.2,0.5-0.3,0.7-0.3
			C124.9,201.9,125.1,202,125.3,202.1"/>
		<path class="st12" d="M130.5,209.8c1.5-1.3,0.2-2,0-2.9c-0.1-0.5,0-1.1,0.2-1.5c0.1-0.2,0.6-0.3,0.9-0.4c0.1,0.3,0.1,0.6,0.2,0.9
			c0.1,0.5,0.1,1,0.3,1.4c0.4,0.9,0.5,1.7-0.2,2.5c-0.1,0.2-0.5,0.2-0.7,0.2C131,210,130.8,209.9,130.5,209.8"/>
		<path class="st12" d="M128.9,222.8c-1,0-1.8,0.1-2.6,0c-0.2,0-0.4-0.5-0.6-0.7c0.7-0.3,1.4-0.8,2-0.7
			C128.3,221.4,129.3,221.8,128.9,222.8"/>
		<path class="st12" d="M135.3,221.6c-0.7-0.6-1.7,1.1-1.8-0.6c0-0.3,0.9-0.8,1.4-0.8c0.3,0,0.7,0.6,1.1,0.9
			C135.8,221.3,135.5,221.5,135.3,221.6"/>
		<path class="st12" d="M118.8,222c-0.7-0.2-1.2-0.4-1.8-0.6c0.5-0.4,1-0.8,1.6-1c0.2-0.1,0.7,0.6,1,0.9
			C119.3,221.5,119.1,221.7,118.8,222"/>
	</g>
	<g>
		<path class="st11" d="M94.3,150.5h-0.8v-5.1h1.6c1.2,0,1.9,0.7,1.9,1.6c0,1-0.7,1.6-1.9,1.6h-0.8V150.5z M95.1,148
			c0.8,0,1.1-0.3,1.1-0.9c0-0.6-0.3-0.9-1.1-0.9h-0.8v1.9H95.1z"/>
		<path class="st11" d="M98.6,150.5h-0.8v-5.1h1.6c1.2,0,1.9,0.7,1.9,1.6c0,0.7-0.4,1.2-1,1.4l1.2,2h-0.9l-1.1-1.9h-0.1h-0.8V150.5z
			 M99.4,147.9c0.8,0,1.1-0.3,1.1-0.9c0-0.6-0.3-0.9-1.1-0.9h-0.8v1.8H99.4z"/>
		<path class="st11" d="M102,147.9c0-1.5,1.2-2.6,2.6-2.6c1.5,0,2.6,1.1,2.6,2.6c0,1.5-1.2,2.6-2.6,2.6
			C103.2,150.5,102,149.4,102,147.9 M106.4,147.9c0-1.1-0.7-1.9-1.8-1.9c-1.1,0-1.8,0.8-1.8,1.9c0,1.1,0.7,1.9,1.8,1.9
			C105.7,149.8,106.4,149,106.4,147.9"/>
		<path class="st11" d="M108.1,145.4h1.4c1.7,0,2.7,1,2.7,2.5c0,1.5-1,2.5-2.7,2.5h-1.4V145.4z M109.5,149.8c1.3,0,1.9-0.8,1.9-1.8
			s-0.6-1.8-1.9-1.8h-0.6v3.7H109.5z"/>
		<path class="st11" d="M113.1,148.7v-3.3h0.8v3.2c0,0.8,0.4,1.2,1.1,1.2c0.7,0,1.1-0.4,1.1-1.2v-3.2h0.8v3.3c0,1.2-0.8,1.9-1.9,1.9
			C113.9,150.5,113.1,149.9,113.1,148.7"/>
		<path class="st11" d="M117.8,147.9c0-1.5,1.1-2.6,2.6-2.6c0.9,0,1.6,0.4,2,1l-0.6,0.4c-0.3-0.5-0.8-0.7-1.4-0.7
			c-1,0-1.7,0.8-1.7,1.9c0,1.1,0.7,1.9,1.8,1.9c0.7,0,1.1-0.2,1.5-0.7l0.6,0.4c-0.5,0.7-1.2,1-2.2,1
			C118.9,150.5,117.8,149.4,117.8,147.9"/>
		<polygon class="st11" points="124.5,146.1 123,146.1 123,145.4 126.8,145.4 126.8,146.1 125.3,146.1 125.3,150.5 124.5,150.5 		
			"/>
		<path class="st11" d="M127,147.9c0-1.5,1.2-2.6,2.6-2.6s2.6,1.1,2.6,2.6c0,1.5-1.2,2.6-2.6,2.6S127,149.4,127,147.9 M131.4,147.9
			c0-1.1-0.7-1.9-1.8-1.9c-1.1,0-1.8,0.8-1.8,1.9c0,1.1,0.7,1.9,1.8,1.9C130.6,149.8,131.4,149,131.4,147.9"/>
		<polygon class="st11" points="134.7,145.4 137.9,145.4 137.9,146.1 135.5,146.1 135.5,147.7 137.7,147.7 137.7,148.4 135.5,148.4 
			135.5,150.5 134.7,150.5 		"/>
		<path class="st11" d="M139.6,150.5h-0.8v-5.1h1.6c1.2,0,1.9,0.7,1.9,1.6c0,0.7-0.4,1.2-1,1.4l1.2,2h-0.9l-1.1-1.9h-0.1h-0.8V150.5
			z M140.4,147.9c0.8,0,1.1-0.3,1.1-0.9c0-0.6-0.3-0.9-1.1-0.9h-0.8v1.8H140.4z"/>
		<polygon class="st11" points="143.2,145.4 146.5,145.4 146.5,146.1 144,146.1 144,147.5 146.2,147.5 146.2,148.2 144,148.2 
			144,149.8 146.6,149.8 146.6,150.5 143.2,150.5 		"/>
		<path class="st11" d="M147.7,149.1c0.2,0.4,0.6,0.7,1.1,0.7c0.5,0,0.9-0.3,0.9-0.7c0-0.5-0.4-0.7-0.8-0.9l-0.4-0.2
			c-0.7-0.3-1.3-0.7-1.3-1.5c0-0.8,0.6-1.3,1.5-1.3c0.7,0,1.2,0.3,1.5,0.8l-0.6,0.4c-0.2-0.3-0.5-0.5-0.9-0.5
			c-0.4,0-0.7,0.2-0.7,0.6c0,0.4,0.3,0.5,0.8,0.8l0.4,0.2c0.8,0.3,1.3,0.7,1.3,1.6c0,0.9-0.7,1.4-1.7,1.4c-0.9,0-1.5-0.4-1.8-1.1
			L147.7,149.1z"/>
		<path class="st11" d="M151.1,147.9c0-1.5,1.1-2.6,2.6-2.6c0.9,0,1.6,0.4,2,1l-0.6,0.4c-0.3-0.5-0.8-0.7-1.4-0.7
			c-1,0-1.7,0.8-1.7,1.9c0,1.1,0.7,1.9,1.8,1.9c0.7,0,1.1-0.2,1.5-0.7l0.6,0.4c-0.5,0.7-1.2,1-2.2,1
			C152.3,150.5,151.1,149.4,151.1,147.9"/>
		<path class="st11" d="M156.3,147.9c0-1.5,1.2-2.6,2.6-2.6c1.5,0,2.6,1.1,2.6,2.6c0,1.5-1.2,2.6-2.6,2.6
			C157.5,150.5,156.3,149.4,156.3,147.9 M160.7,147.9c0-1.1-0.7-1.9-1.8-1.9c-1.1,0-1.8,0.8-1.8,1.9c0,1.1,0.7,1.9,1.8,1.9
			C160,149.8,160.7,149,160.7,147.9"/>
		<polygon class="st11" points="87.4,146.2 87.9,147.8 89.6,147.8 88.2,148.8 88.7,150.4 87.4,149.4 86,150.4 86.5,148.8 
			85.2,147.8 86.9,147.8 		"/>
		<polygon class="st11" points="168,146.2 168.5,147.8 170.2,147.8 168.9,148.8 169.4,150.4 168,149.4 166.7,150.4 167.2,148.8 
			165.8,147.8 167.5,147.8 		"/>
		<polygon class="st11" points="50,158.8 47.5,158.8 47.5,158.1 53.3,158.1 53.3,158.8 50.8,158.8 50.8,166.2 50,166.2 		"/>
		<path class="st11" d="M52.2,164.2c0-1.2,0.9-2.1,2.1-2.1c1.2,0,2.1,0.9,2.1,2.1c0,1.2-0.9,2.1-2.1,2.1
			C53.1,166.3,52.2,165.4,52.2,164.2 M55.6,164.2c0-0.8-0.5-1.5-1.3-1.5c-0.8,0-1.3,0.6-1.3,1.5c0,0.8,0.5,1.4,1.3,1.4
			C55.1,165.7,55.6,165.1,55.6,164.2"/>
		<path class="st11" d="M57,164.2c0-1.2,0.9-2.1,2-2.1c0.6,0,1.1,0.3,1.4,0.8v-5.2h0.7v8.5h-0.7v-0.7c-0.3,0.5-0.8,0.8-1.4,0.8
			C57.9,166.3,57,165.4,57,164.2 M60.4,164.2c0-0.8-0.5-1.4-1.3-1.4c-0.8,0-1.3,0.6-1.3,1.4c0,0.8,0.5,1.4,1.3,1.4
			C59.9,165.7,60.4,165.1,60.4,164.2"/>
		<path class="st11" d="M62.1,164.2c0-1.2,0.9-2.1,2.1-2.1c1.2,0,2.1,0.9,2.1,2.1c0,1.2-0.9,2.1-2.1,2.1
			C63.1,166.3,62.1,165.4,62.1,164.2 M65.6,164.2c0-0.8-0.5-1.5-1.3-1.5c-0.8,0-1.3,0.6-1.3,1.5c0,0.8,0.5,1.4,1.3,1.4
			C65,165.7,65.6,165.1,65.6,164.2"/>
		<path class="st11" d="M66.9,165.4l0.6-0.4c0.2,0.4,0.6,0.6,1.2,0.6c0.5,0,0.8-0.2,0.8-0.5c0-0.4-0.3-0.5-1-0.7
			c-0.8-0.2-1.3-0.5-1.3-1.2c0-0.6,0.5-1.1,1.3-1.1c0.7,0,1.1,0.3,1.4,0.6l-0.5,0.4c-0.2-0.3-0.5-0.4-0.9-0.4
			c-0.4,0-0.6,0.2-0.6,0.4c0,0.3,0.3,0.4,0.9,0.6c0.9,0.2,1.4,0.6,1.4,1.3c0,0.7-0.6,1.2-1.5,1.2C67.8,166.3,67.2,166,66.9,165.4"/>
		<path class="st11" d="M73.2,162.3H74v0.6c0.3-0.5,0.8-0.7,1.4-0.7c0.9,0,1.5,0.6,1.5,1.6v2.4h-0.7v-2.4c0-0.7-0.3-1-1-1
			c-0.7,0-1.2,0.4-1.2,1.2v2.2h-0.7V162.3z"/>
		<path class="st11" d="M77.9,164.7v-2.4h0.7v2.4c0,0.7,0.3,1,1,1c0.7,0,1.2-0.4,1.2-1.2v-2.2h0.7v3.9h-0.7v-0.6
			c-0.3,0.5-0.8,0.7-1.4,0.7C78.6,166.3,77.9,165.8,77.9,164.7"/>
		<path class="st11" d="M84.7,165.7c0.6,0,1-0.2,1.2-0.5l0.5,0.4c-0.4,0.4-0.9,0.7-1.7,0.7c-1.3,0-2.2-0.9-2.2-2.1
			c0-1.2,0.9-2.1,2.1-2.1c1.3,0,2,1,2,2.3h-3.3C83.4,165.2,83.9,165.7,84.7,165.7 M85.8,163.9c-0.1-0.6-0.5-1.1-1.2-1.1
			c-0.7,0-1.2,0.4-1.3,1.1H85.8z"/>
		<path class="st11" d="M87.1,165.4l0.6-0.4c0.2,0.4,0.6,0.6,1.2,0.6c0.5,0,0.8-0.2,0.8-0.5c0-0.4-0.3-0.5-1-0.7
			c-0.8-0.2-1.3-0.5-1.3-1.2c0-0.6,0.5-1.1,1.3-1.1c0.7,0,1.1,0.3,1.4,0.6l-0.5,0.4c-0.2-0.3-0.5-0.4-0.9-0.4
			c-0.4,0-0.6,0.2-0.6,0.4c0,0.3,0.3,0.4,0.9,0.6c0.9,0.2,1.4,0.6,1.4,1.3c0,0.7-0.6,1.2-1.5,1.2C88.1,166.3,87.5,166,87.1,165.4"/>
		<path class="st11" d="M90.9,162.9v-0.6h0.5v-1.5h0.7v1.5h1v0.6h-1v2.2c0,0.4,0.1,0.6,0.4,0.6c0.2,0,0.3-0.1,0.4-0.2l0.3,0.5
			c-0.2,0.2-0.5,0.3-0.8,0.3c-0.6,0-1.1-0.4-1.1-1.2v-2.3H90.9z"/>
		<path class="st11" d="M94.2,162.3h0.7v0.7c0.3-0.5,0.7-0.8,1.2-0.8c0.3,0,0.4,0,0.6,0.2l-0.3,0.6c-0.1-0.1-0.3-0.1-0.5-0.1
			c-0.6,0-1,0.5-1,1.3v2.1h-0.7V162.3z"/>
		<path class="st11" d="M97.1,164.2c0-1.2,0.9-2.1,2.1-2.1c1.2,0,2.1,0.9,2.1,2.1c0,1.2-0.9,2.1-2.1,2.1
			C98,166.3,97.1,165.4,97.1,164.2 M100.5,164.2c0-0.8-0.5-1.5-1.3-1.5c-0.8,0-1.3,0.6-1.3,1.5c0,0.8,0.5,1.4,1.3,1.4
			C99.9,165.7,100.5,165.1,100.5,164.2"/>
		<path class="st11" d="M101.8,165.4l0.6-0.4c0.2,0.4,0.6,0.6,1.2,0.6c0.5,0,0.8-0.2,0.8-0.5c0-0.4-0.3-0.5-1-0.7
			c-0.8-0.2-1.3-0.5-1.3-1.2c0-0.6,0.5-1.1,1.3-1.1c0.7,0,1.1,0.3,1.4,0.6l-0.5,0.4c-0.2-0.3-0.5-0.4-0.9-0.4
			c-0.4,0-0.6,0.2-0.6,0.4c0,0.3,0.3,0.4,0.9,0.6c0.9,0.2,1.4,0.6,1.4,1.3c0,0.7-0.6,1.2-1.5,1.2C102.7,166.3,102.1,166,101.8,165.4
			"/>
		<path class="st11" d="M108.2,162.3h0.7v0.7c0.3-0.5,0.8-0.8,1.4-0.8c1.1,0,1.9,0.9,1.9,2.1c0,1.2-0.8,2.1-1.9,2.1
			c-0.7,0-1.2-0.3-1.4-0.8v3.2h-0.7V162.3z M111.5,164.2c0-0.8-0.5-1.4-1.3-1.4c-0.8,0-1.3,0.6-1.3,1.4c0,0.8,0.5,1.4,1.3,1.4
			C111,165.7,111.5,165.1,111.5,164.2"/>
		<path class="st11" d="M113.2,162.3h0.7v0.7c0.3-0.5,0.7-0.8,1.2-0.8c0.3,0,0.4,0,0.6,0.2l-0.3,0.6c-0.1-0.1-0.3-0.1-0.5-0.1
			c-0.6,0-1,0.5-1,1.3v2.1h-0.7V162.3z"/>
		<path class="st11" d="M116.1,164.2c0-1.2,0.9-2.1,2.1-2.1c1.2,0,2.1,0.9,2.1,2.1c0,1.2-0.9,2.1-2.1,2.1
			C117.1,166.3,116.1,165.4,116.1,164.2 M119.6,164.2c0-0.8-0.5-1.5-1.3-1.5c-0.8,0-1.3,0.6-1.3,1.5c0,0.8,0.5,1.4,1.3,1.4
			C119,165.7,119.6,165.1,119.6,164.2"/>
		<path class="st11" d="M121,164.2c0-1.2,0.9-2.1,2-2.1c0.6,0,1.1,0.3,1.4,0.8v-5.2h0.7v8.5h-0.7v-0.7c-0.3,0.5-0.8,0.8-1.4,0.8
			C121.8,166.3,121,165.4,121,164.2 M124.4,164.2c0-0.8-0.5-1.4-1.3-1.4c-0.8,0-1.3,0.6-1.3,1.4c0,0.8,0.5,1.4,1.3,1.4
			C123.9,165.7,124.4,165.1,124.4,164.2"/>
		<path class="st11" d="M126.3,164.7v-2.4h0.7v2.4c0,0.7,0.3,1,1,1c0.7,0,1.2-0.4,1.2-1.2v-2.2h0.7v3.9h-0.7v-0.6
			c-0.3,0.5-0.8,0.7-1.4,0.7C126.9,166.3,126.3,165.8,126.3,164.7"/>
		<path class="st11" d="M130.9,164.2c0-1.2,0.9-2.1,2-2.1c0.7,0,1.2,0.2,1.6,0.6l-0.5,0.4c-0.3-0.3-0.6-0.4-1.1-0.4
			c-0.8,0-1.3,0.6-1.3,1.4c0,0.8,0.5,1.4,1.3,1.4c0.5,0,0.9-0.2,1.2-0.5l0.5,0.4c-0.4,0.4-0.9,0.7-1.7,0.7
			C131.7,166.3,130.9,165.4,130.9,164.2"/>
		<path class="st11" d="M135.1,162.9v-0.6h0.5v-1.5h0.7v1.5h1v0.6h-1v2.2c0,0.4,0.1,0.6,0.4,0.6c0.2,0,0.3-0.1,0.4-0.2l0.3,0.5
			c-0.2,0.2-0.5,0.3-0.8,0.3c-0.6,0-1.1-0.4-1.1-1.2v-2.3H135.1z"/>
		<path class="st11" d="M138.1,164.2c0-1.2,0.9-2.1,2.1-2.1c1.2,0,2.1,0.9,2.1,2.1c0,1.2-0.9,2.1-2.1,2.1
			C139,166.3,138.1,165.4,138.1,164.2 M141.5,164.2c0-0.8-0.5-1.5-1.3-1.5c-0.8,0-1.3,0.6-1.3,1.5c0,0.8,0.5,1.4,1.3,1.4
			C141,165.7,141.5,165.1,141.5,164.2"/>
		<path class="st11" d="M142.8,165.4l0.6-0.4c0.2,0.4,0.6,0.6,1.2,0.6c0.5,0,0.8-0.2,0.8-0.5c0-0.4-0.3-0.5-1-0.7
			c-0.8-0.2-1.3-0.5-1.3-1.2c0-0.6,0.5-1.1,1.3-1.1c0.7,0,1.1,0.3,1.4,0.6l-0.5,0.4c-0.2-0.3-0.5-0.4-0.9-0.4
			c-0.4,0-0.6,0.2-0.6,0.4c0,0.3,0.3,0.4,0.9,0.6c0.9,0.2,1.4,0.6,1.4,1.3c0,0.7-0.6,1.2-1.5,1.2C143.8,166.3,143.2,166,142.8,165.4
			"/>
		<path class="st11" d="M148.8,165.4l0.6-0.4c0.2,0.4,0.6,0.6,1.2,0.6c0.5,0,0.8-0.2,0.8-0.5c0-0.4-0.3-0.5-1-0.7
			c-0.8-0.2-1.3-0.5-1.3-1.2c0-0.6,0.5-1.1,1.3-1.1c0.7,0,1.1,0.3,1.4,0.6l-0.5,0.4c-0.2-0.3-0.5-0.4-0.9-0.4
			c-0.4,0-0.6,0.2-0.6,0.4c0,0.3,0.3,0.4,0.9,0.6c0.9,0.2,1.4,0.6,1.4,1.3c0,0.7-0.6,1.2-1.5,1.2C149.8,166.3,149.2,166,148.8,165.4
			"/>
		<path class="st11" d="M152.7,164.2c0-1.2,0.9-2.1,2.1-2.1c1.2,0,2.1,0.9,2.1,2.1c0,1.2-0.9,2.1-2.1,2.1
			C153.7,166.3,152.7,165.4,152.7,164.2 M156.2,164.2c0-0.8-0.5-1.5-1.3-1.5c-0.8,0-1.3,0.6-1.3,1.5c0,0.8,0.5,1.4,1.3,1.4
			C155.6,165.7,156.2,165.1,156.2,164.2"/>
		<path class="st11" d="M157.9,162.3h0.7v0.6c0.3-0.5,0.8-0.7,1.4-0.7c0.9,0,1.5,0.6,1.5,1.6v2.4h-0.7v-2.4c0-0.7-0.3-1-1-1
			c-0.7,0-1.2,0.4-1.2,1.2v2.2h-0.7V162.3z"/>
		<path class="st11" d="M166.7,165.7c0.6,0,1-0.2,1.2-0.5l0.5,0.4c-0.4,0.4-0.9,0.7-1.7,0.7c-1.3,0-2.2-0.9-2.2-2.1
			c0-1.2,0.9-2.1,2.1-2.1c1.3,0,2,1,2,2.3h-3.3C165.5,165.2,166,165.7,166.7,165.7 M167.9,163.9c-0.1-0.6-0.5-1.1-1.2-1.1
			c-0.7,0-1.2,0.4-1.3,1.1H167.9z"/>
		<rect x="169.7" y="157.7" class="st11" width="0.7" height="8.5"/>
		<path class="st11" d="M174.2,163.8c0-0.7-0.4-1-0.9-1c-0.5,0-0.8,0.2-1.1,0.6l-0.5-0.4c0.4-0.5,0.9-0.8,1.6-0.8
			c1,0,1.6,0.5,1.6,1.6v2.4h-0.7v-0.4c-0.3,0.3-0.7,0.5-1.2,0.5c-0.8,0-1.5-0.4-1.5-1.3c0-0.8,0.7-1.2,1.5-1.2L174.2,163.8
			L174.2,163.8z M173,164.4c-0.5,0-0.9,0.2-0.9,0.6c0,0.4,0.3,0.7,0.9,0.7c0.6,0,1.1-0.3,1.1-0.9v-0.4H173z"/>
		<path class="st11" d="M176.9,165.5v0.7h-0.7v-8.5h0.7v5.2c0.3-0.5,0.8-0.8,1.4-0.8c1.1,0,1.9,0.9,1.9,2.1c0,1.2-0.8,2.1-1.9,2.1
			C177.6,166.3,177.1,166,176.9,165.5 M179.5,164.2c0-0.8-0.5-1.4-1.3-1.4c-0.8,0-1.3,0.6-1.3,1.4c0,0.8,0.5,1.4,1.3,1.4
			C178.9,165.7,179.5,165.1,179.5,164.2"/>
		<path class="st11" d="M180.9,164.2c0-1.2,0.9-2.1,2.1-2.1c1.2,0,2.1,0.9,2.1,2.1c0,1.2-0.9,2.1-2.1,2.1
			C181.8,166.3,180.9,165.4,180.9,164.2 M184.3,164.2c0-0.8-0.5-1.5-1.3-1.5c-0.8,0-1.3,0.6-1.3,1.5c0,0.8,0.5,1.4,1.3,1.4
			C183.8,165.7,184.3,165.1,184.3,164.2"/>
		<path class="st11" d="M186.1,162.3h0.7v0.7c0.3-0.5,0.7-0.8,1.2-0.8c0.3,0,0.4,0,0.6,0.2l-0.3,0.6c-0.1-0.1-0.3-0.1-0.5-0.1
			c-0.6,0-1,0.5-1,1.3v2.1h-0.7V162.3z"/>
		<path class="st11" d="M191.6,163.8c0-0.7-0.4-1-0.9-1c-0.5,0-0.8,0.2-1.1,0.6l-0.5-0.4c0.4-0.5,0.9-0.8,1.6-0.8
			c1,0,1.6,0.5,1.6,1.6v2.4h-0.7v-0.4c-0.3,0.3-0.7,0.5-1.2,0.5c-0.8,0-1.5-0.4-1.5-1.3c0-0.8,0.7-1.2,1.5-1.2L191.6,163.8
			L191.6,163.8z M190.5,164.4c-0.5,0-0.9,0.2-0.9,0.6c0,0.4,0.3,0.7,0.9,0.7c0.6,0,1.1-0.3,1.1-0.9v-0.4H190.5z"/>
		<path class="st11" d="M193.3,164.2c0-1.2,0.9-2.1,2-2.1c0.6,0,1.1,0.3,1.4,0.8v-5.2h0.7v8.5h-0.7v-0.7c-0.3,0.5-0.8,0.8-1.4,0.8
			C194.2,166.3,193.3,165.4,193.3,164.2 M196.7,164.2c0-0.8-0.5-1.4-1.3-1.4c-0.8,0-1.3,0.6-1.3,1.4c0,0.8,0.5,1.4,1.3,1.4
			C196.2,165.7,196.7,165.1,196.7,164.2"/>
		<path class="st11" d="M198.4,164.2c0-1.2,0.9-2.1,2.1-2.1c1.2,0,2.1,0.9,2.1,2.1c0,1.2-0.9,2.1-2.1,2.1
			C199.4,166.3,198.4,165.4,198.4,164.2 M201.9,164.2c0-0.8-0.5-1.5-1.3-1.5c-0.8,0-1.3,0.6-1.3,1.5c0,0.8,0.5,1.4,1.3,1.4
			C201.3,165.7,201.9,165.1,201.9,164.2"/>
		<path class="st11" d="M203.2,165.4l0.6-0.4c0.2,0.4,0.6,0.6,1.2,0.6c0.5,0,0.8-0.2,0.8-0.5c0-0.4-0.3-0.5-1-0.7
			c-0.8-0.2-1.3-0.5-1.3-1.2c0-0.6,0.5-1.1,1.3-1.1c0.7,0,1.1,0.3,1.4,0.6l-0.5,0.4c-0.2-0.3-0.5-0.4-0.9-0.4
			c-0.4,0-0.6,0.2-0.6,0.4c0,0.3,0.3,0.4,0.9,0.6c0.9,0.2,1.4,0.6,1.4,1.3c0,0.7-0.6,1.2-1.5,1.2C204.1,166.3,203.5,166,203.2,165.4
			"/>
		<path class="st11" d="M35.1,178.6c0-1.2,0.9-2.1,2-2.1c0.7,0,1.2,0.2,1.6,0.6l-0.5,0.4c-0.3-0.3-0.6-0.4-1.1-0.4
			c-0.8,0-1.3,0.6-1.3,1.4c0,0.8,0.5,1.4,1.3,1.4c0.5,0,0.9-0.2,1.2-0.5l0.5,0.4c-0.4,0.4-0.9,0.7-1.7,0.7
			C36,180.7,35.1,179.8,35.1,178.6"/>
		<path class="st11" d="M39.4,178.6c0-1.2,0.9-2.1,2.1-2.1c1.2,0,2.1,0.9,2.1,2.1c0,1.2-0.9,2.1-2.1,2.1
			C40.3,180.7,39.4,179.8,39.4,178.6 M42.8,178.6c0-0.8-0.5-1.5-1.3-1.5c-0.8,0-1.3,0.6-1.3,1.5c0,0.8,0.5,1.4,1.3,1.4
			C42.3,180.1,42.8,179.5,42.8,178.6"/>
		<path class="st11" d="M44.5,176.7h0.7v0.6c0.3-0.5,0.8-0.7,1.4-0.7c0.9,0,1.5,0.6,1.5,1.6v2.4h-0.7v-2.4c0-0.7-0.3-1-1-1
			c-0.7,0-1.2,0.4-1.2,1.2v2.2h-0.7V176.7z"/>
		<path class="st11" d="M51.4,175.1c0-0.3,0.2-0.5,0.5-0.5c0.3,0,0.5,0.2,0.5,0.5c0,0.3-0.2,0.5-0.5,0.5
			C51.6,175.6,51.4,175.4,51.4,175.1 M51.5,176.7h0.7v3.9h-0.7V176.7z"/>
		<path class="st11" d="M53.5,176.7h0.7v0.6c0.3-0.5,0.8-0.7,1.4-0.7c0.9,0,1.5,0.6,1.5,1.6v2.4h-0.7v-2.4c0-0.7-0.3-1-1-1
			c-0.7,0-1.2,0.4-1.2,1.2v2.2h-0.7V176.7z"/>
		<path class="st11" d="M58.1,182.1l0.6-0.3c0.3,0.6,0.8,0.9,1.4,0.9c0.8,0,1.3-0.5,1.3-1.4v-1.3c-0.3,0.5-0.8,0.8-1.4,0.8
			c-1.1,0-2-0.9-2-2.1c0-1.2,0.9-2.1,2-2.1c0.6,0,1.1,0.3,1.4,0.8v-0.7h0.7v4.6c0,1.2-0.7,2-2,2C59.2,183.3,58.5,182.8,58.1,182.1
			 M61.4,178.6c0-0.8-0.5-1.4-1.3-1.4c-0.8,0-1.3,0.6-1.3,1.4c0,0.8,0.5,1.4,1.3,1.4C60.9,180.1,61.4,179.5,61.4,178.6"/>
		<path class="st11" d="M63.4,176.7h0.7v0.7c0.3-0.5,0.7-0.8,1.2-0.8c0.3,0,0.4,0,0.6,0.2l-0.3,0.6c-0.1-0.1-0.3-0.1-0.5-0.1
			c-0.6,0-1,0.5-1,1.3v2.1h-0.7V176.7z"/>
		<path class="st11" d="M68.4,180.1c0.6,0,1-0.2,1.2-0.5l0.5,0.4c-0.4,0.4-0.9,0.7-1.7,0.7c-1.3,0-2.2-0.9-2.2-2.1
			c0-1.2,0.9-2.1,2.1-2.1c1.3,0,2,1,2,2.3H67C67.1,179.6,67.6,180.1,68.4,180.1 M69.6,178.3c-0.1-0.6-0.5-1.1-1.2-1.1
			c-0.7,0-1.2,0.4-1.3,1.1H69.6z"/>
		<path class="st11" d="M71.1,178.6c0-1.2,0.9-2.1,2-2.1c0.6,0,1.1,0.3,1.4,0.8v-5.2h0.7v8.5h-0.7v-0.7c-0.3,0.5-0.8,0.8-1.4,0.8
			C71.9,180.7,71.1,179.8,71.1,178.6 M74.5,178.6c0-0.8-0.5-1.4-1.3-1.4c-0.8,0-1.3,0.6-1.3,1.4c0,0.8,0.5,1.4,1.3,1.4
			C73.9,180.1,74.5,179.5,74.5,178.6"/>
		<path class="st11" d="M76.3,175.1c0-0.3,0.2-0.5,0.5-0.5c0.3,0,0.5,0.2,0.5,0.5c0,0.3-0.2,0.5-0.5,0.5
			C76.6,175.6,76.3,175.4,76.3,175.1 M76.5,176.7h0.7v3.9h-0.7V176.7z"/>
		<path class="st11" d="M80.3,180.1c0.6,0,1-0.2,1.2-0.5L82,180c-0.4,0.4-0.9,0.7-1.7,0.7c-1.3,0-2.2-0.9-2.2-2.1
			c0-1.2,0.9-2.1,2.1-2.1c1.3,0,2,1,2,2.3H79C79.1,179.6,79.6,180.1,80.3,180.1 M81.5,178.3c-0.1-0.6-0.5-1.1-1.2-1.1
			c-0.7,0-1.2,0.4-1.3,1.1H81.5z"/>
		<path class="st11" d="M83.2,176.7H84v0.6c0.3-0.5,0.8-0.7,1.4-0.7c0.9,0,1.5,0.6,1.5,1.6v2.4h-0.7v-2.4c0-0.7-0.3-1-1-1
			c-0.7,0-1.2,0.4-1.2,1.2v2.2h-0.7V176.7z"/>
		<path class="st11" d="M87.6,177.3v-0.6h0.5v-1.5h0.7v1.5h1v0.6h-1v2.2c0,0.4,0.1,0.6,0.4,0.6c0.2,0,0.3-0.1,0.4-0.2l0.3,0.5
			c-0.2,0.2-0.5,0.3-0.8,0.3c-0.6,0-1.1-0.4-1.1-1.2v-2.3H87.6z"/>
		<path class="st11" d="M92.7,180.1c0.6,0,1-0.2,1.2-0.5l0.5,0.4c-0.4,0.4-0.9,0.7-1.7,0.7c-1.3,0-2.2-0.9-2.2-2.1
			c0-1.2,0.9-2.1,2.1-2.1c1.3,0,2,1,2,2.3h-3.3C91.5,179.6,92,180.1,92.7,180.1 M93.9,178.3c-0.1-0.6-0.5-1.1-1.2-1.1
			c-0.7,0-1.2,0.4-1.3,1.1H93.9z"/>
		<path class="st11" d="M95.2,179.8l0.6-0.4c0.2,0.4,0.6,0.6,1.2,0.6c0.5,0,0.8-0.2,0.8-0.5c0-0.4-0.3-0.5-1-0.7
			c-0.8-0.2-1.3-0.5-1.3-1.2c0-0.6,0.5-1.1,1.3-1.1c0.7,0,1.1,0.3,1.4,0.6l-0.5,0.4c-0.2-0.3-0.5-0.4-0.9-0.4
			c-0.4,0-0.6,0.2-0.6,0.4c0,0.3,0.3,0.4,0.9,0.6c0.9,0.2,1.4,0.6,1.4,1.3c0,0.7-0.6,1.2-1.5,1.2C96.2,180.7,95.6,180.4,95.2,179.8"
			/>
		<path class="st11" d="M101.3,178.6c0-1.2,0.9-2.1,2-2.1c0.6,0,1.1,0.3,1.4,0.8v-5.2h0.7v8.5h-0.7v-0.7c-0.3,0.5-0.8,0.8-1.4,0.8
			C102.2,180.7,101.3,179.8,101.3,178.6 M104.7,178.6c0-0.8-0.5-1.4-1.3-1.4c-0.8,0-1.3,0.6-1.3,1.4c0,0.8,0.5,1.4,1.3,1.4
			C104.2,180.1,104.7,179.5,104.7,178.6"/>
		<path class="st11" d="M108.6,180.1c0.6,0,1-0.2,1.2-0.5l0.5,0.4c-0.4,0.4-0.9,0.7-1.7,0.7c-1.3,0-2.2-0.9-2.2-2.1
			c0-1.2,0.9-2.1,2.1-2.1c1.3,0,2,1,2,2.3h-3.3C107.3,179.6,107.8,180.1,108.6,180.1 M109.8,178.3c-0.1-0.6-0.5-1.1-1.2-1.1
			c-0.7,0-1.2,0.4-1.3,1.1H109.8z"/>
		<path class="st11" d="M113.7,176.7h0.7v0.7c0.3-0.5,0.8-0.8,1.4-0.8c1.1,0,1.9,0.9,1.9,2.1c0,1.2-0.8,2.1-1.9,2.1
			c-0.7,0-1.2-0.3-1.4-0.8v3.2h-0.7V176.7z M117,178.6c0-0.8-0.5-1.4-1.3-1.4c-0.8,0-1.3,0.6-1.3,1.4c0,0.8,0.5,1.4,1.3,1.4
			C116.5,180.1,117,179.5,117,178.6"/>
		<path class="st11" d="M118.8,176.7h0.7v0.7c0.3-0.5,0.7-0.8,1.2-0.8c0.3,0,0.4,0,0.6,0.2l-0.3,0.6c-0.1-0.1-0.3-0.1-0.5-0.1
			c-0.6,0-1,0.5-1,1.3v2.1h-0.7V176.7z"/>
		<path class="st11" d="M121.7,178.6c0-1.2,0.9-2.1,2.1-2.1c1.2,0,2.1,0.9,2.1,2.1c0,1.2-0.9,2.1-2.1,2.1
			C122.6,180.7,121.7,179.8,121.7,178.6 M125.1,178.6c0-0.8-0.5-1.5-1.3-1.5c-0.8,0-1.3,0.6-1.3,1.5c0,0.8,0.5,1.4,1.3,1.4
			C124.5,180.1,125.1,179.5,125.1,178.6"/>
		<polygon class="st11" points="126.1,176.7 127,176.7 128.2,179.3 129.4,176.7 130.1,176.7 128.2,180.7 128.1,180.7 		"/>
		<path class="st11" d="M132.6,180.1c0.6,0,1-0.2,1.2-0.5l0.5,0.4c-0.4,0.4-0.9,0.7-1.7,0.7c-1.3,0-2.2-0.9-2.2-2.1
			c0-1.2,0.9-2.1,2.1-2.1c1.3,0,2,1,2,2.3h-3.3C131.3,179.6,131.8,180.1,132.6,180.1 M133.7,178.3c-0.1-0.6-0.5-1.1-1.2-1.1
			c-0.7,0-1.2,0.4-1.3,1.1H133.7z"/>
		<path class="st11" d="M137.4,180.1c0.6,0,1-0.2,1.2-0.5l0.5,0.4c-0.4,0.4-0.9,0.7-1.7,0.7c-1.3,0-2.2-0.9-2.2-2.1
			c0-1.2,0.9-2.1,2.1-2.1c1.3,0,2,1,2,2.3H136C136.1,179.6,136.6,180.1,137.4,180.1 M138.5,178.3c-0.1-0.6-0.5-1.1-1.2-1.1
			c-0.7,0-1.2,0.4-1.3,1.1H138.5z"/>
		<path class="st11" d="M140,178.6c0-1.2,0.9-2.1,2-2.1c0.6,0,1.1,0.3,1.4,0.8v-5.2h0.7v8.5h-0.7v-0.7c-0.3,0.5-0.8,0.8-1.4,0.8
			C140.9,180.7,140,179.8,140,178.6 M143.4,178.6c0-0.8-0.5-1.4-1.3-1.4c-0.8,0-1.3,0.6-1.3,1.4c0,0.8,0.5,1.4,1.3,1.4
			C142.9,180.1,143.4,179.5,143.4,178.6"/>
		<path class="st11" d="M145.1,178.6c0-1.2,0.9-2.1,2.1-2.1c1.2,0,2.1,0.9,2.1,2.1c0,1.2-0.9,2.1-2.1,2.1
			C146.1,180.7,145.1,179.8,145.1,178.6 M148.6,178.6c0-0.8-0.5-1.5-1.3-1.5c-0.8,0-1.3,0.6-1.3,1.5c0,0.8,0.5,1.4,1.3,1.4
			C148,180.1,148.6,179.5,148.6,178.6"/>
		<path class="st11" d="M150.3,176.7h0.7v0.7c0.3-0.5,0.7-0.8,1.2-0.8c0.3,0,0.4,0,0.6,0.2l-0.3,0.6c-0.1-0.1-0.3-0.1-0.5-0.1
			c-0.6,0-1,0.5-1,1.3v2.1h-0.7V176.7z"/>
		<path class="st11" d="M155.3,180.1c0.6,0,1-0.2,1.2-0.5l0.5,0.4c-0.4,0.4-0.9,0.7-1.7,0.7c-1.3,0-2.2-0.9-2.2-2.1
			c0-1.2,0.9-2.1,2.1-2.1c1.3,0,2,1,2,2.3H154C154.1,179.6,154.6,180.1,155.3,180.1 M156.5,178.3c-0.1-0.6-0.5-1.1-1.2-1.1
			c-0.7,0-1.2,0.4-1.3,1.1H156.5z"/>
		<path class="st11" d="M157.8,179.8l0.6-0.4c0.2,0.4,0.6,0.6,1.2,0.6c0.5,0,0.8-0.2,0.8-0.5c0-0.4-0.3-0.5-1-0.7
			c-0.8-0.2-1.3-0.5-1.3-1.2c0-0.6,0.5-1.1,1.3-1.1c0.7,0,1.1,0.3,1.4,0.6l-0.5,0.4c-0.2-0.3-0.5-0.4-0.9-0.4
			c-0.4,0-0.6,0.2-0.6,0.4c0,0.3,0.3,0.4,0.9,0.6c0.9,0.2,1.4,0.6,1.4,1.3c0,0.7-0.6,1.2-1.5,1.2
			C158.8,180.7,158.2,180.4,157.8,179.8"/>
		<rect x="164.2" y="172.1" class="st11" width="0.7" height="8.5"/>
		<path class="st11" d="M166,178.6c0-1.2,0.9-2.1,2.1-2.1c1.2,0,2.1,0.9,2.1,2.1c0,1.2-0.9,2.1-2.1,2.1
			C166.9,180.7,166,179.8,166,178.6 M169.4,178.6c0-0.8-0.5-1.5-1.3-1.5c-0.8,0-1.3,0.6-1.3,1.5c0,0.8,0.5,1.4,1.3,1.4
			C168.9,180.1,169.4,179.5,169.4,178.6"/>
		<path class="st11" d="M170.8,178.6c0-1.2,0.9-2.1,2-2.1c0.7,0,1.2,0.2,1.6,0.6l-0.5,0.4c-0.3-0.3-0.6-0.4-1.1-0.4
			c-0.8,0-1.3,0.6-1.3,1.4c0,0.8,0.5,1.4,1.3,1.4c0.5,0,0.9-0.2,1.2-0.5l0.5,0.4c-0.4,0.4-0.9,0.7-1.7,0.7
			C171.7,180.7,170.8,179.8,170.8,178.6"/>
		<path class="st11" d="M177.9,178.2c0-0.7-0.4-1-0.9-1c-0.5,0-0.8,0.2-1.1,0.6l-0.5-0.4c0.4-0.5,0.9-0.8,1.6-0.8
			c1,0,1.6,0.5,1.6,1.6v2.4h-0.7v-0.4c-0.3,0.3-0.7,0.5-1.2,0.5c-0.8,0-1.5-0.4-1.5-1.3c0-0.8,0.7-1.2,1.5-1.2L177.9,178.2
			L177.9,178.2z M176.8,178.8c-0.5,0-0.9,0.2-0.9,0.6c0,0.4,0.3,0.7,0.9,0.7c0.6,0,1.1-0.3,1.1-0.9v-0.4H176.8z"/>
		<rect x="179.9" y="172.1" class="st11" width="0.7" height="8.5"/>
		<path class="st11" d="M183.8,180.1c0.6,0,1-0.2,1.2-0.5l0.5,0.4c-0.4,0.4-0.9,0.7-1.7,0.7c-1.3,0-2.2-0.9-2.2-2.1
			c0-1.2,0.9-2.1,2.1-2.1c1.3,0,2,1,2,2.3h-3.3C182.5,179.6,183,180.1,183.8,180.1 M184.9,178.3c-0.1-0.6-0.5-1.1-1.2-1.1
			c-0.7,0-1.2,0.4-1.3,1.1H184.9z"/>
		<path class="st11" d="M186.2,179.8l0.6-0.4c0.2,0.4,0.6,0.6,1.2,0.6c0.5,0,0.8-0.2,0.8-0.5c0-0.4-0.3-0.5-1-0.7
			c-0.8-0.2-1.3-0.5-1.3-1.2c0-0.6,0.5-1.1,1.3-1.1c0.7,0,1.1,0.3,1.4,0.6l-0.5,0.4c-0.2-0.3-0.5-0.4-0.9-0.4
			c-0.4,0-0.6,0.2-0.6,0.4c0,0.3,0.3,0.4,0.9,0.6c0.9,0.2,1.4,0.6,1.4,1.3c0,0.7-0.6,1.2-1.5,1.2
			C187.2,180.7,186.6,180.4,186.2,179.8"/>
		<path class="st11" d="M190.6,180.6c-0.2-0.1-0.3-0.3-0.3-0.5c0-0.3,0.3-0.6,0.6-0.6c0.3,0,0.6,0.2,0.6,0.6c0,0.2-0.1,0.3-0.2,0.5
			l-0.6,1h-0.4L190.6,180.6z"/>
		<path class="st11" d="M194.7,172.1h0.7v5.2c0.3-0.5,0.8-0.7,1.4-0.7c0.9,0,1.5,0.6,1.5,1.6v2.4h-0.7v-2.4c0-0.7-0.3-1-1-1
			c-0.7,0-1.2,0.4-1.2,1.2v2.2h-0.7V172.1z"/>
		<path class="st11" d="M201.3,180.1c0.6,0,1-0.2,1.2-0.5l0.5,0.4c-0.4,0.4-0.9,0.7-1.7,0.7c-1.3,0-2.2-0.9-2.2-2.1
			c0-1.2,0.9-2.1,2.1-2.1c1.3,0,2,1,2,2.3h-3.3C200,179.6,200.5,180.1,201.3,180.1 M202.5,178.3c-0.1-0.6-0.5-1.1-1.2-1.1
			c-0.7,0-1.2,0.4-1.3,1.1H202.5z"/>
		<path class="st11" d="M204,178.6c0-1.2,0.9-2.1,2-2.1c0.7,0,1.2,0.2,1.6,0.6l-0.5,0.4c-0.3-0.3-0.6-0.4-1.1-0.4
			c-0.8,0-1.3,0.6-1.3,1.4c0,0.8,0.5,1.4,1.3,1.4c0.5,0,0.9-0.2,1.2-0.5l0.5,0.4c-0.4,0.4-0.9,0.7-1.7,0.7
			C204.9,180.7,204,179.8,204,178.6"/>
		<path class="st11" d="M208.5,172.1h0.7v5.2c0.3-0.5,0.8-0.7,1.4-0.7c0.9,0,1.5,0.6,1.5,1.6v2.4h-0.7v-2.4c0-0.7-0.3-1-1-1
			c-0.7,0-1.2,0.4-1.2,1.2v2.2h-0.7V172.1z"/>
		<path class="st11" d="M213.1,178.6c0-1.2,0.9-2.1,2.1-2.1c1.2,0,2.1,0.9,2.1,2.1c0,1.2-0.9,2.1-2.1,2.1
			C214,180.7,213.1,179.8,213.1,178.6 M216.5,178.6c0-0.8-0.5-1.5-1.3-1.5c-0.8,0-1.3,0.6-1.3,1.5c0,0.8,0.5,1.4,1.3,1.4
			C216,180.1,216.5,179.5,216.5,178.6"/>
		<path class="st11" d="M217.8,179.8l0.6-0.4c0.2,0.4,0.6,0.6,1.2,0.6c0.5,0,0.8-0.2,0.8-0.5c0-0.4-0.3-0.5-1-0.7
			c-0.8-0.2-1.3-0.5-1.3-1.2c0-0.6,0.5-1.1,1.3-1.1c0.7,0,1.1,0.3,1.4,0.6l-0.5,0.4c-0.2-0.3-0.5-0.4-0.9-0.4
			c-0.4,0-0.6,0.2-0.6,0.4c0,0.3,0.3,0.4,0.9,0.6c0.9,0.2,1.4,0.6,1.4,1.3c0,0.7-0.6,1.2-1.5,1.2
			C218.7,180.7,218.1,180.4,217.8,179.8"/>
		<path class="st11" d="M59.4,193c0-1.2,0.9-2.1,2-2.1c0.7,0,1.2,0.2,1.6,0.6l-0.5,0.4c-0.3-0.3-0.6-0.4-1.1-0.4
			c-0.8,0-1.3,0.6-1.3,1.4c0,0.8,0.5,1.4,1.3,1.4c0.5,0,0.9-0.2,1.2-0.5l0.5,0.4c-0.4,0.4-0.9,0.7-1.7,0.7
			C60.3,195.1,59.4,194.2,59.4,193"/>
		<path class="st11" d="M63.7,193c0-1.2,0.9-2.1,2.1-2.1c1.2,0,2.1,0.9,2.1,2.1c0,1.2-0.9,2.1-2.1,2.1
			C64.6,195.1,63.7,194.2,63.7,193 M67.1,193c0-0.8-0.5-1.5-1.3-1.5c-0.8,0-1.3,0.6-1.3,1.5c0,0.8,0.5,1.4,1.3,1.4
			C66.6,194.5,67.1,193.9,67.1,193"/>
		<path class="st11" d="M68.9,191.1h0.7v0.6c0.3-0.5,0.8-0.7,1.4-0.7c0.9,0,1.5,0.6,1.5,1.6v2.4h-0.7v-2.4c0-0.7-0.3-1-1-1
			c-0.7,0-1.2,0.4-1.2,1.2v2.2h-0.7V191.1z"/>
		<path class="st11" d="M75.8,191.1h0.7v0.7c0.3-0.5,0.8-0.8,1.4-0.8c1.1,0,1.9,0.9,1.9,2.1c0,1.2-0.8,2.1-1.9,2.1
			c-0.7,0-1.2-0.3-1.4-0.8v3.2h-0.7V191.1z M79.2,193c0-0.8-0.5-1.4-1.3-1.4c-0.8,0-1.3,0.6-1.3,1.4c0,0.8,0.5,1.4,1.3,1.4
			C78.6,194.5,79.2,193.9,79.2,193"/>
		<path class="st11" d="M80.9,191.1h0.7v0.7c0.3-0.5,0.7-0.8,1.2-0.8c0.3,0,0.4,0,0.6,0.2l-0.3,0.6c-0.1-0.1-0.3-0.1-0.5-0.1
			c-0.6,0-1,0.5-1,1.3v2.1h-0.7V191.1z"/>
		<path class="st11" d="M83.8,193c0-1.2,0.9-2.1,2.1-2.1c1.2,0,2.1,0.9,2.1,2.1c0,1.2-0.9,2.1-2.1,2.1
			C84.7,195.1,83.8,194.2,83.8,193 M87.2,193c0-0.8-0.5-1.5-1.3-1.5c-0.8,0-1.3,0.6-1.3,1.5c0,0.8,0.5,1.4,1.3,1.4
			C86.7,194.5,87.2,193.9,87.2,193"/>
		<path class="st11" d="M88.6,193c0-1.2,0.9-2.1,2-2.1c0.6,0,1.1,0.3,1.4,0.8v-5.2h0.7v8.5H92v-0.7c-0.3,0.5-0.8,0.8-1.4,0.8
			C89.5,195.1,88.6,194.2,88.6,193 M92,193c0-0.8-0.5-1.4-1.3-1.4c-0.8,0-1.3,0.6-1.3,1.4c0,0.8,0.5,1.4,1.3,1.4
			C91.5,194.5,92,193.9,92,193"/>
		<path class="st11" d="M93.9,193.5v-2.4h0.7v2.4c0,0.7,0.3,1,1,1c0.7,0,1.2-0.4,1.2-1.2v-2.2h0.7v3.9h-0.7v-0.6
			c-0.3,0.5-0.8,0.7-1.4,0.7C94.5,195.1,93.9,194.6,93.9,193.5"/>
		<path class="st11" d="M98.5,193c0-1.2,0.9-2.1,2-2.1c0.7,0,1.2,0.2,1.6,0.6l-0.5,0.4c-0.3-0.3-0.6-0.4-1.1-0.4
			c-0.8,0-1.3,0.6-1.3,1.4c0,0.8,0.5,1.4,1.3,1.4c0.5,0,0.9-0.2,1.2-0.5l0.5,0.4c-0.4,0.4-0.9,0.7-1.7,0.7
			C99.4,195.1,98.5,194.2,98.5,193"/>
		<path class="st11" d="M102.8,191.7v-0.6h0.5v-1.5h0.7v1.5h1v0.6h-1v2.2c0,0.4,0.1,0.6,0.4,0.6c0.2,0,0.3-0.1,0.4-0.2l0.3,0.5
			c-0.2,0.2-0.5,0.3-0.8,0.3c-0.6,0-1.1-0.4-1.1-1.2v-2.3H102.8z"/>
		<path class="st11" d="M105.7,193c0-1.2,0.9-2.1,2.1-2.1c1.2,0,2.1,0.9,2.1,2.1c0,1.2-0.9,2.1-2.1,2.1
			C106.7,195.1,105.7,194.2,105.7,193 M109.2,193c0-0.8-0.5-1.5-1.3-1.5c-0.8,0-1.3,0.6-1.3,1.5c0,0.8,0.5,1.4,1.3,1.4
			C108.6,194.5,109.2,193.9,109.2,193"/>
		<path class="st11" d="M110.5,194.2l0.6-0.4c0.2,0.4,0.6,0.6,1.2,0.6c0.5,0,0.8-0.2,0.8-0.5c0-0.4-0.3-0.5-1-0.7
			c-0.8-0.2-1.3-0.5-1.3-1.2c0-0.6,0.5-1.1,1.3-1.1c0.7,0,1.1,0.3,1.4,0.6l-0.5,0.4c-0.2-0.3-0.5-0.4-0.9-0.4
			c-0.4,0-0.6,0.2-0.6,0.4c0,0.3,0.3,0.4,0.9,0.6c0.9,0.2,1.4,0.6,1.4,1.3c0,0.7-0.6,1.2-1.5,1.2
			C111.4,195.1,110.8,194.8,110.5,194.2"/>
		<path class="st11" d="M116.8,191.1h0.7v0.6c0.3-0.5,0.8-0.7,1.4-0.7c0.9,0,1.5,0.6,1.5,1.6v2.4h-0.7v-2.4c0-0.7-0.3-1-1-1
			c-0.7,0-1.2,0.4-1.2,1.2v2.2h-0.7V191.1z"/>
		<path class="st11" d="M124.1,192.6c0-0.7-0.4-1-0.9-1c-0.5,0-0.8,0.2-1.1,0.6l-0.5-0.4c0.4-0.5,0.9-0.8,1.6-0.8
			c1,0,1.6,0.5,1.6,1.6v2.4h-0.7v-0.4c-0.3,0.3-0.7,0.5-1.2,0.5c-0.8,0-1.5-0.4-1.5-1.3c0-0.8,0.7-1.2,1.5-1.2L124.1,192.6
			L124.1,192.6z M123,193.2c-0.5,0-0.9,0.2-0.9,0.6c0,0.4,0.3,0.7,0.9,0.7c0.6,0,1.1-0.3,1.1-0.9v-0.4H123z"/>
		<path class="st11" d="M125.7,191.7v-0.6h0.5v-1.5h0.7v1.5h1v0.6h-1v2.2c0,0.4,0.1,0.6,0.4,0.6c0.2,0,0.3-0.1,0.4-0.2l0.3,0.5
			c-0.2,0.2-0.5,0.3-0.8,0.3c-0.6,0-1.1-0.4-1.1-1.2v-2.3H125.7z"/>
		<path class="st11" d="M128.9,193.5v-2.4h0.7v2.4c0,0.7,0.3,1,1,1c0.7,0,1.2-0.4,1.2-1.2v-2.2h0.7v3.9h-0.7v-0.6
			c-0.3,0.5-0.8,0.7-1.4,0.7C129.5,195.1,128.9,194.6,128.9,193.5"/>
		<path class="st11" d="M133.7,191.1h0.7v0.7c0.3-0.5,0.7-0.8,1.2-0.8c0.3,0,0.4,0,0.6,0.2l-0.3,0.6c-0.1-0.1-0.3-0.1-0.5-0.1
			c-0.6,0-1,0.5-1,1.3v2.1h-0.7V191.1z"/>
		<path class="st11" d="M139.3,192.6c0-0.7-0.4-1-0.9-1c-0.5,0-0.8,0.2-1.1,0.6l-0.5-0.4c0.4-0.5,0.9-0.8,1.6-0.8
			c1,0,1.6,0.5,1.6,1.6v2.4h-0.7v-0.4c-0.3,0.3-0.7,0.5-1.2,0.5c-0.8,0-1.5-0.4-1.5-1.3c0-0.8,0.7-1.2,1.5-1.2L139.3,192.6
			L139.3,192.6z M138.1,193.2c-0.5,0-0.9,0.2-0.9,0.6c0,0.4,0.3,0.7,0.9,0.7c0.6,0,1.1-0.3,1.1-0.9v-0.4H138.1z"/>
		<rect x="141.2" y="186.5" class="st11" width="0.7" height="8.5"/>
		<path class="st11" d="M145.1,194.5c0.6,0,1-0.2,1.2-0.5l0.5,0.4c-0.4,0.4-0.9,0.7-1.7,0.7c-1.3,0-2.2-0.9-2.2-2.1
			c0-1.2,0.9-2.1,2.1-2.1c1.3,0,2,1,2,2.3h-3.3C143.9,194,144.4,194.5,145.1,194.5 M146.3,192.7c-0.1-0.6-0.5-1.1-1.2-1.1
			c-0.7,0-1.2,0.4-1.3,1.1H146.3z"/>
		<path class="st11" d="M147.6,194.2l0.6-0.4c0.2,0.4,0.6,0.6,1.2,0.6c0.5,0,0.8-0.2,0.8-0.5c0-0.4-0.3-0.5-1-0.7
			c-0.8-0.2-1.3-0.5-1.3-1.2c0-0.6,0.5-1.1,1.3-1.1c0.7,0,1.1,0.3,1.4,0.6l-0.5,0.4c-0.2-0.3-0.5-0.4-0.9-0.4
			c-0.4,0-0.6,0.2-0.6,0.4c0,0.3,0.3,0.4,0.9,0.6c0.9,0.2,1.4,0.6,1.4,1.3c0,0.7-0.6,1.2-1.5,1.2C148.5,195.1,148,194.8,147.6,194.2
			"/>
		<polygon class="st11" points="153.5,191.1 154.3,191.1 155.5,193.8 156.7,191.1 157.4,191.1 154.7,197.6 153.9,197.6 155.1,194.7 
					"/>
		<path class="st11" d="M160.1,193c0-1.2,0.9-2.1,2.1-2.1c1.2,0,2.1,0.9,2.1,2.1c0,1.2-0.9,2.1-2.1,2.1
			C161,195.1,160.1,194.2,160.1,193 M163.5,193c0-0.8-0.5-1.5-1.3-1.5c-0.8,0-1.3,0.6-1.3,1.5c0,0.8,0.5,1.4,1.3,1.4
			C163,194.5,163.5,193.9,163.5,193"/>
		<path class="st11" d="M165.3,191.1h0.7v0.7c0.3-0.5,0.7-0.8,1.2-0.8c0.3,0,0.4,0,0.6,0.2l-0.3,0.6c-0.1-0.1-0.3-0.1-0.5-0.1
			c-0.6,0-1,0.5-1,1.3v2.1h-0.7V191.1z"/>
		<path class="st11" d="M168.3,196.5l0.6-0.3c0.3,0.6,0.8,0.9,1.4,0.9c0.8,0,1.3-0.5,1.3-1.4v-1.3c-0.3,0.5-0.8,0.8-1.4,0.8
			c-1.1,0-2-0.9-2-2.1c0-1.2,0.9-2.1,2-2.1c0.6,0,1.1,0.3,1.4,0.8v-0.7h0.7v4.6c0,1.2-0.7,2-2,2
			C169.3,197.7,168.6,197.2,168.3,196.5 M171.6,193c0-0.8-0.5-1.4-1.3-1.4c-0.8,0-1.3,0.6-1.3,1.4c0,0.8,0.5,1.4,1.3,1.4
			C171,194.5,171.6,193.9,171.6,193"/>
		<path class="st11" d="M176,192.6c0-0.7-0.4-1-0.9-1c-0.5,0-0.8,0.2-1.1,0.6l-0.5-0.4c0.4-0.5,0.9-0.8,1.6-0.8c1,0,1.6,0.5,1.6,1.6
			v2.4H176v-0.4c-0.3,0.3-0.7,0.5-1.2,0.5c-0.8,0-1.5-0.4-1.5-1.3c0-0.8,0.7-1.2,1.5-1.2L176,192.6L176,192.6z M174.9,193.2
			c-0.5,0-0.9,0.2-0.9,0.6s0.3,0.7,0.9,0.7c0.6,0,1.1-0.3,1.1-0.9v-0.4H174.9z M175.5,188.6h0.8l-0.9,1.7h-0.6L175.5,188.6z"/>
		<path class="st11" d="M177.9,191.1h0.7v0.6c0.3-0.5,0.8-0.7,1.4-0.7c0.9,0,1.5,0.6,1.5,1.6v2.4h-0.7v-2.4c0-0.7-0.3-1-1-1
			c-0.7,0-1.2,0.4-1.2,1.2v2.2h-0.7V191.1z"/>
		<path class="st11" d="M182.6,189.5c0-0.3,0.2-0.5,0.5-0.5c0.3,0,0.5,0.2,0.5,0.5s-0.2,0.5-0.5,0.5
			C182.8,190,182.6,189.8,182.6,189.5 M182.7,191.1h0.7v3.9h-0.7V191.1z"/>
		<path class="st11" d="M184.5,193c0-1.2,0.9-2.1,2-2.1c0.7,0,1.2,0.2,1.6,0.6l-0.5,0.4c-0.3-0.3-0.6-0.4-1.1-0.4
			c-0.8,0-1.3,0.6-1.3,1.4c0,0.8,0.5,1.4,1.3,1.4c0.5,0,0.9-0.2,1.2-0.5l0.5,0.4c-0.4,0.4-0.9,0.7-1.7,0.7
			C185.4,195.1,184.5,194.2,184.5,193"/>
		<path class="st11" d="M188.7,193c0-1.2,0.9-2.1,2.1-2.1c1.2,0,2.1,0.9,2.1,2.1c0,1.2-0.9,2.1-2.1,2.1
			C189.7,195.1,188.7,194.2,188.7,193 M192.2,193c0-0.8-0.5-1.5-1.3-1.5c-0.8,0-1.3,0.6-1.3,1.5c0,0.8,0.5,1.4,1.3,1.4
			C191.6,194.5,192.2,193.9,192.2,193"/>
		<path class="st11" d="M193.5,194.2l0.6-0.4c0.2,0.4,0.6,0.6,1.2,0.6c0.5,0,0.8-0.2,0.8-0.5c0-0.4-0.3-0.5-1-0.7
			c-0.8-0.2-1.3-0.5-1.3-1.2c0-0.6,0.5-1.1,1.3-1.1c0.7,0,1.1,0.3,1.4,0.6l-0.5,0.4c-0.2-0.3-0.5-0.4-0.9-0.4
			c-0.4,0-0.6,0.2-0.6,0.4c0,0.3,0.3,0.4,0.9,0.6c0.9,0.2,1.4,0.6,1.4,1.3c0,0.7-0.6,1.2-1.5,1.2
			C194.4,195.1,193.8,194.8,193.5,194.2"/>
	</g>
</g>
</svg>
