<?xml version="1.0" encoding="utf-8"?>
<!-- Generator: Adobe Illustrator 19.2.0, SVG Export Plug-In . SVG Version: 6.00 Build 0)  -->
<svg version="1.1" id="Capa_1" xmlns="http://www.w3.org/2000/svg" xmlns:xlink="http://www.w3.org/1999/xlink" x="0px" y="0px"
	 viewBox="0 0 255.1 255.1" style="enable-background:new 0 0 255.1 255.1;" xml:space="preserve">
<style type="text/css">
	.st0{fill:#A0D9B3;}
	.st1{fill:none;stroke:#144733;stroke-linecap:round;stroke-miterlimit:10;}
	.st2{fill:none;stroke:#144733;stroke-linecap:round;stroke-miterlimit:10;stroke-dasharray:0.2,1.997;}
	.st3{fill:#FFFFFF;}
	.st4{fill-rule:evenodd;clip-rule:evenodd;fill:#144733;}
	.st5{fill:#144733;}
	.st6{fill:none;stroke:#144733;stroke-linecap:round;stroke-miterlimit:10;stroke-dasharray:0.2,2;}
	.st7{fill:#B86B79;}
	.st8{fill:none;stroke:#722C3C;stroke-linecap:round;stroke-miterlimit:10;}
	.st9{fill:none;stroke:#722C3C;stroke-linecap:round;stroke-miterlimit:10;stroke-dasharray:0.2,1.997;}
	.st10{fill:none;stroke:#722C3C;stroke-linecap:round;stroke-miterlimit:10;stroke-dasharray:0.2,2;}
	.st11{fill:#722C3C;}
	.st12{fill-rule:evenodd;clip-rule:evenodd;fill:#722C3C;}
	.st13{fill:#D8C2D7;}
	.st14{fill:none;stroke:#5F3653;stroke-linecap:round;stroke-miterlimit:10;}
	.st15{fill:none;stroke:#5F3653;stroke-linecap:round;stroke-miterlimit:10;stroke-dasharray:0.2,1.997;}
	.st16{fill:none;stroke:#5F3653;stroke-linecap:round;stroke-miterlimit:10;stroke-dasharray:0.2,2;}
	.st17{fill:#5F3653;}
	.st18{fill-rule:evenodd;clip-rule:evenodd;fill:#5F3653;}
	.st19{fill:#FADF8D;}
	.st20{fill:none;stroke:#9F8315;stroke-linecap:round;stroke-miterlimit:10;}
	.st21{fill:none;stroke:#9F8315;stroke-linecap:round;stroke-miterlimit:10;stroke-dasharray:0.2,1.997;}
	.st22{fill:none;stroke:#9F8315;stroke-linecap:round;stroke-miterlimit:10;stroke-dasharray:0.2,2;}
	.st23{fill:#6F561B;}
	.st24{fill-rule:evenodd;clip-rule:evenodd;fill:#6F561B;}
</style>
<g>
	<g>
		<path class="st3" d="M127.7,55.5l0.9,0.7l-2.3,3l-0.9-0.7L127.7,55.5z M126.5,59.3l2.3-3l0.9,0.7l-2.3,3L126.5,59.3z"/>
	</g>
	<g>
		<path class="st13" d="M255.1,127.6c0,70.5-57.1,127.6-127.6,127.6C57.1,255.1,0,198,0,127.6C0,57.1,57.1,0,127.6,0
			C198,0,255.1,57.1,255.1,127.6"/>
		<path class="st14" d="M57.2,223.5C57.2,223.5,57.1,223.5,57.2,223.5"/>
		<path class="st15" d="M55.5,222.3c-28.5-21.7-47-56.1-47-94.7c0-65.7,53.3-119,119-119c65.7,0,119,53.3,119,119
			c0,39.1-18.8,73.7-47.9,95.4"/>
		<path class="st14" d="M197.8,223.6C197.8,223.6,197.8,223.6,197.8,223.6"/>
		<line class="st16" x1="218.6" y1="137" x2="36.5" y2="137"/>
	</g>
	<g>
		<path class="st17" d="M71.6,223.9c0.2,0.1,0.5,0.3,0.7,0.4c-1.2,2.4-2.5,4.7-3.7,7.1c-0.3-0.1-0.5-0.3-0.8-0.4
			c0.6-1.1,1.1-2.1,1.7-3.2c-1.4-0.8-2.8-1.5-4.3-2.4c-0.6,1-1.2,2.1-1.8,3.1c-0.3-0.1-0.5-0.3-0.8-0.4c1.4-2.3,2.7-4.6,4.1-6.9
			c0.2,0.1,0.5,0.3,0.7,0.4c-0.6,1.1-1.2,2.1-1.9,3.2c1.4,0.8,2.8,1.6,4.2,2.4L71.6,223.9z"/>
		<path class="st17" d="M72.1,232.6c0.6,0.3,1.1,0.3,1.5,0.1c0.1,0.2,0.2,0.4,0.3,0.6c-0.5,0.2-1.2,0.2-2-0.2
			c-1.3-0.6-1.8-1.9-1.2-2.9c0.5-1,1.8-1.4,2.9-0.8c1.2,0.6,1.6,1.8,1,3c-1.1-0.5-2.2-1-3.3-1.6C71.1,231.6,71.4,232.2,72.1,232.6
			 M74,231.6c0.2-0.6,0-1.2-0.7-1.6c-0.7-0.3-1.3-0.2-1.7,0.3C72.4,230.8,73.2,231.2,74,231.6"/>
		<path class="st17" d="M75.4,232.5c0.5-1.1,1.7-1.4,2.9-1c0.7,0.3,1.1,0.7,1.3,1.2c-0.2,0.1-0.4,0.1-0.7,0.2
			c-0.1-0.4-0.4-0.7-0.9-0.9c-0.8-0.3-1.5,0-1.8,0.7c-0.3,0.7-0.1,1.5,0.7,1.9c0.5,0.2,1,0.2,1.4,0.1c0.1,0.2,0.2,0.4,0.3,0.6
			c-0.5,0.2-1.2,0.2-2-0.1C75.4,234.8,74.9,233.6,75.4,232.5"/>
		<path class="st17" d="M82.4,228.6c0.2,0.1,0.5,0.2,0.7,0.3c-0.6,1.6-1.3,3.2-1.9,4.7c0.5-0.3,1-0.4,1.6-0.1c0.9,0.3,1.3,1.1,1,2.1
			c-0.3,0.7-0.6,1.5-0.8,2.2c-0.3-0.1-0.5-0.2-0.8-0.3c0.3-0.7,0.5-1.4,0.8-2.2c0.2-0.6,0-1.1-0.6-1.3c-0.7-0.3-1.3-0.1-1.6,0.6
			c-0.3,0.7-0.5,1.3-0.8,2c-0.3-0.1-0.5-0.2-0.8-0.3C80.3,233.8,81.4,231.2,82.4,228.6"/>
		<path class="st17" d="M84.6,236.3c0.4-1.1,1.6-1.6,2.8-1.2c1.2,0.4,1.8,1.5,1.5,2.6c-0.4,1.1-1.6,1.6-2.8,1.2
			C84.8,238.6,84.2,237.4,84.6,236.3 M88.1,237.5c0.3-0.8-0.1-1.5-0.9-1.8c-0.8-0.3-1.6,0.1-1.8,0.9c-0.3,0.8,0.1,1.5,0.9,1.8
			C87.1,238.7,87.9,238.3,88.1,237.5"/>
		<path class="st17" d="M94.9,239.1c0.2-0.7-0.1-1-0.7-1.2c-0.5-0.1-0.9-0.1-1.3,0.2c-0.1-0.2-0.2-0.4-0.4-0.5
			c0.6-0.4,1.2-0.5,1.9-0.3c1,0.3,1.5,1,1.3,2c-0.2,0.8-0.4,1.5-0.6,2.3c-0.3-0.1-0.5-0.1-0.8-0.2c0-0.1,0.1-0.3,0.1-0.4
			c-0.4,0.2-0.9,0.3-1.4,0.1c-0.9-0.2-1.5-0.8-1.2-1.7c0.2-0.8,1.1-0.9,1.9-0.7C94,238.9,94.5,239,94.9,239.1
			C94.9,239.1,94.9,239.1,94.9,239.1 M93.5,239.4c-0.5-0.1-0.9-0.1-1.1,0.3c-0.1,0.4,0.2,0.7,0.8,0.9c0.6,0.2,1.3,0,1.4-0.5l0.1-0.4
			C94.3,239.6,93.9,239.5,93.5,239.4"/>
		<path class="st17" d="M99.5,238.7c0.3,0.1,0.5,0.1,0.8,0.2c0,0.2-0.1,0.3-0.1,0.5c0.3-0.3,0.8-0.5,1.4-0.3c0.5,0.1,0.9,0.4,1.1,1
			c0.4-0.4,0.9-0.5,1.6-0.4c0.9,0.2,1.4,0.8,1.2,1.8c-0.1,0.8-0.3,1.6-0.4,2.4c-0.3,0-0.5-0.1-0.8-0.1c0.1-0.8,0.3-1.6,0.4-2.3
			c0.1-0.6-0.1-1-0.7-1.1c-0.7-0.1-1.1,0.2-1.3,0.8c-0.1,0.7-0.3,1.5-0.4,2.2c-0.3-0.1-0.5-0.1-0.8-0.2c0.2-0.8,0.3-1.6,0.5-2.3
			c0.1-0.6-0.1-1-0.7-1.1c-0.7-0.1-1.1,0.1-1.3,0.8c-0.2,0.7-0.3,1.4-0.5,2.2c-0.3-0.1-0.5-0.1-0.8-0.2
			C98.9,241.3,99.2,240,99.5,238.7"/>
		<path class="st17" d="M109.3,242.1c0.1-0.7-0.2-1-0.8-1.1c-0.5-0.1-0.9,0-1.3,0.4c-0.1-0.2-0.3-0.3-0.4-0.5
			c0.5-0.4,1.1-0.6,1.8-0.5c1.1,0.2,1.6,0.8,1.5,1.8c-0.1,0.8-0.2,1.6-0.3,2.4c-0.3,0-0.5-0.1-0.8-0.1c0-0.1,0-0.3,0.1-0.4
			c-0.3,0.3-0.8,0.4-1.4,0.3c-0.9-0.1-1.5-0.7-1.4-1.5c0.1-0.8,0.9-1,1.8-0.9C108.4,242,108.9,242.1,109.3,242.1
			C109.3,242.1,109.3,242.1,109.3,242.1 M108,242.5c-0.5-0.1-1,0-1,0.5c-0.1,0.4,0.3,0.7,0.8,0.8c0.6,0.1,1.2-0.1,1.3-0.7
			c0-0.1,0-0.3,0.1-0.4C108.8,242.7,108.4,242.6,108,242.5"/>
		<path class="st17" d="M111.5,240.9c0.3,0,0.5,0.1,0.8,0.1c0,0.2-0.1,0.4-0.1,0.6c0.3-0.4,0.9-0.6,1.5-0.5c0.9,0.1,1.5,0.7,1.4,1.7
			c-0.1,0.8-0.2,1.6-0.2,2.4c-0.3,0-0.5-0.1-0.8-0.1l0.2-2.3c0.1-0.7-0.2-1-0.9-1.1c-0.7-0.1-1.3,0.3-1.4,1
			c-0.1,0.7-0.2,1.4-0.3,2.1c-0.3,0-0.5-0.1-0.8-0.1C111.2,243.5,111.4,242.2,111.5,240.9"/>
		<path class="st17" d="M116.1,243.4c0.1-1.2,1.2-1.9,2.4-1.8c1.2,0.1,2.1,1,2.1,2.2c-0.1,1.2-1.1,2-2.4,1.9
			C116.9,245.5,116,244.5,116.1,243.4 M119.8,243.7c0-0.8-0.5-1.5-1.3-1.5c-0.8-0.1-1.5,0.5-1.5,1.3c-0.1,0.8,0.5,1.5,1.3,1.5
			C119.1,245,119.7,244.5,119.8,243.7"/>
		<path class="st17" d="M123.7,243.8c0-1.2,1-2,2.2-2c0.7,0,1.3,0.2,1.6,0.6c-0.2,0.1-0.3,0.3-0.5,0.4c-0.3-0.3-0.6-0.4-1.1-0.4
			c-0.8,0-1.4,0.6-1.4,1.4c0,0.8,0.5,1.4,1.3,1.4c0.6,0,1-0.2,1.3-0.5c0.2,0.1,0.4,0.3,0.5,0.4c-0.4,0.4-1,0.7-1.8,0.7
			C124.6,245.9,123.7,245,123.7,243.8"/>
		<path class="st17" d="M128.3,243.9c0-1.2,1-2,2.2-2.1c1.2,0,2.2,0.8,2.3,2c0.1,1.2-0.9,2.1-2.2,2.1
			C129.3,245.9,128.3,245.1,128.3,243.9 M132,243.8c0-0.8-0.6-1.4-1.5-1.4c-0.8,0-1.4,0.6-1.4,1.4c0,0.8,0.6,1.4,1.5,1.4
			C131.4,245.3,132,244.6,132,243.8"/>
		<path class="st17" d="M133.7,241.8c0.3,0,0.5,0,0.8,0l0,0.6c0.2-0.5,0.8-0.8,1.4-0.8c0.9-0.1,1.6,0.4,1.7,1.5
			c0.1,0.8,0.1,1.6,0.2,2.4c-0.3,0-0.5,0-0.8,0.1c-0.1-0.8-0.1-1.5-0.2-2.3c-0.1-0.7-0.4-1-1.1-0.9c-0.7,0-1.2,0.5-1.2,1.3
			c0,0.7,0.1,1.4,0.1,2.1c-0.3,0-0.5,0-0.8,0C133.9,244.4,133.8,243.1,133.7,241.8"/>
		<path class="st17" d="M141,243.2c-0.1-1.2,0.7-2.1,1.9-2.3c0.7-0.1,1.3,0.1,1.7,0.4c-0.2,0.2-0.3,0.3-0.5,0.5
			c-0.3-0.2-0.7-0.3-1.2-0.3c-0.8,0.1-1.3,0.8-1.2,1.6c0.1,0.8,0.7,1.3,1.5,1.2c0.6-0.1,1-0.3,1.2-0.6c0.2,0.1,0.4,0.2,0.6,0.3
			c-0.3,0.5-0.9,0.8-1.7,0.9C142.2,245.1,141.1,244.3,141,243.2"/>
		<path class="st17" d="M148.5,241.7c-0.1-0.7-0.5-0.9-1.1-0.8c-0.5,0.1-0.9,0.3-1.1,0.7c-0.2-0.1-0.4-0.2-0.6-0.3
			c0.3-0.6,0.9-0.9,1.6-1c1-0.2,1.8,0.2,2,1.3c0.1,0.8,0.3,1.6,0.4,2.3c-0.3,0-0.5,0.1-0.8,0.1c0-0.1,0-0.3-0.1-0.4
			c-0.2,0.4-0.7,0.6-1.2,0.7c-0.9,0.1-1.7-0.1-1.8-1c-0.1-0.8,0.6-1.3,1.5-1.4C147.6,241.9,148,241.8,148.5,241.7
			C148.5,241.7,148.5,241.7,148.5,241.7 M147.3,242.5c-0.5,0.1-0.9,0.3-0.8,0.7c0.1,0.4,0.5,0.6,1.1,0.5c0.6-0.1,1.1-0.5,1.1-1
			c0-0.1,0-0.3-0.1-0.4C148.2,242.4,147.8,242.4,147.3,242.5"/>
		<path class="st17" d="M150.2,239.9c0.3,0,0.5-0.1,0.8-0.1l0.1,0.6c0.2-0.5,0.6-0.9,1.1-1c0.3-0.1,0.5,0,0.7,0
			c0,0.2-0.1,0.4-0.1,0.7c-0.2,0-0.3,0-0.5,0c-0.6,0.1-1,0.7-0.8,1.5c0.1,0.7,0.3,1.3,0.4,2c-0.3,0-0.5,0.1-0.8,0.1
			C150.7,242.4,150.5,241.1,150.2,239.9"/>
		<path class="st17" d="M153.2,237.7c-0.1-0.3,0.1-0.5,0.4-0.6c0.3-0.1,0.6,0.1,0.6,0.4s-0.1,0.5-0.4,0.6
			C153.5,238.1,153.2,238,153.2,237.7 M153.6,239.2c0.3-0.1,0.5-0.1,0.8-0.2c0.3,1.3,0.6,2.5,0.8,3.8c-0.3,0.1-0.5,0.1-0.8,0.2
			C154.2,241.7,153.9,240.4,153.6,239.2"/>
		<path class="st17" d="M155.7,238.7c0.3-0.1,0.5-0.1,0.8-0.2c0,0.2,0.1,0.4,0.1,0.6c0.2-0.5,0.6-0.9,1.2-1c0.9-0.2,1.7,0.1,2,1.1
			c0.2,0.8,0.4,1.5,0.6,2.3c-0.3,0.1-0.5,0.1-0.8,0.2c-0.2-0.7-0.4-1.5-0.6-2.2c-0.2-0.7-0.6-0.9-1.2-0.7c-0.7,0.2-1.1,0.7-0.9,1.4
			c0.2,0.7,0.3,1.4,0.5,2.1c-0.3,0.1-0.5,0.1-0.8,0.2C156.3,241.2,156,240,155.7,238.7 M156.7,237c-0.2,0-0.2,0.2-0.2,0.5
			c-0.2,0-0.4,0-0.6,0.1c0-0.6,0.2-1,0.6-1.1c0.5-0.1,0.9,0.2,1.2,0.1c0.2-0.1,0.2-0.2,0.2-0.5c0.2,0,0.4,0,0.6-0.1
			c0,0.6-0.1,1-0.6,1.1C157.4,237.3,157,236.9,156.7,237"/>
		<path class="st17" d="M160.9,239.4c-0.3-1.1,0.4-2.2,1.6-2.6c1.2-0.3,2.4,0.2,2.7,1.3c0.4,1.1-0.4,2.2-1.6,2.6
			C162.4,241.1,161.2,240.5,160.9,239.4 M164.5,238.4c-0.2-0.8-1-1.2-1.8-0.9c-0.8,0.2-1.2,1-1,1.8c0.2,0.8,1,1.2,1.8,1
			C164.3,239.9,164.7,239.1,164.5,238.4"/>
		<path class="st17" d="M167.9,235.2c0.2-0.1,0.5-0.2,0.7-0.3c0.1,0.2,0.1,0.4,0.2,0.6c0.1-0.6,0.5-1,1.2-1.2
			c1.1-0.4,2.3,0.1,2.7,1.2c0.4,1.1-0.1,2.2-1.3,2.6c-0.7,0.3-1.3,0.2-1.7-0.2c0.3,1,0.7,2,1,3c-0.3,0.1-0.5,0.2-0.8,0.3
			C169.3,239.2,168.6,237.2,167.9,235.2 M171.9,235.8c-0.3-0.8-1-1.1-1.8-0.8c-0.8,0.3-1.1,1-0.9,1.8c0.3,0.8,1,1.1,1.8,0.8
			C171.9,237.3,172.2,236.6,171.9,235.8"/>
		<path class="st17" d="M176,233.7c-0.3-0.7-0.7-0.7-1.3-0.5c-0.5,0.2-0.8,0.5-0.9,1c-0.2-0.1-0.4-0.1-0.6-0.2
			c0.2-0.6,0.6-1.1,1.3-1.4c1-0.4,1.8-0.2,2.2,0.8c0.3,0.7,0.6,1.5,0.9,2.2c-0.2,0.1-0.5,0.2-0.7,0.3c-0.1-0.1-0.1-0.3-0.2-0.4
			c-0.1,0.4-0.5,0.8-1.1,1c-0.9,0.3-1.7,0.2-2-0.5c-0.3-0.7,0.3-1.4,1.1-1.7C175.3,234,175.7,233.9,176,233.7
			C176.1,233.7,176,233.7,176,233.7 M175.1,234.7c-0.5,0.2-0.8,0.5-0.6,0.9c0.2,0.4,0.6,0.5,1.2,0.2c0.6-0.2,1-0.8,0.8-1.3
			c-0.1-0.1-0.1-0.3-0.2-0.4C175.9,234.4,175.5,234.6,175.1,234.7"/>
		<path class="st17" d="M177.4,231.5c0.2-0.1,0.5-0.2,0.7-0.3c0.1,0.2,0.2,0.4,0.3,0.6c0-0.6,0.4-1,0.8-1.2c0.3-0.1,0.5-0.2,0.7-0.1
			c0,0.2,0,0.4,0,0.7c-0.2,0-0.3,0-0.5,0.1c-0.6,0.3-0.8,0.9-0.5,1.6c0.3,0.6,0.6,1.2,0.8,1.9c-0.2,0.1-0.5,0.2-0.7,0.3
			C178.4,233.8,177.9,232.7,177.4,231.5"/>
		<path class="st17" d="M183.5,230.2c-0.3-0.6-0.8-0.7-1.3-0.4c-0.5,0.2-0.7,0.6-0.9,1c-0.2,0-0.4-0.1-0.6-0.1
			c0.2-0.7,0.6-1.1,1.2-1.4c1-0.5,1.8-0.3,2.3,0.6c0.4,0.7,0.7,1.4,1.1,2.1c-0.2,0.1-0.5,0.2-0.7,0.4c-0.1-0.1-0.1-0.3-0.2-0.4
			c-0.1,0.4-0.5,0.8-1,1.1c-0.8,0.4-1.7,0.4-2-0.4c-0.3-0.7,0.2-1.4,1-1.8C182.7,230.7,183.1,230.5,183.5,230.2L183.5,230.2z
			 M182.7,231.3c-0.5,0.2-0.8,0.6-0.6,1c0.2,0.4,0.6,0.4,1.2,0.2c0.6-0.3,1-0.8,0.7-1.3c-0.1-0.1-0.1-0.3-0.2-0.4
			C183.4,231,183,231.2,182.7,231.3"/>
		<path class="st17" d="M186.8,227.5c-0.1-0.2-0.2-0.4-0.3-0.5c0.2-0.1,0.3-0.2,0.5-0.3c-0.2-0.4-0.5-0.9-0.7-1.3
			c0.2-0.1,0.5-0.3,0.7-0.4c0.2,0.4,0.5,0.9,0.7,1.3c0.3-0.2,0.6-0.4,0.9-0.5c0.1,0.2,0.2,0.4,0.3,0.5c-0.3,0.2-0.6,0.4-0.9,0.5
			c0.4,0.6,0.7,1.3,1.1,1.9c0.2,0.3,0.4,0.4,0.7,0.3c0.2-0.1,0.3-0.3,0.3-0.4c0.2,0.1,0.4,0.2,0.6,0.3c-0.1,0.2-0.3,0.5-0.7,0.7
			c-0.6,0.4-1.2,0.3-1.6-0.4c-0.4-0.6-0.7-1.3-1.1-1.9C187.1,227.4,187,227.4,186.8,227.5"/>
		<path class="st17" d="M188.7,224c-0.1-0.2,0-0.6,0.2-0.7c0.2-0.1,0.6-0.1,0.7,0.1c0.1,0.2,0,0.6-0.2,0.7
			C189.2,224.3,188.9,224.2,188.7,224 M189.6,225.2c0.2-0.1,0.5-0.3,0.7-0.4c0.7,1.1,1.3,2.2,2,3.3c-0.2,0.1-0.5,0.3-0.7,0.4
			C190.9,227.5,190.3,226.4,189.6,225.2"/>
		<polygon class="st3" points="89.3,87.5 95,79 90,79 90,77.4 98,77.4 98,77.5 92.3,86 97.8,86 97.8,87.6 89.3,87.6 		"/>
		<path class="st3" d="M106.8,81.3c0-1.9-0.9-2.6-2.4-2.6c-1.3,0-2.2,0.5-2.9,1.5l-1.2-1.1c1-1.4,2.4-2,4.1-2c2.6,0,4.2,1.4,4.2,4.2
			v6.3h-1.9v-1.1c-0.7,0.9-1.8,1.4-3.2,1.4c-2.1,0-3.9-1.1-3.9-3.3c0-2.1,1.8-3.1,4-3.1L106.8,81.3L106.8,81.3z M103.9,83
			c-1.2,0-2.2,0.5-2.2,1.6c0,1.1,0.9,1.7,2.3,1.7c1.5,0,2.9-0.8,2.9-2.2V83H103.9z"/>
		<path class="st3" d="M111.8,77.4h1.9v1.6c0.7-1.2,1.9-1.9,3.5-1.9c2.2,0,3.9,1.4,3.9,4.2v6.3h-1.9v-6.1c0-1.8-0.9-2.7-2.5-2.7
			c-1.8,0-3,1.1-3,3.1v5.6h-1.9V77.4z"/>
		<path class="st3" d="M130.5,81.3c0-1.9-0.9-2.6-2.4-2.6c-1.3,0-2.2,0.5-2.9,1.5l-1.2-1.1c1-1.4,2.4-2,4.1-2c2.6,0,4.2,1.4,4.2,4.2
			v6.3h-1.9v-1.1c-0.7,0.9-1.8,1.4-3.2,1.4c-2.1,0-3.9-1.1-3.9-3.3c0-2.1,1.8-3.1,4-3.1L130.5,81.3L130.5,81.3z M127.6,83
			c-1.2,0-2.2,0.5-2.2,1.6c0,1.1,0.9,1.7,2.3,1.7c1.5,0,2.9-0.8,2.9-2.2V83H127.6z"/>
		<path class="st3" d="M135.5,68.3h1.9v10.7c0.7-1.2,2-1.9,3.5-1.9c2.2,0,3.9,1.4,3.9,4.2v6.3h-1.9v-6.1c0-1.8-0.9-2.7-2.5-2.7
			c-1.8,0-3,1.1-3,3.1v5.6h-1.9V68.3z"/>
		<path class="st3" d="M147.1,82.5c0-3.1,2.4-5.4,5.4-5.4c3,0,5.4,2.3,5.4,5.4c0,3-2.4,5.3-5.4,5.3
			C149.5,87.8,147.1,85.6,147.1,82.5 M156,82.5c0-2.1-1.4-3.7-3.4-3.7c-2,0-3.4,1.6-3.4,3.7c0,2.1,1.4,3.7,3.4,3.7
			C154.6,86.2,156,84.6,156,82.5"/>
		<path class="st3" d="M160.4,77.4h1.9v1.7c0.6-1.3,1.8-2,3-2c0.7,0,1.1,0.1,1.6,0.4l-0.6,1.6c-0.3-0.2-0.7-0.3-1.3-0.3
			c-1.5,0-2.7,1.2-2.7,3.3v5.4h-1.9V77.4z"/>
		<path class="st3" d="M168.6,73.3c0-0.7,0.6-1.3,1.3-1.3c0.7,0,1.3,0.6,1.3,1.3s-0.6,1.3-1.3,1.3C169.2,74.6,168.6,74.1,168.6,73.3
			 M168.9,77.4h1.9v10.2h-1.9V77.4z"/>
		<path class="st3" d="M180.5,81.3c0-1.9-0.9-2.6-2.4-2.6c-1.3,0-2.2,0.5-2.9,1.5l-1.2-1.1c1-1.4,2.4-2,4.1-2c2.6,0,4.2,1.4,4.2,4.2
			v6.3h-1.9v-1.1c-0.7,0.9-1.8,1.4-3.2,1.4c-2.1,0-3.9-1.1-3.9-3.3c0-2.1,1.8-3.1,4-3.1L180.5,81.3L180.5,81.3z M177.5,83
			c-1.2,0-2.2,0.5-2.2,1.6c0,1.1,0.9,1.7,2.3,1.7c1.5,0,2.9-0.8,2.9-2.2V83H177.5z"/>
		<path class="st3" d="M80.7,45.8c-4.3,0-7.9-3.2-7.9-7.8c0-4.6,3.6-7.8,7.7-7.8c3.3,0,5.3,1.4,6.6,3.3L84,35.6
			c-0.6-0.9-1.5-1.8-3.5-1.8c-2.2,0-3.6,1.9-3.6,4.3c0,2.4,1.4,4.3,3.7,4.3c2,0,2.9-0.9,3.6-2.1l3.1,2
			C85.9,44.7,83.8,45.8,80.7,45.8"/>
		<path class="st3" d="M93.1,45.6H89V30.4h6.2c3.9,0,6,2.3,6,5.4c0,2-1,3.6-2.8,4.4l3.2,5.4h-4.4l-2.7-4.8h-1.4V45.6z M94.9,37.8
			c1.4,0,2.1-0.7,2.1-1.9c0-1.3-0.7-2-2.1-2h-1.9v3.9H94.9z"/>
		<polygon class="st3" points="103.5,30.4 114.2,30.4 114.2,33.8 107.6,33.8 107.6,36.3 113.1,36.3 113.1,39.6 107.6,39.6 
			107.6,42.2 114.5,42.2 114.5,45.6 103.5,45.6 		"/>
		<path class="st3" d="M117.1,30.2c0-0.2,0.1-0.1,0.2,0l7.3,8.2l7.2-8.2c0.1-0.1,0.2-0.1,0.2,0l0.9,15.4h-4l-0.4-6.5l-3.8,4.4
			c-0.1,0.1-0.1,0.1-0.2,0l-4-4.4l-0.4,6.5h-4L117.1,30.2z"/>
		<path class="st3" d="M144.1,43.8h-5.3l-0.8,1.8h-4l7.4-15.5c0.1-0.2,0.2-0.2,0.3,0l7.4,15.5h-4.2L144.1,43.8z M140,40.8h2.8
			l-1.4-3.2L140,40.8z"/>
		<path class="st3" d="M155.9,30.4h5.9c4.4,0,7.7,2.9,7.7,7.6c0,4.7-3.3,7.6-7.7,7.6h-5.9V30.4z M161.4,42.2c2.5,0,4-1.6,4-4.2
			c0-2.5-1.5-4.2-4-4.2H160v8.3H161.4z"/>
		<polygon class="st3" points="171.4,30.4 182,30.4 182,33.8 175.4,33.8 175.4,36.3 180.9,36.3 180.9,39.6 175.4,39.6 175.4,42.2 
			182.4,42.2 182.4,45.6 171.4,45.6 		"/>
		<path class="st3" d="M72.8,65.5l7.6-13h-6.3v-1.7h9.5l-7.7,13.3h11v1.7h-14C72.8,65.8,72.7,65.7,72.8,65.5 M74.1,50.4v-1.7h13.3
			c0.1,0,0.2,0.1,0.1,0.3l-7.6,13h7v1.7H76.7l7.7-13.3H74.1z"/>
		<path class="st3" d="M90.1,65.8h-2l8.2-17.4c0.1-0.3,0.4-0.3,0.6,0l8.2,17.4h-2.1l-6.4-13.9L90.1,65.8z M99.3,63.8h-5.9l-0.8,2
			h-2.1l1.6-3.5h8.6l1.6,3.5h-2.2L99.3,63.8z M96.5,53l4.1,8.9h-8.2L96.5,53z M94.9,60.3h2.9l-1.5-3.4L94.9,60.3z"/>
		<path class="st3" d="M111.2,65.8h-2.1v-6.6h4.3c3.1,0,4.8-1.8,4.8-4.4c0-2.6-1.7-4.4-4.8-4.4h-4.8v15.4h-2.1V48.7h6.9
			c4.4,0,6.8,2.6,6.8,6.1c0,3.5-2.4,6.1-6.8,6.1h-2.3V65.8z M109.1,58.7v-7.9h4.3c2.8,0,4.3,1.6,4.3,4c0,2.3-1.6,3.9-4.3,3.9H109.1z
			 M113.3,57.1c1.6,0,2.4-0.8,2.4-2.2c0-1.4-0.8-2.3-2.4-2.3h-2.1v4.5H113.3z"/>
		<path class="st3" d="M120.7,65.8h-2l8.2-17.4c0.1-0.3,0.4-0.3,0.6,0l8.2,17.4h-2.1l-6.4-13.9L120.7,65.8z M130,63.8h-5.9l-0.8,2
			h-2.1l1.6-3.5h8.6l1.6,3.5h-2.2L130,63.8z M127.1,53l4.1,8.9H123L127.1,53z M125.6,60.3h2.9l-1.5-3.4L125.6,60.3z"/>
		<path class="st3" d="M137.3,48.7h2.1v15.4h9.8v1.7h-11.8V48.7z M149.1,63.6h-9.3v-15h2.1v13.3h7.3V63.6z"/>
		<path class="st3" d="M151.2,48.7h2.1v15.4h9.8v1.7h-11.8V48.7z M163.1,63.6h-9.3v-15h2.1v13.3h7.3V63.6z"/>
		<path class="st3" d="M164,57.2c0-5.2,4.3-8.8,9.2-8.8c4.9,0,9.2,3.6,9.2,8.8c0,5.2-4.3,8.8-9.2,8.8C168.2,66,164,62.4,164,57.2
			 M180.2,57.2c0-4.1-3-7-7.1-7c-4,0-7.1,2.9-7.1,7c0,4.1,3,7,7.1,7C177.2,64.3,180.2,61.3,180.2,57.2 M166.6,57.2
			c0-3.8,2.8-6.5,6.6-6.5c3.8,0,6.6,2.7,6.6,6.5c0,3.8-2.8,6.6-6.6,6.6C169.4,63.8,166.6,61,166.6,57.2 M177.7,57.2
			c0-2.7-1.6-4.8-4.5-4.8c-2.9,0-4.5,2.1-4.5,4.8c0,2.7,1.6,4.8,4.5,4.8C176,62,177.7,59.9,177.7,57.2"/>
		<polygon class="st3" points="84.4,95.3 72.8,95.3 72.8,92.1 99.7,92.1 99.7,95.3 88,95.3 88,129.7 84.4,129.7 		"/>
		<polygon class="st3" points="130,92.1 133.6,92.1 133.6,129.7 130,129.7 130,112.7 109.4,112.7 109.4,129.7 105.8,129.7 
			105.8,92.1 109.4,92.1 109.4,109.5 130,109.5 		"/>
		<path class="st3" d="M164.4,120.4h-17l-3.7,9.3H140l15.8-38.5h0.3l15.9,38.5h-3.8L164.4,120.4z M148.7,117.2h14.4l-7.2-17.9
			L148.7,117.2z"/>
		<rect x="178.7" y="92.1" class="st3" width="3.7" height="37.6"/>
		<path class="st3" d="M81.8,81.3c0.4-1.2,0.7-2.6,0.7-4.2h0.7c0,1.9-0.3,3.5-0.9,4.8l2.8,3.4h-0.9l-2.3-2.7c-1,1.9-2.7,2.9-4.8,2.9
			c-2.3,0-4.4-1.5-4.4-3.9c0-2.6,2.1-3.8,4.1-5l-0.6-0.7c-0.8-1-1.2-1.9-1.2-2.8c0-1.6,1.2-2.8,2.8-2.8c1.6,0,2.6,1.3,2.6,2.8
			c0,1.6-1.3,2.7-2.7,3.6L81.8,81.3z M77.3,76.9c-1.9,1.1-3.8,2.1-3.8,4.5c0,2.1,1.7,3.3,3.7,3.3c2,0,3.5-1,4.4-2.8L77.3,76.9z
			 M79.9,72.9c0-1.3-0.8-2.2-2-2.2c-1.2,0-2.1,0.9-2.1,2.2c0,0.8,0.3,1.6,1,2.3l0.7,0.8C78.8,75.3,79.9,74.3,79.9,72.9"/>
		<polygon class="st3" points="79,87.3 78.9,87.3 72.8,87.3 72.8,87.8 78.9,87.8 79,87.8 85.1,87.8 85.1,87.3 		"/>
		<path class="st18" d="M129.3,205.7c-0.3-0.6-0.4-1.2-0.7-1.6c-0.2-0.2-0.6-0.3-0.9-0.4c0,0.3-0.1,0.7,0,0.9
			c0.5,0.7,0.5,1.3-0.2,1.9c-1,0.9-1,2-0.2,3.1c0.2,0.2,0.6,0.3,1,0.4c0-0.3,0.1-0.7-0.1-1c-0.5-0.7-0.4-1.3,0.2-1.9
			C128.8,206.8,129,206.2,129.3,205.7 M133.1,208.6c-0.3-0.5-0.5-0.9-0.8-1.3c-0.1-0.1-0.5-0.1-0.7-0.1c0,0.3-0.2,0.6,0,0.8
			c0.4,0.5,0.3,0.7-0.2,1.1c-0.7,0.6-0.8,1.6-0.1,2.2c0.2,0.2,0.6,0.2,0.9,0.3c0-0.3,0.1-0.7,0-0.9c-0.3-0.4-0.2-0.7,0.1-1
			C132.6,209.5,132.8,209.1,133.1,208.6 M122,210.2c0.3,0.5,0.5,1,0.8,1.3c0.1,0.2,0.5,0.1,0.8,0.1c0-0.3,0.1-0.6,0-0.8
			c-0.4-0.5-0.3-0.8,0.1-1.1c0.8-0.6,0.8-1.5,0.1-2.2c-0.2-0.2-0.6-0.2-0.9-0.3c0,0.3-0.1,0.7,0.1,0.9c0.3,0.4,0.2,0.6-0.1,0.9
			C122.5,209.4,122.3,209.8,122,210.2"/>
		<path class="st18" d="M137.6,214.8c0.9,0.4,1.7,0.6,2.5,1.1c1.3,0.8,1.2,2,0.8,3.5c-0.4,1.3-0.8,3.1-0.9,3.5c-1.3,3.4-3.5,6-7,7.4
			c-0.1,0.1-0.3,0.1-0.4,0.2c-0.9,1.3-2.3,1.3-3.6,1.3c-1.7,0.1-3.4-0.2-5.1-0.3c-0.3,0-0.6-0.2-0.8-0.4c-0.6-0.4-1.2-0.9-1.9-1.2
			c-3.8-1.9-5.8-5.1-6.8-9.1c-0.2-0.9-0.3-1.8-0.4-2.7c-0.2-1.2,0.1-2,1.3-2.4c1.7-0.6,3.5-1.2,5.2-1.3c3.7-0.2,7.4-0.2,11.2-0.2
			c0.8,0,1.3-0.1,1.8-0.8c1.2-1.6,2.4-3.2,3.6-4.8c1-1.4,2.3-1.7,3.4-0.8c1.1,0.9,1.1,2.2,0,3.5c-0.9,1.1-1.8,2.3-2.8,3.4
			C137.6,214.7,137.6,214.8,137.6,214.8 M137.7,219.9c-7.5,1.1-15,1.4-22.5-0.6c0.1,0.3,0.1,0.7,0.2,1c0.9,3.7,2.7,6.7,6.2,8.5
			c0.8,0.4,1.7,0.5,2.1,1.3c0.1,0.1,0.4,0.2,0.6,0.2c2.1,0.4,4.2,0.4,6.3,0c0.3-0.1,0.6-0.3,0.9-0.5c0.4-0.3,0.7-0.6,1.2-0.8
			c4.4-1.9,6.3-5.5,7.2-10C139.9,219.2,138.9,219.8,137.7,219.9 M136,218.2c-1-0.4-1.6,0.1-2.1,1.1c1.3-0.2,2.5-0.4,3.9-0.6
			 M139.3,218c0.2,0,0.5-0.2,0.6-0.4c0.1-0.1-0.1-0.5-0.3-0.6c-0.6-0.3-1.2-0.6-1.8-0.8c-1.3-0.4-1.4-0.4-2,0.9
			c0.7,0.2,2.5,0.7,3.2,0.9 M130,219.5c0,0.1,0.1,0.1,0.1,0.2c0.9-0.3,1.9,0.3,2.6-0.7c2.3-2.9,4.7-5.7,7-8.6c0.6-0.7,0.6-1.4,0-1.8
			c-0.6-0.4-1.2-0.3-1.7,0.4c-1.7,2.2-3.4,4.4-5.1,6.6C132,216.9,131,218.2,130,219.5 M131.8,215.3c-0.1-0.1-0.1-0.1-0.2-0.1
			c-4.4-0.2-8.8-0.2-13.2,0.5c-1,0.2-2,0.6-2.9,1c-0.7,0.3-0.7,0.7-0.1,1.3c0.7-0.2,1.3-0.4,2-0.6c4-0.9,8.1-0.9,12.1-0.8
			C130.7,216.7,131.3,216.3,131.8,215.3 M130,217.7c-4.5-0.1-8.7-0.1-12.9,1c0.1,0.1,0.3,0.2,0.5,0.2c3.5,0.8,7,0.8,10.5,0.8
			c0.2,0,0.4-0.1,0.5-0.2C129.1,218.9,129.5,218.4,130,217.7"/>
		<path class="st18" d="M129.3,205.7c-0.3,0.5-0.5,1.1-0.9,1.5c-0.6,0.6-0.7,1.2-0.2,1.9c0.2,0.2,0.1,0.6,0.1,1
			c-0.3-0.1-0.8-0.2-1-0.4c-0.8-1-0.8-2.2,0.2-3.1c0.7-0.6,0.7-1.2,0.2-1.9c-0.1-0.2,0-0.6,0-0.9c0.3,0.1,0.7,0.1,0.9,0.4
			C128.8,204.5,129,205.1,129.3,205.7"/>
		<path class="st18" d="M133.1,208.6c-0.3,0.4-0.5,0.9-0.8,1.1c-0.4,0.3-0.4,0.6-0.1,1c0.1,0.2,0,0.6,0,0.9
			c-0.3-0.1-0.7-0.1-0.9-0.3c-0.7-0.7-0.7-1.6,0.1-2.2c0.4-0.4,0.5-0.6,0.2-1.1c-0.1-0.2,0-0.5,0-0.8c0.3,0,0.6,0,0.7,0.1
			C132.6,207.7,132.8,208.2,133.1,208.6"/>
		<path class="st18" d="M122,210.2c0.3-0.4,0.5-0.8,0.8-1.1c0.3-0.3,0.4-0.5,0.1-0.9c-0.1-0.2-0.1-0.6-0.1-0.9
			c0.3,0.1,0.7,0.1,0.9,0.3c0.7,0.7,0.6,1.5-0.1,2.2c-0.4,0.4-0.5,0.7-0.1,1.1c0.1,0.2,0,0.5,0,0.8c-0.3,0-0.7,0.1-0.8-0.1
			C122.5,211.2,122.3,210.7,122,210.2"/>
	</g>
	<g>
		<path class="st17" d="M93.3,150.5h-0.8v-5.1h1.6c1.2,0,1.9,0.7,1.9,1.6c0,1-0.7,1.6-1.9,1.6h-0.8V150.5z M94.1,148
			c0.8,0,1.1-0.3,1.1-0.9c0-0.6-0.3-0.9-1.1-0.9h-0.8v1.9H94.1z"/>
		<path class="st17" d="M97.6,150.5h-0.8v-5.1h1.6c1.2,0,1.9,0.7,1.9,1.6c0,0.7-0.4,1.2-1,1.4l1.2,2h-0.9l-1.1-1.9h-0.1h-0.8V150.5z
			 M98.4,147.9c0.8,0,1.1-0.3,1.1-0.9c0-0.6-0.3-0.9-1.1-0.9h-0.8v1.8H98.4z"/>
		<path class="st17" d="M101,147.9c0-1.5,1.2-2.6,2.6-2.6c1.5,0,2.6,1.1,2.6,2.6c0,1.5-1.2,2.6-2.6,2.6
			C102.2,150.5,101,149.4,101,147.9 M105.4,147.9c0-1.1-0.7-1.9-1.8-1.9c-1.1,0-1.8,0.8-1.8,1.9c0,1.1,0.7,1.9,1.8,1.9
			C104.7,149.8,105.4,149,105.4,147.9"/>
		<path class="st17" d="M107.1,145.4h1.4c1.7,0,2.7,1,2.7,2.5c0,1.5-1,2.5-2.7,2.5h-1.4V145.4z M108.5,149.7c1.3,0,1.9-0.8,1.9-1.8
			s-0.6-1.8-1.9-1.8h-0.6v3.7H108.5z"/>
		<path class="st17" d="M112.1,148.7v-3.3h0.8v3.2c0,0.8,0.4,1.2,1.1,1.2c0.7,0,1.1-0.4,1.1-1.2v-3.2h0.8v3.3c0,1.2-0.8,1.9-1.9,1.9
			C112.9,150.5,112.1,149.9,112.1,148.7"/>
		<path class="st17" d="M116.8,147.9c0-1.5,1.1-2.6,2.6-2.6c0.9,0,1.6,0.4,2,1l-0.6,0.4c-0.3-0.5-0.8-0.7-1.4-0.7
			c-1,0-1.7,0.8-1.7,1.9c0,1.1,0.7,1.9,1.8,1.9c0.7,0,1.1-0.2,1.5-0.7l0.6,0.4c-0.5,0.7-1.2,1-2.2,1
			C117.9,150.5,116.8,149.4,116.8,147.9"/>
		<polygon class="st17" points="123.4,146.1 121.9,146.1 121.9,145.4 125.8,145.4 125.8,146.1 124.2,146.1 124.2,150.5 123.4,150.5 
					"/>
		<path class="st17" d="M125.9,147.9c0-1.5,1.2-2.6,2.6-2.6s2.6,1.1,2.6,2.6c0,1.5-1.2,2.6-2.6,2.6S125.9,149.4,125.9,147.9
			 M130.4,147.9c0-1.1-0.7-1.9-1.8-1.9c-1.1,0-1.8,0.8-1.8,1.9c0,1.1,0.7,1.9,1.8,1.9C129.6,149.8,130.4,149,130.4,147.9"/>
		<polygon class="st17" points="133.7,145.4 136.9,145.4 136.9,146.1 134.5,146.1 134.5,147.7 136.7,147.7 136.7,148.4 134.5,148.4 
			134.5,150.5 133.7,150.5 		"/>
		<path class="st17" d="M138.5,150.5h-0.8v-5.1h1.6c1.2,0,1.9,0.7,1.9,1.6c0,0.7-0.4,1.2-1,1.4l1.2,2h-0.9l-1.1-1.9h-0.1h-0.8V150.5
			z M139.3,147.9c0.8,0,1.1-0.3,1.1-0.9c0-0.6-0.3-0.9-1.1-0.9h-0.8v1.8H139.3z"/>
		<polygon class="st17" points="142.2,145.4 145.4,145.4 145.4,146.1 143,146.1 143,147.5 145.2,147.5 145.2,148.2 143,148.2 
			143,149.7 145.5,149.7 145.5,150.5 142.2,150.5 		"/>
		<path class="st17" d="M146.7,149.1c0.2,0.4,0.6,0.7,1.1,0.7c0.5,0,0.9-0.3,0.9-0.7c0-0.5-0.4-0.7-0.8-0.9l-0.4-0.2
			c-0.7-0.3-1.3-0.7-1.3-1.5c0-0.8,0.6-1.3,1.5-1.3c0.7,0,1.2,0.3,1.5,0.8l-0.6,0.4c-0.2-0.3-0.5-0.5-0.9-0.5
			c-0.4,0-0.7,0.2-0.7,0.6c0,0.4,0.3,0.5,0.8,0.8l0.4,0.2c0.8,0.3,1.3,0.7,1.3,1.6c0,0.9-0.7,1.4-1.7,1.4c-0.9,0-1.5-0.4-1.8-1.1
			L146.7,149.1z"/>
		<path class="st17" d="M150.1,147.9c0-1.5,1.1-2.6,2.6-2.6c0.9,0,1.6,0.4,2,1l-0.6,0.4c-0.3-0.5-0.8-0.7-1.4-0.7
			c-1,0-1.7,0.8-1.7,1.9c0,1.1,0.7,1.9,1.8,1.9c0.7,0,1.1-0.2,1.5-0.7l0.6,0.4c-0.5,0.7-1.2,1-2.2,1
			C151.3,150.5,150.1,149.4,150.1,147.9"/>
		<path class="st17" d="M155.3,147.9c0-1.5,1.2-2.6,2.6-2.6c1.5,0,2.6,1.1,2.6,2.6c0,1.5-1.2,2.6-2.6,2.6
			C156.5,150.5,155.3,149.4,155.3,147.9 M159.7,147.9c0-1.1-0.7-1.9-1.8-1.9c-1.1,0-1.8,0.8-1.8,1.9c0,1.1,0.7,1.9,1.8,1.9
			C159,149.8,159.7,149,159.7,147.9"/>
		<polygon class="st17" points="86.4,146.2 86.9,147.8 88.6,147.8 87.2,148.8 87.7,150.3 86.4,149.4 85,150.3 85.5,148.8 
			84.2,147.8 85.9,147.8 		"/>
		<polygon class="st17" points="167,146.2 167.5,147.8 169.2,147.8 167.9,148.8 168.4,150.3 167,149.4 165.7,150.3 166.2,148.8 
			164.8,147.8 166.5,147.8 		"/>
		<polygon class="st17" points="49,158.7 46.5,158.7 46.5,158.1 52.3,158.1 52.3,158.7 49.8,158.7 49.8,166.2 49,166.2 		"/>
		<path class="st17" d="M51.2,164.2c0-1.2,0.9-2.1,2.1-2.1c1.2,0,2.1,0.9,2.1,2.1c0,1.2-0.9,2.1-2.1,2.1
			C52.1,166.3,51.2,165.4,51.2,164.2 M54.6,164.2c0-0.8-0.5-1.5-1.3-1.5c-0.8,0-1.3,0.6-1.3,1.5c0,0.8,0.5,1.4,1.3,1.4
			C54.1,165.7,54.6,165.1,54.6,164.2"/>
		<path class="st17" d="M56,164.2c0-1.2,0.9-2.1,2-2.1c0.6,0,1.1,0.3,1.4,0.8v-5.2h0.7v8.5h-0.7v-0.7c-0.3,0.5-0.8,0.8-1.4,0.8
			C56.9,166.3,56,165.4,56,164.2 M59.4,164.2c0-0.8-0.5-1.4-1.3-1.4c-0.8,0-1.3,0.6-1.3,1.4c0,0.8,0.5,1.4,1.3,1.4
			C58.9,165.7,59.4,165.1,59.4,164.2"/>
		<path class="st17" d="M61.1,164.2c0-1.2,0.9-2.1,2.1-2.1c1.2,0,2.1,0.9,2.1,2.1c0,1.2-0.9,2.1-2.1,2.1
			C62.1,166.3,61.1,165.4,61.1,164.2 M64.6,164.2c0-0.8-0.5-1.5-1.3-1.5c-0.8,0-1.3,0.6-1.3,1.5c0,0.8,0.5,1.4,1.3,1.4
			C64,165.7,64.6,165.1,64.6,164.2"/>
		<path class="st17" d="M65.9,165.4l0.6-0.4c0.2,0.4,0.6,0.6,1.2,0.6c0.5,0,0.8-0.2,0.8-0.5c0-0.4-0.3-0.5-1-0.7
			c-0.8-0.2-1.3-0.5-1.3-1.2c0-0.6,0.5-1.1,1.3-1.1c0.7,0,1.1,0.3,1.4,0.6l-0.5,0.4c-0.2-0.3-0.5-0.4-0.9-0.4
			c-0.4,0-0.6,0.2-0.6,0.4c0,0.3,0.3,0.4,0.9,0.6c0.9,0.2,1.4,0.6,1.4,1.3c0,0.7-0.6,1.2-1.5,1.2C66.8,166.3,66.2,166,65.9,165.4"/>
		<path class="st17" d="M72.2,162.3H73v0.6c0.3-0.5,0.8-0.7,1.4-0.7c0.9,0,1.5,0.6,1.5,1.6v2.4h-0.7v-2.4c0-0.7-0.3-1-1-1
			c-0.7,0-1.2,0.4-1.2,1.2v2.2h-0.7V162.3z"/>
		<path class="st17" d="M76.9,164.7v-2.4h0.7v2.4c0,0.7,0.3,1,1,1c0.7,0,1.2-0.4,1.2-1.2v-2.2h0.7v3.9h-0.7v-0.6
			c-0.3,0.5-0.8,0.7-1.4,0.7C77.5,166.3,76.9,165.8,76.9,164.7"/>
		<path class="st17" d="M83.7,165.7c0.6,0,1-0.2,1.2-0.5l0.5,0.4c-0.4,0.4-0.9,0.7-1.7,0.7c-1.3,0-2.2-0.9-2.2-2.1
			c0-1.2,0.9-2.1,2.1-2.1c1.3,0,2,1,2,2.3h-3.3C82.4,165.2,82.9,165.7,83.7,165.7 M84.8,163.9c-0.1-0.6-0.5-1.1-1.2-1.1
			c-0.7,0-1.2,0.4-1.3,1.1H84.8z"/>
		<path class="st17" d="M86.1,165.4l0.6-0.4c0.2,0.4,0.6,0.6,1.2,0.6c0.5,0,0.8-0.2,0.8-0.5c0-0.4-0.3-0.5-1-0.7
			c-0.8-0.2-1.3-0.5-1.3-1.2c0-0.6,0.5-1.1,1.3-1.1c0.7,0,1.1,0.3,1.4,0.6l-0.5,0.4c-0.2-0.3-0.5-0.4-0.9-0.4
			c-0.4,0-0.6,0.2-0.6,0.4c0,0.3,0.3,0.4,0.9,0.6c0.9,0.2,1.4,0.6,1.4,1.3c0,0.7-0.6,1.2-1.5,1.2C87.1,166.3,86.5,166,86.1,165.4"/>
		<path class="st17" d="M89.9,162.9v-0.6h0.5v-1.5h0.7v1.5h1v0.6h-1v2.2c0,0.4,0.1,0.6,0.4,0.6c0.2,0,0.3-0.1,0.4-0.2l0.3,0.5
			c-0.2,0.2-0.5,0.3-0.8,0.3c-0.6,0-1.1-0.4-1.1-1.2v-2.3H89.9z"/>
		<path class="st17" d="M93.1,162.3h0.7v0.7c0.3-0.5,0.7-0.8,1.2-0.8c0.3,0,0.4,0,0.6,0.2l-0.3,0.6c-0.1-0.1-0.3-0.1-0.5-0.1
			c-0.6,0-1,0.5-1,1.3v2.1h-0.7V162.3z"/>
		<path class="st17" d="M96,164.2c0-1.2,0.9-2.1,2.1-2.1c1.2,0,2.1,0.9,2.1,2.1c0,1.2-0.9,2.1-2.1,2.1C97,166.3,96,165.4,96,164.2
			 M99.5,164.2c0-0.8-0.5-1.5-1.3-1.5c-0.8,0-1.3,0.6-1.3,1.5c0,0.8,0.5,1.4,1.3,1.4C98.9,165.7,99.5,165.1,99.5,164.2"/>
		<path class="st17" d="M100.8,165.4l0.6-0.4c0.2,0.4,0.6,0.6,1.2,0.6c0.5,0,0.8-0.2,0.8-0.5c0-0.4-0.3-0.5-1-0.7
			c-0.8-0.2-1.3-0.5-1.3-1.2c0-0.6,0.5-1.1,1.3-1.1c0.7,0,1.1,0.3,1.4,0.6l-0.5,0.4c-0.2-0.3-0.5-0.4-0.9-0.4
			c-0.4,0-0.6,0.2-0.6,0.4c0,0.3,0.3,0.4,0.9,0.6c0.9,0.2,1.4,0.6,1.4,1.3c0,0.7-0.6,1.2-1.5,1.2C101.7,166.3,101.1,166,100.8,165.4
			"/>
		<path class="st17" d="M107.2,162.3h0.7v0.7c0.3-0.5,0.8-0.8,1.4-0.8c1.1,0,1.9,0.9,1.9,2.1c0,1.2-0.8,2.1-1.9,2.1
			c-0.7,0-1.2-0.3-1.4-0.8v3.2h-0.7V162.3z M110.5,164.2c0-0.8-0.5-1.4-1.3-1.4c-0.8,0-1.3,0.6-1.3,1.4c0,0.8,0.5,1.4,1.3,1.4
			C110,165.7,110.5,165.1,110.5,164.2"/>
		<path class="st17" d="M112.2,162.3h0.7v0.7c0.3-0.5,0.7-0.8,1.2-0.8c0.3,0,0.4,0,0.6,0.2l-0.3,0.6c-0.1-0.1-0.3-0.1-0.5-0.1
			c-0.6,0-1,0.5-1,1.3v2.1h-0.7V162.3z"/>
		<path class="st17" d="M115.1,164.2c0-1.2,0.9-2.1,2.1-2.1c1.2,0,2.1,0.9,2.1,2.1c0,1.2-0.9,2.1-2.1,2.1
			C116,166.3,115.1,165.4,115.1,164.2 M118.5,164.2c0-0.8-0.5-1.5-1.3-1.5c-0.8,0-1.3,0.6-1.3,1.5c0,0.8,0.5,1.4,1.3,1.4
			C118,165.7,118.5,165.1,118.5,164.2"/>
		<path class="st17" d="M120,164.2c0-1.2,0.9-2.1,2-2.1c0.6,0,1.1,0.3,1.4,0.8v-5.2h0.7v8.5h-0.7v-0.7c-0.3,0.5-0.8,0.8-1.4,0.8
			C120.8,166.3,120,165.4,120,164.2 M123.4,164.2c0-0.8-0.5-1.4-1.3-1.4c-0.8,0-1.3,0.6-1.3,1.4c0,0.8,0.5,1.4,1.3,1.4
			C122.8,165.7,123.4,165.1,123.4,164.2"/>
		<path class="st17" d="M125.3,164.7v-2.4h0.7v2.4c0,0.7,0.3,1,1,1c0.7,0,1.2-0.4,1.2-1.2v-2.2h0.7v3.9h-0.7v-0.6
			c-0.3,0.5-0.8,0.7-1.4,0.7C125.9,166.3,125.3,165.8,125.3,164.7"/>
		<path class="st17" d="M129.8,164.2c0-1.2,0.9-2.1,2-2.1c0.7,0,1.2,0.2,1.6,0.6l-0.5,0.4c-0.3-0.3-0.6-0.4-1.1-0.4
			c-0.8,0-1.3,0.6-1.3,1.4c0,0.8,0.5,1.4,1.3,1.4c0.5,0,0.9-0.2,1.2-0.5l0.5,0.4c-0.4,0.4-0.9,0.7-1.7,0.7
			C130.7,166.3,129.8,165.4,129.8,164.2"/>
		<path class="st17" d="M134.1,162.9v-0.6h0.5v-1.5h0.7v1.5h1v0.6h-1v2.2c0,0.4,0.1,0.6,0.4,0.6c0.2,0,0.3-0.1,0.4-0.2l0.3,0.5
			c-0.2,0.2-0.5,0.3-0.8,0.3c-0.6,0-1.1-0.4-1.1-1.2v-2.3H134.1z"/>
		<path class="st17" d="M137.1,164.2c0-1.2,0.9-2.1,2.1-2.1c1.2,0,2.1,0.9,2.1,2.1c0,1.2-0.9,2.1-2.1,2.1
			C138,166.3,137.1,165.4,137.1,164.2 M140.5,164.2c0-0.8-0.5-1.5-1.3-1.5c-0.8,0-1.3,0.6-1.3,1.5c0,0.8,0.5,1.4,1.3,1.4
			C140,165.7,140.5,165.1,140.5,164.2"/>
		<path class="st17" d="M141.8,165.4l0.6-0.4c0.2,0.4,0.6,0.6,1.2,0.6c0.5,0,0.8-0.2,0.8-0.5c0-0.4-0.3-0.5-1-0.7
			c-0.8-0.2-1.3-0.5-1.3-1.2c0-0.6,0.5-1.1,1.3-1.1c0.7,0,1.1,0.3,1.4,0.6l-0.5,0.4c-0.2-0.3-0.5-0.4-0.9-0.4
			c-0.4,0-0.6,0.2-0.6,0.4c0,0.3,0.3,0.4,0.9,0.6c0.9,0.2,1.4,0.6,1.4,1.3c0,0.7-0.6,1.2-1.5,1.2C142.7,166.3,142.2,166,141.8,165.4
			"/>
		<path class="st17" d="M147.8,165.4l0.6-0.4c0.2,0.4,0.6,0.6,1.2,0.6c0.5,0,0.8-0.2,0.8-0.5c0-0.4-0.3-0.5-1-0.7
			c-0.8-0.2-1.3-0.5-1.3-1.2c0-0.6,0.5-1.1,1.3-1.1c0.7,0,1.1,0.3,1.4,0.6l-0.5,0.4c-0.2-0.3-0.5-0.4-0.9-0.4
			c-0.4,0-0.6,0.2-0.6,0.4c0,0.3,0.3,0.4,0.9,0.6c0.9,0.2,1.4,0.6,1.4,1.3c0,0.7-0.6,1.2-1.5,1.2C148.7,166.3,148.2,166,147.8,165.4
			"/>
		<path class="st17" d="M151.7,164.2c0-1.2,0.9-2.1,2.1-2.1c1.2,0,2.1,0.9,2.1,2.1c0,1.2-0.9,2.1-2.1,2.1
			C152.7,166.3,151.7,165.4,151.7,164.2 M155.2,164.2c0-0.8-0.5-1.5-1.3-1.5c-0.8,0-1.3,0.6-1.3,1.5c0,0.8,0.5,1.4,1.3,1.4
			C154.6,165.7,155.2,165.1,155.2,164.2"/>
		<path class="st17" d="M156.9,162.3h0.7v0.6c0.3-0.5,0.8-0.7,1.4-0.7c0.9,0,1.5,0.6,1.5,1.6v2.4h-0.7v-2.4c0-0.7-0.3-1-1-1
			c-0.7,0-1.2,0.4-1.2,1.2v2.2h-0.7V162.3z"/>
		<path class="st17" d="M165.7,165.7c0.6,0,1-0.2,1.2-0.5l0.5,0.4c-0.4,0.4-0.9,0.7-1.7,0.7c-1.3,0-2.2-0.9-2.2-2.1
			c0-1.2,0.9-2.1,2.1-2.1c1.3,0,2,1,2,2.3h-3.3C164.5,165.2,165,165.7,165.7,165.7 M166.9,163.9c-0.1-0.6-0.5-1.1-1.2-1.1
			c-0.7,0-1.2,0.4-1.3,1.1H166.9z"/>
		<rect x="168.7" y="157.7" class="st17" width="0.7" height="8.5"/>
		<path class="st17" d="M173.2,163.8c0-0.7-0.4-1-0.9-1c-0.5,0-0.8,0.2-1.1,0.6l-0.5-0.4c0.4-0.5,0.9-0.8,1.6-0.8
			c1,0,1.6,0.5,1.6,1.6v2.4h-0.7v-0.4c-0.3,0.3-0.7,0.5-1.2,0.5c-0.8,0-1.5-0.4-1.5-1.3c0-0.8,0.7-1.2,1.5-1.2L173.2,163.8
			L173.2,163.8z M172,164.4c-0.5,0-0.9,0.2-0.9,0.6c0,0.4,0.3,0.7,0.9,0.7c0.6,0,1.1-0.3,1.1-0.9v-0.4H172z"/>
		<path class="st17" d="M175.8,165.5v0.7h-0.7v-8.5h0.7v5.2c0.3-0.5,0.8-0.8,1.4-0.8c1.1,0,1.9,0.9,1.9,2.1c0,1.2-0.8,2.1-1.9,2.1
			C176.6,166.3,176.1,166,175.8,165.5 M178.5,164.2c0-0.8-0.5-1.4-1.3-1.4c-0.8,0-1.3,0.6-1.3,1.4c0,0.8,0.5,1.4,1.3,1.4
			C177.9,165.7,178.5,165.1,178.5,164.2"/>
		<path class="st17" d="M179.9,164.2c0-1.2,0.9-2.1,2.1-2.1c1.2,0,2.1,0.9,2.1,2.1c0,1.2-0.9,2.1-2.1,2.1
			C180.8,166.3,179.9,165.4,179.9,164.2 M183.3,164.2c0-0.8-0.5-1.5-1.3-1.5c-0.8,0-1.3,0.6-1.3,1.5c0,0.8,0.5,1.4,1.3,1.4
			C182.8,165.7,183.3,165.1,183.3,164.2"/>
		<path class="st17" d="M185,162.3h0.7v0.7c0.3-0.5,0.7-0.8,1.2-0.8c0.3,0,0.4,0,0.6,0.2l-0.3,0.6c-0.1-0.1-0.3-0.1-0.5-0.1
			c-0.6,0-1,0.5-1,1.3v2.1H185V162.3z"/>
		<path class="st17" d="M190.6,163.8c0-0.7-0.4-1-0.9-1c-0.5,0-0.8,0.2-1.1,0.6l-0.5-0.4c0.4-0.5,0.9-0.8,1.6-0.8
			c1,0,1.6,0.5,1.6,1.6v2.4h-0.7v-0.4c-0.3,0.3-0.7,0.5-1.2,0.5c-0.8,0-1.5-0.4-1.5-1.3c0-0.8,0.7-1.2,1.5-1.2L190.6,163.8
			L190.6,163.8z M189.5,164.4c-0.5,0-0.9,0.2-0.9,0.6c0,0.4,0.3,0.7,0.9,0.7c0.6,0,1.1-0.3,1.1-0.9v-0.4H189.5z"/>
		<path class="st17" d="M192.3,164.2c0-1.2,0.9-2.1,2-2.1c0.6,0,1.1,0.3,1.4,0.8v-5.2h0.7v8.5h-0.7v-0.7c-0.3,0.5-0.8,0.8-1.4,0.8
			C193.2,166.3,192.3,165.4,192.3,164.2 M195.7,164.2c0-0.8-0.5-1.4-1.3-1.4c-0.8,0-1.3,0.6-1.3,1.4c0,0.8,0.5,1.4,1.3,1.4
			C195.2,165.7,195.7,165.1,195.7,164.2"/>
		<path class="st17" d="M197.4,164.2c0-1.2,0.9-2.1,2.1-2.1c1.2,0,2.1,0.9,2.1,2.1c0,1.2-0.9,2.1-2.1,2.1
			C198.3,166.3,197.4,165.4,197.4,164.2 M200.8,164.2c0-0.8-0.5-1.5-1.3-1.5c-0.8,0-1.3,0.6-1.3,1.5c0,0.8,0.5,1.4,1.3,1.4
			C200.3,165.7,200.8,165.1,200.8,164.2"/>
		<path class="st17" d="M202.1,165.4l0.6-0.4c0.2,0.4,0.6,0.6,1.2,0.6c0.5,0,0.8-0.2,0.8-0.5c0-0.4-0.3-0.5-1-0.7
			c-0.8-0.2-1.3-0.5-1.3-1.2c0-0.6,0.5-1.1,1.3-1.1c0.7,0,1.1,0.3,1.4,0.6l-0.5,0.4c-0.2-0.3-0.5-0.4-0.9-0.4
			c-0.4,0-0.6,0.2-0.6,0.4c0,0.3,0.3,0.4,0.9,0.6c0.9,0.2,1.4,0.6,1.4,1.3c0,0.7-0.6,1.2-1.5,1.2C203.1,166.3,202.5,166,202.1,165.4
			"/>
		<path class="st17" d="M34.1,178.6c0-1.2,0.9-2.1,2-2.1c0.7,0,1.2,0.2,1.6,0.6l-0.5,0.4c-0.3-0.3-0.6-0.4-1.1-0.4
			c-0.8,0-1.3,0.6-1.3,1.4c0,0.8,0.5,1.4,1.3,1.4c0.5,0,0.9-0.2,1.2-0.5l0.5,0.4c-0.4,0.4-0.9,0.7-1.7,0.7
			C35,180.7,34.1,179.8,34.1,178.6"/>
		<path class="st17" d="M38.4,178.6c0-1.2,0.9-2.1,2.1-2.1c1.2,0,2.1,0.9,2.1,2.1c0,1.2-0.9,2.1-2.1,2.1
			C39.3,180.7,38.4,179.8,38.4,178.6 M41.8,178.6c0-0.8-0.5-1.5-1.3-1.5c-0.8,0-1.3,0.6-1.3,1.5c0,0.8,0.5,1.4,1.3,1.4
			C41.3,180.1,41.8,179.5,41.8,178.6"/>
		<path class="st17" d="M43.5,176.7h0.7v0.6c0.3-0.5,0.8-0.7,1.4-0.7c0.9,0,1.5,0.6,1.5,1.6v2.4h-0.7v-2.4c0-0.7-0.3-1-1-1
			c-0.7,0-1.2,0.4-1.2,1.2v2.2h-0.7V176.7z"/>
		<path class="st17" d="M50.4,175.1c0-0.3,0.2-0.5,0.5-0.5c0.3,0,0.5,0.2,0.5,0.5c0,0.3-0.2,0.5-0.5,0.5
			C50.6,175.6,50.4,175.4,50.4,175.1 M50.5,176.7h0.7v3.9h-0.7V176.7z"/>
		<path class="st17" d="M52.5,176.7h0.7v0.6c0.3-0.5,0.8-0.7,1.4-0.7c0.9,0,1.5,0.6,1.5,1.6v2.4h-0.7v-2.4c0-0.7-0.3-1-1-1
			c-0.7,0-1.2,0.4-1.2,1.2v2.2h-0.7V176.7z"/>
		<path class="st17" d="M57.1,182.1l0.6-0.3c0.3,0.6,0.8,0.9,1.4,0.9c0.8,0,1.3-0.5,1.3-1.4v-1.3c-0.3,0.5-0.8,0.8-1.4,0.8
			c-1.1,0-2-0.9-2-2.1c0-1.2,0.9-2.1,2-2.1c0.6,0,1.1,0.3,1.4,0.8v-0.7h0.7v4.6c0,1.2-0.7,2-2,2C58.2,183.3,57.5,182.8,57.1,182.1
			 M60.4,178.6c0-0.8-0.5-1.4-1.3-1.4c-0.8,0-1.3,0.6-1.3,1.4c0,0.8,0.5,1.4,1.3,1.4C59.9,180.1,60.4,179.5,60.4,178.6"/>
		<path class="st17" d="M62.4,176.7h0.7v0.7c0.3-0.5,0.7-0.8,1.2-0.8c0.3,0,0.4,0,0.6,0.2l-0.3,0.6c-0.1-0.1-0.3-0.1-0.5-0.1
			c-0.6,0-1,0.5-1,1.3v2.1h-0.7V176.7z"/>
		<path class="st17" d="M67.4,180.1c0.6,0,1-0.2,1.2-0.5l0.5,0.4c-0.4,0.4-0.9,0.7-1.7,0.7c-1.3,0-2.2-0.9-2.2-2.1
			c0-1.2,0.9-2.1,2.1-2.1c1.3,0,2,1,2,2.3H66C66.1,179.6,66.6,180.1,67.4,180.1 M68.6,178.3c-0.1-0.6-0.5-1.1-1.2-1.1
			c-0.7,0-1.2,0.4-1.3,1.1H68.6z"/>
		<path class="st17" d="M70.1,178.6c0-1.2,0.9-2.1,2-2.1c0.6,0,1.1,0.3,1.4,0.8v-5.2h0.7v8.5h-0.7v-0.7c-0.3,0.5-0.8,0.8-1.4,0.8
			C70.9,180.7,70.1,179.8,70.1,178.6 M73.5,178.6c0-0.8-0.5-1.4-1.3-1.4c-0.8,0-1.3,0.6-1.3,1.4c0,0.8,0.5,1.4,1.3,1.4
			C72.9,180.1,73.5,179.5,73.5,178.6"/>
		<path class="st17" d="M75.3,175.1c0-0.3,0.2-0.5,0.5-0.5c0.3,0,0.5,0.2,0.5,0.5c0,0.3-0.2,0.5-0.5,0.5
			C75.5,175.6,75.3,175.4,75.3,175.1 M75.4,176.7h0.7v3.9h-0.7V176.7z"/>
		<path class="st17" d="M79.3,180.1c0.6,0,1-0.2,1.2-0.5L81,180c-0.4,0.4-0.9,0.7-1.7,0.7c-1.3,0-2.2-0.9-2.2-2.1
			c0-1.2,0.9-2.1,2.1-2.1c1.3,0,2,1,2,2.3h-3.3C78.1,179.6,78.6,180.1,79.3,180.1 M80.5,178.3c-0.1-0.6-0.5-1.1-1.2-1.1
			c-0.7,0-1.2,0.4-1.3,1.1H80.5z"/>
		<path class="st17" d="M82.2,176.7H83v0.6c0.3-0.5,0.8-0.7,1.4-0.7c0.9,0,1.5,0.6,1.5,1.6v2.4h-0.7v-2.4c0-0.7-0.3-1-1-1
			c-0.7,0-1.2,0.4-1.2,1.2v2.2h-0.7V176.7z"/>
		<path class="st17" d="M86.6,177.3v-0.6h0.5v-1.5h0.7v1.5h1v0.6h-1v2.2c0,0.4,0.1,0.6,0.4,0.6c0.2,0,0.3-0.1,0.4-0.2l0.3,0.5
			c-0.2,0.2-0.5,0.3-0.8,0.3c-0.6,0-1.1-0.4-1.1-1.2v-2.3H86.6z"/>
		<path class="st17" d="M91.7,180.1c0.6,0,1-0.2,1.2-0.5l0.5,0.4c-0.4,0.4-0.9,0.7-1.7,0.7c-1.3,0-2.2-0.9-2.2-2.1
			c0-1.2,0.9-2.1,2.1-2.1c1.3,0,2,1,2,2.3h-3.3C90.5,179.6,91,180.1,91.7,180.1 M92.9,178.3c-0.1-0.6-0.5-1.1-1.2-1.1
			c-0.7,0-1.2,0.4-1.3,1.1H92.9z"/>
		<path class="st17" d="M94.2,179.8l0.6-0.4c0.2,0.4,0.6,0.6,1.2,0.6c0.5,0,0.8-0.2,0.8-0.5c0-0.4-0.3-0.5-1-0.7
			c-0.8-0.2-1.3-0.5-1.3-1.2c0-0.6,0.5-1.1,1.3-1.1c0.7,0,1.1,0.3,1.4,0.6l-0.5,0.4c-0.2-0.3-0.5-0.4-0.9-0.4
			c-0.4,0-0.6,0.2-0.6,0.4c0,0.3,0.3,0.4,0.9,0.6c0.9,0.2,1.4,0.6,1.4,1.3c0,0.7-0.6,1.2-1.5,1.2C95.1,180.7,94.6,180.4,94.2,179.8"
			/>
		<path class="st17" d="M100.3,178.6c0-1.2,0.9-2.1,2-2.1c0.6,0,1.1,0.3,1.4,0.8v-5.2h0.7v8.5h-0.7v-0.7c-0.3,0.5-0.8,0.8-1.4,0.8
			C101.2,180.7,100.3,179.8,100.3,178.6 M103.7,178.6c0-0.8-0.5-1.4-1.3-1.4c-0.8,0-1.3,0.6-1.3,1.4c0,0.8,0.5,1.4,1.3,1.4
			C103.2,180.1,103.7,179.5,103.7,178.6"/>
		<path class="st17" d="M107.6,180.1c0.6,0,1-0.2,1.2-0.5l0.5,0.4c-0.4,0.4-0.9,0.7-1.7,0.7c-1.3,0-2.2-0.9-2.2-2.1
			c0-1.2,0.9-2.1,2.1-2.1c1.3,0,2,1,2,2.3h-3.3C106.3,179.6,106.8,180.1,107.6,180.1 M108.7,178.3c-0.1-0.6-0.5-1.1-1.2-1.1
			c-0.7,0-1.2,0.4-1.3,1.1H108.7z"/>
		<path class="st17" d="M112.7,176.7h0.7v0.7c0.3-0.5,0.8-0.8,1.4-0.8c1.1,0,1.9,0.9,1.9,2.1c0,1.2-0.8,2.1-1.9,2.1
			c-0.7,0-1.2-0.3-1.4-0.8v3.2h-0.7V176.7z M116,178.6c0-0.8-0.5-1.4-1.3-1.4c-0.8,0-1.3,0.6-1.3,1.4c0,0.8,0.5,1.4,1.3,1.4
			C115.5,180.1,116,179.5,116,178.6"/>
		<path class="st17" d="M117.8,176.7h0.7v0.7c0.3-0.5,0.7-0.8,1.2-0.8c0.3,0,0.4,0,0.6,0.2l-0.3,0.6c-0.1-0.1-0.3-0.1-0.5-0.1
			c-0.6,0-1,0.5-1,1.3v2.1h-0.7V176.7z"/>
		<path class="st17" d="M120.6,178.6c0-1.2,0.9-2.1,2.1-2.1c1.2,0,2.1,0.9,2.1,2.1c0,1.2-0.9,2.1-2.1,2.1
			C121.6,180.7,120.6,179.8,120.6,178.6 M124.1,178.6c0-0.8-0.5-1.5-1.3-1.5c-0.8,0-1.3,0.6-1.3,1.5c0,0.8,0.5,1.4,1.3,1.4
			C123.5,180.1,124.1,179.5,124.1,178.6"/>
		<polygon class="st17" points="125.1,176.7 125.9,176.7 127.2,179.3 128.4,176.7 129.1,176.7 127.2,180.7 127.1,180.7 		"/>
		<path class="st17" d="M131.6,180.1c0.6,0,1-0.2,1.2-0.5l0.5,0.4c-0.4,0.4-0.9,0.7-1.7,0.7c-1.3,0-2.2-0.9-2.2-2.1
			c0-1.2,0.9-2.1,2.1-2.1c1.3,0,2,1,2,2.3h-3.3C130.3,179.6,130.8,180.1,131.6,180.1 M132.7,178.3c-0.1-0.6-0.5-1.1-1.2-1.1
			c-0.7,0-1.2,0.4-1.3,1.1H132.7z"/>
		<path class="st17" d="M136.4,180.1c0.6,0,1-0.2,1.2-0.5l0.5,0.4c-0.4,0.4-0.9,0.7-1.7,0.7c-1.3,0-2.2-0.9-2.2-2.1
			c0-1.2,0.9-2.1,2.1-2.1c1.3,0,2,1,2,2.3H135C135.1,179.6,135.6,180.1,136.4,180.1 M137.5,178.3c-0.1-0.6-0.5-1.1-1.2-1.1
			c-0.7,0-1.2,0.4-1.3,1.1H137.5z"/>
		<path class="st17" d="M139,178.6c0-1.2,0.9-2.1,2-2.1c0.6,0,1.1,0.3,1.4,0.8v-5.2h0.7v8.5h-0.7v-0.7c-0.3,0.5-0.8,0.8-1.4,0.8
			C139.9,180.7,139,179.8,139,178.6 M142.4,178.6c0-0.8-0.5-1.4-1.3-1.4c-0.8,0-1.3,0.6-1.3,1.4c0,0.8,0.5,1.4,1.3,1.4
			C141.9,180.1,142.4,179.5,142.4,178.6"/>
		<path class="st17" d="M144.1,178.6c0-1.2,0.9-2.1,2.1-2.1c1.2,0,2.1,0.9,2.1,2.1c0,1.2-0.9,2.1-2.1,2.1
			C145.1,180.7,144.1,179.8,144.1,178.6 M147.6,178.6c0-0.8-0.5-1.5-1.3-1.5c-0.8,0-1.3,0.6-1.3,1.5c0,0.8,0.5,1.4,1.3,1.4
			C147,180.1,147.6,179.5,147.6,178.6"/>
		<path class="st17" d="M149.3,176.7h0.7v0.7c0.3-0.5,0.7-0.8,1.2-0.8c0.3,0,0.4,0,0.6,0.2l-0.3,0.6c-0.1-0.1-0.3-0.1-0.5-0.1
			c-0.6,0-1,0.5-1,1.3v2.1h-0.7V176.7z"/>
		<path class="st17" d="M154.3,180.1c0.6,0,1-0.2,1.2-0.5l0.5,0.4c-0.4,0.4-0.9,0.7-1.7,0.7c-1.3,0-2.2-0.9-2.2-2.1
			c0-1.2,0.9-2.1,2.1-2.1c1.3,0,2,1,2,2.3h-3.3C153.1,179.6,153.6,180.1,154.3,180.1 M155.5,178.3c-0.1-0.6-0.5-1.1-1.2-1.1
			c-0.7,0-1.2,0.4-1.3,1.1H155.5z"/>
		<path class="st17" d="M156.8,179.8l0.6-0.4c0.2,0.4,0.6,0.6,1.2,0.6c0.5,0,0.8-0.2,0.8-0.5c0-0.4-0.3-0.5-1-0.7
			c-0.8-0.2-1.3-0.5-1.3-1.2c0-0.6,0.5-1.1,1.3-1.1c0.7,0,1.1,0.3,1.4,0.6l-0.5,0.4c-0.2-0.3-0.5-0.4-0.9-0.4
			c-0.4,0-0.6,0.2-0.6,0.4c0,0.3,0.3,0.4,0.9,0.6c0.9,0.2,1.4,0.6,1.4,1.3c0,0.7-0.6,1.2-1.5,1.2
			C157.7,180.7,157.2,180.4,156.8,179.8"/>
		<rect x="163.2" y="172.1" class="st17" width="0.7" height="8.5"/>
		<path class="st17" d="M165,178.6c0-1.2,0.9-2.1,2.1-2.1c1.2,0,2.1,0.9,2.1,2.1c0,1.2-0.9,2.1-2.1,2.1
			C165.9,180.7,165,179.8,165,178.6 M168.4,178.6c0-0.8-0.5-1.5-1.3-1.5c-0.8,0-1.3,0.6-1.3,1.5c0,0.8,0.5,1.4,1.3,1.4
			C167.8,180.1,168.4,179.5,168.4,178.6"/>
		<path class="st17" d="M169.8,178.6c0-1.2,0.9-2.1,2-2.1c0.7,0,1.2,0.2,1.6,0.6l-0.5,0.4c-0.3-0.3-0.6-0.4-1.1-0.4
			c-0.8,0-1.3,0.6-1.3,1.4c0,0.8,0.5,1.4,1.3,1.4c0.5,0,0.9-0.2,1.2-0.5l0.5,0.4c-0.4,0.4-0.9,0.7-1.7,0.7
			C170.7,180.7,169.8,179.8,169.8,178.6"/>
		<path class="st17" d="M176.9,178.2c0-0.7-0.4-1-0.9-1c-0.5,0-0.8,0.2-1.1,0.6l-0.5-0.4c0.4-0.5,0.9-0.8,1.6-0.8
			c1,0,1.6,0.5,1.6,1.6v2.4h-0.7v-0.4c-0.3,0.3-0.7,0.5-1.2,0.5c-0.8,0-1.5-0.4-1.5-1.3c0-0.8,0.7-1.2,1.5-1.2L176.9,178.2
			L176.9,178.2z M175.7,178.8c-0.5,0-0.9,0.2-0.9,0.6c0,0.4,0.3,0.7,0.9,0.7c0.6,0,1.1-0.3,1.1-0.9v-0.4H175.7z"/>
		<rect x="178.9" y="172.1" class="st17" width="0.7" height="8.5"/>
		<path class="st17" d="M182.8,180.1c0.6,0,1-0.2,1.2-0.5l0.5,0.4c-0.4,0.4-0.9,0.7-1.7,0.7c-1.3,0-2.2-0.9-2.2-2.1
			c0-1.2,0.9-2.1,2.1-2.1c1.3,0,2,1,2,2.3h-3.3C181.5,179.6,182,180.1,182.8,180.1 M183.9,178.3c-0.1-0.6-0.5-1.1-1.2-1.1
			c-0.7,0-1.2,0.4-1.3,1.1H183.9z"/>
		<path class="st17" d="M185.2,179.8l0.6-0.4c0.2,0.4,0.6,0.6,1.2,0.6c0.5,0,0.8-0.2,0.8-0.5c0-0.4-0.3-0.5-1-0.7
			c-0.8-0.2-1.3-0.5-1.3-1.2c0-0.6,0.5-1.1,1.3-1.1c0.7,0,1.1,0.3,1.4,0.6l-0.5,0.4c-0.2-0.3-0.5-0.4-0.9-0.4
			c-0.4,0-0.6,0.2-0.6,0.4c0,0.3,0.3,0.4,0.9,0.6c0.9,0.2,1.4,0.6,1.4,1.3c0,0.7-0.6,1.2-1.5,1.2
			C186.2,180.7,185.6,180.4,185.2,179.8"/>
		<path class="st17" d="M189.6,180.6c-0.2-0.1-0.3-0.3-0.3-0.5c0-0.3,0.3-0.6,0.6-0.6c0.3,0,0.6,0.2,0.6,0.6c0,0.2-0.1,0.3-0.2,0.5
			l-0.6,1h-0.4L189.6,180.6z"/>
		<path class="st17" d="M193.6,172.1h0.7v5.2c0.3-0.5,0.8-0.7,1.4-0.7c0.9,0,1.5,0.6,1.5,1.6v2.4h-0.7v-2.4c0-0.7-0.3-1-1-1
			c-0.7,0-1.2,0.4-1.2,1.2v2.2h-0.7V172.1z"/>
		<path class="st17" d="M200.3,180.1c0.6,0,1-0.2,1.2-0.5l0.5,0.4c-0.4,0.4-0.9,0.7-1.7,0.7c-1.3,0-2.2-0.9-2.2-2.1
			c0-1.2,0.9-2.1,2.1-2.1c1.3,0,2,1,2,2.3h-3.3C199,179.6,199.5,180.1,200.3,180.1 M201.5,178.3c-0.1-0.6-0.5-1.1-1.2-1.1
			c-0.7,0-1.2,0.4-1.3,1.1H201.5z"/>
		<path class="st17" d="M203,178.6c0-1.2,0.9-2.1,2-2.1c0.7,0,1.2,0.2,1.6,0.6l-0.5,0.4c-0.3-0.3-0.6-0.4-1.1-0.4
			c-0.8,0-1.3,0.6-1.3,1.4c0,0.8,0.5,1.4,1.3,1.4c0.5,0,0.9-0.2,1.2-0.5l0.5,0.4c-0.4,0.4-0.9,0.7-1.7,0.7
			C203.8,180.7,203,179.8,203,178.6"/>
		<path class="st17" d="M207.5,172.1h0.7v5.2c0.3-0.5,0.8-0.7,1.4-0.7c0.9,0,1.5,0.6,1.5,1.6v2.4h-0.7v-2.4c0-0.7-0.3-1-1-1
			c-0.7,0-1.2,0.4-1.2,1.2v2.2h-0.7V172.1z"/>
		<path class="st17" d="M212,178.6c0-1.2,0.9-2.1,2.1-2.1c1.2,0,2.1,0.9,2.1,2.1c0,1.2-0.9,2.1-2.1,2.1
			C213,180.7,212,179.8,212,178.6 M215.5,178.6c0-0.8-0.5-1.5-1.3-1.5c-0.8,0-1.3,0.6-1.3,1.5c0,0.8,0.5,1.4,1.3,1.4
			C214.9,180.1,215.5,179.5,215.5,178.6"/>
		<path class="st17" d="M216.8,179.8l0.6-0.4c0.2,0.4,0.6,0.6,1.2,0.6c0.5,0,0.8-0.2,0.8-0.5c0-0.4-0.3-0.5-1-0.7
			c-0.8-0.2-1.3-0.5-1.3-1.2c0-0.6,0.5-1.1,1.3-1.1c0.7,0,1.1,0.3,1.4,0.6l-0.5,0.4c-0.2-0.3-0.5-0.4-0.9-0.4
			c-0.4,0-0.6,0.2-0.6,0.4c0,0.3,0.3,0.4,0.9,0.6c0.9,0.2,1.4,0.6,1.4,1.3c0,0.7-0.6,1.2-1.5,1.2
			C217.7,180.7,217.1,180.4,216.8,179.8"/>
		<path class="st17" d="M58.4,193c0-1.2,0.9-2.1,2-2.1c0.7,0,1.2,0.2,1.6,0.6l-0.5,0.4c-0.3-0.3-0.6-0.4-1.1-0.4
			c-0.8,0-1.3,0.6-1.3,1.4c0,0.8,0.5,1.4,1.3,1.4c0.5,0,0.9-0.2,1.2-0.5l0.5,0.4c-0.4,0.4-0.9,0.7-1.7,0.7
			C59.3,195.1,58.4,194.2,58.4,193"/>
		<path class="st17" d="M62.7,193c0-1.2,0.9-2.1,2.1-2.1c1.2,0,2.1,0.9,2.1,2.1c0,1.2-0.9,2.1-2.1,2.1
			C63.6,195.1,62.7,194.2,62.7,193 M66.1,193c0-0.8-0.5-1.5-1.3-1.5c-0.8,0-1.3,0.6-1.3,1.5c0,0.8,0.5,1.4,1.3,1.4
			C65.6,194.5,66.1,193.9,66.1,193"/>
		<path class="st17" d="M67.8,191.1h0.7v0.6c0.3-0.5,0.8-0.7,1.4-0.7c0.9,0,1.5,0.6,1.5,1.6v2.4h-0.7v-2.4c0-0.7-0.3-1-1-1
			c-0.7,0-1.2,0.4-1.2,1.2v2.2h-0.7V191.1z"/>
		<path class="st17" d="M74.8,191.1h0.7v0.7c0.3-0.5,0.8-0.8,1.4-0.8c1.1,0,1.9,0.9,1.9,2.1c0,1.2-0.8,2.1-1.9,2.1
			c-0.7,0-1.2-0.3-1.4-0.8v3.2h-0.7V191.1z M78.2,193c0-0.8-0.5-1.4-1.3-1.4c-0.8,0-1.3,0.6-1.3,1.4c0,0.8,0.5,1.4,1.3,1.4
			C77.6,194.5,78.2,193.9,78.2,193"/>
		<path class="st17" d="M79.9,191.1h0.7v0.7c0.3-0.5,0.7-0.8,1.2-0.8c0.3,0,0.4,0,0.6,0.2l-0.3,0.6c-0.1-0.1-0.3-0.1-0.5-0.1
			c-0.6,0-1,0.5-1,1.3v2.1h-0.7V191.1z"/>
		<path class="st17" d="M82.8,193c0-1.2,0.9-2.1,2.1-2.1c1.2,0,2.1,0.9,2.1,2.1c0,1.2-0.9,2.1-2.1,2.1
			C83.7,195.1,82.8,194.2,82.8,193 M86.2,193c0-0.8-0.5-1.5-1.3-1.5c-0.8,0-1.3,0.6-1.3,1.5c0,0.8,0.5,1.4,1.3,1.4
			C85.7,194.5,86.2,193.9,86.2,193"/>
		<path class="st17" d="M87.6,193c0-1.2,0.9-2.1,2-2.1c0.6,0,1.1,0.3,1.4,0.8v-5.2h0.7v8.5H91v-0.7c-0.3,0.5-0.8,0.8-1.4,0.8
			C88.5,195.1,87.6,194.2,87.6,193 M91,193c0-0.8-0.5-1.4-1.3-1.4c-0.8,0-1.3,0.6-1.3,1.4c0,0.8,0.5,1.4,1.3,1.4
			C90.5,194.5,91,193.9,91,193"/>
		<path class="st17" d="M92.9,193.5v-2.4h0.7v2.4c0,0.7,0.3,1,1,1c0.7,0,1.2-0.4,1.2-1.2v-2.2h0.7v3.9h-0.7v-0.6
			c-0.3,0.5-0.8,0.7-1.4,0.7C93.5,195.1,92.9,194.6,92.9,193.5"/>
		<path class="st17" d="M97.5,193c0-1.2,0.9-2.1,2-2.1c0.7,0,1.2,0.2,1.6,0.6l-0.5,0.4c-0.3-0.3-0.6-0.4-1.1-0.4
			c-0.8,0-1.3,0.6-1.3,1.4c0,0.8,0.5,1.4,1.3,1.4c0.5,0,0.9-0.2,1.2-0.5l0.5,0.4c-0.4,0.4-0.9,0.7-1.7,0.7
			C98.4,195.1,97.5,194.2,97.5,193"/>
		<path class="st17" d="M101.8,191.7v-0.6h0.5v-1.5h0.7v1.5h1v0.6h-1v2.2c0,0.4,0.1,0.6,0.4,0.6c0.2,0,0.3-0.1,0.4-0.2l0.3,0.5
			c-0.2,0.2-0.5,0.3-0.8,0.3c-0.6,0-1.1-0.4-1.1-1.2v-2.3H101.8z"/>
		<path class="st17" d="M104.7,193c0-1.2,0.9-2.1,2.1-2.1c1.2,0,2.1,0.9,2.1,2.1c0,1.2-0.9,2.1-2.1,2.1
			C105.6,195.1,104.7,194.2,104.7,193 M108.2,193c0-0.8-0.5-1.5-1.3-1.5c-0.8,0-1.3,0.6-1.3,1.5c0,0.8,0.5,1.4,1.3,1.4
			C107.6,194.5,108.2,193.9,108.2,193"/>
		<path class="st17" d="M109.4,194.2l0.6-0.4c0.2,0.4,0.6,0.6,1.2,0.6c0.5,0,0.8-0.2,0.8-0.5c0-0.4-0.3-0.5-1-0.7
			c-0.8-0.2-1.3-0.5-1.3-1.2c0-0.6,0.5-1.1,1.3-1.1c0.7,0,1.1,0.3,1.4,0.6l-0.5,0.4c-0.2-0.3-0.5-0.4-0.9-0.4
			c-0.4,0-0.6,0.2-0.6,0.4c0,0.3,0.3,0.4,0.9,0.6c0.9,0.2,1.4,0.6,1.4,1.3c0,0.7-0.6,1.2-1.5,1.2
			C110.4,195.1,109.8,194.8,109.4,194.2"/>
		<path class="st17" d="M115.8,191.1h0.7v0.6c0.3-0.5,0.8-0.7,1.4-0.7c0.9,0,1.5,0.6,1.5,1.6v2.4h-0.7v-2.4c0-0.7-0.3-1-1-1
			c-0.7,0-1.2,0.4-1.2,1.2v2.2h-0.7V191.1z"/>
		<path class="st17" d="M123.1,192.6c0-0.7-0.4-1-0.9-1c-0.5,0-0.8,0.2-1.1,0.6l-0.5-0.4c0.4-0.5,0.9-0.8,1.6-0.8
			c1,0,1.6,0.5,1.6,1.6v2.4h-0.7v-0.4c-0.3,0.3-0.7,0.5-1.2,0.5c-0.8,0-1.5-0.4-1.5-1.3c0-0.8,0.7-1.2,1.5-1.2L123.1,192.6
			L123.1,192.6z M121.9,193.2c-0.5,0-0.9,0.2-0.9,0.6c0,0.4,0.3,0.7,0.9,0.7c0.6,0,1.1-0.3,1.1-0.9v-0.4H121.9z"/>
		<path class="st17" d="M124.6,191.7v-0.6h0.5v-1.5h0.7v1.5h1v0.6h-1v2.2c0,0.4,0.1,0.6,0.4,0.6c0.2,0,0.3-0.1,0.4-0.2l0.3,0.5
			c-0.2,0.2-0.5,0.3-0.8,0.3c-0.6,0-1.1-0.4-1.1-1.2v-2.3H124.6z"/>
		<path class="st17" d="M127.8,193.5v-2.4h0.7v2.4c0,0.7,0.3,1,1,1c0.7,0,1.2-0.4,1.2-1.2v-2.2h0.7v3.9h-0.7v-0.6
			c-0.3,0.5-0.8,0.7-1.4,0.7C128.5,195.1,127.8,194.6,127.8,193.5"/>
		<path class="st17" d="M132.7,191.1h0.7v0.7c0.3-0.5,0.7-0.8,1.2-0.8c0.3,0,0.4,0,0.6,0.2l-0.3,0.6c-0.1-0.1-0.3-0.1-0.5-0.1
			c-0.6,0-1,0.5-1,1.3v2.1h-0.7V191.1z"/>
		<path class="st17" d="M138.2,192.6c0-0.7-0.4-1-0.9-1c-0.5,0-0.8,0.2-1.1,0.6l-0.5-0.4c0.4-0.5,0.9-0.8,1.6-0.8
			c1,0,1.6,0.5,1.6,1.6v2.4h-0.7v-0.4c-0.3,0.3-0.7,0.5-1.2,0.5c-0.8,0-1.5-0.4-1.5-1.3c0-0.8,0.7-1.2,1.5-1.2L138.2,192.6
			L138.2,192.6z M137.1,193.2c-0.5,0-0.9,0.2-0.9,0.6c0,0.4,0.3,0.7,0.9,0.7c0.6,0,1.1-0.3,1.1-0.9v-0.4H137.1z"/>
		<rect x="140.2" y="186.5" class="st17" width="0.7" height="8.5"/>
		<path class="st17" d="M144.1,194.5c0.6,0,1-0.2,1.2-0.5l0.5,0.4c-0.4,0.4-0.9,0.7-1.7,0.7c-1.3,0-2.2-0.9-2.2-2.1
			c0-1.2,0.9-2.1,2.1-2.1c1.3,0,2,1,2,2.3h-3.3C142.8,194,143.3,194.5,144.1,194.5 M145.3,192.7c-0.1-0.6-0.5-1.1-1.2-1.1
			c-0.7,0-1.2,0.4-1.3,1.1H145.3z"/>
		<path class="st17" d="M146.6,194.2l0.6-0.4c0.2,0.4,0.6,0.6,1.2,0.6c0.5,0,0.8-0.2,0.8-0.5c0-0.4-0.3-0.5-1-0.7
			c-0.8-0.2-1.3-0.5-1.3-1.2c0-0.6,0.5-1.1,1.3-1.1c0.7,0,1.1,0.3,1.4,0.6l-0.5,0.4c-0.2-0.3-0.5-0.4-0.9-0.4
			c-0.4,0-0.6,0.2-0.6,0.4c0,0.3,0.3,0.4,0.9,0.6c0.9,0.2,1.4,0.6,1.4,1.3c0,0.7-0.6,1.2-1.5,1.2
			C147.5,195.1,146.9,194.8,146.6,194.2"/>
		<polygon class="st17" points="152.5,191.1 153.3,191.1 154.5,193.8 155.7,191.1 156.4,191.1 153.7,197.6 152.9,197.6 154.1,194.7 
					"/>
		<path class="st17" d="M159.1,193c0-1.2,0.9-2.1,2.1-2.1c1.2,0,2.1,0.9,2.1,2.1c0,1.2-0.9,2.1-2.1,2.1
			C160,195.1,159.1,194.2,159.1,193 M162.5,193c0-0.8-0.5-1.5-1.3-1.5c-0.8,0-1.3,0.6-1.3,1.5c0,0.8,0.5,1.4,1.3,1.4
			C162,194.5,162.5,193.9,162.5,193"/>
		<path class="st17" d="M164.2,191.1h0.7v0.7c0.3-0.5,0.7-0.8,1.2-0.8c0.3,0,0.4,0,0.6,0.2l-0.3,0.6c-0.1-0.1-0.3-0.1-0.5-0.1
			c-0.6,0-1,0.5-1,1.3v2.1h-0.7V191.1z"/>
		<path class="st17" d="M167.3,196.5l0.6-0.3c0.3,0.6,0.8,0.9,1.4,0.9c0.8,0,1.3-0.5,1.3-1.4v-1.3c-0.3,0.5-0.8,0.8-1.4,0.8
			c-1.1,0-2-0.9-2-2.1c0-1.2,0.9-2.1,2-2.1c0.6,0,1.1,0.3,1.4,0.8v-0.7h0.7v4.6c0,1.2-0.7,2-2,2
			C168.3,197.7,167.6,197.2,167.3,196.5 M170.5,193c0-0.8-0.5-1.4-1.3-1.4c-0.8,0-1.3,0.6-1.3,1.4c0,0.8,0.5,1.4,1.3,1.4
			C170,194.5,170.5,193.9,170.5,193"/>
		<path class="st17" d="M175,192.6c0-0.7-0.4-1-0.9-1c-0.5,0-0.8,0.2-1.1,0.6l-0.5-0.4c0.4-0.5,0.9-0.8,1.6-0.8c1,0,1.6,0.5,1.6,1.6
			v2.4H175v-0.4c-0.3,0.3-0.7,0.5-1.2,0.5c-0.8,0-1.5-0.4-1.5-1.3c0-0.8,0.7-1.2,1.5-1.2L175,192.6L175,192.6z M173.8,193.2
			c-0.5,0-0.9,0.2-0.9,0.6s0.3,0.7,0.9,0.7c0.6,0,1.1-0.3,1.1-0.9v-0.4H173.8z M174.5,188.6h0.8l-0.9,1.7h-0.6L174.5,188.6z"/>
		<path class="st17" d="M176.9,191.1h0.7v0.6c0.3-0.5,0.8-0.7,1.4-0.7c0.9,0,1.5,0.6,1.5,1.6v2.4h-0.7v-2.4c0-0.7-0.3-1-1-1
			c-0.7,0-1.2,0.4-1.2,1.2v2.2h-0.7V191.1z"/>
		<path class="st17" d="M181.6,189.5c0-0.3,0.2-0.5,0.5-0.5c0.3,0,0.5,0.2,0.5,0.5s-0.2,0.5-0.5,0.5
			C181.8,190,181.6,189.8,181.6,189.5 M181.7,191.1h0.7v3.9h-0.7V191.1z"/>
		<path class="st17" d="M183.5,193c0-1.2,0.9-2.1,2-2.1c0.7,0,1.2,0.2,1.6,0.6l-0.5,0.4c-0.3-0.3-0.6-0.4-1.1-0.4
			c-0.8,0-1.3,0.6-1.3,1.4c0,0.8,0.5,1.4,1.3,1.4c0.5,0,0.9-0.2,1.2-0.5l0.5,0.4c-0.4,0.4-0.9,0.7-1.7,0.7
			C184.3,195.1,183.5,194.2,183.5,193"/>
		<path class="st17" d="M187.7,193c0-1.2,0.9-2.1,2.1-2.1c1.2,0,2.1,0.9,2.1,2.1c0,1.2-0.9,2.1-2.1,2.1
			C188.6,195.1,187.7,194.2,187.7,193 M191.2,193c0-0.8-0.5-1.5-1.3-1.5c-0.8,0-1.3,0.6-1.3,1.5c0,0.8,0.5,1.4,1.3,1.4
			C190.6,194.5,191.2,193.9,191.2,193"/>
		<path class="st17" d="M192.5,194.2l0.6-0.4c0.2,0.4,0.6,0.6,1.2,0.6c0.5,0,0.8-0.2,0.8-0.5c0-0.4-0.3-0.5-1-0.7
			c-0.8-0.2-1.3-0.5-1.3-1.2c0-0.6,0.5-1.1,1.3-1.1c0.7,0,1.1,0.3,1.4,0.6l-0.5,0.4c-0.2-0.3-0.5-0.4-0.9-0.4
			c-0.4,0-0.6,0.2-0.6,0.4c0,0.3,0.3,0.4,0.9,0.6c0.9,0.2,1.4,0.6,1.4,1.3c0,0.7-0.6,1.2-1.5,1.2
			C193.4,195.1,192.8,194.8,192.5,194.2"/>
	</g>
</g>
</svg>
