<?xml version="1.0" encoding="utf-8"?>
<!-- Generator: Adobe Illustrator 19.2.0, SVG Export Plug-In . SVG Version: 6.00 Build 0)  -->
<svg version="1.1" id="Capa_1" xmlns="http://www.w3.org/2000/svg" xmlns:xlink="http://www.w3.org/1999/xlink" x="0px" y="0px"
	 viewBox="0 0 255.1 255.1" style="enable-background:new 0 0 255.1 255.1;" xml:space="preserve">
<style type="text/css">
	.st0{fill:#A0D9B3;}
	.st1{fill:none;stroke:#144733;stroke-linecap:round;stroke-miterlimit:10;}
	.st2{fill:none;stroke:#144733;stroke-linecap:round;stroke-miterlimit:10;stroke-dasharray:0.2,1.997;}
	.st3{fill:#FFFFFF;}
	.st4{fill-rule:evenodd;clip-rule:evenodd;fill:#144733;}
	.st5{fill:#144733;}
	.st6{fill:none;stroke:#144733;stroke-linecap:round;stroke-miterlimit:10;stroke-dasharray:0.2,2;}
	.st7{fill:#B86B79;}
	.st8{fill:none;stroke:#722C3C;stroke-linecap:round;stroke-miterlimit:10;}
	.st9{fill:none;stroke:#722C3C;stroke-linecap:round;stroke-miterlimit:10;stroke-dasharray:0.2,1.997;}
	.st10{fill:none;stroke:#722C3C;stroke-linecap:round;stroke-miterlimit:10;stroke-dasharray:0.2,2;}
	.st11{fill:#722C3C;}
	.st12{fill-rule:evenodd;clip-rule:evenodd;fill:#722C3C;}
	.st13{fill:#D8C2D7;}
	.st14{fill:none;stroke:#5F3653;stroke-linecap:round;stroke-miterlimit:10;}
	.st15{fill:none;stroke:#5F3653;stroke-linecap:round;stroke-miterlimit:10;stroke-dasharray:0.2,1.997;}
	.st16{fill:none;stroke:#5F3653;stroke-linecap:round;stroke-miterlimit:10;stroke-dasharray:0.2,2;}
	.st17{fill:#5F3653;}
	.st18{fill-rule:evenodd;clip-rule:evenodd;fill:#5F3653;}
	.st19{fill:#FADF8D;}
	.st20{fill:none;stroke:#9F8315;stroke-linecap:round;stroke-miterlimit:10;}
	.st21{fill:none;stroke:#9F8315;stroke-linecap:round;stroke-miterlimit:10;stroke-dasharray:0.2,1.997;}
	.st22{fill:none;stroke:#9F8315;stroke-linecap:round;stroke-miterlimit:10;stroke-dasharray:0.2,2;}
	.st23{fill:#6F561B;}
	.st24{fill-rule:evenodd;clip-rule:evenodd;fill:#6F561B;}
</style>
<g>
	<path class="st0" d="M255.1,127.6c0,70.5-57.1,127.6-127.6,127.6C57.1,255.1,0,198,0,127.6C0,57.1,57.1,0,127.6,0
		C198,0,255.1,57.1,255.1,127.6"/>
	<path class="st1" d="M57.2,223.5C57.2,223.5,57.1,223.5,57.2,223.5"/>
	<path class="st2" d="M55.5,222.3c-28.5-21.7-47-56.1-47-94.7c0-65.7,53.3-119,119-119c65.7,0,119,53.3,119,119
		c0,39.1-18.8,73.7-47.9,95.4"/>
	<path class="st1" d="M197.9,223.6C197.8,223.6,197.8,223.6,197.9,223.6"/>
	<polygon class="st3" points="63.5,34.3 75.6,34.3 75.6,38.2 68.1,38.2 68.1,41 74.3,41 74.3,44.7 68.1,44.7 68.1,47.6 75.9,47.6 
		75.9,51.5 63.5,51.5 	"/>
	<path class="st3" d="M82.5,42.9v8.6h-4.3V34.1c0-0.1,0.1-0.3,0.4,0l10.8,8.9v-8.6h4.3v17.4c0,0.2-0.1,0.3-0.4,0L82.5,42.9z"/>
	<path class="st3" d="M95.2,48.6l3.3-2.5c0.8,1,1.9,1.9,3.6,1.9c1.4,0,2.2-0.4,2.2-1.4c0-0.7-0.6-1.1-1.7-1.5l-2-0.7
		c-2.5-0.8-4.3-2.3-4.3-5.2c0-3.4,2.8-5.1,5.9-5.1c3,0,4.8,1.1,5.9,2.3l-2.6,2.8c-0.7-0.7-1.6-1.2-3-1.2c-1.1,0-1.7,0.5-1.7,1.2
		c0,0.7,0.4,1,1.2,1.3l2.3,0.8c3.4,1.1,4.6,2.8,4.6,5.2c0,3.2-2,5.4-6.5,5.4C98.5,51.8,96.3,50,95.2,48.6"/>
	<path class="st3" d="M120.6,49.4h-6l-0.9,2.1h-4.5l8.4-17.5c0.1-0.2,0.2-0.2,0.3,0l8.3,17.5h-4.7L120.6,49.4z M116.1,46.1h3.1
		l-1.6-3.6L116.1,46.1z"/>
	<polygon class="st3" points="127.9,34.3 132.5,34.3 132.5,47.6 139.8,47.6 139.8,51.5 127.9,51.5 	"/>
	<path class="st3" d="M152.1,49.4h-6l-0.9,2.1h-4.5l8.4-17.5c0.1-0.2,0.2-0.2,0.3,0l8.3,17.5H153L152.1,49.4z M147.6,46.1h3.1
		l-1.6-3.6L147.6,46.1z"/>
	<path class="st3" d="M159.4,34.3h6.6c4.9,0,8.7,3.3,8.7,8.6c0,5.3-3.7,8.6-8.7,8.6h-6.6V34.3z M165.5,47.6c2.8,0,4.5-1.8,4.5-4.7
		c0-2.9-1.7-4.7-4.5-4.7H164v9.4H165.5z"/>
	<path class="st3" d="M185.4,49.4h-6l-0.9,2.1h-4.5l8.4-17.5c0.1-0.2,0.2-0.2,0.3,0l8.3,17.5h-4.7L185.4,49.4z M180.9,46.1h3.1
		l-1.6-3.6L180.9,46.1z"/>
	<path class="st3" d="M124.9,99.8c1,2,2.8,3.1,5.1,3.1c2.7,0,4.3-1.3,4.3-3.4c0-2.2-1.3-3.1-3.7-4.2l-1.6-0.7
		c-2.8-1.3-4.5-2.6-4.5-5.3c0-2.8,2.2-4.7,5.1-4.7c2.5,0,4.2,0.9,5.4,2.9l-1.4,0.9c-0.9-1.5-2.1-2.2-3.9-2.2c-2,0-3.3,1.2-3.3,3
		c0,1.9,1.1,2.6,3.4,3.7l1.6,0.7c3.1,1.5,4.8,2.9,4.8,5.8c0,3.2-2.4,5.1-6.1,5.1c-3.2,0-5.5-1.6-6.7-3.9L124.9,99.8z"/>
	<path class="st3" d="M144.8,98.5c0-1.8-0.9-2.4-2.2-2.4c-1.2,0-2,0.5-2.7,1.4l-1.1-1c0.9-1.3,2.2-1.9,3.9-1.9
		c2.4,0,3.9,1.3,3.9,3.9v5.8h-1.8v-1.1c-0.6,0.8-1.7,1.3-3,1.3c-2,0-3.6-1-3.6-3c0-1.9,1.7-2.9,3.7-2.9L144.8,98.5L144.8,98.5z
		 M142,100c-1.1,0-2.1,0.4-2.1,1.5c0,1.1,0.8,1.6,2.1,1.6c1.4,0,2.7-0.7,2.7-2.1v-1H142z"/>
	<rect x="149.5" y="83.9" class="st3" width="1.8" height="20.4"/>
	<path class="st3" d="M154.3,94.9h1.8v1.3c0.5-1,1.5-1.5,2.8-1.5c1.3,0,2.3,0.6,2.8,1.8c0.7-1.2,1.8-1.8,3.3-1.8
		c2,0,3.4,1.4,3.4,3.7v6h-1.8v-5.8c0-1.5-0.7-2.3-2-2.3c-1.6,0-2.4,0.9-2.4,2.6v5.5h-1.8v-5.8c0-1.5-0.7-2.3-2-2.3
		c-1.6,0-2.4,0.9-2.4,2.7v5.4h-1.8V94.9z"/>
	<path class="st3" d="M170.7,99.6c0-2.8,2.2-5,5-5c2.8,0,5,2.1,5,5c0,2.8-2.2,4.9-5,4.9C172.9,104.6,170.7,102.5,170.7,99.6
		 M178.9,99.6c0-2-1.3-3.5-3.2-3.5c-1.9,0-3.2,1.5-3.2,3.5c0,2,1.3,3.4,3.2,3.4C177.6,103.1,178.9,101.6,178.9,99.6 M176.5,88.9h2
		l-2.2,4.1h-1.4L176.5,88.9z"/>
	<path class="st3" d="M183,94.9h1.8v1.5c0.6-1.2,1.8-1.8,3.2-1.8c2.1,0,3.6,1.3,3.6,3.9v5.8h-1.8v-5.6c0-1.7-0.8-2.5-2.3-2.5
		c-1.7,0-2.8,1.1-2.8,2.9v5.2H183V94.9z"/>
	<path class="st3" d="M83.5,110.9c1-2.6,1.4-5.7,1.4-9.3h1.4c0,4.1-0.7,7.7-1.9,10.5l6.2,7.4h-1.9l-5-6c-2.3,4.1-5.9,6.4-10.6,6.4
		c-5.2,0-9.7-3.3-9.7-8.7c0-5.8,4.7-8.4,9.1-11.1l-1.3-1.4c-1.8-2.1-2.7-4.2-2.7-6.2c0-3.6,2.6-6.2,6.2-6.2c3.5,0,5.8,2.8,5.8,6.2
		c0,3.5-2.8,5.9-6,8L83.5,110.9z M73.5,101.3c-4.2,2.5-8.4,4.7-8.4,10c0,4.5,3.8,7.3,8.2,7.3c4.4,0,7.7-2.2,9.6-6.1L73.5,101.3z
		 M79.3,92.5c0-2.8-1.7-4.8-4.3-4.8c-2.8,0-4.7,1.9-4.7,4.8c0,1.7,0.8,3.5,2.2,5.2l1.5,1.8C76.7,97.7,79.3,95.6,79.3,92.5"/>
	<polygon class="st3" points="77.2,124.2 77,124.2 63.5,124.2 63.5,125.4 77,125.4 77.2,125.4 90.7,125.4 90.7,124.2 	"/>
	<path class="st3" d="M66,80.3h-2.5V57.7c0-0.2,0.1-0.4,0.5-0.1L78,69.3V58h2.5v16.5L66,62.6V80.3z M69,69.1v11.2h-2.5V63.8
		l14.5,11.9V58h2.5v22.6c0,0.3-0.1,0.4-0.5,0.1L69,69.1z"/>
	<path class="st3" d="M87.6,58h2.7v22.3h-2.7V58z M90.9,58h2.7v22.3h-2.7V58z"/>
	<path class="st3" d="M108.1,80.6c-6.3,0-11.6-4.7-11.6-11.4s5.3-11.4,11.3-11.4c4.8,0,7.8,2,9.6,4.8l-2,1.4
		c-1.4-2.1-3.7-3.9-7.6-3.9c-4.8,0-8.6,3.8-8.6,9.1c0,5.3,3.8,9.2,8.9,9.2c3.8,0,6.1-1.5,7.7-4.3l2.1,1.3
		C115.7,79,112.6,80.6,108.1,80.6 M114.9,64.2l-2,1.4c-0.9-1.3-2.2-2.7-5.1-2.7c-3.3,0-5.3,2.7-5.3,6.2c0,3.5,2.1,6.3,5.5,6.3
		c2.9,0,4.3-1.3,5.2-3.1l2,1.3c-1.5,2.7-3.7,4.1-7.2,4.1c-4.7,0-8.3-3.6-8.3-8.6s3.5-8.5,8-8.5C111.5,60.6,113.6,62.2,114.9,64.2"/>
	<path class="st3" d="M118.6,69.2c0-6.7,5.5-11.4,12-11.4c6.4,0,12,4.7,12,11.4c0,6.7-5.5,11.4-12,11.4
		C124.2,80.6,118.6,75.9,118.6,69.2 M139.8,69.2c0-5.3-4-9.1-9.2-9.1c-5.2,0-9.2,3.8-9.2,9.1c0,5.3,4,9.2,9.2,9.2
		C135.8,78.3,139.8,74.4,139.8,69.2 M122,69.2c0-5,3.7-8.5,8.6-8.5s8.6,3.6,8.6,8.5c0,5-3.7,8.6-8.6,8.6S122,74.1,122,69.2
		 M136.5,69.2c0-3.5-2.1-6.2-5.9-6.2c-3.7,0-5.9,2.7-5.9,6.2c0,3.5,2.1,6.3,5.9,6.3C134.3,75.4,136.5,72.7,136.5,69.2"/>
	<path class="st3" d="M145.5,58h2.7v22.3h-2.7V58z M148.8,58h2.7v22.3h-2.7V58z"/>
	<path class="st3" d="M153.7,76.5l1.9-1.4c1.4,1.8,3.6,3.4,7.2,3.4c4,0,5.9-1.9,5.9-4.7c0-2.2-1.2-3.6-4.3-4.6l-2.8-1
		c-1.9-0.7-3.3-1.7-3.3-3.9c0-2.5,2.1-3.8,4.6-3.8c2.8,0,4.3,1,5.5,2.2l-1.5,1.6c-0.9-1-2.1-1.6-3.8-1.6c-1.4,0-2.2,0.7-2.2,1.5
		c0,0.9,0.5,1.3,1.6,1.6l3,1c4.5,1.5,6,3.6,6,6.8c0,4.1-2.6,7.1-8.5,7.1C157.9,80.6,155,78.3,153.7,76.5 M156.1,74.7l1.9-1.4
		c1.1,1.3,2.4,2.4,4.7,2.4c1.8,0,2.8-0.5,2.8-1.8c0-1-0.7-1.4-2.2-1.9l-2.6-0.9c-3.2-1.1-5.5-3.1-5.5-6.7c0-4.4,3.6-6.7,7.6-6.7
		c4.1,0,6.1,1.3,7.6,3l-1.5,1.5c-1.3-1.3-3.1-2.4-5.9-2.4c-2.9,0-5.2,1.5-5.2,4.4c0,2.4,1.5,3.7,3.8,4.5l2.8,1c2.6,0.9,3.8,2,3.8,4
		c0,2.5-1.7,4.1-5.3,4.1C159.3,77.8,157.3,76.3,156.1,74.7"/>
	<path class="st3" d="M174.1,58h15.6v2.2h-13v17.9h13.4v2.2h-16.1V58z M188.1,68.8h-10.8v-8h12.4V63h-9.7v3.7h8.1V68.8z M190.2,77.5
		h-12.8v-8.1h10.8v2.1h-8.1v3.8h10.1V77.5z"/>
	<path class="st3" d="M112.6,120.5h-8.9l-1.9,4.8h-1.9l8.2-20h0.1l8.3,20h-2L112.6,120.5z M104.4,118.8h7.5l-3.7-9.3L104.4,118.8z"
		/>
	<path class="st3" d="M118.7,104.9h1.8v12.5c0.7-1.2,1.8-1.8,3.2-1.8c2.1,0,3.6,1.3,3.6,3.9v5.8h-1.8v-5.6c0-1.7-0.8-2.5-2.3-2.5
		c-1.7,0-2.8,1.1-2.8,2.9v5.2h-1.8V104.9z"/>
	<path class="st3" d="M130,121.7v-5.8h1.8v5.6c0,1.7,0.8,2.5,2.3,2.5c1.7,0,2.8-1,2.8-2.8v-5.3h1.8v9.5h-1.8v-1.5
		c-0.6,1.1-1.8,1.8-3.3,1.8C131.4,125.5,130,124.3,130,121.7"/>
	<path class="st3" d="M141.5,115.9h1.8v1.3c0.5-1,1.5-1.5,2.8-1.5c1.3,0,2.3,0.6,2.8,1.8c0.7-1.2,1.8-1.8,3.3-1.8
		c2,0,3.4,1.4,3.4,3.7v6h-1.8v-5.8c0-1.5-0.7-2.3-2-2.3c-1.6,0-2.4,0.9-2.4,2.6v5.5h-1.8v-5.8c0-1.5-0.7-2.3-2-2.3
		c-1.6,0-2.4,0.9-2.4,2.7v5.4h-1.8V115.9z"/>
	<path class="st3" d="M164.4,119.5c0-1.8-0.9-2.4-2.2-2.4c-1.2,0-2,0.5-2.7,1.4l-1.1-1c1-1.3,2.2-1.9,3.9-1.9c2.4,0,3.9,1.3,3.9,3.9
		v5.8h-1.8v-1.1c-0.6,0.8-1.7,1.3-3,1.3c-2,0-3.6-1-3.6-3c0-1.9,1.7-2.9,3.7-2.9L164.4,119.5L164.4,119.5z M161.7,121
		c-1.2,0-2.1,0.4-2.1,1.5c0,1.1,0.8,1.6,2.1,1.6c1.4,0,2.7-0.7,2.7-2.1v-1H161.7z"/>
	<path class="st3" d="M168.5,120.6c0-2.8,2-5,4.7-5c1.6,0,2.7,0.7,3.4,1.8v-9.4h1.8v17.2h-1.8v-1.6c-0.7,1.2-1.9,1.8-3.4,1.8
		C170.5,125.5,168.5,123.4,168.5,120.6 M176.6,120.6c0-2-1.3-3.4-3.2-3.4c-1.9,0-3.2,1.4-3.2,3.4c0,2,1.3,3.4,3.2,3.4
		C175.4,124,176.6,122.6,176.6,120.6"/>
	<path class="st3" d="M180.7,120.6c0-2.8,2.2-5,5-5c2.8,0,5,2.1,5,5c0,2.8-2.2,4.9-5,4.9C182.9,125.5,180.7,123.4,180.7,120.6
		 M188.9,120.6c0-2-1.3-3.5-3.2-3.5s-3.2,1.5-3.2,3.5c0,2,1.3,3.5,3.2,3.5S188.9,122.6,188.9,120.6"/>
	<path class="st4" d="M118.6,212.5c0-1.1,0.7-2.2,1.6-2.4c1.1-0.3,2,0,2.7,1.1c2.4-1.2,4.9-2,7.2,0.4c0.8-1.4,0.7-3.8,3.2-3
		c2.1,0.7,1.9,2.4,1,4.3c0.5-0.2,0.7-0.2,0.8-0.3c2.1-2.5,5.1-3.1,8.2-3.2c0.3,0,0.5,0.2,0.8,0.3c-0.1,0.2-0.3,0.5-0.3,0.7
		c-0.2,1.4-0.5,2.8-0.7,4.2c0,0.1,0.4,0.4,0.7,0.5c1.1,0.4,1.5,1,1.3,2.2c-0.7,5-3,8.9-7.3,11.4c-4.2,2.5-8.8,4.1-13.7,2.8
		c-5.6-1.4-10.6-4-12.9-9.8c-0.6-1.5-0.8-3.1-1.2-4.6c-0.2-0.9,0.2-1.5,1-1.8c1.2-0.5,1.5-1.2,0.8-2.4c-0.5-0.9-0.1-1.1,0.6-1
		c0.6,0,1.2,0,1.6,0.3C115.6,212.9,117,212.8,118.6,212.5 M111.1,217.8c0.4,2.1,1,4.2,2.2,6c2.9,4.1,7.1,5.9,11.7,6.9
		c4.4,1,8.4-0.7,12.1-2.7c3.2-1.7,5.3-4.5,6.4-8c0.2-0.7,0.4-1.5,0.5-2.2C133,219.8,122.1,219.8,111.1,217.8 M123.5,214.7
		c0.2,1,0.2,1.8,0.4,2.5c0.2,0.7,0.6,1.3,1.6,1c0.6-0.2,1.2-0.1,1.9-0.1c0.9,0,1.9,0,2.8-0.1c0.3,0,0.6-0.4,0.7-0.7
		c0.5-2.1-0.6-4.7-2.4-5.8c-1.6-1-3.5-0.6-4.3,0.9C123.8,213.3,123.7,214.1,123.5,214.7 M142.1,210.5c-1.2,0.3-2.5,0.6-3.7,1.1
		c-2.3,0.9-3.4,2.8-3.3,5.3c0,1,0.4,1.3,1,1.2c1-1.6,1.8-3.1,2.7-4.6c0.2-0.3,0.7-0.3,1.1-0.5c-0.1,0.4,0,0.9-0.2,1.2
		c-0.6,1.1-1.3,2.2-2,3.4c2.6,0.3,4.4-1.1,4.5-3.5C142.1,212.9,142.1,211.8,142.1,210.5 M120.8,218c0.1-4-1.4-4.6-3.5-4.2
		c0.3,1.3,0.6,2.6,0.9,4C118.9,217.9,119.8,217.9,120.8,218 M131.6,213.3c0.2,0.9,0.4,1.7,0.5,2.4c0.1,0.8,0,1.5,0,2.4
		c0.6,0,1.2-0.1,1.7-0.1c0.1-1.2,0.2-2.3,0.3-3.3c0.2-1.1,0-1.4-1.1-1.5C132.6,213.1,132.2,213.3,131.6,213.3 M115.3,217.4
		c-0.4-0.8-0.7-1.4-1-2c-0.1-0.4-0.1-0.8-0.1-1.2c0.4,0.2,0.8,0.3,1.1,0.6c0.3,0.3,0.5,0.8,0.7,1.2c0.2,0.5,0.4,1,0.7,1.7
		c0.6-2.7-1-4.7-3.3-4.6C112.9,215.7,113.4,217,115.3,217.4 M122.4,213.1c-0.7,1.1-0.9,2.4-0.6,3.7c0.1,0.5,0.2,1.5,1.1,1.3
		C122.7,216.4,122.6,214.7,122.4,213.1 M144.1,216.5c-1.1-0.9-1.5-0.5-1.9,0.6C142.9,216.9,143.4,216.7,144.1,216.5"/>
	<path class="st5" d="M71.6,223.9c0.2,0.1,0.5,0.3,0.7,0.4c-1.2,2.4-2.5,4.7-3.7,7.1c-0.3-0.1-0.5-0.3-0.8-0.4
		c0.6-1.1,1.1-2.1,1.7-3.2c-1.4-0.8-2.8-1.5-4.3-2.4l-1.8,3.1c-0.3-0.1-0.5-0.3-0.8-0.4c1.4-2.3,2.7-4.6,4.1-6.9
		c0.2,0.1,0.5,0.3,0.7,0.4c-0.6,1.1-1.2,2.1-1.9,3.2c1.4,0.8,2.8,1.6,4.2,2.4L71.6,223.9z"/>
	<path class="st5" d="M72.1,232.6c0.6,0.3,1.1,0.3,1.5,0.1c0.1,0.2,0.2,0.4,0.3,0.6c-0.5,0.2-1.2,0.2-2-0.2
		c-1.3-0.6-1.8-1.9-1.2-2.9c0.5-1,1.8-1.4,2.9-0.8c1.2,0.6,1.6,1.8,1,3c-1.1-0.5-2.2-1-3.3-1.6C71.1,231.6,71.4,232.2,72.1,232.6
		 M74,231.6c0.2-0.6,0-1.2-0.7-1.6c-0.7-0.3-1.3-0.2-1.7,0.4C72.4,230.8,73.2,231.2,74,231.6"/>
	<path class="st5" d="M75.4,232.5c0.5-1.1,1.7-1.4,2.9-1c0.7,0.3,1.1,0.7,1.3,1.2c-0.2,0.1-0.4,0.1-0.7,0.2
		c-0.1-0.4-0.4-0.7-0.9-0.9c-0.8-0.3-1.5,0-1.8,0.7c-0.3,0.7-0.1,1.5,0.7,1.9c0.5,0.2,1,0.2,1.4,0.1c0.1,0.2,0.2,0.4,0.3,0.6
		c-0.5,0.2-1.2,0.2-2-0.1C75.4,234.8,74.9,233.6,75.4,232.5"/>
	<path class="st5" d="M82.4,228.6c0.2,0.1,0.5,0.2,0.7,0.3c-0.6,1.6-1.3,3.2-1.9,4.7c0.5-0.3,1-0.4,1.6-0.1c0.9,0.3,1.3,1.1,1,2.1
		c-0.3,0.7-0.6,1.5-0.8,2.2c-0.3-0.1-0.5-0.2-0.8-0.3c0.3-0.7,0.5-1.4,0.8-2.2c0.2-0.6,0-1.1-0.6-1.3c-0.7-0.3-1.3-0.1-1.6,0.6
		c-0.3,0.7-0.5,1.3-0.8,2c-0.2-0.1-0.5-0.2-0.8-0.3C80.3,233.8,81.4,231.2,82.4,228.6"/>
	<path class="st5" d="M84.6,236.3c0.4-1.1,1.6-1.6,2.8-1.2c1.2,0.4,1.8,1.5,1.5,2.6c-0.4,1.1-1.6,1.6-2.8,1.2
		C84.8,238.6,84.2,237.4,84.6,236.3 M88.1,237.5c0.3-0.8-0.1-1.5-0.9-1.8c-0.8-0.3-1.6,0.1-1.8,0.9c-0.3,0.8,0.1,1.5,0.9,1.8
		C87.1,238.7,87.9,238.3,88.1,237.5"/>
	<path class="st5" d="M94.9,239.1c0.2-0.7-0.1-1-0.7-1.2c-0.5-0.1-0.9-0.1-1.3,0.2c-0.1-0.2-0.2-0.4-0.4-0.5
		c0.6-0.4,1.2-0.5,1.9-0.3c1,0.3,1.5,1,1.3,2c-0.2,0.8-0.4,1.5-0.6,2.3c-0.3-0.1-0.5-0.1-0.8-0.2c0-0.1,0.1-0.3,0.1-0.4
		c-0.4,0.2-0.9,0.3-1.4,0.1c-0.9-0.2-1.5-0.8-1.2-1.7c0.2-0.8,1.1-0.9,1.9-0.7C94,238.9,94.5,239,94.9,239.1
		C94.9,239.1,94.9,239.1,94.9,239.1 M93.5,239.4c-0.5-0.1-0.9-0.1-1.1,0.3c-0.1,0.4,0.2,0.7,0.8,0.9c0.6,0.2,1.3,0,1.4-0.5
		c0-0.1,0.1-0.3,0.1-0.4C94.3,239.6,93.9,239.5,93.5,239.4"/>
	<path class="st5" d="M99.5,238.7c0.3,0.1,0.5,0.1,0.8,0.2c0,0.2-0.1,0.3-0.1,0.5c0.3-0.3,0.8-0.5,1.4-0.3c0.5,0.1,0.9,0.4,1.1,1
		c0.4-0.4,0.9-0.5,1.6-0.4c0.9,0.2,1.4,0.8,1.2,1.8c-0.1,0.8-0.3,1.6-0.4,2.4c-0.3,0-0.5-0.1-0.8-0.1c0.1-0.8,0.3-1.6,0.4-2.3
		c0.1-0.6-0.1-1-0.7-1.1c-0.7-0.1-1.1,0.2-1.3,0.8c-0.1,0.7-0.3,1.5-0.4,2.2c-0.3-0.1-0.5-0.1-0.8-0.2c0.2-0.8,0.3-1.6,0.5-2.3
		c0.1-0.6-0.1-1-0.7-1.1c-0.7-0.1-1.1,0.1-1.3,0.8c-0.2,0.7-0.3,1.4-0.5,2.2c-0.3-0.1-0.5-0.1-0.8-0.2L99.5,238.7z"/>
	<path class="st5" d="M109.3,242.1c0.1-0.7-0.2-1-0.8-1.1c-0.5-0.1-0.9,0-1.3,0.4c-0.1-0.2-0.3-0.3-0.4-0.5c0.5-0.4,1.1-0.6,1.8-0.5
		c1.1,0.2,1.6,0.8,1.5,1.8c-0.1,0.8-0.2,1.6-0.3,2.4c-0.3,0-0.5-0.1-0.8-0.1l0.1-0.4c-0.3,0.3-0.8,0.4-1.4,0.3
		c-0.9-0.1-1.6-0.7-1.4-1.5c0.1-0.8,1-1,1.8-0.9C108.4,242,108.9,242.1,109.3,242.1C109.3,242.1,109.3,242.1,109.3,242.1 M108,242.5
		c-0.5-0.1-0.9,0-1,0.5c-0.1,0.4,0.3,0.7,0.8,0.8c0.6,0.1,1.2-0.1,1.3-0.7c0-0.1,0-0.3,0.1-0.4C108.8,242.7,108.4,242.6,108,242.5"
		/>
	<path class="st5" d="M111.5,240.9c0.3,0,0.5,0.1,0.8,0.1c0,0.2-0.1,0.4-0.1,0.6c0.3-0.4,0.9-0.6,1.5-0.5c0.9,0.1,1.5,0.7,1.4,1.8
		c-0.1,0.8-0.2,1.6-0.2,2.4c-0.3,0-0.5-0.1-0.8-0.1c0.1-0.8,0.2-1.5,0.2-2.3c0.1-0.7-0.3-1-0.9-1.1c-0.7-0.1-1.3,0.3-1.4,1
		c-0.1,0.7-0.2,1.4-0.3,2.1c-0.3,0-0.5-0.1-0.8-0.1C111.2,243.5,111.4,242.2,111.5,240.9"/>
	<path class="st5" d="M116.1,243.4c0.1-1.2,1.2-1.9,2.4-1.8c1.2,0.1,2.1,1,2.1,2.2c-0.1,1.2-1.1,2-2.4,1.9
		C116.9,245.5,116,244.5,116.1,243.4 M119.8,243.7c0-0.8-0.5-1.5-1.3-1.5c-0.8-0.1-1.5,0.5-1.5,1.3c-0.1,0.8,0.5,1.5,1.3,1.5
		C119.1,245,119.7,244.5,119.8,243.7"/>
	<path class="st5" d="M123.7,243.8c0-1.2,1-2,2.2-2c0.7,0,1.3,0.2,1.6,0.6c-0.2,0.1-0.4,0.3-0.5,0.4c-0.3-0.3-0.6-0.4-1.1-0.4
		c-0.8,0-1.4,0.6-1.4,1.4c0,0.8,0.5,1.4,1.3,1.4c0.6,0,1-0.2,1.3-0.5c0.2,0.1,0.4,0.3,0.5,0.4c-0.4,0.4-1,0.7-1.8,0.7
		C124.6,245.9,123.7,245,123.7,243.8"/>
	<path class="st5" d="M128.3,243.9c0-1.2,1-2,2.2-2.1c1.2,0,2.2,0.8,2.3,2c0.1,1.2-0.9,2.1-2.2,2.1
		C129.3,245.9,128.3,245.1,128.3,243.9 M132,243.8c0-0.8-0.6-1.4-1.5-1.4c-0.8,0-1.4,0.6-1.4,1.4c0,0.8,0.6,1.4,1.5,1.4
		C131.4,245.3,132,244.6,132,243.8"/>
	<path class="st5" d="M133.7,241.8c0.3,0,0.5,0,0.8,0l0,0.6c0.2-0.5,0.8-0.8,1.4-0.8c0.9-0.1,1.6,0.4,1.7,1.5
		c0.1,0.8,0.1,1.6,0.2,2.4c-0.3,0-0.5,0-0.8,0.1c-0.1-0.8-0.1-1.5-0.2-2.3c-0.1-0.7-0.4-1-1.1-0.9c-0.8,0-1.2,0.5-1.2,1.3
		c0,0.7,0.1,1.4,0.1,2.1c-0.3,0-0.5,0-0.8,0C133.9,244.4,133.8,243.1,133.7,241.8"/>
	<path class="st5" d="M141,243.2c-0.1-1.2,0.7-2.1,1.9-2.3c0.7-0.1,1.3,0.1,1.7,0.4c-0.2,0.2-0.3,0.3-0.5,0.5
		c-0.3-0.2-0.7-0.3-1.2-0.3c-0.8,0.1-1.3,0.8-1.2,1.6c0.1,0.8,0.7,1.3,1.5,1.2c0.6-0.1,1-0.3,1.2-0.6c0.2,0.1,0.4,0.2,0.6,0.3
		c-0.3,0.5-0.9,0.8-1.7,0.9C142.2,245.1,141.1,244.3,141,243.2"/>
	<path class="st5" d="M148.5,241.7c-0.1-0.7-0.5-0.9-1.1-0.8c-0.5,0.1-0.9,0.3-1.1,0.7c-0.2-0.1-0.4-0.2-0.6-0.3
		c0.3-0.6,0.9-0.9,1.6-1c1.1-0.2,1.8,0.2,2,1.3c0.1,0.8,0.3,1.6,0.4,2.3c-0.3,0-0.5,0.1-0.8,0.1c0-0.1,0-0.3-0.1-0.4
		c-0.2,0.4-0.7,0.6-1.2,0.7c-0.9,0.1-1.7-0.1-1.8-1c-0.1-0.8,0.6-1.3,1.5-1.4C147.6,241.9,148,241.8,148.5,241.7
		C148.5,241.7,148.5,241.7,148.5,241.7 M147.3,242.5c-0.5,0.1-0.9,0.3-0.8,0.7c0.1,0.4,0.5,0.6,1.1,0.5c0.6-0.1,1.2-0.5,1.1-1
		c0-0.1,0-0.3-0.1-0.4C148.2,242.4,147.8,242.4,147.3,242.5"/>
	<path class="st5" d="M150.2,239.9c0.3,0,0.5-0.1,0.8-0.1c0,0.2,0.1,0.4,0.1,0.6c0.2-0.5,0.6-0.9,1.1-1c0.3-0.1,0.5,0,0.7,0
		c0,0.2-0.1,0.4-0.1,0.7c-0.1,0-0.3,0-0.5,0c-0.6,0.1-1,0.7-0.8,1.4c0.1,0.7,0.3,1.3,0.4,2c-0.3,0-0.5,0.1-0.8,0.1L150.2,239.9z"/>
	<path class="st5" d="M153.2,237.7c-0.1-0.3,0.1-0.5,0.4-0.6c0.3-0.1,0.6,0.1,0.6,0.4c0.1,0.3-0.1,0.5-0.4,0.6
		C153.5,238.1,153.2,238,153.2,237.7 M153.7,239.2c0.3-0.1,0.5-0.1,0.8-0.2c0.3,1.3,0.6,2.5,0.8,3.8c-0.3,0.1-0.5,0.1-0.8,0.2
		C154.2,241.7,153.9,240.4,153.7,239.2"/>
	<path class="st5" d="M155.7,238.7c0.3-0.1,0.5-0.1,0.8-0.2c0,0.2,0.1,0.4,0.1,0.6c0.2-0.5,0.6-0.9,1.2-1c0.9-0.2,1.7,0.1,2,1.1
		c0.2,0.8,0.4,1.5,0.6,2.3c-0.3,0.1-0.5,0.1-0.8,0.2c-0.2-0.7-0.4-1.5-0.6-2.2c-0.2-0.7-0.6-0.9-1.2-0.7c-0.7,0.2-1.1,0.7-0.9,1.4
		c0.2,0.7,0.3,1.4,0.5,2.1c-0.3,0.1-0.5,0.1-0.8,0.2C156.3,241.2,156,240,155.7,238.7 M156.7,237c-0.2,0-0.2,0.2-0.2,0.5
		c-0.2,0-0.4,0-0.6,0.1c0-0.6,0.2-1,0.6-1.1c0.5-0.1,0.9,0.2,1.2,0.1c0.2,0,0.2-0.2,0.2-0.5c0.2,0,0.4,0,0.6-0.1
		c0,0.6-0.1,1-0.6,1.1C157.4,237.3,157,236.9,156.7,237"/>
	<path class="st5" d="M160.9,239.4c-0.3-1.1,0.4-2.2,1.6-2.6c1.2-0.3,2.4,0.2,2.7,1.3c0.3,1.1-0.4,2.2-1.6,2.6
		C162.4,241.1,161.2,240.5,160.9,239.4 M164.5,238.4c-0.2-0.8-1-1.2-1.8-0.9c-0.8,0.2-1.2,1-1,1.8c0.2,0.8,1,1.2,1.8,1
		C164.3,239.9,164.7,239.1,164.5,238.4"/>
	<path class="st5" d="M167.9,235.2c0.2-0.1,0.5-0.2,0.7-0.3c0.1,0.2,0.1,0.4,0.2,0.6c0.1-0.6,0.5-1,1.2-1.2c1.1-0.4,2.3,0.1,2.7,1.2
		c0.4,1.1-0.1,2.2-1.3,2.6c-0.7,0.2-1.3,0.2-1.7-0.2c0.3,1,0.7,2,1,3c-0.3,0.1-0.5,0.2-0.8,0.3C169.3,239.2,168.6,237.2,167.9,235.2
		 M171.9,235.8c-0.3-0.8-1-1.1-1.8-0.8c-0.8,0.3-1.1,1-0.9,1.8c0.3,0.8,1,1.1,1.8,0.8C171.9,237.3,172.2,236.6,171.9,235.8"/>
	<path class="st5" d="M176,233.7c-0.3-0.7-0.7-0.7-1.3-0.5c-0.5,0.2-0.8,0.5-0.9,1c-0.2-0.1-0.4-0.1-0.6-0.2
		c0.2-0.6,0.6-1.1,1.3-1.4c1-0.4,1.8-0.2,2.2,0.8c0.3,0.7,0.6,1.5,0.9,2.2c-0.2,0.1-0.5,0.2-0.7,0.3l-0.2-0.4
		c-0.1,0.4-0.5,0.8-1.1,1c-0.9,0.3-1.7,0.2-2-0.5c-0.3-0.7,0.3-1.4,1.1-1.7C175.3,234,175.7,233.9,176,233.7
		C176.1,233.7,176,233.7,176,233.7 M175.1,234.7c-0.5,0.2-0.8,0.5-0.6,0.9c0.2,0.4,0.6,0.5,1.2,0.2c0.6-0.2,1-0.8,0.8-1.3
		c-0.1-0.1-0.1-0.3-0.2-0.4C175.9,234.4,175.5,234.6,175.1,234.7"/>
	<path class="st5" d="M177.4,231.5c0.2-0.1,0.5-0.2,0.7-0.3l0.3,0.6c0-0.6,0.4-1,0.8-1.2c0.3-0.1,0.5-0.2,0.7-0.1c0,0.2,0,0.4,0,0.7
		c-0.2,0-0.3,0-0.5,0.1c-0.6,0.3-0.8,0.9-0.5,1.6c0.3,0.6,0.6,1.2,0.8,1.9c-0.2,0.1-0.5,0.2-0.7,0.3
		C178.4,233.8,177.9,232.7,177.4,231.5"/>
	<path class="st5" d="M183.5,230.2c-0.3-0.6-0.8-0.7-1.3-0.4c-0.5,0.2-0.7,0.6-0.9,1c-0.2,0-0.4-0.1-0.6-0.1
		c0.2-0.7,0.6-1.1,1.2-1.4c1-0.5,1.8-0.3,2.3,0.6c0.4,0.7,0.7,1.4,1.1,2.1c-0.2,0.1-0.5,0.2-0.7,0.4c-0.1-0.1-0.1-0.3-0.2-0.4
		c-0.1,0.4-0.5,0.8-1,1.1c-0.8,0.4-1.7,0.4-2-0.4c-0.3-0.7,0.2-1.4,1-1.8C182.7,230.7,183.1,230.5,183.5,230.2
		C183.5,230.3,183.5,230.3,183.5,230.2 M182.7,231.3c-0.5,0.2-0.8,0.6-0.6,1c0.2,0.4,0.6,0.4,1.2,0.2c0.6-0.3,1-0.8,0.7-1.3
		c-0.1-0.1-0.1-0.3-0.2-0.4C183.4,231,183,231.2,182.7,231.3"/>
	<path class="st5" d="M186.8,227.5c-0.1-0.2-0.2-0.4-0.3-0.5c0.2-0.1,0.3-0.2,0.5-0.3c-0.2-0.4-0.5-0.9-0.7-1.3
		c0.2-0.1,0.5-0.3,0.7-0.4c0.2,0.4,0.5,0.9,0.7,1.3c0.3-0.2,0.6-0.4,0.9-0.5c0.1,0.2,0.2,0.4,0.3,0.5c-0.3,0.2-0.6,0.4-0.9,0.5
		c0.4,0.6,0.7,1.3,1.1,1.9c0.2,0.3,0.4,0.4,0.7,0.3c0.2-0.1,0.3-0.3,0.3-0.4c0.2,0.1,0.4,0.2,0.6,0.3c-0.1,0.2-0.3,0.5-0.7,0.7
		c-0.6,0.4-1.2,0.3-1.6-0.4c-0.4-0.6-0.7-1.3-1.1-1.9C187.1,227.3,187,227.4,186.8,227.5"/>
	<path class="st5" d="M188.7,224c-0.1-0.2,0-0.6,0.2-0.7c0.2-0.1,0.6-0.1,0.7,0.1c0.1,0.2,0,0.6-0.2,0.7
		C189.2,224.3,188.9,224.2,188.7,224 M189.6,225.2c0.2-0.1,0.5-0.3,0.7-0.4c0.7,1.1,1.3,2.2,2,3.3c-0.2,0.1-0.5,0.3-0.7,0.4
		C190.9,227.5,190.3,226.4,189.6,225.2"/>
</g>
<g>
	<polyline class="st6" points="218.3,137.6 176.3,137.6 78.7,137.6 36.2,137.6 	"/>
	<path class="st5" d="M93.8,150.5H93v-5.1h1.6c1.2,0,1.9,0.7,1.9,1.6c0,1-0.7,1.6-1.9,1.6h-0.8V150.5z M94.6,148
		c0.8,0,1.1-0.3,1.1-0.9c0-0.6-0.3-0.9-1.1-0.9h-0.8v1.9H94.6z"/>
	<path class="st5" d="M98.1,150.5h-0.8v-5.1H99c1.2,0,1.9,0.7,1.9,1.6c0,0.7-0.4,1.2-1,1.4l1.2,2h-0.9l-1.1-1.9H99h-0.8V150.5z
		 M98.9,147.9c0.8,0,1.1-0.3,1.1-0.9c0-0.6-0.3-0.9-1.1-0.9h-0.8v1.8H98.9z"/>
	<path class="st5" d="M101.6,147.9c0-1.5,1.2-2.6,2.6-2.6c1.5,0,2.6,1.1,2.6,2.6c0,1.5-1.2,2.6-2.6,2.6
		C102.7,150.5,101.6,149.4,101.6,147.9 M106,147.9c0-1.1-0.7-1.9-1.8-1.9c-1.1,0-1.8,0.8-1.8,1.9c0,1.1,0.7,1.9,1.8,1.9
		C105.2,149.8,106,149,106,147.9"/>
	<path class="st5" d="M107.7,145.4h1.4c1.7,0,2.7,1,2.7,2.5c0,1.5-1,2.5-2.7,2.5h-1.4V145.4z M109.1,149.8c1.3,0,1.9-0.8,1.9-1.8
		s-0.6-1.8-1.9-1.8h-0.6v3.7H109.1z"/>
	<path class="st5" d="M112.6,148.7v-3.3h0.8v3.2c0,0.8,0.4,1.2,1.1,1.2c0.7,0,1.1-0.4,1.1-1.2v-3.2h0.8v3.3c0,1.2-0.8,1.9-1.9,1.9
		C113.5,150.5,112.6,149.9,112.6,148.7"/>
	<path class="st5" d="M117.3,147.9c0-1.5,1.1-2.6,2.6-2.6c0.9,0,1.6,0.4,2,1l-0.6,0.4c-0.3-0.5-0.8-0.7-1.4-0.7
		c-1,0-1.7,0.8-1.7,1.9c0,1.1,0.7,1.9,1.8,1.9c0.7,0,1.1-0.2,1.5-0.7l0.6,0.4c-0.5,0.7-1.2,1-2.2,1
		C118.4,150.5,117.3,149.4,117.3,147.9"/>
	<polygon class="st5" points="124,146.1 122.5,146.1 122.5,145.4 126.3,145.4 126.3,146.1 124.8,146.1 124.8,150.5 124,150.5 	"/>
	<path class="st5" d="M126.5,147.9c0-1.5,1.2-2.6,2.6-2.6s2.6,1.1,2.6,2.6c0,1.5-1.2,2.6-2.6,2.6S126.5,149.4,126.5,147.9
		 M130.9,147.9c0-1.1-0.7-1.9-1.8-1.9c-1.1,0-1.8,0.8-1.8,1.9c0,1.1,0.7,1.9,1.8,1.9C130.2,149.8,130.9,149,130.9,147.9"/>
	<polygon class="st5" points="134.3,145.4 137.4,145.4 137.4,146.1 135.1,146.1 135.1,147.7 137.2,147.7 137.2,148.4 135.1,148.4 
		135.1,150.5 134.3,150.5 	"/>
	<path class="st5" d="M139.1,150.5h-0.8v-5.1h1.6c1.2,0,1.9,0.7,1.9,1.6c0,0.7-0.4,1.2-1,1.4l1.2,2h-0.9l-1.1-1.9h-0.1h-0.8V150.5z
		 M139.9,147.9c0.8,0,1.1-0.3,1.1-0.9c0-0.6-0.3-0.9-1.1-0.9h-0.8v1.8H139.9z"/>
	<polygon class="st5" points="142.8,145.4 146,145.4 146,146.1 143.6,146.1 143.6,147.5 145.7,147.5 145.7,148.2 143.6,148.2 
		143.6,149.8 146.1,149.8 146.1,150.5 142.8,150.5 	"/>
	<path class="st5" d="M147.3,149.1c0.2,0.4,0.6,0.7,1.1,0.7c0.5,0,0.9-0.3,0.9-0.7c0-0.5-0.4-0.7-0.8-0.9l-0.4-0.2
		c-0.7-0.3-1.3-0.7-1.3-1.5c0-0.8,0.6-1.3,1.5-1.3c0.7,0,1.2,0.3,1.5,0.8l-0.6,0.4c-0.2-0.3-0.5-0.5-0.9-0.5c-0.4,0-0.7,0.2-0.7,0.6
		c0,0.4,0.3,0.5,0.8,0.8l0.4,0.2c0.8,0.3,1.3,0.7,1.3,1.6c0,0.9-0.7,1.4-1.7,1.4c-0.9,0-1.5-0.4-1.8-1.1L147.3,149.1z"/>
	<path class="st5" d="M150.7,147.9c0-1.5,1.1-2.6,2.6-2.6c0.9,0,1.6,0.4,2,1l-0.6,0.4c-0.3-0.5-0.8-0.7-1.4-0.7
		c-1,0-1.7,0.8-1.7,1.9c0,1.1,0.7,1.9,1.8,1.9c0.7,0,1.1-0.2,1.5-0.7l0.6,0.4c-0.5,0.7-1.2,1-2.2,1
		C151.8,150.5,150.7,149.4,150.7,147.9"/>
	<path class="st5" d="M155.9,147.9c0-1.5,1.2-2.6,2.6-2.6c1.5,0,2.6,1.1,2.6,2.6c0,1.5-1.2,2.6-2.6,2.6
		C157,150.5,155.9,149.4,155.9,147.9 M160.3,147.9c0-1.1-0.7-1.9-1.8-1.9c-1.1,0-1.8,0.8-1.8,1.9c0,1.1,0.7,1.9,1.8,1.9
		C159.5,149.8,160.3,149,160.3,147.9"/>
	<polygon class="st5" points="86.9,146.2 87.5,147.8 89.1,147.8 87.8,148.8 88.3,150.4 86.9,149.4 85.6,150.4 86.1,148.8 
		84.7,147.8 86.4,147.8 	"/>
	<polygon class="st5" points="167.6,146.2 168.1,147.8 169.8,147.8 168.4,148.8 168.9,150.4 167.6,149.4 166.2,150.4 166.7,148.8 
		165.4,147.8 167.1,147.8 	"/>
	<polygon class="st5" points="49.6,158.8 47,158.8 47,158.1 52.9,158.1 52.9,158.8 50.4,158.8 50.4,166.2 49.6,166.2 	"/>
	<path class="st5" d="M51.7,164.2c0-1.2,0.9-2.1,2.1-2.1c1.2,0,2.1,0.9,2.1,2.1c0,1.2-0.9,2.1-2.1,2.1
		C52.7,166.3,51.7,165.4,51.7,164.2 M55.2,164.2c0-0.8-0.5-1.5-1.3-1.5c-0.8,0-1.3,0.6-1.3,1.5c0,0.8,0.5,1.4,1.3,1.4
		C54.6,165.7,55.2,165.1,55.2,164.2"/>
	<path class="st5" d="M56.6,164.2c0-1.2,0.9-2.1,2-2.1c0.6,0,1.1,0.3,1.4,0.8v-5.2h0.7v8.5H60v-0.7c-0.3,0.5-0.8,0.8-1.4,0.8
		C57.4,166.3,56.6,165.4,56.6,164.2 M60,164.2c0-0.8-0.5-1.4-1.3-1.4c-0.8,0-1.3,0.6-1.3,1.4c0,0.8,0.5,1.4,1.3,1.4
		C59.5,165.7,60,165.1,60,164.2"/>
	<path class="st5" d="M61.7,164.2c0-1.2,0.9-2.1,2.1-2.1c1.2,0,2.1,0.9,2.1,2.1c0,1.2-0.9,2.1-2.1,2.1
		C62.6,166.3,61.7,165.4,61.7,164.2 M65.1,164.2c0-0.8-0.5-1.5-1.3-1.5c-0.8,0-1.3,0.6-1.3,1.5c0,0.8,0.5,1.4,1.3,1.4
		C64.6,165.7,65.1,165.1,65.1,164.2"/>
	<path class="st5" d="M66.4,165.4L67,165c0.2,0.4,0.6,0.6,1.2,0.6c0.5,0,0.8-0.2,0.8-0.5c0-0.4-0.3-0.5-1-0.7
		c-0.8-0.2-1.3-0.5-1.3-1.2c0-0.6,0.5-1.1,1.3-1.1c0.7,0,1.1,0.3,1.4,0.6l-0.5,0.4c-0.2-0.3-0.5-0.4-0.9-0.4c-0.4,0-0.6,0.2-0.6,0.4
		c0,0.3,0.3,0.4,0.9,0.6c0.9,0.2,1.4,0.6,1.4,1.3c0,0.7-0.6,1.2-1.5,1.2C67.4,166.3,66.8,166,66.4,165.4"/>
	<path class="st5" d="M72.8,162.3h0.7v0.6c0.3-0.5,0.8-0.7,1.4-0.7c0.9,0,1.5,0.6,1.5,1.6v2.4h-0.7v-2.4c0-0.7-0.3-1-1-1
		c-0.7,0-1.2,0.4-1.2,1.2v2.2h-0.7V162.3z"/>
	<path class="st5" d="M77.5,164.7v-2.4h0.7v2.4c0,0.7,0.3,1,1,1c0.7,0,1.2-0.4,1.2-1.2v-2.2h0.7v3.9h-0.7v-0.6
		c-0.3,0.5-0.8,0.7-1.4,0.7C78.1,166.3,77.5,165.8,77.5,164.7"/>
	<path class="st5" d="M84.2,165.7c0.6,0,1-0.2,1.2-0.5l0.5,0.4c-0.4,0.4-0.9,0.7-1.7,0.7c-1.3,0-2.2-0.9-2.2-2.1
		c0-1.2,0.9-2.1,2.1-2.1c1.3,0,2,1,2,2.3h-3.3C82.9,165.2,83.4,165.7,84.2,165.7 M85.4,163.9c-0.1-0.6-0.5-1.1-1.2-1.1
		c-0.7,0-1.2,0.4-1.3,1.1H85.4z"/>
	<path class="st5" d="M86.7,165.4l0.6-0.4c0.2,0.4,0.6,0.6,1.2,0.6c0.5,0,0.8-0.2,0.8-0.5c0-0.4-0.3-0.5-1-0.7
		c-0.8-0.2-1.3-0.5-1.3-1.2c0-0.6,0.5-1.1,1.3-1.1c0.7,0,1.1,0.3,1.4,0.6l-0.5,0.4c-0.2-0.3-0.5-0.4-0.9-0.4c-0.4,0-0.6,0.2-0.6,0.4
		c0,0.3,0.3,0.4,0.9,0.6c0.9,0.2,1.4,0.6,1.4,1.3c0,0.7-0.6,1.2-1.5,1.2C87.6,166.3,87,166,86.7,165.4"/>
	<path class="st5" d="M90.4,162.9v-0.6H91v-1.5h0.7v1.5h1v0.6h-1v2.2c0,0.4,0.1,0.6,0.4,0.6c0.2,0,0.3-0.1,0.4-0.2l0.3,0.5
		c-0.2,0.2-0.5,0.3-0.8,0.3c-0.6,0-1.1-0.4-1.1-1.2v-2.3H90.4z"/>
	<path class="st5" d="M93.7,162.3h0.7v0.7c0.3-0.5,0.7-0.8,1.2-0.8c0.3,0,0.4,0,0.6,0.2L96,163c-0.1-0.1-0.3-0.1-0.5-0.1
		c-0.6,0-1,0.5-1,1.3v2.1h-0.7V162.3z"/>
	<path class="st5" d="M96.6,164.2c0-1.2,0.9-2.1,2.1-2.1c1.2,0,2.1,0.9,2.1,2.1c0,1.2-0.9,2.1-2.1,2.1
		C97.5,166.3,96.6,165.4,96.6,164.2 M100,164.2c0-0.8-0.5-1.5-1.3-1.5c-0.8,0-1.3,0.6-1.3,1.5c0,0.8,0.5,1.4,1.3,1.4
		C99.5,165.7,100,165.1,100,164.2"/>
	<path class="st5" d="M101.3,165.4l0.6-0.4c0.2,0.4,0.6,0.6,1.2,0.6c0.5,0,0.8-0.2,0.8-0.5c0-0.4-0.3-0.5-1-0.7
		c-0.8-0.2-1.3-0.5-1.3-1.2c0-0.6,0.5-1.1,1.3-1.1c0.7,0,1.1,0.3,1.4,0.6l-0.5,0.4c-0.2-0.3-0.5-0.4-0.9-0.4c-0.4,0-0.6,0.2-0.6,0.4
		c0,0.3,0.3,0.4,0.9,0.6c0.9,0.2,1.4,0.6,1.4,1.3c0,0.7-0.6,1.2-1.5,1.2C102.3,166.3,101.7,166,101.3,165.4"/>
	<path class="st5" d="M107.7,162.3h0.7v0.7c0.3-0.5,0.8-0.8,1.4-0.8c1.1,0,1.9,0.9,1.9,2.1c0,1.2-0.8,2.1-1.9,2.1
		c-0.7,0-1.2-0.3-1.4-0.8v3.2h-0.7V162.3z M111.1,164.2c0-0.8-0.5-1.4-1.3-1.4c-0.8,0-1.3,0.6-1.3,1.4c0,0.8,0.5,1.4,1.3,1.4
		C110.5,165.7,111.1,165.1,111.1,164.2"/>
	<path class="st5" d="M112.8,162.3h0.7v0.7c0.3-0.5,0.7-0.8,1.2-0.8c0.3,0,0.4,0,0.6,0.2L115,163c-0.1-0.1-0.3-0.1-0.5-0.1
		c-0.6,0-1,0.5-1,1.3v2.1h-0.7V162.3z"/>
	<path class="st5" d="M115.7,164.2c0-1.2,0.9-2.1,2.1-2.1c1.2,0,2.1,0.9,2.1,2.1c0,1.2-0.9,2.1-2.1,2.1
		C116.6,166.3,115.7,165.4,115.7,164.2 M119.1,164.2c0-0.8-0.5-1.5-1.3-1.5c-0.8,0-1.3,0.6-1.3,1.5c0,0.8,0.5,1.4,1.3,1.4
		C118.6,165.7,119.1,165.1,119.1,164.2"/>
	<path class="st5" d="M120.5,164.2c0-1.2,0.9-2.1,2-2.1c0.6,0,1.1,0.3,1.4,0.8v-5.2h0.7v8.5h-0.7v-0.7c-0.3,0.5-0.8,0.8-1.4,0.8
		C121.4,166.3,120.5,165.4,120.5,164.2 M123.9,164.2c0-0.8-0.5-1.4-1.3-1.4c-0.8,0-1.3,0.6-1.3,1.4c0,0.8,0.5,1.4,1.3,1.4
		C123.4,165.7,123.9,165.1,123.9,164.2"/>
	<path class="st5" d="M125.8,164.7v-2.4h0.7v2.4c0,0.7,0.3,1,1,1c0.7,0,1.2-0.4,1.2-1.2v-2.2h0.7v3.9h-0.7v-0.6
		c-0.3,0.5-0.8,0.7-1.4,0.7C126.4,166.3,125.8,165.8,125.8,164.7"/>
	<path class="st5" d="M130.4,164.2c0-1.2,0.9-2.1,2-2.1c0.7,0,1.2,0.2,1.6,0.6l-0.5,0.4c-0.3-0.3-0.6-0.4-1.1-0.4
		c-0.8,0-1.3,0.6-1.3,1.4c0,0.8,0.5,1.4,1.3,1.4c0.5,0,0.9-0.2,1.2-0.5l0.5,0.4c-0.4,0.4-0.9,0.7-1.7,0.7
		C131.3,166.3,130.4,165.4,130.4,164.2"/>
	<path class="st5" d="M134.7,162.9v-0.6h0.5v-1.5h0.7v1.5h1v0.6h-1v2.2c0,0.4,0.1,0.6,0.4,0.6c0.2,0,0.3-0.1,0.4-0.2l0.3,0.5
		c-0.2,0.2-0.5,0.3-0.8,0.3c-0.6,0-1.1-0.4-1.1-1.2v-2.3H134.7z"/>
	<path class="st5" d="M137.6,164.2c0-1.2,0.9-2.1,2.1-2.1c1.2,0,2.1,0.9,2.1,2.1c0,1.2-0.9,2.1-2.1,2.1
		C138.6,166.3,137.6,165.4,137.6,164.2 M141.1,164.2c0-0.8-0.5-1.5-1.3-1.5c-0.8,0-1.3,0.6-1.3,1.5c0,0.8,0.5,1.4,1.3,1.4
		C140.5,165.7,141.1,165.1,141.1,164.2"/>
	<path class="st5" d="M142.4,165.4l0.6-0.4c0.2,0.4,0.6,0.6,1.2,0.6c0.5,0,0.8-0.2,0.8-0.5c0-0.4-0.3-0.5-1-0.7
		c-0.8-0.2-1.3-0.5-1.3-1.2c0-0.6,0.5-1.1,1.3-1.1c0.7,0,1.1,0.3,1.4,0.6l-0.5,0.4c-0.2-0.3-0.5-0.4-0.9-0.4c-0.4,0-0.6,0.2-0.6,0.4
		c0,0.3,0.3,0.4,0.9,0.6c0.9,0.2,1.4,0.6,1.4,1.3c0,0.7-0.6,1.2-1.5,1.2C143.3,166.3,142.7,166,142.4,165.4"/>
	<path class="st5" d="M148.4,165.4l0.6-0.4c0.2,0.4,0.6,0.6,1.2,0.6c0.5,0,0.8-0.2,0.8-0.5c0-0.4-0.3-0.5-1-0.7
		c-0.8-0.2-1.3-0.5-1.3-1.2c0-0.6,0.5-1.1,1.3-1.1c0.7,0,1.1,0.3,1.4,0.6l-0.5,0.4c-0.2-0.3-0.5-0.4-0.9-0.4c-0.4,0-0.6,0.2-0.6,0.4
		c0,0.3,0.3,0.4,0.9,0.6c0.9,0.2,1.4,0.6,1.4,1.3c0,0.7-0.6,1.2-1.5,1.2C149.3,166.3,148.7,166,148.4,165.4"/>
	<path class="st5" d="M152.3,164.2c0-1.2,0.9-2.1,2.1-2.1c1.2,0,2.1,0.9,2.1,2.1c0,1.2-0.9,2.1-2.1,2.1
		C153.2,166.3,152.3,165.4,152.3,164.2 M155.7,164.2c0-0.8-0.5-1.5-1.3-1.5c-0.8,0-1.3,0.6-1.3,1.5c0,0.8,0.5,1.4,1.3,1.4
		C155.2,165.7,155.7,165.1,155.7,164.2"/>
	<path class="st5" d="M157.5,162.3h0.7v0.6c0.3-0.5,0.8-0.7,1.4-0.7c0.9,0,1.5,0.6,1.5,1.6v2.4h-0.7v-2.4c0-0.7-0.3-1-1-1
		c-0.7,0-1.2,0.4-1.2,1.2v2.2h-0.7V162.3z"/>
	<path class="st5" d="M166.3,165.7c0.6,0,1-0.2,1.2-0.5l0.5,0.4c-0.4,0.4-0.9,0.7-1.7,0.7c-1.3,0-2.2-0.9-2.2-2.1
		c0-1.2,0.9-2.1,2.1-2.1c1.3,0,2,1,2,2.3h-3.3C165,165.2,165.5,165.7,166.3,165.7 M167.5,163.9c-0.1-0.6-0.5-1.1-1.2-1.1
		c-0.7,0-1.2,0.4-1.3,1.1H167.5z"/>
	<rect x="169.2" y="157.7" class="st5" width="0.7" height="8.5"/>
	<path class="st5" d="M173.7,163.8c0-0.7-0.4-1-0.9-1c-0.5,0-0.8,0.2-1.1,0.6l-0.5-0.4c0.4-0.5,0.9-0.8,1.6-0.8c1,0,1.6,0.5,1.6,1.6
		v2.4h-0.7v-0.4c-0.3,0.3-0.7,0.5-1.2,0.5c-0.8,0-1.5-0.4-1.5-1.3c0-0.8,0.7-1.2,1.5-1.2L173.7,163.8L173.7,163.8z M172.6,164.4
		c-0.5,0-0.9,0.2-0.9,0.6c0,0.4,0.3,0.7,0.9,0.7c0.6,0,1.1-0.3,1.1-0.9v-0.4H172.6z"/>
	<path class="st5" d="M176.4,165.5v0.7h-0.7v-8.5h0.7v5.2c0.3-0.5,0.8-0.8,1.4-0.8c1.1,0,1.9,0.9,1.9,2.1c0,1.2-0.8,2.1-1.9,2.1
		C177.2,166.3,176.7,166,176.4,165.5 M179,164.2c0-0.8-0.5-1.4-1.3-1.4c-0.8,0-1.3,0.6-1.3,1.4c0,0.8,0.5,1.4,1.3,1.4
		C178.5,165.7,179,165.1,179,164.2"/>
	<path class="st5" d="M180.4,164.2c0-1.2,0.9-2.1,2.1-2.1c1.2,0,2.1,0.9,2.1,2.1c0,1.2-0.9,2.1-2.1,2.1
		C181.4,166.3,180.4,165.4,180.4,164.2 M183.9,164.2c0-0.8-0.5-1.5-1.3-1.5c-0.8,0-1.3,0.6-1.3,1.5c0,0.8,0.5,1.4,1.3,1.4
		C183.3,165.7,183.9,165.1,183.9,164.2"/>
	<path class="st5" d="M185.6,162.3h0.7v0.7c0.3-0.5,0.7-0.8,1.2-0.8c0.3,0,0.4,0,0.6,0.2l-0.3,0.6c-0.1-0.1-0.3-0.1-0.5-0.1
		c-0.6,0-1,0.5-1,1.3v2.1h-0.7V162.3z"/>
	<path class="st5" d="M191.2,163.8c0-0.7-0.4-1-0.9-1c-0.5,0-0.8,0.2-1.1,0.6l-0.5-0.4c0.4-0.5,0.9-0.8,1.6-0.8c1,0,1.6,0.5,1.6,1.6
		v2.4h-0.7v-0.4c-0.3,0.3-0.7,0.5-1.2,0.5c-0.8,0-1.5-0.4-1.5-1.3c0-0.8,0.7-1.2,1.5-1.2L191.2,163.8L191.2,163.8z M190,164.4
		c-0.5,0-0.9,0.2-0.9,0.6c0,0.4,0.3,0.7,0.9,0.7c0.6,0,1.1-0.3,1.1-0.9v-0.4H190z"/>
	<path class="st5" d="M192.9,164.2c0-1.2,0.9-2.1,2-2.1c0.6,0,1.1,0.3,1.4,0.8v-5.2h0.7v8.5h-0.7v-0.7c-0.3,0.5-0.8,0.8-1.4,0.8
		C193.7,166.3,192.9,165.4,192.9,164.2 M196.3,164.2c0-0.8-0.5-1.4-1.3-1.4c-0.8,0-1.3,0.6-1.3,1.4c0,0.8,0.5,1.4,1.3,1.4
		C195.7,165.7,196.3,165.1,196.3,164.2"/>
	<path class="st5" d="M198,164.2c0-1.2,0.9-2.1,2.1-2.1c1.2,0,2.1,0.9,2.1,2.1c0,1.2-0.9,2.1-2.1,2.1
		C198.9,166.3,198,165.4,198,164.2 M201.4,164.2c0-0.8-0.5-1.5-1.3-1.5c-0.8,0-1.3,0.6-1.3,1.5c0,0.8,0.5,1.4,1.3,1.4
		C200.9,165.7,201.4,165.1,201.4,164.2"/>
	<path class="st5" d="M202.7,165.4l0.6-0.4c0.2,0.4,0.6,0.6,1.2,0.6c0.5,0,0.8-0.2,0.8-0.5c0-0.4-0.3-0.5-1-0.7
		c-0.8-0.2-1.3-0.5-1.3-1.2c0-0.6,0.5-1.1,1.3-1.1c0.7,0,1.1,0.3,1.4,0.6l-0.5,0.4c-0.2-0.3-0.5-0.4-0.9-0.4c-0.4,0-0.6,0.2-0.6,0.4
		c0,0.3,0.3,0.4,0.9,0.6c0.9,0.2,1.4,0.6,1.4,1.3c0,0.7-0.6,1.2-1.5,1.2C203.7,166.3,203.1,166,202.7,165.4"/>
	<path class="st5" d="M34.7,178.6c0-1.2,0.9-2.1,2-2.1c0.7,0,1.2,0.2,1.6,0.6l-0.5,0.4c-0.3-0.3-0.6-0.4-1.1-0.4
		c-0.8,0-1.3,0.6-1.3,1.4c0,0.8,0.5,1.4,1.3,1.4c0.5,0,0.9-0.2,1.2-0.5l0.5,0.4c-0.4,0.4-0.9,0.7-1.7,0.7
		C35.5,180.7,34.7,179.8,34.7,178.6"/>
	<path class="st5" d="M38.9,178.6c0-1.2,0.9-2.1,2.1-2.1c1.2,0,2.1,0.9,2.1,2.1c0,1.2-0.9,2.1-2.1,2.1
		C39.8,180.7,38.9,179.8,38.9,178.6 M42.4,178.6c0-0.8-0.5-1.5-1.3-1.5c-0.8,0-1.3,0.6-1.3,1.5c0,0.8,0.5,1.4,1.3,1.4
		C41.8,180.1,42.4,179.5,42.4,178.6"/>
	<path class="st5" d="M44.1,176.7h0.7v0.6c0.3-0.5,0.8-0.7,1.4-0.7c0.9,0,1.5,0.6,1.5,1.6v2.4H47v-2.4c0-0.7-0.3-1-1-1
		c-0.7,0-1.2,0.4-1.2,1.2v2.2h-0.7V176.7z"/>
	<path class="st5" d="M50.9,175.1c0-0.3,0.2-0.5,0.5-0.5c0.3,0,0.5,0.2,0.5,0.5c0,0.3-0.2,0.5-0.5,0.5
		C51.2,175.6,50.9,175.4,50.9,175.1 M51.1,176.7h0.7v3.9h-0.7V176.7z"/>
	<path class="st5" d="M53,176.7h0.7v0.6c0.3-0.5,0.8-0.7,1.4-0.7c0.9,0,1.5,0.6,1.5,1.6v2.4h-0.7v-2.4c0-0.7-0.3-1-1-1
		c-0.7,0-1.2,0.4-1.2,1.2v2.2H53V176.7z"/>
	<path class="st5" d="M57.7,182.1l0.6-0.3c0.3,0.6,0.8,0.9,1.4,0.9c0.8,0,1.3-0.5,1.3-1.4v-1.3c-0.3,0.5-0.8,0.8-1.4,0.8
		c-1.1,0-2-0.9-2-2.1c0-1.2,0.9-2.1,2-2.1c0.6,0,1.1,0.3,1.4,0.8v-0.7h0.7v4.6c0,1.2-0.7,2-2,2C58.7,183.3,58.1,182.8,57.7,182.1
		 M61,178.6c0-0.8-0.5-1.4-1.3-1.4c-0.8,0-1.3,0.6-1.3,1.4c0,0.8,0.5,1.4,1.3,1.4C60.4,180.1,61,179.5,61,178.6"/>
	<path class="st5" d="M62.9,176.7h0.7v0.7c0.3-0.5,0.7-0.8,1.2-0.8c0.3,0,0.4,0,0.6,0.2l-0.3,0.6c-0.1-0.1-0.3-0.1-0.5-0.1
		c-0.6,0-1,0.5-1,1.3v2.1h-0.7V176.7z"/>
	<path class="st5" d="M68,180.1c0.6,0,1-0.2,1.2-0.5l0.5,0.4c-0.4,0.4-0.9,0.7-1.7,0.7c-1.3,0-2.2-0.9-2.2-2.1
		c0-1.2,0.9-2.1,2.1-2.1c1.3,0,2,1,2,2.3h-3.3C66.7,179.6,67.2,180.1,68,180.1 M69.1,178.3c-0.1-0.6-0.5-1.1-1.2-1.1
		c-0.7,0-1.2,0.4-1.3,1.1H69.1z"/>
	<path class="st5" d="M70.6,178.6c0-1.2,0.9-2.1,2-2.1c0.6,0,1.1,0.3,1.4,0.8v-5.2h0.7v8.5H74v-0.7c-0.3,0.5-0.8,0.8-1.4,0.8
		C71.5,180.7,70.6,179.8,70.6,178.6 M74,178.6c0-0.8-0.5-1.4-1.3-1.4c-0.8,0-1.3,0.6-1.3,1.4c0,0.8,0.5,1.4,1.3,1.4
		C73.5,180.1,74,179.5,74,178.6"/>
	<path class="st5" d="M75.9,175.1c0-0.3,0.2-0.5,0.5-0.5c0.3,0,0.5,0.2,0.5,0.5c0,0.3-0.2,0.5-0.5,0.5
		C76.1,175.6,75.9,175.4,75.9,175.1 M76,176.7h0.7v3.9H76V176.7z"/>
	<path class="st5" d="M79.9,180.1c0.6,0,1-0.2,1.2-0.5l0.5,0.4c-0.4,0.4-0.9,0.7-1.7,0.7c-1.3,0-2.2-0.9-2.2-2.1
		c0-1.2,0.9-2.1,2.1-2.1c1.3,0,2,1,2,2.3h-3.3C78.6,179.6,79.1,180.1,79.9,180.1 M81.1,178.3c-0.1-0.6-0.5-1.1-1.2-1.1
		c-0.7,0-1.2,0.4-1.3,1.1H81.1z"/>
	<path class="st5" d="M82.8,176.7h0.7v0.6c0.3-0.5,0.8-0.7,1.4-0.7c0.9,0,1.5,0.6,1.5,1.6v2.4h-0.7v-2.4c0-0.7-0.3-1-1-1
		c-0.7,0-1.2,0.4-1.2,1.2v2.2h-0.7V176.7z"/>
	<path class="st5" d="M87.2,177.3v-0.6h0.5v-1.5h0.7v1.5h1v0.6h-1v2.2c0,0.4,0.1,0.6,0.4,0.6c0.2,0,0.3-0.1,0.4-0.2l0.3,0.5
		c-0.2,0.2-0.5,0.3-0.8,0.3c-0.6,0-1.1-0.4-1.1-1.2v-2.3H87.2z"/>
	<path class="st5" d="M92.3,180.1c0.6,0,1-0.2,1.2-0.5L94,180c-0.4,0.4-0.9,0.7-1.7,0.7c-1.3,0-2.2-0.9-2.2-2.1
		c0-1.2,0.9-2.1,2.1-2.1c1.3,0,2,1,2,2.3h-3.3C91,179.6,91.5,180.1,92.3,180.1 M93.4,178.3c-0.1-0.6-0.5-1.1-1.2-1.1
		c-0.7,0-1.2,0.4-1.3,1.1H93.4z"/>
	<path class="st5" d="M94.8,179.8l0.6-0.4c0.2,0.4,0.6,0.6,1.2,0.6c0.5,0,0.8-0.2,0.8-0.5c0-0.4-0.3-0.5-1-0.7
		c-0.8-0.2-1.3-0.5-1.3-1.2c0-0.6,0.5-1.1,1.3-1.1c0.7,0,1.1,0.3,1.4,0.6l-0.5,0.4c-0.2-0.3-0.5-0.4-0.9-0.4c-0.4,0-0.6,0.2-0.6,0.4
		c0,0.3,0.3,0.4,0.9,0.6c0.9,0.2,1.4,0.6,1.4,1.3c0,0.7-0.6,1.2-1.5,1.2C95.7,180.7,95.1,180.4,94.8,179.8"/>
	<path class="st5" d="M100.9,178.6c0-1.2,0.9-2.1,2-2.1c0.6,0,1.1,0.3,1.4,0.8v-5.2h0.7v8.5h-0.7v-0.7c-0.3,0.5-0.8,0.8-1.4,0.8
		C101.7,180.7,100.9,179.8,100.9,178.6 M104.3,178.6c0-0.8-0.5-1.4-1.3-1.4c-0.8,0-1.3,0.6-1.3,1.4c0,0.8,0.5,1.4,1.3,1.4
		C103.8,180.1,104.3,179.5,104.3,178.6"/>
	<path class="st5" d="M108.1,180.1c0.6,0,1-0.2,1.2-0.5l0.5,0.4c-0.4,0.4-0.9,0.7-1.7,0.7c-1.3,0-2.2-0.9-2.2-2.1
		c0-1.2,0.9-2.1,2.1-2.1c1.3,0,2,1,2,2.3h-3.3C106.9,179.6,107.4,180.1,108.1,180.1 M109.3,178.3c-0.1-0.6-0.5-1.1-1.2-1.1
		c-0.7,0-1.2,0.4-1.3,1.1H109.3z"/>
	<path class="st5" d="M113.2,176.7h0.7v0.7c0.3-0.5,0.8-0.8,1.4-0.8c1.1,0,1.9,0.9,1.9,2.1c0,1.2-0.8,2.1-1.9,2.1
		c-0.7,0-1.2-0.3-1.4-0.8v3.2h-0.7V176.7z M116.6,178.6c0-0.8-0.5-1.4-1.3-1.4c-0.8,0-1.3,0.6-1.3,1.4c0,0.8,0.5,1.4,1.3,1.4
		C116,180.1,116.6,179.5,116.6,178.6"/>
	<path class="st5" d="M118.3,176.7h0.7v0.7c0.3-0.5,0.7-0.8,1.2-0.8c0.3,0,0.4,0,0.6,0.2l-0.3,0.6c-0.1-0.1-0.3-0.1-0.5-0.1
		c-0.6,0-1,0.5-1,1.3v2.1h-0.7V176.7z"/>
	<path class="st5" d="M121.2,178.6c0-1.2,0.9-2.1,2.1-2.1c1.2,0,2.1,0.9,2.1,2.1c0,1.2-0.9,2.1-2.1,2.1
		C122.1,180.7,121.2,179.8,121.2,178.6 M124.6,178.6c0-0.8-0.5-1.5-1.3-1.5c-0.8,0-1.3,0.6-1.3,1.5c0,0.8,0.5,1.4,1.3,1.4
		C124.1,180.1,124.6,179.5,124.6,178.6"/>
	<polygon class="st5" points="125.7,176.7 126.5,176.7 127.7,179.3 128.9,176.7 129.7,176.7 127.7,180.7 127.7,180.7 	"/>
	<path class="st5" d="M132.1,180.1c0.6,0,1-0.2,1.2-0.5l0.5,0.4c-0.4,0.4-0.9,0.7-1.7,0.7c-1.3,0-2.2-0.9-2.2-2.1
		c0-1.2,0.9-2.1,2.1-2.1c1.3,0,2,1,2,2.3h-3.3C130.9,179.6,131.4,180.1,132.1,180.1 M133.3,178.3c-0.1-0.6-0.5-1.1-1.2-1.1
		c-0.7,0-1.2,0.4-1.3,1.1H133.3z"/>
	<path class="st5" d="M136.9,180.1c0.6,0,1-0.2,1.2-0.5l0.5,0.4c-0.4,0.4-0.9,0.7-1.7,0.7c-1.3,0-2.2-0.9-2.2-2.1
		c0-1.2,0.9-2.1,2.1-2.1c1.3,0,2,1,2,2.3h-3.3C135.7,179.6,136.2,180.1,136.9,180.1 M138.1,178.3c-0.1-0.6-0.5-1.1-1.2-1.1
		c-0.7,0-1.2,0.4-1.3,1.1H138.1z"/>
	<path class="st5" d="M139.6,178.6c0-1.2,0.9-2.1,2-2.1c0.6,0,1.1,0.3,1.4,0.8v-5.2h0.7v8.5H143v-0.7c-0.3,0.5-0.8,0.8-1.4,0.8
		C140.4,180.7,139.6,179.8,139.6,178.6 M143,178.6c0-0.8-0.5-1.4-1.3-1.4c-0.8,0-1.3,0.6-1.3,1.4c0,0.8,0.5,1.4,1.3,1.4
		C142.5,180.1,143,179.5,143,178.6"/>
	<path class="st5" d="M144.7,178.6c0-1.2,0.9-2.1,2.1-2.1c1.2,0,2.1,0.9,2.1,2.1c0,1.2-0.9,2.1-2.1,2.1
		C145.6,180.7,144.7,179.8,144.7,178.6 M148.1,178.6c0-0.8-0.5-1.5-1.3-1.5c-0.8,0-1.3,0.6-1.3,1.5c0,0.8,0.5,1.4,1.3,1.4
		C147.6,180.1,148.1,179.5,148.1,178.6"/>
	<path class="st5" d="M149.8,176.7h0.7v0.7c0.3-0.5,0.7-0.8,1.2-0.8c0.3,0,0.4,0,0.6,0.2l-0.3,0.6c-0.1-0.1-0.3-0.1-0.5-0.1
		c-0.6,0-1,0.5-1,1.3v2.1h-0.7V176.7z"/>
	<path class="st5" d="M154.9,180.1c0.6,0,1-0.2,1.2-0.5l0.5,0.4c-0.4,0.4-0.9,0.7-1.7,0.7c-1.3,0-2.2-0.9-2.2-2.1
		c0-1.2,0.9-2.1,2.1-2.1c1.3,0,2,1,2,2.3h-3.3C153.6,179.6,154.1,180.1,154.9,180.1 M156.1,178.3c-0.1-0.6-0.5-1.1-1.2-1.1
		c-0.7,0-1.2,0.4-1.3,1.1H156.1z"/>
	<path class="st5" d="M157.4,179.8l0.6-0.4c0.2,0.4,0.6,0.6,1.2,0.6c0.5,0,0.8-0.2,0.8-0.5c0-0.4-0.3-0.5-1-0.7
		c-0.8-0.2-1.3-0.5-1.3-1.2c0-0.6,0.5-1.1,1.3-1.1c0.7,0,1.1,0.3,1.4,0.6l-0.5,0.4c-0.2-0.3-0.5-0.4-0.9-0.4c-0.4,0-0.6,0.2-0.6,0.4
		c0,0.3,0.3,0.4,0.9,0.6c0.9,0.2,1.4,0.6,1.4,1.3c0,0.7-0.6,1.2-1.5,1.2C158.3,180.7,157.7,180.4,157.4,179.8"/>
	<rect x="163.8" y="172.1" class="st5" width="0.7" height="8.5"/>
	<path class="st5" d="M165.5,178.6c0-1.2,0.9-2.1,2.1-2.1c1.2,0,2.1,0.9,2.1,2.1c0,1.2-0.9,2.1-2.1,2.1
		C166.4,180.7,165.5,179.8,165.5,178.6 M169,178.6c0-0.8-0.5-1.5-1.3-1.5c-0.8,0-1.3,0.6-1.3,1.5c0,0.8,0.5,1.4,1.3,1.4
		C168.4,180.1,169,179.5,169,178.6"/>
	<path class="st5" d="M170.4,178.6c0-1.2,0.9-2.1,2-2.1c0.7,0,1.2,0.2,1.6,0.6l-0.5,0.4c-0.3-0.3-0.6-0.4-1.1-0.4
		c-0.8,0-1.3,0.6-1.3,1.4c0,0.8,0.5,1.4,1.3,1.4c0.5,0,0.9-0.2,1.2-0.5l0.5,0.4c-0.4,0.4-0.9,0.7-1.7,0.7
		C171.3,180.7,170.4,179.8,170.4,178.6"/>
	<path class="st5" d="M177.4,178.2c0-0.7-0.4-1-0.9-1c-0.5,0-0.8,0.2-1.1,0.6l-0.5-0.4c0.4-0.5,0.9-0.8,1.6-0.8c1,0,1.6,0.5,1.6,1.6
		v2.4h-0.7v-0.4c-0.3,0.3-0.7,0.5-1.2,0.5c-0.8,0-1.5-0.4-1.5-1.3c0-0.8,0.7-1.2,1.5-1.2L177.4,178.2L177.4,178.2z M176.3,178.8
		c-0.5,0-0.9,0.2-0.9,0.6c0,0.4,0.3,0.7,0.9,0.7c0.6,0,1.1-0.3,1.1-0.9v-0.4H176.3z"/>
	<rect x="179.4" y="172.1" class="st5" width="0.7" height="8.5"/>
	<path class="st5" d="M183.3,180.1c0.6,0,1-0.2,1.2-0.5l0.5,0.4c-0.4,0.4-0.9,0.7-1.7,0.7c-1.3,0-2.2-0.9-2.2-2.1
		c0-1.2,0.9-2.1,2.1-2.1c1.3,0,2,1,2,2.3h-3.3C182,179.6,182.5,180.1,183.3,180.1 M184.5,178.3c-0.1-0.6-0.5-1.1-1.2-1.1
		c-0.7,0-1.2,0.4-1.3,1.1H184.5z"/>
	<path class="st5" d="M185.8,179.8l0.6-0.4c0.2,0.4,0.6,0.6,1.2,0.6c0.5,0,0.8-0.2,0.8-0.5c0-0.4-0.3-0.5-1-0.7
		c-0.8-0.2-1.3-0.5-1.3-1.2c0-0.6,0.5-1.1,1.3-1.1c0.7,0,1.1,0.3,1.4,0.6l-0.5,0.4c-0.2-0.3-0.5-0.4-0.9-0.4c-0.4,0-0.6,0.2-0.6,0.4
		c0,0.3,0.3,0.4,0.9,0.6c0.9,0.2,1.4,0.6,1.4,1.3c0,0.7-0.6,1.2-1.5,1.2C186.7,180.7,186.1,180.4,185.8,179.8"/>
	<path class="st5" d="M190.1,180.6c-0.2-0.1-0.3-0.3-0.3-0.5c0-0.3,0.3-0.6,0.6-0.6c0.3,0,0.6,0.2,0.6,0.6c0,0.2-0.1,0.3-0.2,0.5
		l-0.6,1h-0.4L190.1,180.6z"/>
	<path class="st5" d="M194.2,172.1h0.7v5.2c0.3-0.5,0.8-0.7,1.4-0.7c0.9,0,1.5,0.6,1.5,1.6v2.4h-0.7v-2.4c0-0.7-0.3-1-1-1
		c-0.7,0-1.2,0.4-1.2,1.2v2.2h-0.7V172.1z"/>
	<path class="st5" d="M200.9,180.1c0.6,0,1-0.2,1.2-0.5l0.5,0.4c-0.4,0.4-0.9,0.7-1.7,0.7c-1.3,0-2.2-0.9-2.2-2.1
		c0-1.2,0.9-2.1,2.1-2.1c1.3,0,2,1,2,2.3h-3.3C199.6,179.6,200.1,180.1,200.9,180.1 M202,178.3c-0.1-0.6-0.5-1.1-1.2-1.1
		c-0.7,0-1.2,0.4-1.3,1.1H202z"/>
	<path class="st5" d="M203.5,178.6c0-1.2,0.9-2.1,2-2.1c0.7,0,1.2,0.2,1.6,0.6l-0.5,0.4c-0.3-0.3-0.6-0.4-1.1-0.4
		c-0.8,0-1.3,0.6-1.3,1.4c0,0.8,0.5,1.4,1.3,1.4c0.5,0,0.9-0.2,1.2-0.5l0.5,0.4c-0.4,0.4-0.9,0.7-1.7,0.7
		C204.4,180.7,203.5,179.8,203.5,178.6"/>
	<path class="st5" d="M208.1,172.1h0.7v5.2c0.3-0.5,0.8-0.7,1.4-0.7c0.9,0,1.5,0.6,1.5,1.6v2.4H211v-2.4c0-0.7-0.3-1-1-1
		c-0.7,0-1.2,0.4-1.2,1.2v2.2h-0.7V172.1z"/>
	<path class="st5" d="M212.6,178.6c0-1.2,0.9-2.1,2.1-2.1c1.2,0,2.1,0.9,2.1,2.1c0,1.2-0.9,2.1-2.1,2.1
		C213.5,180.7,212.6,179.8,212.6,178.6 M216,178.6c0-0.8-0.5-1.5-1.3-1.5c-0.8,0-1.3,0.6-1.3,1.5c0,0.8,0.5,1.4,1.3,1.4
		C215.5,180.1,216,179.5,216,178.6"/>
	<path class="st5" d="M217.3,179.8l0.6-0.4c0.2,0.4,0.6,0.6,1.2,0.6c0.5,0,0.8-0.2,0.8-0.5c0-0.4-0.3-0.5-1-0.7
		c-0.8-0.2-1.3-0.5-1.3-1.2c0-0.6,0.5-1.1,1.3-1.1c0.7,0,1.1,0.3,1.4,0.6l-0.5,0.4c-0.2-0.3-0.5-0.4-0.9-0.4c-0.4,0-0.6,0.2-0.6,0.4
		c0,0.3,0.3,0.4,0.9,0.6c0.9,0.2,1.4,0.6,1.4,1.3c0,0.7-0.6,1.2-1.5,1.2C218.3,180.7,217.7,180.4,217.3,179.8"/>
	<path class="st5" d="M59,193c0-1.2,0.9-2.1,2-2.1c0.7,0,1.2,0.2,1.6,0.6l-0.5,0.4c-0.3-0.3-0.6-0.4-1.1-0.4c-0.8,0-1.3,0.6-1.3,1.4
		c0,0.8,0.5,1.4,1.3,1.4c0.5,0,0.9-0.2,1.2-0.5l0.5,0.4c-0.4,0.4-0.9,0.7-1.7,0.7C59.9,195.1,59,194.2,59,193"/>
	<path class="st5" d="M63.2,193c0-1.2,0.9-2.1,2.1-2.1c1.2,0,2.1,0.9,2.1,2.1c0,1.2-0.9,2.1-2.1,2.1C64.2,195.1,63.2,194.2,63.2,193
		 M66.7,193c0-0.8-0.5-1.5-1.3-1.5c-0.8,0-1.3,0.6-1.3,1.5c0,0.8,0.5,1.4,1.3,1.4C66.1,194.5,66.7,193.9,66.7,193"/>
	<path class="st5" d="M68.4,191.1h0.7v0.6c0.3-0.5,0.8-0.7,1.4-0.7c0.9,0,1.5,0.6,1.5,1.6v2.4h-0.7v-2.4c0-0.7-0.3-1-1-1
		c-0.7,0-1.2,0.4-1.2,1.2v2.2h-0.7V191.1z"/>
	<path class="st5" d="M75.4,191.1h0.7v0.7c0.3-0.5,0.8-0.8,1.4-0.8c1.1,0,1.9,0.9,1.9,2.1c0,1.2-0.8,2.1-1.9,2.1
		c-0.7,0-1.2-0.3-1.4-0.8v3.2h-0.7V191.1z M78.7,193c0-0.8-0.5-1.4-1.3-1.4c-0.8,0-1.3,0.6-1.3,1.4c0,0.8,0.5,1.4,1.3,1.4
		C78.2,194.5,78.7,193.9,78.7,193"/>
	<path class="st5" d="M80.4,191.1h0.7v0.7c0.3-0.5,0.7-0.8,1.2-0.8c0.3,0,0.4,0,0.6,0.2l-0.3,0.6c-0.1-0.1-0.3-0.1-0.5-0.1
		c-0.6,0-1,0.5-1,1.3v2.1h-0.7V191.1z"/>
	<path class="st5" d="M83.3,193c0-1.2,0.9-2.1,2.1-2.1c1.2,0,2.1,0.9,2.1,2.1c0,1.2-0.9,2.1-2.1,2.1C84.3,195.1,83.3,194.2,83.3,193
		 M86.8,193c0-0.8-0.5-1.5-1.3-1.5c-0.8,0-1.3,0.6-1.3,1.5c0,0.8,0.5,1.4,1.3,1.4C86.2,194.5,86.8,193.9,86.8,193"/>
	<path class="st5" d="M88.2,193c0-1.2,0.9-2.1,2-2.1c0.6,0,1.1,0.3,1.4,0.8v-5.2h0.7v8.5h-0.7v-0.7c-0.3,0.5-0.8,0.8-1.4,0.8
		C89,195.1,88.2,194.2,88.2,193 M91.6,193c0-0.8-0.5-1.4-1.3-1.4c-0.8,0-1.3,0.6-1.3,1.4c0,0.8,0.5,1.4,1.3,1.4
		C91.1,194.5,91.6,193.9,91.6,193"/>
	<path class="st5" d="M93.5,193.5v-2.4h0.7v2.4c0,0.7,0.3,1,1,1c0.7,0,1.2-0.4,1.2-1.2v-2.2h0.7v3.9h-0.7v-0.6
		c-0.3,0.5-0.8,0.7-1.4,0.7C94.1,195.1,93.5,194.6,93.5,193.5"/>
	<path class="st5" d="M98.1,193c0-1.2,0.9-2.1,2-2.1c0.7,0,1.2,0.2,1.6,0.6l-0.5,0.4c-0.3-0.3-0.6-0.4-1.1-0.4
		c-0.8,0-1.3,0.6-1.3,1.4c0,0.8,0.5,1.4,1.3,1.4c0.5,0,0.9-0.2,1.2-0.5l0.5,0.4c-0.4,0.4-0.9,0.7-1.7,0.7
		C98.9,195.1,98.1,194.2,98.1,193"/>
	<path class="st5" d="M102.3,191.7v-0.6h0.5v-1.5h0.7v1.5h1v0.6h-1v2.2c0,0.4,0.1,0.6,0.4,0.6c0.2,0,0.3-0.1,0.4-0.2l0.3,0.5
		c-0.2,0.2-0.5,0.3-0.8,0.3c-0.6,0-1.1-0.4-1.1-1.2v-2.3H102.3z"/>
	<path class="st5" d="M105.3,193c0-1.2,0.9-2.1,2.1-2.1c1.2,0,2.1,0.9,2.1,2.1c0,1.2-0.9,2.1-2.1,2.1
		C106.2,195.1,105.3,194.2,105.3,193 M108.7,193c0-0.8-0.5-1.5-1.3-1.5c-0.8,0-1.3,0.6-1.3,1.5c0,0.8,0.5,1.4,1.3,1.4
		C108.2,194.5,108.7,193.9,108.7,193"/>
	<path class="st5" d="M110,194.2l0.6-0.4c0.2,0.4,0.6,0.6,1.2,0.6c0.5,0,0.8-0.2,0.8-0.5c0-0.4-0.3-0.5-1-0.7
		c-0.8-0.2-1.3-0.5-1.3-1.2c0-0.6,0.5-1.1,1.3-1.1c0.7,0,1.1,0.3,1.4,0.6l-0.5,0.4c-0.2-0.3-0.5-0.4-0.9-0.4c-0.4,0-0.6,0.2-0.6,0.4
		c0,0.3,0.3,0.4,0.9,0.6c0.9,0.2,1.4,0.6,1.4,1.3c0,0.7-0.6,1.2-1.5,1.2C111,195.1,110.4,194.8,110,194.2"/>
	<path class="st5" d="M116.4,191.1h0.7v0.6c0.3-0.5,0.8-0.7,1.4-0.7c0.9,0,1.5,0.6,1.5,1.6v2.4h-0.7v-2.4c0-0.7-0.3-1-1-1
		c-0.7,0-1.2,0.4-1.2,1.2v2.2h-0.7V191.1z"/>
	<path class="st5" d="M123.6,192.6c0-0.7-0.4-1-0.9-1c-0.5,0-0.8,0.2-1.1,0.6l-0.5-0.4c0.4-0.5,0.9-0.8,1.6-0.8c1,0,1.6,0.5,1.6,1.6
		v2.4h-0.7v-0.4c-0.3,0.3-0.7,0.5-1.2,0.5c-0.8,0-1.5-0.4-1.5-1.3c0-0.8,0.7-1.2,1.5-1.2L123.6,192.6L123.6,192.6z M122.5,193.2
		c-0.5,0-0.9,0.2-0.9,0.6c0,0.4,0.3,0.7,0.9,0.7c0.6,0,1.1-0.3,1.1-0.9v-0.4H122.5z"/>
	<path class="st5" d="M125.2,191.7v-0.6h0.5v-1.5h0.7v1.5h1v0.6h-1v2.2c0,0.4,0.1,0.6,0.4,0.6c0.2,0,0.3-0.1,0.4-0.2l0.3,0.5
		c-0.2,0.2-0.5,0.3-0.8,0.3c-0.6,0-1.1-0.4-1.1-1.2v-2.3H125.2z"/>
	<path class="st5" d="M128.4,193.5v-2.4h0.7v2.4c0,0.7,0.3,1,1,1c0.7,0,1.2-0.4,1.2-1.2v-2.2h0.7v3.9h-0.7v-0.6
		c-0.3,0.5-0.8,0.7-1.4,0.7C129,195.1,128.4,194.6,128.4,193.5"/>
	<path class="st5" d="M133.2,191.1h0.7v0.7c0.3-0.5,0.7-0.8,1.2-0.8c0.3,0,0.4,0,0.6,0.2l-0.3,0.6c-0.1-0.1-0.3-0.1-0.5-0.1
		c-0.6,0-1,0.5-1,1.3v2.1h-0.7V191.1z"/>
	<path class="st5" d="M138.8,192.6c0-0.7-0.4-1-0.9-1c-0.5,0-0.8,0.2-1.1,0.6l-0.5-0.4c0.4-0.5,0.9-0.8,1.6-0.8c1,0,1.6,0.5,1.6,1.6
		v2.4h-0.7v-0.4c-0.3,0.3-0.7,0.5-1.2,0.5c-0.8,0-1.5-0.4-1.5-1.3c0-0.8,0.7-1.2,1.5-1.2L138.8,192.6L138.8,192.6z M137.7,193.2
		c-0.5,0-0.9,0.2-0.9,0.6c0,0.4,0.3,0.7,0.9,0.7c0.6,0,1.1-0.3,1.1-0.9v-0.4H137.7z"/>
	<rect x="140.8" y="186.5" class="st5" width="0.7" height="8.5"/>
	<path class="st5" d="M144.7,194.5c0.6,0,1-0.2,1.2-0.5l0.5,0.4c-0.4,0.4-0.9,0.7-1.7,0.7c-1.3,0-2.2-0.9-2.2-2.1
		c0-1.2,0.9-2.1,2.1-2.1c1.3,0,2,1,2,2.3h-3.3C143.4,194,143.9,194.5,144.7,194.5 M145.8,192.7c-0.1-0.6-0.5-1.1-1.2-1.1
		c-0.7,0-1.2,0.4-1.3,1.1H145.8z"/>
	<path class="st5" d="M147.2,194.2l0.6-0.4c0.2,0.4,0.6,0.6,1.2,0.6c0.5,0,0.8-0.2,0.8-0.5c0-0.4-0.3-0.5-1-0.7
		c-0.8-0.2-1.3-0.5-1.3-1.2c0-0.6,0.5-1.1,1.3-1.1c0.7,0,1.1,0.3,1.4,0.6l-0.5,0.4c-0.2-0.3-0.5-0.4-0.9-0.4c-0.4,0-0.6,0.2-0.6,0.4
		c0,0.3,0.3,0.4,0.9,0.6c0.9,0.2,1.4,0.6,1.4,1.3c0,0.7-0.6,1.2-1.5,1.2C148.1,195.1,147.5,194.8,147.2,194.2"/>
	<polygon class="st5" points="153,191.1 153.9,191.1 155.1,193.8 156.2,191.1 157,191.1 154.2,197.6 153.5,197.6 154.7,194.7 	"/>
	<path class="st5" d="M159.6,193c0-1.2,0.9-2.1,2.1-2.1c1.2,0,2.1,0.9,2.1,2.1c0,1.2-0.9,2.1-2.1,2.1
		C160.6,195.1,159.6,194.2,159.6,193 M163.1,193c0-0.8-0.5-1.5-1.3-1.5c-0.8,0-1.3,0.6-1.3,1.5c0,0.8,0.5,1.4,1.3,1.4
		C162.5,194.5,163.1,193.9,163.1,193"/>
	<path class="st5" d="M164.8,191.1h0.7v0.7c0.3-0.5,0.7-0.8,1.2-0.8c0.3,0,0.4,0,0.6,0.2l-0.3,0.6c-0.1-0.1-0.3-0.1-0.5-0.1
		c-0.6,0-1,0.5-1,1.3v2.1h-0.7V191.1z"/>
	<path class="st5" d="M167.8,196.5l0.6-0.3c0.3,0.6,0.8,0.9,1.4,0.9c0.8,0,1.3-0.5,1.3-1.4v-1.3c-0.3,0.5-0.8,0.8-1.4,0.8
		c-1.1,0-2-0.9-2-2.1c0-1.2,0.9-2.1,2-2.1c0.6,0,1.1,0.3,1.4,0.8v-0.7h0.7v4.6c0,1.2-0.7,2-2,2C168.9,197.7,168.2,197.2,167.8,196.5
		 M171.1,193c0-0.8-0.5-1.4-1.3-1.4c-0.8,0-1.3,0.6-1.3,1.4c0,0.8,0.5,1.4,1.3,1.4C170.6,194.5,171.1,193.9,171.1,193"/>
	<path class="st5" d="M175.6,192.6c0-0.7-0.4-1-0.9-1c-0.5,0-0.8,0.2-1.1,0.6l-0.5-0.4c0.4-0.5,0.9-0.8,1.6-0.8c1,0,1.6,0.5,1.6,1.6
		v2.4h-0.7v-0.4c-0.3,0.3-0.7,0.5-1.2,0.5c-0.8,0-1.5-0.4-1.5-1.3c0-0.8,0.7-1.2,1.5-1.2L175.6,192.6L175.6,192.6z M174.4,193.2
		c-0.5,0-0.9,0.2-0.9,0.6s0.3,0.7,0.9,0.7c0.6,0,1.1-0.3,1.1-0.9v-0.4H174.4z M175,188.6h0.8l-0.9,1.7h-0.6L175,188.6z"/>
	<path class="st5" d="M177.5,191.1h0.7v0.6c0.3-0.5,0.8-0.7,1.4-0.7c0.9,0,1.5,0.6,1.5,1.6v2.4h-0.7v-2.4c0-0.7-0.3-1-1-1
		c-0.7,0-1.2,0.4-1.2,1.2v2.2h-0.7V191.1z"/>
	<path class="st5" d="M182.1,189.5c0-0.3,0.2-0.5,0.5-0.5c0.3,0,0.5,0.2,0.5,0.5s-0.2,0.5-0.5,0.5
		C182.4,190,182.1,189.8,182.1,189.5 M182.3,191.1h0.7v3.9h-0.7V191.1z"/>
	<path class="st5" d="M184,193c0-1.2,0.9-2.1,2-2.1c0.7,0,1.2,0.2,1.6,0.6l-0.5,0.4c-0.3-0.3-0.6-0.4-1.1-0.4
		c-0.8,0-1.3,0.6-1.3,1.4c0,0.8,0.5,1.4,1.3,1.4c0.5,0,0.9-0.2,1.2-0.5l0.5,0.4c-0.4,0.4-0.9,0.7-1.7,0.7
		C184.9,195.1,184,194.2,184,193"/>
	<path class="st5" d="M188.3,193c0-1.2,0.9-2.1,2.1-2.1c1.2,0,2.1,0.9,2.1,2.1c0,1.2-0.9,2.1-2.1,2.1
		C189.2,195.1,188.3,194.2,188.3,193 M191.7,193c0-0.8-0.5-1.5-1.3-1.5c-0.8,0-1.3,0.6-1.3,1.5c0,0.8,0.5,1.4,1.3,1.4
		C191.2,194.5,191.7,193.9,191.7,193"/>
	<path class="st5" d="M193,194.2l0.6-0.4c0.2,0.4,0.6,0.6,1.2,0.6c0.5,0,0.8-0.2,0.8-0.5c0-0.4-0.3-0.5-1-0.7
		c-0.8-0.2-1.3-0.5-1.3-1.2c0-0.6,0.5-1.1,1.3-1.1c0.7,0,1.1,0.3,1.4,0.6l-0.5,0.4c-0.2-0.3-0.5-0.4-0.9-0.4c-0.4,0-0.6,0.2-0.6,0.4
		c0,0.3,0.3,0.4,0.9,0.6c0.9,0.2,1.4,0.6,1.4,1.3c0,0.7-0.6,1.2-1.5,1.2C194,195.1,193.4,194.8,193,194.2"/>
</g>
</svg>
