<?xml version="1.0" encoding="utf-8"?>
<!-- Generator: Adobe Illustrator 19.2.0, SVG Export Plug-In . SVG Version: 6.00 Build 0)  -->
<svg version="1.1" id="Capa_1" xmlns="http://www.w3.org/2000/svg" xmlns:xlink="http://www.w3.org/1999/xlink" x="0px" y="0px"
	 viewBox="0 0 255.1 255.1" style="enable-background:new 0 0 255.1 255.1;" xml:space="preserve">
<style type="text/css">
	.st0{fill:#A0D9B3;}
	.st1{fill:none;stroke:#144733;stroke-linecap:round;stroke-miterlimit:10;}
	.st2{fill:none;stroke:#144733;stroke-linecap:round;stroke-miterlimit:10;stroke-dasharray:0.2,1.997;}
	.st3{fill:#FFFFFF;}
	.st4{fill-rule:evenodd;clip-rule:evenodd;fill:#144733;}
	.st5{fill:#144733;}
	.st6{fill:none;stroke:#144733;stroke-linecap:round;stroke-miterlimit:10;stroke-dasharray:0.2,2;}
	.st7{fill:#B86B79;}
	.st8{fill:none;stroke:#722C3C;stroke-linecap:round;stroke-miterlimit:10;}
	.st9{fill:none;stroke:#722C3C;stroke-linecap:round;stroke-miterlimit:10;stroke-dasharray:0.2,1.997;}
	.st10{fill:none;stroke:#722C3C;stroke-linecap:round;stroke-miterlimit:10;stroke-dasharray:0.2,2;}
	.st11{fill:#722C3C;}
	.st12{fill-rule:evenodd;clip-rule:evenodd;fill:#722C3C;}
	.st13{fill:#D8C2D7;}
	.st14{fill:none;stroke:#5F3653;stroke-linecap:round;stroke-miterlimit:10;}
	.st15{fill:none;stroke:#5F3653;stroke-linecap:round;stroke-miterlimit:10;stroke-dasharray:0.2,1.997;}
	.st16{fill:none;stroke:#5F3653;stroke-linecap:round;stroke-miterlimit:10;stroke-dasharray:0.2,2;}
	.st17{fill:#5F3653;}
	.st18{fill-rule:evenodd;clip-rule:evenodd;fill:#5F3653;}
	.st19{fill:#FADF8D;}
	.st20{fill:none;stroke:#9F8315;stroke-linecap:round;stroke-miterlimit:10;}
	.st21{fill:none;stroke:#9F8315;stroke-linecap:round;stroke-miterlimit:10;stroke-dasharray:0.2,1.997;}
	.st22{fill:none;stroke:#9F8315;stroke-linecap:round;stroke-miterlimit:10;stroke-dasharray:0.2,2;}
	.st23{fill:#6F561B;}
	.st24{fill-rule:evenodd;clip-rule:evenodd;fill:#6F561B;}
</style>
<g>
	<g>
		<path class="st19" d="M255.1,127.6c0,70.5-57.1,127.6-127.6,127.6C57.1,255.1,0,198,0,127.6C0,57.1,57.1,0,127.6,0
			C198,0,255.1,57.1,255.1,127.6"/>
		<path class="st20" d="M57.2,223.5C57.2,223.5,57.1,223.5,57.2,223.5"/>
		<path class="st21" d="M55.5,222.3c-28.5-21.7-47-56.1-47-94.7c0-65.7,53.3-119,119-119c65.7,0,119,53.3,119,119
			c0,39.1-18.8,73.7-47.9,95.4"/>
		<path class="st20" d="M197.8,223.6C197.8,223.6,197.8,223.6,197.8,223.6"/>
		<line class="st22" x1="218.6" y1="136.9" x2="36.5" y2="136.9"/>
	</g>
	<g>
		<path class="st23" d="M71.6,223.9c0.2,0.1,0.5,0.3,0.7,0.4c-1.2,2.4-2.5,4.7-3.7,7.1c-0.3-0.1-0.5-0.3-0.8-0.4
			c0.6-1.1,1.1-2.1,1.7-3.2c-1.4-0.8-2.8-1.5-4.2-2.4c-0.6,1-1.2,2.1-1.8,3.1c-0.3-0.1-0.5-0.3-0.8-0.4c1.4-2.3,2.7-4.6,4.1-6.9
			c0.2,0.1,0.5,0.3,0.7,0.4c-0.6,1.1-1.2,2.1-1.9,3.2c1.4,0.8,2.8,1.6,4.2,2.4L71.6,223.9z"/>
		<path class="st23" d="M72.1,232.6c0.6,0.3,1.1,0.3,1.5,0.1c0.1,0.2,0.2,0.4,0.3,0.6c-0.5,0.2-1.2,0.2-2-0.2
			c-1.3-0.6-1.8-1.9-1.2-2.9c0.5-1,1.8-1.4,2.9-0.8c1.2,0.6,1.6,1.8,1,3c-1.1-0.5-2.2-1-3.3-1.6C71.1,231.6,71.4,232.2,72.1,232.6
			 M74,231.6c0.2-0.6,0-1.2-0.7-1.6c-0.7-0.3-1.3-0.2-1.7,0.3C72.4,230.8,73.2,231.2,74,231.6"/>
		<path class="st23" d="M75.4,232.5c0.5-1.1,1.7-1.4,2.9-1c0.7,0.3,1.1,0.7,1.3,1.2c-0.2,0.1-0.4,0.1-0.7,0.2
			c-0.1-0.4-0.4-0.7-0.9-0.9c-0.8-0.3-1.5,0-1.8,0.7c-0.3,0.7-0.1,1.5,0.7,1.9c0.5,0.2,1,0.2,1.4,0.1c0.1,0.2,0.2,0.4,0.3,0.6
			c-0.5,0.2-1.2,0.2-2-0.1C75.4,234.8,74.9,233.6,75.4,232.5"/>
		<path class="st23" d="M82.4,228.6c0.2,0.1,0.5,0.2,0.7,0.3c-0.6,1.6-1.3,3.2-1.9,4.7c0.5-0.3,1-0.4,1.6-0.1c0.9,0.3,1.3,1.1,1,2.1
			c-0.3,0.7-0.6,1.5-0.8,2.2c-0.3-0.1-0.5-0.2-0.8-0.3c0.3-0.7,0.5-1.4,0.8-2.2c0.2-0.6,0-1.1-0.6-1.3c-0.7-0.3-1.3-0.1-1.6,0.6
			c-0.3,0.7-0.5,1.3-0.8,2c-0.3-0.1-0.5-0.2-0.8-0.3C80.3,233.8,81.4,231.2,82.4,228.6"/>
		<path class="st23" d="M84.6,236.3c0.4-1.1,1.6-1.6,2.8-1.2c1.2,0.4,1.8,1.5,1.5,2.6c-0.4,1.1-1.6,1.6-2.8,1.2
			C84.8,238.6,84.2,237.4,84.6,236.3 M88.1,237.5c0.3-0.8-0.1-1.5-0.9-1.8c-0.8-0.3-1.6,0.1-1.8,0.9c-0.3,0.8,0.1,1.5,0.9,1.8
			C87.1,238.7,87.9,238.3,88.1,237.5"/>
		<path class="st23" d="M94.9,239.1c0.2-0.7-0.1-1-0.7-1.2c-0.5-0.1-0.9-0.1-1.3,0.2c-0.1-0.2-0.2-0.4-0.4-0.5
			c0.6-0.4,1.2-0.5,1.9-0.3c1,0.3,1.5,1,1.3,2c-0.2,0.8-0.4,1.5-0.6,2.3c-0.3-0.1-0.5-0.1-0.8-0.2c0-0.1,0.1-0.3,0.1-0.4
			c-0.4,0.2-0.9,0.3-1.4,0.1c-0.9-0.2-1.5-0.8-1.2-1.7c0.2-0.8,1.1-0.9,1.9-0.7C94,238.9,94.5,239,94.9,239.1
			C94.9,239.1,94.9,239.1,94.9,239.1 M93.5,239.4c-0.5-0.1-0.9-0.1-1.1,0.3c-0.1,0.4,0.2,0.7,0.8,0.9c0.6,0.2,1.3,0,1.4-0.5
			c0-0.1,0.1-0.3,0.1-0.4C94.3,239.6,93.9,239.5,93.5,239.4"/>
		<path class="st23" d="M99.5,238.7c0.3,0.1,0.5,0.1,0.8,0.2c0,0.2-0.1,0.3-0.1,0.5c0.3-0.3,0.8-0.5,1.4-0.3c0.5,0.1,0.9,0.4,1.1,1
			c0.4-0.4,0.9-0.5,1.6-0.4c0.9,0.2,1.4,0.8,1.2,1.8c-0.1,0.8-0.3,1.6-0.4,2.4c-0.3,0-0.5-0.1-0.8-0.1c0.1-0.8,0.3-1.6,0.4-2.3
			c0.1-0.6-0.1-1-0.7-1.1c-0.7-0.1-1.1,0.2-1.3,0.8c-0.1,0.7-0.3,1.5-0.4,2.2c-0.3-0.1-0.5-0.1-0.8-0.2c0.2-0.8,0.3-1.6,0.5-2.3
			c0.1-0.6-0.1-1-0.7-1.1c-0.7-0.1-1.1,0.1-1.3,0.8c-0.2,0.7-0.3,1.4-0.5,2.2c-0.3-0.1-0.5-0.1-0.8-0.2
			C98.9,241.3,99.2,240,99.5,238.7"/>
		<path class="st23" d="M109.3,242.1c0.1-0.7-0.2-1-0.8-1.1c-0.5-0.1-0.9,0-1.3,0.4c-0.1-0.2-0.3-0.3-0.4-0.5
			c0.5-0.4,1.1-0.6,1.8-0.5c1.1,0.2,1.6,0.8,1.5,1.8c-0.1,0.8-0.2,1.6-0.3,2.4c-0.3,0-0.5-0.1-0.8-0.1c0-0.1,0-0.3,0.1-0.4
			c-0.3,0.3-0.8,0.4-1.4,0.3c-0.9-0.1-1.6-0.7-1.4-1.5c0.1-0.8,1-1,1.8-0.9C108.4,242,108.9,242.1,109.3,242.1
			C109.3,242.1,109.3,242.1,109.3,242.1 M108,242.5c-0.5-0.1-1,0-1,0.5c-0.1,0.4,0.3,0.7,0.8,0.8c0.6,0.1,1.2-0.1,1.3-0.7
			c0-0.1,0-0.3,0.1-0.4C108.8,242.7,108.4,242.6,108,242.5"/>
		<path class="st23" d="M111.5,240.9c0.3,0,0.5,0.1,0.8,0.1c0,0.2-0.1,0.4-0.1,0.6c0.3-0.4,0.9-0.6,1.5-0.5c0.9,0.1,1.5,0.7,1.4,1.8
			c-0.1,0.8-0.2,1.6-0.2,2.4c-0.3,0-0.5-0.1-0.8-0.1l0.2-2.3c0.1-0.7-0.2-1-0.9-1.1c-0.7-0.1-1.3,0.3-1.4,1
			c-0.1,0.7-0.2,1.4-0.3,2.1c-0.3,0-0.5-0.1-0.8-0.1C111.2,243.5,111.4,242.2,111.5,240.9"/>
		<path class="st23" d="M116.1,243.4c0.1-1.2,1.2-1.9,2.4-1.8c1.2,0.1,2.2,1,2.1,2.2c-0.1,1.2-1.1,2-2.4,1.9
			C116.9,245.5,116,244.5,116.1,243.4 M119.8,243.7c0-0.8-0.5-1.5-1.3-1.5c-0.8-0.1-1.5,0.5-1.5,1.3c-0.1,0.8,0.5,1.5,1.3,1.5
			C119.1,245,119.7,244.5,119.8,243.7"/>
		<path class="st23" d="M123.7,243.8c0-1.2,1-2,2.2-2c0.7,0,1.2,0.2,1.6,0.6c-0.2,0.1-0.3,0.3-0.5,0.4c-0.3-0.3-0.7-0.4-1.1-0.4
			c-0.8,0-1.4,0.6-1.4,1.4c0,0.8,0.5,1.4,1.3,1.4c0.6,0,1-0.2,1.3-0.5c0.2,0.1,0.4,0.3,0.5,0.4c-0.4,0.4-1,0.7-1.8,0.7
			C124.6,245.9,123.7,245,123.7,243.8"/>
		<path class="st23" d="M128.3,243.9c0-1.2,1-2,2.2-2.1c1.2,0,2.2,0.8,2.3,2c0.1,1.2-0.9,2.1-2.2,2.1
			C129.3,245.9,128.3,245.1,128.3,243.9 M132,243.8c0-0.8-0.6-1.4-1.5-1.4c-0.8,0-1.4,0.6-1.4,1.4c0,0.8,0.6,1.4,1.5,1.4
			C131.4,245.3,132,244.6,132,243.8"/>
		<path class="st23" d="M133.7,241.8c0.3,0,0.5,0,0.8,0l0,0.6c0.2-0.5,0.8-0.8,1.4-0.8c0.9-0.1,1.6,0.4,1.7,1.5
			c0.1,0.8,0.1,1.6,0.2,2.4c-0.3,0-0.5,0-0.8,0.1c-0.1-0.8-0.1-1.5-0.2-2.3c-0.1-0.7-0.4-1-1.1-0.9c-0.7,0-1.2,0.5-1.2,1.3l0.1,2.1
			c-0.3,0-0.5,0-0.8,0C133.9,244.4,133.8,243.1,133.7,241.8"/>
		<path class="st23" d="M141,243.2c-0.1-1.2,0.7-2.1,1.9-2.3c0.7-0.1,1.3,0.1,1.7,0.4c-0.2,0.2-0.3,0.3-0.5,0.5
			c-0.3-0.2-0.7-0.3-1.2-0.3c-0.8,0.1-1.3,0.8-1.2,1.6c0.1,0.8,0.7,1.3,1.5,1.2c0.6-0.1,1-0.3,1.2-0.6c0.2,0.1,0.4,0.2,0.6,0.3
			c-0.3,0.5-0.9,0.8-1.7,0.9C142.2,245.1,141.1,244.3,141,243.2"/>
		<path class="st23" d="M148.5,241.7c-0.1-0.7-0.5-0.9-1.1-0.8c-0.5,0.1-0.9,0.3-1.1,0.7c-0.2-0.1-0.4-0.2-0.6-0.3
			c0.3-0.6,0.9-0.9,1.6-1c1.1-0.2,1.8,0.2,2,1.3c0.1,0.8,0.3,1.6,0.4,2.3c-0.3,0-0.5,0.1-0.8,0.1c0-0.1,0-0.3-0.1-0.4
			c-0.2,0.4-0.7,0.6-1.2,0.7c-0.9,0.1-1.7-0.1-1.8-1c-0.1-0.8,0.6-1.3,1.5-1.4C147.6,241.9,148,241.8,148.5,241.7
			C148.5,241.7,148.5,241.7,148.5,241.7 M147.3,242.5c-0.5,0.1-0.9,0.3-0.8,0.7c0.1,0.4,0.5,0.6,1.1,0.5c0.6-0.1,1.1-0.5,1.1-1
			c0-0.1,0-0.3-0.1-0.4C148.2,242.4,147.7,242.4,147.3,242.5"/>
		<path class="st23" d="M150.2,239.9c0.3,0,0.5-0.1,0.8-0.1l0.1,0.6c0.2-0.5,0.6-0.9,1.1-1c0.3-0.1,0.5,0,0.7,0
			c0,0.2-0.1,0.4-0.1,0.7c-0.1,0-0.3,0-0.5,0c-0.6,0.1-1,0.7-0.8,1.4c0.1,0.7,0.3,1.3,0.4,2c-0.3,0-0.5,0.1-0.8,0.1
			C150.7,242.4,150.5,241.1,150.2,239.9"/>
		<path class="st23" d="M153.2,237.7c-0.1-0.3,0.1-0.5,0.4-0.6c0.3-0.1,0.6,0.1,0.6,0.4c0.1,0.3-0.1,0.5-0.4,0.6
			C153.5,238.1,153.2,238,153.2,237.7 M153.6,239.2c0.3-0.1,0.5-0.1,0.8-0.2c0.3,1.3,0.6,2.5,0.8,3.8c-0.3,0.1-0.5,0.1-0.8,0.2
			C154.2,241.7,153.9,240.4,153.6,239.2"/>
		<path class="st23" d="M155.7,238.7c0.3-0.1,0.5-0.1,0.8-0.2c0,0.2,0.1,0.4,0.1,0.6c0.2-0.5,0.6-0.9,1.2-1c0.9-0.2,1.7,0.1,2,1.1
			c0.2,0.8,0.4,1.5,0.6,2.3c-0.3,0.1-0.5,0.1-0.8,0.2c-0.2-0.7-0.4-1.5-0.6-2.2c-0.2-0.7-0.6-0.9-1.2-0.7c-0.7,0.2-1.1,0.7-0.9,1.4
			c0.2,0.7,0.3,1.4,0.5,2.1c-0.3,0.1-0.5,0.1-0.8,0.2C156.3,241.2,156,240,155.7,238.7 M156.7,237c-0.2,0-0.2,0.2-0.2,0.5
			c-0.2,0-0.4,0-0.6,0.1c0-0.6,0.2-1,0.6-1.1c0.5-0.1,0.9,0.2,1.2,0.1c0.2-0.1,0.2-0.2,0.2-0.5c0.2,0,0.4,0,0.6-0.1
			c0,0.6-0.1,1-0.6,1.1C157.4,237.3,157,236.9,156.7,237"/>
		<path class="st23" d="M160.9,239.4c-0.3-1.1,0.4-2.2,1.6-2.6c1.2-0.3,2.4,0.2,2.7,1.3c0.3,1.1-0.4,2.2-1.6,2.6
			C162.4,241.1,161.2,240.5,160.9,239.4 M164.5,238.4c-0.2-0.8-1-1.2-1.8-0.9c-0.8,0.2-1.2,1-1,1.8c0.2,0.8,1,1.2,1.8,1
			C164.3,239.9,164.7,239.1,164.5,238.4"/>
		<path class="st23" d="M167.9,235.2c0.2-0.1,0.5-0.2,0.7-0.3c0.1,0.2,0.1,0.4,0.2,0.6c0.1-0.6,0.5-1,1.2-1.2
			c1.1-0.4,2.3,0.1,2.7,1.2c0.4,1.1-0.1,2.2-1.3,2.6c-0.7,0.3-1.3,0.2-1.7-0.2c0.3,1,0.7,2,1,3c-0.3,0.1-0.5,0.2-0.8,0.3
			C169.3,239.2,168.6,237.2,167.9,235.2 M171.9,235.8c-0.3-0.8-1-1.1-1.8-0.8c-0.8,0.3-1.1,1-0.9,1.8c0.3,0.8,1,1.1,1.8,0.8
			C171.9,237.3,172.2,236.6,171.9,235.8"/>
		<path class="st23" d="M176,233.7c-0.3-0.7-0.7-0.7-1.3-0.5c-0.5,0.2-0.8,0.5-0.9,1c-0.2-0.1-0.4-0.1-0.6-0.2
			c0.2-0.6,0.6-1.1,1.3-1.4c1-0.4,1.8-0.2,2.2,0.8c0.3,0.7,0.6,1.5,0.9,2.2c-0.2,0.1-0.5,0.2-0.7,0.3c-0.1-0.1-0.1-0.3-0.2-0.4
			c-0.1,0.4-0.5,0.8-1.1,1c-0.9,0.3-1.7,0.2-2-0.5c-0.3-0.7,0.3-1.4,1.1-1.7C175.3,234,175.7,233.9,176,233.7
			C176.1,233.7,176,233.7,176,233.7 M175.1,234.7c-0.5,0.2-0.8,0.5-0.6,0.9c0.2,0.4,0.6,0.5,1.2,0.2c0.6-0.2,1-0.8,0.8-1.3
			c-0.1-0.1-0.1-0.3-0.2-0.4C175.9,234.4,175.5,234.6,175.1,234.7"/>
		<path class="st23" d="M177.4,231.5c0.2-0.1,0.5-0.2,0.7-0.3c0.1,0.2,0.2,0.4,0.3,0.6c0-0.6,0.4-1,0.8-1.2c0.3-0.1,0.5-0.2,0.7-0.1
			c0,0.2,0,0.4,0,0.7c-0.2,0-0.3,0-0.5,0.1c-0.6,0.3-0.8,0.9-0.5,1.6c0.3,0.6,0.6,1.2,0.8,1.9c-0.2,0.1-0.5,0.2-0.7,0.3
			C178.4,233.8,177.9,232.7,177.4,231.5"/>
		<path class="st23" d="M183.5,230.2c-0.3-0.6-0.8-0.7-1.3-0.4c-0.5,0.2-0.7,0.6-0.9,1c-0.2,0-0.4-0.1-0.6-0.1
			c0.2-0.7,0.6-1.1,1.2-1.4c1-0.5,1.8-0.3,2.3,0.6c0.4,0.7,0.7,1.4,1.1,2.1c-0.2,0.1-0.5,0.2-0.7,0.4c-0.1-0.1-0.1-0.3-0.2-0.4
			c-0.1,0.4-0.5,0.8-1,1.1c-0.8,0.4-1.7,0.4-2-0.4c-0.3-0.7,0.2-1.4,1-1.8C182.7,230.7,183.1,230.5,183.5,230.2L183.5,230.2z
			 M182.7,231.4c-0.5,0.2-0.8,0.6-0.6,1c0.2,0.4,0.6,0.4,1.2,0.2c0.6-0.3,1-0.8,0.7-1.3c-0.1-0.1-0.1-0.3-0.2-0.4
			C183.4,231,183,231.2,182.7,231.4"/>
		<path class="st23" d="M186.8,227.5c-0.1-0.2-0.2-0.4-0.3-0.5c0.2-0.1,0.3-0.2,0.5-0.3c-0.2-0.4-0.5-0.9-0.7-1.3
			c0.2-0.1,0.5-0.3,0.7-0.4c0.2,0.4,0.5,0.9,0.7,1.3c0.3-0.2,0.6-0.4,0.9-0.5c0.1,0.2,0.2,0.4,0.3,0.5c-0.3,0.2-0.6,0.4-0.9,0.5
			c0.4,0.6,0.7,1.3,1.1,1.9c0.2,0.3,0.4,0.4,0.7,0.3c0.2-0.1,0.3-0.3,0.3-0.4c0.2,0.1,0.4,0.2,0.6,0.3c-0.1,0.2-0.3,0.5-0.7,0.7
			c-0.6,0.4-1.2,0.3-1.6-0.4c-0.4-0.6-0.7-1.3-1.1-1.9C187.1,227.4,187,227.4,186.8,227.5"/>
		<path class="st23" d="M188.7,224c-0.1-0.2,0-0.6,0.2-0.7c0.2-0.1,0.6-0.1,0.7,0.1c0.1,0.2,0,0.6-0.2,0.7
			C189.2,224.3,188.9,224.2,188.7,224 M189.6,225.2c0.2-0.1,0.5-0.3,0.7-0.4c0.7,1.1,1.3,2.2,2,3.3c-0.2,0.1-0.5,0.3-0.7,0.4
			C190.9,227.5,190.3,226.4,189.6,225.2"/>
		<path class="st24" d="M141.4,218.2v6.2c0,0.5-0.1,0.6-0.6,0.8c-8.7,2.6-17.5,5.2-26.2,7.8c-0.6,0.2-0.8,0-0.8-0.6
			c0-4.2,0-8.3,0-12.5c0-0.3,0.1-0.5,0.3-0.7c4.5-3.5,9-7,13.4-10.5c0.3-0.2,0.6-0.3,0.9-0.2c0.6,0.2,1.1,0.3,1.7,0.4
			c0.1,0,0.3,0,0.4-0.1c0.6-0.7,1.4-1,2.3-0.7c0.8,0.2,1.4,0.8,1.6,1.6c0.1,0.2,0.2,0.3,0.4,0.3c2,0.4,3.9,0.9,5.9,1.4
			c0.7,0.2,0.7,0.2,0.7,0.9C141.4,214.2,141.3,216.2,141.4,218.2 M135.4,216.9c-1.4,0.4-2.8,0.8-4.2,1.2c-3,0.9-6,1.8-9,2.7
			c-2.4,0.7-4.8,1.4-7.2,2.1c-0.3,0.1-0.4,0.2-0.3,0.5c0,0.9,0,1.8,0,2.7c0,0.1,0,0.2,0,0.3c0.1,0,0.2-0.1,0.4-0.1
			c8.2-2.4,16.5-4.9,24.7-7.3c0.4-0.1,0.6-0.3,0.5-0.7c0-0.9,0-1.9,0-2.9c-0.6,0.2-1.2,0.3-1.7,0.5c-0.2,0.1-0.3,0.1-0.3,0.4
			c0,0.6,0,1.2,0,1.7c0,0.7-0.6,1.3-1.3,1.4c-0.8,0.1-1.4-0.4-1.6-1.1C135.4,217.9,135.5,217.4,135.4,216.9 M114.7,222
			c0.2-0.1,0.3-0.1,0.4-0.1c2.3-0.7,4.5-1.4,6.8-2c3.1-0.9,6.2-1.8,9.2-2.7c1.5-0.4,2.9-0.9,4.4-1.3c0.6-0.2,0.8,0,0.8,0.6
			c0,0.5,0,0.9,0,1.4c0,0.4,0.2,0.6,0.5,0.6c0.3,0,0.5-0.2,0.5-0.6c0-0.7,0-1.4,0-2c0-0.4,0.2-0.6,0.5-0.7c0.7-0.2,1.4-0.4,2.2-0.6
			c0.1,0,0.3-0.1,0.3-0.2c0-0.6,0-1.2,0-1.8c-0.2,0.1-0.4,0.1-0.6,0.2c-6.6,1.9-13.1,3.9-19.7,5.8c-1.7,0.5-3.4,1-5.1,1.5
			c-0.1,0-0.3,0.2-0.3,0.2C114.7,220.8,114.7,221.4,114.7,222 M116.7,218.4C116.7,218.4,116.7,218.5,116.7,218.4
			c7.4-2.1,14.8-4.3,22.2-6.5c-0.2-0.1-0.3-0.1-0.3-0.1c-1.3-0.3-2.6-0.6-3.9-0.9c-0.2-0.1-0.3,0-0.5,0.2c-0.4,0.9-1.3,1.3-2.3,1.2
			c-0.9-0.1-1.7-0.8-1.9-1.8c0-0.2,0-0.5-0.1-0.7c-0.5-0.1-1-0.3-1.5-0.3c-0.2,0-0.4,0-0.6,0.1c-3.3,2.6-6.7,5.2-10,7.8
			C117.5,217.8,117.1,218.1,116.7,218.4 M140.4,222.4c-0.2,0-0.3,0.1-0.3,0.1c-5,1.5-10.1,3-15.1,4.5c-3.3,1-6.5,1.9-9.8,2.9
			c-0.1,0-0.3,0.1-0.3,0.2c0,0.6,0,1.2,0,1.8c0.2-0.1,0.4-0.1,0.5-0.1c6.5-1.9,13.1-3.9,19.6-5.8c1.7-0.5,3.4-1,5.2-1.5
			c0.1,0,0.3-0.2,0.3-0.3C140.4,223.5,140.4,223,140.4,222.4 M140.4,219.9c-0.1,0-0.1,0-0.2,0c-2.3,0.7-4.6,1.4-6.9,2
			c-4.3,1.3-8.6,2.5-12.9,3.8c-1.8,0.5-3.6,1.1-5.4,1.6c-0.1,0-0.3,0.1-0.3,0.2c0,0.4,0,0.8,0,1.3c0.2,0,0.3-0.1,0.5-0.1
			c5.7-1.7,11.3-3.4,17-5c2.6-0.8,5.2-1.5,7.8-2.3c0.1,0,0.3-0.2,0.3-0.3C140.4,220.8,140.4,220.4,140.4,219.9 M131,210.1
			c0,0.7,0.6,1.2,1.2,1.3c0.7,0,1.2-0.5,1.2-1.2c0-0.7-0.6-1.2-1.2-1.2C131.6,208.9,131,209.4,131,210.1"/>
		<path class="st24" d="M129.5,212.3c0,0.8-0.6,1.5-1.4,1.5c-0.8,0-1.5-0.6-1.5-1.5c0-0.8,0.6-1.5,1.4-1.5
			C128.8,210.8,129.5,211.5,129.5,212.3 M128.1,211.8c-0.3,0-0.5,0.2-0.5,0.5c0,0.3,0.2,0.5,0.5,0.5c0.3,0,0.5-0.2,0.5-0.5
			C128.5,212.1,128.3,211.8,128.1,211.8"/>
		<path class="st3" d="M66.1,61.1c-3.7,0-6.9-2.8-6.9-6.8c0-4,3.2-6.8,6.7-6.8c2.9,0,4.6,1.2,5.7,2.8L69,52.1
			c-0.5-0.8-1.3-1.6-3-1.6c-2,0-3.1,1.6-3.1,3.7c0,2.1,1.2,3.7,3.3,3.7c1.7,0,2.6-0.8,3.1-1.8l2.7,1.8
			C70.7,60.1,68.8,61.1,66.1,61.1"/>
		<path class="st3" d="M73.2,55.8v-8.1h3.6v8.1c0,1.5,0.7,2.4,2.2,2.4c1.5,0,2.2-0.9,2.2-2.4v-8.1h3.5v8.1c0,3.6-2.4,5.3-5.8,5.3
			C75.6,61.1,73.2,59.3,73.2,55.8"/>
		<path class="st3" d="M93.7,59.3h-4.6l-0.7,1.6h-3.5l6.5-13.5c0.1-0.1,0.2-0.1,0.2,0l6.4,13.5h-3.7L93.7,59.3z M90.2,56.7h2.4
			l-1.2-2.8L90.2,56.7z"/>
		<path class="st3" d="M99.3,47.6h5.1c3.8,0,6.7,2.5,6.7,6.6c0,4.1-2.9,6.6-6.7,6.6h-5.1V47.6z M104,57.9c2.1,0,3.5-1.4,3.5-3.6
			c0-2.2-1.3-3.6-3.5-3.6h-1.2v7.3H104z"/>
		<path class="st3" d="M116.3,60.9h-3.6V47.6h5.4c3.4,0,5.2,2,5.2,4.7c0,1.8-0.8,3.1-2.4,3.9l2.8,4.7h-3.8l-2.3-4.2h-1.2V60.9z
			 M117.9,54c1.2,0,1.9-0.6,1.9-1.7c0-1.1-0.6-1.7-1.9-1.7h-1.6V54H117.9z"/>
		<rect x="125.4" y="47.6" class="st3" width="3.6" height="13.3"/>
		<polygon class="st3" points="134.2,50.6 130.7,50.6 130.7,47.6 141.2,47.6 141.2,50.6 137.7,50.6 137.7,60.9 134.2,60.9 		"/>
		<path class="st3" d="M141.5,54.3c0-4,3.3-6.8,7.1-6.8c3.8,0,7.1,2.8,7.1,6.8c0,4-3.3,6.8-7.1,6.8
			C144.8,61.1,141.5,58.3,141.5,54.3 M152.1,54.3c0-2.1-1.3-3.7-3.5-3.7c-2.2,0-3.5,1.6-3.5,3.7c0,2.1,1.3,3.7,3.5,3.7
			C150.8,58,152.1,56.3,152.1,54.3"/>
		<path class="st3" d="M156,58.6l2.6-1.9c0.6,0.8,1.4,1.4,2.8,1.4c1.1,0,1.7-0.3,1.7-1.1c0-0.6-0.4-0.8-1.3-1.1l-1.6-0.5
			c-1.9-0.6-3.3-1.8-3.3-4c0-2.6,2.2-4,4.5-4c2.3,0,3.7,0.8,4.5,1.8l-2,2.1c-0.5-0.6-1.2-1-2.3-1c-0.9,0-1.3,0.4-1.3,0.9
			c0,0.5,0.3,0.8,0.9,1l1.8,0.6c2.7,0.9,3.5,2.1,3.5,4c0,2.4-1.5,4.2-5,4.2C158.5,61.1,156.8,59.7,156,58.6"/>
		<path class="st3" d="M172.9,47.6h5.1c3.8,0,6.7,2.5,6.7,6.6c0,4.1-2.9,6.6-6.7,6.6h-5.1V47.6z M177.6,57.9c2.1,0,3.5-1.4,3.5-3.6
			c0-2.2-1.3-3.6-3.5-3.6h-1.2v7.3H177.6z"/>
		<polygon class="st3" points="186.3,47.6 195.6,47.6 195.6,50.6 189.9,50.6 189.9,52.8 194.7,52.8 194.7,55.6 189.9,55.6 
			189.9,57.9 195.9,57.9 195.9,60.9 186.3,60.9 		"/>
		<path class="st3" d="M76.3,110.4c0.8-2.2,1.2-4.9,1.2-7.9h1.2c0,3.5-0.6,6.6-1.6,9l5.3,6.3h-1.7l-4.3-5.1c-1.9,3.5-5.1,5.4-9,5.4
			c-4.4,0-8.3-2.8-8.3-7.4c0-5,4-7.2,7.8-9.4l-1.1-1.2c-1.5-1.8-2.3-3.5-2.3-5.3c0-3,2.2-5.3,5.3-5.3c3,0,5,2.4,5,5.3
			c0,3-2.4,5.1-5.2,6.8L76.3,110.4z M67.8,102.1c-3.6,2.1-7.2,4-7.2,8.5c0,3.9,3.2,6.2,7,6.2c3.8,0,6.5-1.9,8.2-5.2L67.8,102.1z
			 M72.7,94.7c0-2.4-1.5-4.1-3.7-4.1c-2.3,0-4,1.6-4,4.1c0,1.5,0.7,3,1.9,4.4l1.3,1.5C70.5,99.1,72.7,97.3,72.7,94.7"/>
		<polygon class="st3" points="71,121.7 70.8,121.7 59.3,121.7 59.3,122.7 70.8,122.7 71,122.7 82.5,122.7 82.5,121.7 		"/>
		<path class="st3" d="M60.3,66.3c0-0.2,0.1-0.2,0.2,0l9.1,10.2l8.9-10.2c0.1-0.1,0.2-0.2,0.3,0L80,85.4h-2.2L77,71.1l-7.3,8.3
			l-7.4-8.3l-0.8,14.3h-2.2L60.3,66.3z M76.5,72.4l0.8,13h-2.2l-0.4-8L69.8,83c-0.1,0.1-0.2,0.1-0.3,0l-5-5.6l-0.4,8h-2.2l0.8-13
			l7,7.8L76.5,72.4z"/>
		<path class="st3" d="M83.6,85.4h-2.2l9.1-19.2c0.1-0.3,0.5-0.3,0.6,0l9.1,19.2h-2.3L90.7,70L83.6,85.4z M93.8,83.2h-6.5l-0.9,2.2
			h-2.3l1.8-3.9h9.6l1.8,3.9h-2.4L93.8,83.2z M90.7,71.2l4.5,9.8h-9.1L90.7,71.2z M89,79.4h3.2l-1.6-3.8L89,79.4z"/>
		<path class="st3" d="M104,85.4h-2.1V66.2c0-0.2,0.1-0.3,0.4-0.1l12,9.9v-9.6h2.1v14L104,70.4V85.4z M106.6,75.9v9.5h-2.1v-14
			l12.3,10.1V66.5h2.1v19.2c0,0.2-0.1,0.3-0.4,0.1L106.6,75.9z"/>
		<path class="st3" d="M120.9,85.2l8.4-14.4h-7v-1.9h10.5l-8.5,14.7h12.2v1.9H121C120.8,85.4,120.8,85.4,120.9,85.2 M122.3,68.4
			v-1.9h14.7c0.2,0,0.2,0.1,0.1,0.3l-8.4,14.4h7.8V83h-11.2l8.5-14.7H122.3z"/>
		<path class="st3" d="M140,85.4h-2.2l9.1-19.2c0.1-0.3,0.5-0.3,0.6,0l9.1,19.2h-2.3L147.1,70L140,85.4z M150.3,83.2h-6.5l-0.9,2.2
			h-2.3l1.8-3.9h9.6l1.8,3.9h-2.4L150.3,83.2z M147.1,71.2l4.5,9.8h-9.1L147.1,71.2z M145.4,79.4h3.2l-1.6-3.8L145.4,79.4z"/>
		<path class="st3" d="M160.4,85.4h-2.1V66.2c0-0.2,0.1-0.3,0.4-0.1l12,9.9v-9.6h2.1v14l-12.4-10.1V85.4z M163,75.9v9.5h-2.1v-14
			l12.3,10.1V66.5h2.1v19.2c0,0.2-0.1,0.3-0.4,0.1L163,75.9z"/>
		<path class="st3" d="M179.3,85.4h-2.2l9.1-19.2c0.1-0.3,0.5-0.3,0.6,0l9.1,19.2h-2.3L186.4,70L179.3,85.4z M189.6,83.2h-6.5
			l-0.9,2.2h-2.3l1.8-3.9h9.6l1.8,3.9h-2.4L189.6,83.2z M186.4,71.2l4.5,9.8h-9.1L186.4,71.2z M184.7,79.4h3.2l-1.6-3.8L184.7,79.4z
			"/>
		<path class="st3" d="M86.2,106.6c0-9.6,7.2-16.5,16.3-16.5c5.4,0,9.8,2.2,12.6,6l-2.4,1.7c-2.4-3.1-5.8-4.9-10.3-4.9
			c-7.5,0-13,5.9-13,13.7c0,7.9,5.6,13.7,13.3,13.7c4.6,0,8.4-1.9,10.9-5.4l2.4,1.7c-3.2,4.2-7.7,6.4-13.4,6.4
			C93.3,123.1,86.1,116.2,86.2,106.6"/>
		<path class="st3" d="M129.7,113.2c0-2.9-1.4-3.9-3.6-3.9c-2,0-3.3,0.8-4.4,2.2l-1.8-1.6c1.6-2.1,3.6-3.1,6.3-3.1
			c4,0,6.4,2.1,6.4,6.4v9.6h-2.9V121c-1,1.3-2.7,2.1-4.9,2.1c-3.3,0-5.9-1.6-5.9-5c0-3.2,2.8-4.8,6.1-4.8h4.7V113.2z M125.2,115.6
			c-1.9,0-3.4,0.7-3.4,2.5s1.3,2.7,3.5,2.7c2.3,0,4.4-1.2,4.4-3.4v-1.7H125.2z"/>
		<path class="st3" d="M137.4,107.1h2.9v2.5c1-1.9,3-2.9,5.3-2.9c3.4,0,6,2.2,6,6.4v9.6h-2.9v-9.3c0-2.7-1.3-4.1-3.8-4.1
			c-2.8,0-4.6,1.8-4.6,4.7v8.6h-2.9V107.1z"/>
		<path class="st3" d="M163.6,120.6c2.4,0,3.8-0.9,4.9-2l1.8,1.8c-1.4,1.7-3.6,2.7-6.6,2.7c-5.1,0-8.5-3.5-8.5-8.1
			c0-4.7,3.6-8.2,8.2-8.2c5,0,8,3.9,7.9,9.2h-13.1C158.6,118.9,160.6,120.6,163.6,120.6 M168.2,113.6c-0.4-2.5-1.9-4.4-4.9-4.4
			c-2.7,0-4.6,1.7-5.1,4.4H168.2z"/>
		<rect x="175.2" y="89.1" class="st3" width="2.9" height="33.6"/>
		<path class="st3" d="M193,113.2c0-2.9-1.4-3.9-3.6-3.9c-2,0-3.3,0.8-4.4,2.2l-1.8-1.6c1.6-2.1,3.6-3.1,6.3-3.1
			c4,0,6.4,2.1,6.4,6.4v9.6H193V121c-1,1.3-2.8,2.1-4.9,2.1c-3.3,0-5.9-1.6-5.9-5c0-3.2,2.8-4.8,6.1-4.8h4.7V113.2z M188.5,115.6
			c-1.9,0-3.4,0.7-3.4,2.5s1.3,2.7,3.5,2.7c2.3,0,4.4-1.2,4.4-3.4v-1.7H188.5z"/>
	</g>
	<g>
		<path class="st23" d="M95.2,150.5h-0.8v-5.1H96c1.2,0,1.9,0.7,1.9,1.6c0,1-0.7,1.6-1.9,1.6h-0.8V150.5z M96,148
			c0.8,0,1.1-0.3,1.1-0.9c0-0.6-0.3-0.9-1.1-0.9h-0.8v1.9H96z"/>
		<path class="st23" d="M99.5,150.5h-0.8v-5.1h1.6c1.2,0,1.9,0.7,1.9,1.6c0,0.7-0.4,1.2-1,1.4l1.2,2h-0.9l-1.1-1.9h-0.1h-0.8V150.5z
			 M100.3,147.9c0.8,0,1.1-0.3,1.1-0.9c0-0.6-0.3-0.9-1.1-0.9h-0.8v1.8H100.3z"/>
		<path class="st23" d="M102.9,147.9c0-1.5,1.2-2.6,2.6-2.6c1.5,0,2.6,1.1,2.6,2.6c0,1.5-1.2,2.6-2.6,2.6
			C104.1,150.5,102.9,149.4,102.9,147.9 M107.4,147.9c0-1.1-0.7-1.9-1.8-1.9c-1.1,0-1.8,0.8-1.8,1.9c0,1.1,0.7,1.9,1.8,1.9
			C106.6,149.8,107.4,149,107.4,147.9"/>
		<path class="st23" d="M109,145.4h1.4c1.7,0,2.7,1,2.7,2.5c0,1.5-1,2.5-2.7,2.5H109V145.4z M110.4,149.7c1.3,0,1.9-0.8,1.9-1.8
			s-0.6-1.8-1.9-1.8h-0.6v3.7H110.4z"/>
		<path class="st23" d="M114,148.7v-3.3h0.8v3.2c0,0.8,0.4,1.2,1.1,1.2c0.7,0,1.1-0.4,1.1-1.2v-3.2h0.8v3.3c0,1.2-0.8,1.9-1.9,1.9
			C114.8,150.5,114,149.9,114,148.7"/>
		<path class="st23" d="M118.7,147.9c0-1.5,1.1-2.6,2.6-2.6c0.9,0,1.6,0.4,2,1l-0.6,0.4c-0.3-0.5-0.8-0.7-1.4-0.7
			c-1,0-1.7,0.8-1.7,1.9c0,1.1,0.7,1.9,1.8,1.9c0.7,0,1.1-0.2,1.5-0.7l0.6,0.4c-0.5,0.7-1.2,1-2.2,1
			C119.8,150.5,118.7,149.4,118.7,147.9"/>
		<polygon class="st23" points="125.4,146.1 123.9,146.1 123.9,145.4 127.7,145.4 127.7,146.1 126.2,146.1 126.2,150.5 125.4,150.5 
					"/>
		<path class="st23" d="M127.9,147.9c0-1.5,1.2-2.6,2.6-2.6s2.6,1.1,2.6,2.6c0,1.5-1.2,2.6-2.6,2.6S127.9,149.4,127.9,147.9
			 M132.3,147.9c0-1.1-0.7-1.9-1.8-1.9c-1.1,0-1.8,0.8-1.8,1.9c0,1.1,0.7,1.9,1.8,1.9C131.6,149.8,132.3,149,132.3,147.9"/>
		<polygon class="st23" points="135.6,145.4 138.8,145.4 138.8,146.1 136.4,146.1 136.4,147.7 138.6,147.7 138.6,148.4 136.4,148.4 
			136.4,150.5 135.6,150.5 		"/>
		<path class="st23" d="M140.5,150.5h-0.8v-5.1h1.6c1.2,0,1.9,0.7,1.9,1.6c0,0.7-0.4,1.2-1,1.4l1.2,2h-0.9l-1.1-1.9h-0.1h-0.8V150.5
			z M141.3,147.9c0.8,0,1.1-0.3,1.1-0.9c0-0.6-0.3-0.9-1.1-0.9h-0.8v1.8H141.3z"/>
		<polygon class="st23" points="144.1,145.4 147.4,145.4 147.4,146.1 144.9,146.1 144.9,147.5 147.1,147.5 147.1,148.2 144.9,148.2 
			144.9,149.7 147.5,149.7 147.5,150.5 144.1,150.5 		"/>
		<path class="st23" d="M148.7,149.1c0.2,0.4,0.6,0.7,1.1,0.7c0.5,0,0.9-0.3,0.9-0.7c0-0.5-0.4-0.7-0.8-0.9l-0.4-0.2
			c-0.7-0.3-1.3-0.7-1.3-1.5c0-0.8,0.6-1.3,1.5-1.3c0.7,0,1.2,0.3,1.5,0.8l-0.6,0.4c-0.2-0.3-0.5-0.5-0.9-0.5
			c-0.4,0-0.7,0.2-0.7,0.6c0,0.4,0.3,0.5,0.8,0.8l0.4,0.2c0.8,0.3,1.3,0.7,1.3,1.6c0,0.9-0.7,1.4-1.7,1.4c-0.9,0-1.5-0.4-1.8-1.1
			L148.7,149.1z"/>
		<path class="st23" d="M152.1,147.9c0-1.5,1.1-2.6,2.6-2.6c0.9,0,1.6,0.4,2,1l-0.6,0.4c-0.3-0.5-0.8-0.7-1.4-0.7
			c-1,0-1.7,0.8-1.7,1.9c0,1.1,0.7,1.9,1.8,1.9c0.7,0,1.1-0.2,1.5-0.7l0.6,0.4c-0.5,0.7-1.2,1-2.2,1
			C153.2,150.5,152.1,149.4,152.1,147.9"/>
		<path class="st23" d="M157.2,147.9c0-1.5,1.2-2.6,2.6-2.6c1.5,0,2.6,1.1,2.6,2.6c0,1.5-1.2,2.6-2.6,2.6
			C158.4,150.5,157.2,149.4,157.2,147.9 M161.6,147.9c0-1.1-0.7-1.9-1.8-1.9c-1.1,0-1.8,0.8-1.8,1.9c0,1.1,0.7,1.9,1.8,1.9
			C160.9,149.8,161.6,149,161.6,147.9"/>
		<polygon class="st23" points="88.3,146.2 88.8,147.8 90.5,147.8 89.1,148.8 89.7,150.3 88.3,149.4 86.9,150.3 87.5,148.8 
			86.1,147.8 87.8,147.8 		"/>
		<polygon class="st23" points="168.9,146.2 169.5,147.8 171.1,147.8 169.8,148.8 170.3,150.3 168.9,149.4 167.6,150.3 168.1,148.8 
			166.7,147.8 168.4,147.8 		"/>
		<polygon class="st23" points="50.9,158.7 48.4,158.7 48.4,158.1 54.2,158.1 54.2,158.7 51.7,158.7 51.7,166.2 50.9,166.2 		"/>
		<path class="st23" d="M53.1,164.2c0-1.2,0.9-2.1,2.1-2.1c1.2,0,2.1,0.9,2.1,2.1c0,1.2-0.9,2.1-2.1,2.1
			C54,166.3,53.1,165.4,53.1,164.2 M56.5,164.2c0-0.8-0.5-1.5-1.3-1.5c-0.8,0-1.3,0.6-1.3,1.5c0,0.8,0.5,1.4,1.3,1.4
			C56,165.7,56.5,165.1,56.5,164.2"/>
		<path class="st23" d="M58,164.2c0-1.2,0.9-2.1,2-2.1c0.6,0,1.1,0.3,1.4,0.8v-5.2h0.7v8.5h-0.7v-0.7c-0.3,0.5-0.8,0.8-1.4,0.8
			C58.8,166.3,58,165.4,58,164.2 M61.4,164.2c0-0.8-0.5-1.4-1.3-1.4c-0.8,0-1.3,0.6-1.3,1.4c0,0.8,0.5,1.4,1.3,1.4
			C60.8,165.7,61.4,165.1,61.4,164.2"/>
		<path class="st23" d="M63.1,164.2c0-1.2,0.9-2.1,2.1-2.1c1.2,0,2.1,0.9,2.1,2.1c0,1.2-0.9,2.1-2.1,2.1
			C64,166.3,63.1,165.4,63.1,164.2 M66.5,164.2c0-0.8-0.5-1.5-1.3-1.5c-0.8,0-1.3,0.6-1.3,1.5c0,0.8,0.5,1.4,1.3,1.4
			C66,165.7,66.5,165.1,66.5,164.2"/>
		<path class="st23" d="M67.8,165.4l0.6-0.4c0.2,0.4,0.6,0.6,1.2,0.6c0.5,0,0.8-0.2,0.8-0.5c0-0.4-0.3-0.5-1-0.7
			c-0.8-0.2-1.3-0.5-1.3-1.2c0-0.6,0.5-1.1,1.3-1.1c0.7,0,1.1,0.3,1.4,0.6l-0.5,0.4c-0.2-0.3-0.5-0.4-0.9-0.4
			c-0.4,0-0.6,0.2-0.6,0.4c0,0.3,0.3,0.4,0.9,0.6c0.9,0.2,1.4,0.6,1.4,1.3c0,0.7-0.6,1.2-1.5,1.2C68.7,166.3,68.2,166,67.8,165.4"/>
		<path class="st23" d="M74.2,162.3h0.7v0.6c0.3-0.5,0.8-0.7,1.4-0.7c0.9,0,1.5,0.6,1.5,1.6v2.4H77v-2.4c0-0.7-0.3-1-1-1
			c-0.7,0-1.2,0.4-1.2,1.2v2.2h-0.7V162.3z"/>
		<path class="st23" d="M78.9,164.7v-2.4h0.7v2.4c0,0.7,0.3,1,1,1c0.7,0,1.2-0.4,1.2-1.2v-2.2h0.7v3.9h-0.7v-0.6
			c-0.3,0.5-0.8,0.7-1.4,0.7C79.5,166.3,78.9,165.8,78.9,164.7"/>
		<path class="st23" d="M85.6,165.7c0.6,0,1-0.2,1.2-0.5l0.5,0.4c-0.4,0.4-0.9,0.7-1.7,0.7c-1.3,0-2.2-0.9-2.2-2.1
			c0-1.2,0.9-2.1,2.1-2.1c1.3,0,2,1,2,2.3h-3.3C84.3,165.2,84.8,165.7,85.6,165.7 M86.8,163.9c-0.1-0.6-0.5-1.1-1.2-1.1
			c-0.7,0-1.2,0.4-1.3,1.1H86.8z"/>
		<path class="st23" d="M88.1,165.4l0.6-0.4c0.2,0.4,0.6,0.6,1.2,0.6c0.5,0,0.8-0.2,0.8-0.5c0-0.4-0.3-0.5-1-0.7
			c-0.8-0.2-1.3-0.5-1.3-1.2c0-0.6,0.5-1.1,1.3-1.1c0.7,0,1.1,0.3,1.4,0.6l-0.5,0.4c-0.2-0.3-0.5-0.4-0.9-0.4
			c-0.4,0-0.6,0.2-0.6,0.4c0,0.3,0.3,0.4,0.9,0.6c0.9,0.2,1.4,0.6,1.4,1.3c0,0.7-0.6,1.2-1.5,1.2C89,166.3,88.4,166,88.1,165.4"/>
		<path class="st23" d="M91.8,162.9v-0.6h0.5v-1.5h0.7v1.5h1v0.6h-1v2.2c0,0.4,0.1,0.6,0.4,0.6c0.2,0,0.3-0.1,0.4-0.2l0.3,0.5
			c-0.2,0.2-0.5,0.3-0.8,0.3c-0.6,0-1.1-0.4-1.1-1.2v-2.3H91.8z"/>
		<path class="st23" d="M95.1,162.3h0.7v0.7c0.3-0.5,0.7-0.8,1.2-0.8c0.3,0,0.4,0,0.6,0.2l-0.3,0.6c-0.1-0.1-0.3-0.1-0.5-0.1
			c-0.6,0-1,0.5-1,1.3v2.1h-0.7V162.3z"/>
		<path class="st23" d="M98,164.2c0-1.2,0.9-2.1,2.1-2.1c1.2,0,2.1,0.9,2.1,2.1c0,1.2-0.9,2.1-2.1,2.1C98.9,166.3,98,165.4,98,164.2
			 M101.4,164.2c0-0.8-0.5-1.5-1.3-1.5c-0.8,0-1.3,0.6-1.3,1.5c0,0.8,0.5,1.4,1.3,1.4C100.9,165.7,101.4,165.1,101.4,164.2"/>
		<path class="st23" d="M102.7,165.4l0.6-0.4c0.2,0.4,0.6,0.6,1.2,0.6c0.5,0,0.8-0.2,0.8-0.5c0-0.4-0.3-0.5-1-0.7
			c-0.8-0.2-1.3-0.5-1.3-1.2c0-0.6,0.5-1.1,1.3-1.1c0.7,0,1.1,0.3,1.4,0.6l-0.5,0.4c-0.2-0.3-0.5-0.4-0.9-0.4
			c-0.4,0-0.6,0.2-0.6,0.4c0,0.3,0.3,0.4,0.9,0.6c0.9,0.2,1.4,0.6,1.4,1.3c0,0.7-0.6,1.2-1.5,1.2C103.6,166.3,103.1,166,102.7,165.4
			"/>
		<path class="st23" d="M109.1,162.3h0.7v0.7c0.3-0.5,0.8-0.8,1.4-0.8c1.1,0,1.9,0.9,1.9,2.1c0,1.2-0.8,2.1-1.9,2.1
			c-0.7,0-1.2-0.3-1.4-0.8v3.2h-0.7V162.3z M112.4,164.2c0-0.8-0.5-1.4-1.3-1.4c-0.8,0-1.3,0.6-1.3,1.4c0,0.8,0.5,1.4,1.3,1.4
			C111.9,165.7,112.4,165.1,112.4,164.2"/>
		<path class="st23" d="M114.2,162.3h0.7v0.7c0.3-0.5,0.7-0.8,1.2-0.8c0.3,0,0.4,0,0.6,0.2l-0.3,0.6c-0.1-0.1-0.3-0.1-0.5-0.1
			c-0.6,0-1,0.5-1,1.3v2.1h-0.7V162.3z"/>
		<path class="st23" d="M117.1,164.2c0-1.2,0.9-2.1,2.1-2.1c1.2,0,2.1,0.9,2.1,2.1c0,1.2-0.9,2.1-2.1,2.1
			C118,166.3,117.1,165.4,117.1,164.2 M120.5,164.2c0-0.8-0.5-1.5-1.3-1.5c-0.8,0-1.3,0.6-1.3,1.5c0,0.8,0.5,1.4,1.3,1.4
			C119.9,165.7,120.5,165.1,120.5,164.2"/>
		<path class="st23" d="M121.9,164.2c0-1.2,0.9-2.1,2-2.1c0.6,0,1.1,0.3,1.4,0.8v-5.2h0.7v8.5h-0.7v-0.7c-0.3,0.5-0.8,0.8-1.4,0.8
			C122.8,166.3,121.9,165.4,121.9,164.2 M125.3,164.2c0-0.8-0.5-1.4-1.3-1.4c-0.8,0-1.3,0.6-1.3,1.4c0,0.8,0.5,1.4,1.3,1.4
			C124.8,165.7,125.3,165.1,125.3,164.2"/>
		<path class="st23" d="M127.2,164.7v-2.4h0.7v2.4c0,0.7,0.3,1,1,1c0.7,0,1.2-0.4,1.2-1.2v-2.2h0.7v3.9h-0.7v-0.6
			c-0.3,0.5-0.8,0.7-1.4,0.7C127.8,166.3,127.2,165.8,127.2,164.7"/>
		<path class="st23" d="M131.8,164.2c0-1.2,0.9-2.1,2-2.1c0.7,0,1.2,0.2,1.6,0.6l-0.5,0.4c-0.3-0.3-0.6-0.4-1.1-0.4
			c-0.8,0-1.3,0.6-1.3,1.4c0,0.8,0.5,1.4,1.3,1.4c0.5,0,0.9-0.2,1.2-0.5l0.5,0.4c-0.4,0.4-0.9,0.7-1.7,0.7
			C132.7,166.3,131.8,165.4,131.8,164.2"/>
		<path class="st23" d="M136,162.9v-0.6h0.5v-1.5h0.7v1.5h1v0.6h-1v2.2c0,0.4,0.1,0.6,0.4,0.6c0.2,0,0.3-0.1,0.4-0.2l0.3,0.5
			c-0.2,0.2-0.5,0.3-0.8,0.3c-0.6,0-1.1-0.4-1.1-1.2v-2.3H136z"/>
		<path class="st23" d="M139,164.2c0-1.2,0.9-2.1,2.1-2.1c1.2,0,2.1,0.9,2.1,2.1c0,1.2-0.9,2.1-2.1,2.1
			C139.9,166.3,139,165.4,139,164.2 M142.4,164.2c0-0.8-0.5-1.5-1.3-1.5c-0.8,0-1.3,0.6-1.3,1.5c0,0.8,0.5,1.4,1.3,1.4
			C141.9,165.7,142.4,165.1,142.4,164.2"/>
		<path class="st23" d="M143.7,165.4l0.6-0.4c0.2,0.4,0.6,0.6,1.2,0.6c0.5,0,0.8-0.2,0.8-0.5c0-0.4-0.3-0.5-1-0.7
			c-0.8-0.2-1.3-0.5-1.3-1.2c0-0.6,0.5-1.1,1.3-1.1c0.7,0,1.1,0.3,1.4,0.6l-0.5,0.4c-0.2-0.3-0.5-0.4-0.9-0.4
			c-0.4,0-0.6,0.2-0.6,0.4c0,0.3,0.3,0.4,0.9,0.6c0.9,0.2,1.4,0.6,1.4,1.3c0,0.7-0.6,1.2-1.5,1.2C144.7,166.3,144.1,166,143.7,165.4
			"/>
		<path class="st23" d="M149.7,165.4l0.6-0.4c0.2,0.4,0.6,0.6,1.2,0.6c0.5,0,0.8-0.2,0.8-0.5c0-0.4-0.3-0.5-1-0.7
			c-0.8-0.2-1.3-0.5-1.3-1.2c0-0.6,0.5-1.1,1.3-1.1c0.7,0,1.1,0.3,1.4,0.6l-0.5,0.4c-0.2-0.3-0.5-0.4-0.9-0.4
			c-0.4,0-0.6,0.2-0.6,0.4c0,0.3,0.3,0.4,0.9,0.6c0.9,0.2,1.4,0.6,1.4,1.3c0,0.7-0.6,1.2-1.5,1.2C150.7,166.3,150.1,166,149.7,165.4
			"/>
		<path class="st23" d="M153.7,164.2c0-1.2,0.9-2.1,2.1-2.1c1.2,0,2.1,0.9,2.1,2.1c0,1.2-0.9,2.1-2.1,2.1
			C154.6,166.3,153.7,165.4,153.7,164.2 M157.1,164.2c0-0.8-0.5-1.5-1.3-1.5c-0.8,0-1.3,0.6-1.3,1.5c0,0.8,0.5,1.4,1.3,1.4
			C156.6,165.7,157.1,165.1,157.1,164.2"/>
		<path class="st23" d="M158.8,162.3h0.7v0.6c0.3-0.5,0.8-0.7,1.4-0.7c0.9,0,1.5,0.6,1.5,1.6v2.4h-0.7v-2.4c0-0.7-0.3-1-1-1
			c-0.7,0-1.2,0.4-1.2,1.2v2.2h-0.7V162.3z"/>
		<path class="st23" d="M167.7,165.7c0.6,0,1-0.2,1.2-0.5l0.5,0.4c-0.4,0.4-0.9,0.7-1.7,0.7c-1.3,0-2.2-0.9-2.2-2.1
			c0-1.2,0.9-2.1,2.1-2.1c1.3,0,2,1,2,2.3h-3.3C166.4,165.2,166.9,165.7,167.7,165.7 M168.8,163.9c-0.1-0.6-0.5-1.1-1.2-1.1
			c-0.7,0-1.2,0.4-1.3,1.1H168.8z"/>
		<rect x="170.6" y="157.7" class="st23" width="0.7" height="8.5"/>
		<path class="st23" d="M175.1,163.8c0-0.7-0.4-1-0.9-1c-0.5,0-0.8,0.2-1.1,0.6l-0.5-0.4c0.4-0.5,0.9-0.8,1.6-0.8
			c1,0,1.6,0.5,1.6,1.6v2.4h-0.7v-0.4c-0.3,0.3-0.7,0.5-1.2,0.5c-0.8,0-1.5-0.4-1.5-1.3c0-0.8,0.7-1.2,1.5-1.2L175.1,163.8
			L175.1,163.8z M174,164.4c-0.5,0-0.9,0.2-0.9,0.6c0,0.4,0.3,0.7,0.9,0.7c0.6,0,1.1-0.3,1.1-0.9v-0.4H174z"/>
		<path class="st23" d="M177.8,165.5v0.7h-0.7v-8.5h0.7v5.2c0.3-0.5,0.8-0.8,1.4-0.8c1.1,0,1.9,0.9,1.9,2.1c0,1.2-0.8,2.1-1.9,2.1
			C178.6,166.3,178.1,166,177.8,165.5 M180.4,164.2c0-0.8-0.5-1.4-1.3-1.4c-0.8,0-1.3,0.6-1.3,1.4c0,0.8,0.5,1.4,1.3,1.4
			C179.9,165.7,180.4,165.1,180.4,164.2"/>
		<path class="st23" d="M181.8,164.2c0-1.2,0.9-2.1,2.1-2.1c1.2,0,2.1,0.9,2.1,2.1c0,1.2-0.9,2.1-2.1,2.1
			C182.7,166.3,181.8,165.4,181.8,164.2 M185.2,164.2c0-0.8-0.5-1.5-1.3-1.5c-0.8,0-1.3,0.6-1.3,1.5c0,0.8,0.5,1.4,1.3,1.4
			C184.7,165.7,185.2,165.1,185.2,164.2"/>
		<path class="st23" d="M187,162.3h0.7v0.7c0.3-0.5,0.7-0.8,1.2-0.8c0.3,0,0.4,0,0.6,0.2l-0.3,0.6c-0.1-0.1-0.3-0.1-0.5-0.1
			c-0.6,0-1,0.5-1,1.3v2.1H187V162.3z"/>
		<path class="st23" d="M192.6,163.8c0-0.7-0.4-1-0.9-1c-0.5,0-0.8,0.2-1.1,0.6l-0.5-0.4c0.4-0.5,0.9-0.8,1.6-0.8
			c1,0,1.6,0.5,1.6,1.6v2.4h-0.7v-0.4c-0.3,0.3-0.7,0.5-1.2,0.5c-0.8,0-1.5-0.4-1.5-1.3c0-0.8,0.7-1.2,1.5-1.2L192.6,163.8
			L192.6,163.8z M191.4,164.4c-0.5,0-0.9,0.2-0.9,0.6c0,0.4,0.3,0.7,0.9,0.7c0.6,0,1.1-0.3,1.1-0.9v-0.4H191.4z"/>
		<path class="st23" d="M194.2,164.2c0-1.2,0.9-2.1,2-2.1c0.6,0,1.1,0.3,1.4,0.8v-5.2h0.7v8.5h-0.7v-0.7c-0.3,0.5-0.8,0.8-1.4,0.8
			C195.1,166.3,194.2,165.4,194.2,164.2 M197.6,164.2c0-0.8-0.5-1.4-1.3-1.4c-0.8,0-1.3,0.6-1.3,1.4c0,0.8,0.5,1.4,1.3,1.4
			C197.1,165.7,197.6,165.1,197.6,164.2"/>
		<path class="st23" d="M199.3,164.2c0-1.2,0.9-2.1,2.1-2.1c1.2,0,2.1,0.9,2.1,2.1c0,1.2-0.9,2.1-2.1,2.1
			C200.3,166.3,199.3,165.4,199.3,164.2 M202.8,164.2c0-0.8-0.5-1.5-1.3-1.5c-0.8,0-1.3,0.6-1.3,1.5c0,0.8,0.5,1.4,1.3,1.4
			C202.2,165.7,202.8,165.1,202.8,164.2"/>
		<path class="st23" d="M204.1,165.4l0.6-0.4c0.2,0.4,0.6,0.6,1.2,0.6c0.5,0,0.8-0.2,0.8-0.5c0-0.4-0.3-0.5-1-0.7
			c-0.8-0.2-1.3-0.5-1.3-1.2c0-0.6,0.5-1.1,1.3-1.1c0.7,0,1.1,0.3,1.4,0.6l-0.5,0.4c-0.2-0.3-0.5-0.4-0.9-0.4
			c-0.4,0-0.6,0.2-0.6,0.4c0,0.3,0.3,0.4,0.9,0.6c0.9,0.2,1.4,0.6,1.4,1.3c0,0.7-0.6,1.2-1.5,1.2C205,166.3,204.4,166,204.1,165.4"
			/>
		<path class="st23" d="M36,178.6c0-1.2,0.9-2.1,2-2.1c0.7,0,1.2,0.2,1.6,0.6l-0.5,0.4c-0.3-0.3-0.6-0.4-1.1-0.4
			c-0.8,0-1.3,0.6-1.3,1.4c0,0.8,0.5,1.4,1.3,1.4c0.5,0,0.9-0.2,1.2-0.5l0.5,0.4c-0.4,0.4-0.9,0.7-1.7,0.7
			C36.9,180.7,36,179.8,36,178.6"/>
		<path class="st23" d="M40.3,178.6c0-1.2,0.9-2.1,2.1-2.1c1.2,0,2.1,0.9,2.1,2.1c0,1.2-0.9,2.1-2.1,2.1
			C41.2,180.7,40.3,179.8,40.3,178.6 M43.7,178.6c0-0.8-0.5-1.5-1.3-1.5c-0.8,0-1.3,0.6-1.3,1.5c0,0.8,0.5,1.4,1.3,1.4
			C43.2,180.1,43.7,179.5,43.7,178.6"/>
		<path class="st23" d="M45.5,176.7h0.7v0.6c0.3-0.5,0.8-0.7,1.4-0.7c0.9,0,1.5,0.6,1.5,1.6v2.4h-0.7v-2.4c0-0.7-0.3-1-1-1
			c-0.7,0-1.2,0.4-1.2,1.2v2.2h-0.7V176.7z"/>
		<path class="st23" d="M52.3,175.1c0-0.3,0.2-0.5,0.5-0.5c0.3,0,0.5,0.2,0.5,0.5c0,0.3-0.2,0.5-0.5,0.5
			C52.5,175.6,52.3,175.4,52.3,175.1 M52.4,176.7h0.7v3.9h-0.7V176.7z"/>
		<path class="st23" d="M54.4,176.7h0.7v0.6c0.3-0.5,0.8-0.7,1.4-0.7c0.9,0,1.5,0.6,1.5,1.6v2.4h-0.7v-2.4c0-0.7-0.3-1-1-1
			c-0.7,0-1.2,0.4-1.2,1.2v2.2h-0.7V176.7z"/>
		<path class="st23" d="M59.1,182.1l0.6-0.3c0.3,0.6,0.8,0.9,1.4,0.9c0.8,0,1.3-0.5,1.3-1.4v-1.3c-0.3,0.5-0.8,0.8-1.4,0.8
			c-1.1,0-2-0.9-2-2.1c0-1.2,0.9-2.1,2-2.1c0.6,0,1.1,0.3,1.4,0.8v-0.7H63v4.6c0,1.2-0.7,2-2,2C60.1,183.3,59.4,182.8,59.1,182.1
			 M62.3,178.6c0-0.8-0.5-1.4-1.3-1.4c-0.8,0-1.3,0.6-1.3,1.4c0,0.8,0.5,1.4,1.3,1.4C61.8,180.1,62.3,179.5,62.3,178.6"/>
		<path class="st23" d="M64.3,176.7H65v0.7c0.3-0.5,0.7-0.8,1.2-0.8c0.3,0,0.4,0,0.6,0.2l-0.3,0.6c-0.1-0.1-0.3-0.1-0.5-0.1
			c-0.6,0-1,0.5-1,1.3v2.1h-0.7V176.7z"/>
		<path class="st23" d="M69.3,180.1c0.6,0,1-0.2,1.2-0.5L71,180c-0.4,0.4-0.9,0.7-1.7,0.7c-1.3,0-2.2-0.9-2.2-2.1
			c0-1.2,0.9-2.1,2.1-2.1c1.3,0,2,1,2,2.3H68C68.1,179.6,68.6,180.1,69.3,180.1 M70.5,178.3c-0.1-0.6-0.5-1.1-1.2-1.1
			c-0.7,0-1.2,0.4-1.3,1.1H70.5z"/>
		<path class="st23" d="M72,178.6c0-1.2,0.9-2.1,2-2.1c0.6,0,1.1,0.3,1.4,0.8v-5.2h0.7v8.5h-0.7v-0.7c-0.3,0.5-0.8,0.8-1.4,0.8
			C72.8,180.7,72,179.8,72,178.6 M75.4,178.6c0-0.8-0.5-1.4-1.3-1.4c-0.8,0-1.3,0.6-1.3,1.4c0,0.8,0.5,1.4,1.3,1.4
			C74.9,180.1,75.4,179.5,75.4,178.6"/>
		<path class="st23" d="M77.2,175.1c0-0.3,0.2-0.5,0.5-0.5c0.3,0,0.5,0.2,0.5,0.5c0,0.3-0.2,0.5-0.5,0.5
			C77.5,175.6,77.2,175.4,77.2,175.1 M77.4,176.7h0.7v3.9h-0.7V176.7z"/>
		<path class="st23" d="M81.3,180.1c0.6,0,1-0.2,1.2-0.5L83,180c-0.4,0.4-0.9,0.7-1.7,0.7c-1.3,0-2.2-0.9-2.2-2.1
			c0-1.2,0.9-2.1,2.1-2.1c1.3,0,2,1,2,2.3h-3.3C80,179.6,80.5,180.1,81.3,180.1 M82.4,178.3c-0.1-0.6-0.5-1.1-1.2-1.1
			c-0.7,0-1.2,0.4-1.3,1.1H82.4z"/>
		<path class="st23" d="M84.2,176.7h0.7v0.6c0.3-0.5,0.8-0.7,1.4-0.7c0.9,0,1.5,0.6,1.5,1.6v2.4H87v-2.4c0-0.7-0.3-1-1-1
			c-0.7,0-1.2,0.4-1.2,1.2v2.2h-0.7V176.7z"/>
		<path class="st23" d="M88.6,177.3v-0.6h0.5v-1.5h0.7v1.5h1v0.6h-1v2.2c0,0.4,0.1,0.6,0.4,0.6c0.2,0,0.3-0.1,0.4-0.2l0.3,0.5
			c-0.2,0.2-0.5,0.3-0.8,0.3c-0.6,0-1.1-0.4-1.1-1.2v-2.3H88.6z"/>
		<path class="st23" d="M93.7,180.1c0.6,0,1-0.2,1.2-0.5l0.5,0.4c-0.4,0.4-0.9,0.7-1.7,0.7c-1.3,0-2.2-0.9-2.2-2.1
			c0-1.2,0.9-2.1,2.1-2.1c1.3,0,2,1,2,2.3h-3.3C92.4,179.6,92.9,180.1,93.7,180.1 M94.8,178.3c-0.1-0.6-0.5-1.1-1.2-1.1
			c-0.7,0-1.2,0.4-1.3,1.1H94.8z"/>
		<path class="st23" d="M96.1,179.8l0.6-0.4c0.2,0.4,0.6,0.6,1.2,0.6c0.5,0,0.8-0.2,0.8-0.5c0-0.4-0.3-0.5-1-0.7
			c-0.8-0.2-1.3-0.5-1.3-1.2c0-0.6,0.5-1.1,1.3-1.1c0.7,0,1.1,0.3,1.4,0.6l-0.5,0.4c-0.2-0.3-0.5-0.4-0.9-0.4
			c-0.4,0-0.6,0.2-0.6,0.4c0,0.3,0.3,0.4,0.9,0.6c0.9,0.2,1.4,0.6,1.4,1.3c0,0.7-0.6,1.2-1.5,1.2C97.1,180.7,96.5,180.4,96.1,179.8"
			/>
		<path class="st23" d="M102.3,178.6c0-1.2,0.9-2.1,2-2.1c0.6,0,1.1,0.3,1.4,0.8v-5.2h0.7v8.5h-0.7v-0.7c-0.3,0.5-0.8,0.8-1.4,0.8
			C103.1,180.7,102.3,179.8,102.3,178.6 M105.7,178.6c0-0.8-0.5-1.4-1.3-1.4c-0.8,0-1.3,0.6-1.3,1.4c0,0.8,0.5,1.4,1.3,1.4
			C105.1,180.1,105.7,179.5,105.7,178.6"/>
		<path class="st23" d="M109.5,180.1c0.6,0,1-0.2,1.2-0.5l0.5,0.4c-0.4,0.4-0.9,0.7-1.7,0.7c-1.3,0-2.2-0.9-2.2-2.1
			c0-1.2,0.9-2.1,2.1-2.1c1.3,0,2,1,2,2.3h-3.3C108.2,179.6,108.7,180.1,109.5,180.1 M110.7,178.3c-0.1-0.6-0.5-1.1-1.2-1.1
			c-0.7,0-1.2,0.4-1.3,1.1H110.7z"/>
		<path class="st23" d="M114.6,176.7h0.7v0.7c0.3-0.5,0.8-0.8,1.4-0.8c1.1,0,1.9,0.9,1.9,2.1c0,1.2-0.8,2.1-1.9,2.1
			c-0.7,0-1.2-0.3-1.4-0.8v3.2h-0.7V176.7z M118,178.6c0-0.8-0.5-1.4-1.3-1.4c-0.8,0-1.3,0.6-1.3,1.4c0,0.8,0.5,1.4,1.3,1.4
			C117.4,180.1,118,179.5,118,178.6"/>
		<path class="st23" d="M119.7,176.7h0.7v0.7c0.3-0.5,0.7-0.8,1.2-0.8c0.3,0,0.4,0,0.6,0.2l-0.3,0.6c-0.1-0.1-0.3-0.1-0.5-0.1
			c-0.6,0-1,0.5-1,1.3v2.1h-0.7V176.7z"/>
		<path class="st23" d="M122.6,178.6c0-1.2,0.9-2.1,2.1-2.1c1.2,0,2.1,0.9,2.1,2.1c0,1.2-0.9,2.1-2.1,2.1
			C123.5,180.7,122.6,179.8,122.6,178.6 M126,178.6c0-0.8-0.5-1.5-1.3-1.5c-0.8,0-1.3,0.6-1.3,1.5c0,0.8,0.5,1.4,1.3,1.4
			C125.5,180.1,126,179.5,126,178.6"/>
		<polygon class="st23" points="127.1,176.7 127.9,176.7 129.1,179.3 130.3,176.7 131,176.7 129.1,180.7 129.1,180.7 		"/>
		<path class="st23" d="M133.5,180.1c0.6,0,1-0.2,1.2-0.5l0.5,0.4c-0.4,0.4-0.9,0.7-1.7,0.7c-1.3,0-2.2-0.9-2.2-2.1
			c0-1.2,0.9-2.1,2.1-2.1c1.3,0,2,1,2,2.3h-3.3C132.2,179.6,132.7,180.1,133.5,180.1 M134.7,178.3c-0.1-0.6-0.5-1.1-1.2-1.1
			c-0.7,0-1.2,0.4-1.3,1.1H134.7z"/>
		<path class="st23" d="M138.3,180.1c0.6,0,1-0.2,1.2-0.5l0.5,0.4c-0.4,0.4-0.9,0.7-1.7,0.7c-1.3,0-2.2-0.9-2.2-2.1
			c0-1.2,0.9-2.1,2.1-2.1c1.3,0,2,1,2,2.3h-3.3C137,179.6,137.5,180.1,138.3,180.1 M139.5,178.3c-0.1-0.6-0.5-1.1-1.2-1.1
			c-0.7,0-1.2,0.4-1.3,1.1H139.5z"/>
		<path class="st23" d="M141,178.6c0-1.2,0.9-2.1,2-2.1c0.6,0,1.1,0.3,1.4,0.8v-5.2h0.7v8.5h-0.7v-0.7c-0.3,0.5-0.8,0.8-1.4,0.8
			C141.8,180.7,141,179.8,141,178.6 M144.4,178.6c0-0.8-0.5-1.4-1.3-1.4c-0.8,0-1.3,0.6-1.3,1.4c0,0.8,0.5,1.4,1.3,1.4
			C143.8,180.1,144.4,179.5,144.4,178.6"/>
		<path class="st23" d="M146.1,178.6c0-1.2,0.9-2.1,2.1-2.1c1.2,0,2.1,0.9,2.1,2.1c0,1.2-0.9,2.1-2.1,2.1
			C147,180.7,146.1,179.8,146.1,178.6 M149.5,178.6c0-0.8-0.5-1.5-1.3-1.5c-0.8,0-1.3,0.6-1.3,1.5c0,0.8,0.5,1.4,1.3,1.4
			C149,180.1,149.5,179.5,149.5,178.6"/>
		<path class="st23" d="M151.2,176.7h0.7v0.7c0.3-0.5,0.7-0.8,1.2-0.8c0.3,0,0.4,0,0.6,0.2l-0.3,0.6c-0.1-0.1-0.3-0.1-0.5-0.1
			c-0.6,0-1,0.5-1,1.3v2.1h-0.7V176.7z"/>
		<path class="st23" d="M156.3,180.1c0.6,0,1-0.2,1.2-0.5l0.5,0.4c-0.4,0.4-0.9,0.7-1.7,0.7c-1.3,0-2.2-0.9-2.2-2.1
			c0-1.2,0.9-2.1,2.1-2.1c1.3,0,2,1,2,2.3h-3.3C155,179.6,155.5,180.1,156.3,180.1 M157.4,178.3c-0.1-0.6-0.5-1.1-1.2-1.1
			c-0.7,0-1.2,0.4-1.3,1.1H157.4z"/>
		<path class="st23" d="M158.7,179.8l0.6-0.4c0.2,0.4,0.6,0.6,1.2,0.6c0.5,0,0.8-0.2,0.8-0.5c0-0.4-0.3-0.5-1-0.7
			c-0.8-0.2-1.3-0.5-1.3-1.2c0-0.6,0.5-1.1,1.3-1.1c0.7,0,1.1,0.3,1.4,0.6l-0.5,0.4c-0.2-0.3-0.5-0.4-0.9-0.4
			c-0.4,0-0.6,0.2-0.6,0.4c0,0.3,0.3,0.4,0.9,0.6c0.9,0.2,1.4,0.6,1.4,1.3c0,0.7-0.6,1.2-1.5,1.2
			C159.7,180.7,159.1,180.4,158.7,179.8"/>
		<rect x="165.1" y="172.1" class="st23" width="0.7" height="8.5"/>
		<path class="st23" d="M166.9,178.6c0-1.2,0.9-2.1,2.1-2.1c1.2,0,2.1,0.9,2.1,2.1c0,1.2-0.9,2.1-2.1,2.1
			C167.8,180.7,166.9,179.8,166.9,178.6 M170.3,178.6c0-0.8-0.5-1.5-1.3-1.5c-0.8,0-1.3,0.6-1.3,1.5c0,0.8,0.5,1.4,1.3,1.4
			C169.8,180.1,170.3,179.5,170.3,178.6"/>
		<path class="st23" d="M171.7,178.6c0-1.2,0.9-2.1,2-2.1c0.7,0,1.2,0.2,1.6,0.6l-0.5,0.4c-0.3-0.3-0.6-0.4-1.1-0.4
			c-0.8,0-1.3,0.6-1.3,1.4c0,0.8,0.5,1.4,1.3,1.4c0.5,0,0.9-0.2,1.2-0.5l0.5,0.4c-0.4,0.4-0.9,0.7-1.7,0.7
			C172.6,180.7,171.7,179.8,171.7,178.6"/>
		<path class="st23" d="M178.8,178.2c0-0.7-0.4-1-0.9-1c-0.5,0-0.8,0.2-1.1,0.6l-0.5-0.4c0.4-0.5,0.9-0.8,1.6-0.8
			c1,0,1.6,0.5,1.6,1.6v2.4h-0.7v-0.4c-0.3,0.3-0.7,0.5-1.2,0.5c-0.8,0-1.5-0.4-1.5-1.3c0-0.8,0.7-1.2,1.5-1.2L178.8,178.2
			L178.8,178.2z M177.7,178.8c-0.5,0-0.9,0.2-0.9,0.6c0,0.4,0.3,0.7,0.9,0.7c0.6,0,1.1-0.3,1.1-0.9v-0.4H177.7z"/>
		<rect x="180.8" y="172.1" class="st23" width="0.7" height="8.5"/>
		<path class="st23" d="M184.7,180.1c0.6,0,1-0.2,1.2-0.5l0.5,0.4c-0.4,0.4-0.9,0.7-1.7,0.7c-1.3,0-2.2-0.9-2.2-2.1
			c0-1.2,0.9-2.1,2.1-2.1c1.3,0,2,1,2,2.3h-3.3C183.4,179.6,183.9,180.1,184.7,180.1 M185.9,178.3c-0.1-0.6-0.5-1.1-1.2-1.1
			c-0.7,0-1.2,0.4-1.3,1.1H185.9z"/>
		<path class="st23" d="M187.2,179.8l0.6-0.4c0.2,0.4,0.6,0.6,1.2,0.6c0.5,0,0.8-0.2,0.8-0.5c0-0.4-0.3-0.5-1-0.7
			c-0.8-0.2-1.3-0.5-1.3-1.2c0-0.6,0.5-1.1,1.3-1.1c0.7,0,1.1,0.3,1.4,0.6l-0.5,0.4c-0.2-0.3-0.5-0.4-0.9-0.4
			c-0.4,0-0.6,0.2-0.6,0.4c0,0.3,0.3,0.4,0.9,0.6c0.9,0.2,1.4,0.6,1.4,1.3c0,0.7-0.6,1.2-1.5,1.2
			C188.1,180.7,187.5,180.4,187.2,179.8"/>
		<path class="st23" d="M191.5,180.6c-0.2-0.1-0.3-0.3-0.3-0.5c0-0.3,0.3-0.6,0.6-0.6c0.3,0,0.6,0.2,0.6,0.6c0,0.2-0.1,0.3-0.2,0.5
			l-0.6,1h-0.4L191.5,180.6z"/>
		<path class="st23" d="M195.6,172.1h0.7v5.2c0.3-0.5,0.8-0.7,1.4-0.7c0.9,0,1.5,0.6,1.5,1.6v2.4h-0.7v-2.4c0-0.7-0.3-1-1-1
			c-0.7,0-1.2,0.4-1.2,1.2v2.2h-0.7V172.1z"/>
		<path class="st23" d="M202.2,180.1c0.6,0,1-0.2,1.2-0.5l0.5,0.4c-0.4,0.4-0.9,0.7-1.7,0.7c-1.3,0-2.2-0.9-2.2-2.1
			c0-1.2,0.9-2.1,2.1-2.1c1.3,0,2,1,2,2.3h-3.3C201,179.6,201.5,180.1,202.2,180.1 M203.4,178.3c-0.1-0.6-0.5-1.1-1.2-1.1
			c-0.7,0-1.2,0.4-1.3,1.1H203.4z"/>
		<path class="st23" d="M204.9,178.6c0-1.2,0.9-2.1,2-2.1c0.7,0,1.2,0.2,1.6,0.6l-0.5,0.4c-0.3-0.3-0.6-0.4-1.1-0.4
			c-0.8,0-1.3,0.6-1.3,1.4c0,0.8,0.5,1.4,1.3,1.4c0.5,0,0.9-0.2,1.2-0.5l0.5,0.4c-0.4,0.4-0.9,0.7-1.7,0.7
			C205.8,180.7,204.9,179.8,204.9,178.6"/>
		<path class="st23" d="M209.5,172.1h0.7v5.2c0.3-0.5,0.8-0.7,1.4-0.7c0.9,0,1.5,0.6,1.5,1.6v2.4h-0.7v-2.4c0-0.7-0.3-1-1-1
			c-0.7,0-1.2,0.4-1.2,1.2v2.2h-0.7V172.1z"/>
		<path class="st23" d="M214,178.6c0-1.2,0.9-2.1,2.1-2.1c1.2,0,2.1,0.9,2.1,2.1c0,1.2-0.9,2.1-2.1,2.1
			C214.9,180.7,214,179.8,214,178.6 M217.4,178.6c0-0.8-0.5-1.5-1.3-1.5c-0.8,0-1.3,0.6-1.3,1.5c0,0.8,0.5,1.4,1.3,1.4
			C216.9,180.1,217.4,179.5,217.4,178.6"/>
		<path class="st23" d="M218.7,179.8l0.6-0.4c0.2,0.4,0.6,0.6,1.2,0.6c0.5,0,0.8-0.2,0.8-0.5c0-0.4-0.3-0.5-1-0.7
			c-0.8-0.2-1.3-0.5-1.3-1.2c0-0.6,0.5-1.1,1.3-1.1c0.7,0,1.1,0.3,1.4,0.6l-0.5,0.4c-0.2-0.3-0.5-0.4-0.9-0.4
			c-0.4,0-0.6,0.2-0.6,0.4c0,0.3,0.3,0.4,0.9,0.6c0.9,0.2,1.4,0.6,1.4,1.3c0,0.7-0.6,1.2-1.5,1.2
			C219.7,180.7,219.1,180.4,218.7,179.8"/>
		<path class="st23" d="M60.3,193c0-1.2,0.9-2.1,2-2.1c0.7,0,1.2,0.2,1.6,0.6l-0.5,0.4c-0.3-0.3-0.6-0.4-1.1-0.4
			c-0.8,0-1.3,0.6-1.3,1.4c0,0.8,0.5,1.4,1.3,1.4c0.5,0,0.9-0.2,1.2-0.5l0.5,0.4c-0.4,0.4-0.9,0.7-1.7,0.7
			C61.2,195.1,60.3,194.2,60.3,193"/>
		<path class="st23" d="M64.6,193c0-1.2,0.9-2.1,2.1-2.1c1.2,0,2.1,0.9,2.1,2.1c0,1.2-0.9,2.1-2.1,2.1
			C65.5,195.1,64.6,194.2,64.6,193 M68.1,193c0-0.8-0.5-1.5-1.3-1.5c-0.8,0-1.3,0.6-1.3,1.5c0,0.8,0.5,1.4,1.3,1.4
			C67.5,194.5,68.1,193.9,68.1,193"/>
		<path class="st23" d="M69.8,191.1h0.7v0.6c0.3-0.5,0.8-0.7,1.4-0.7c0.9,0,1.5,0.6,1.5,1.6v2.4h-0.7v-2.4c0-0.7-0.3-1-1-1
			c-0.7,0-1.2,0.4-1.2,1.2v2.2h-0.7V191.1z"/>
		<path class="st23" d="M76.7,191.1h0.7v0.7c0.3-0.5,0.8-0.8,1.4-0.8c1.1,0,1.9,0.9,1.9,2.1c0,1.2-0.8,2.1-1.9,2.1
			c-0.7,0-1.2-0.3-1.4-0.8v3.2h-0.7V191.1z M80.1,193c0-0.8-0.5-1.4-1.3-1.4c-0.8,0-1.3,0.6-1.3,1.4c0,0.8,0.5,1.4,1.3,1.4
			C79.5,194.5,80.1,193.9,80.1,193"/>
		<path class="st23" d="M81.8,191.1h0.7v0.7c0.3-0.5,0.7-0.8,1.2-0.8c0.3,0,0.4,0,0.6,0.2l-0.3,0.6c-0.1-0.1-0.3-0.1-0.5-0.1
			c-0.6,0-1,0.5-1,1.3v2.1h-0.7V191.1z"/>
		<path class="st23" d="M84.7,193c0-1.2,0.9-2.1,2.1-2.1c1.2,0,2.1,0.9,2.1,2.1c0,1.2-0.9,2.1-2.1,2.1
			C85.6,195.1,84.7,194.2,84.7,193 M88.1,193c0-0.8-0.5-1.5-1.3-1.5c-0.8,0-1.3,0.6-1.3,1.5c0,0.8,0.5,1.4,1.3,1.4
			C87.6,194.5,88.1,193.9,88.1,193"/>
		<path class="st23" d="M89.6,193c0-1.2,0.9-2.1,2-2.1c0.6,0,1.1,0.3,1.4,0.8v-5.2h0.7v8.5h-0.7v-0.7c-0.3,0.5-0.8,0.8-1.4,0.8
			C90.4,195.1,89.6,194.2,89.6,193 M93,193c0-0.8-0.5-1.4-1.3-1.4c-0.8,0-1.3,0.6-1.3,1.4c0,0.8,0.5,1.4,1.3,1.4
			C92.4,194.5,93,193.9,93,193"/>
		<path class="st23" d="M94.9,193.5v-2.4h0.7v2.4c0,0.7,0.3,1,1,1c0.7,0,1.2-0.4,1.2-1.2v-2.2h0.7v3.9h-0.7v-0.6
			c-0.3,0.5-0.8,0.7-1.4,0.7C95.5,195.1,94.9,194.6,94.9,193.5"/>
		<path class="st23" d="M99.4,193c0-1.2,0.9-2.1,2-2.1c0.7,0,1.2,0.2,1.6,0.6l-0.5,0.4c-0.3-0.3-0.6-0.4-1.1-0.4
			c-0.8,0-1.3,0.6-1.3,1.4c0,0.8,0.5,1.4,1.3,1.4c0.5,0,0.9-0.2,1.2-0.5l0.5,0.4c-0.4,0.4-0.9,0.7-1.7,0.7
			C100.3,195.1,99.4,194.2,99.4,193"/>
		<path class="st23" d="M103.7,191.7v-0.6h0.5v-1.5h0.7v1.5h1v0.6h-1v2.2c0,0.4,0.1,0.6,0.4,0.6c0.2,0,0.3-0.1,0.4-0.2l0.3,0.5
			c-0.2,0.2-0.5,0.3-0.8,0.3c-0.6,0-1.1-0.4-1.1-1.2v-2.3H103.7z"/>
		<path class="st23" d="M106.7,193c0-1.2,0.9-2.1,2.1-2.1c1.2,0,2.1,0.9,2.1,2.1c0,1.2-0.9,2.1-2.1,2.1
			C107.6,195.1,106.7,194.2,106.7,193 M110.1,193c0-0.8-0.5-1.5-1.3-1.5c-0.8,0-1.3,0.6-1.3,1.5c0,0.8,0.5,1.4,1.3,1.4
			C109.5,194.5,110.1,193.9,110.1,193"/>
		<path class="st23" d="M111.4,194.2l0.6-0.4c0.2,0.4,0.6,0.6,1.2,0.6c0.5,0,0.8-0.2,0.8-0.5c0-0.4-0.3-0.5-1-0.7
			c-0.8-0.2-1.3-0.5-1.3-1.2c0-0.6,0.5-1.1,1.3-1.1c0.7,0,1.1,0.3,1.4,0.6l-0.5,0.4c-0.2-0.3-0.5-0.4-0.9-0.4
			c-0.4,0-0.6,0.2-0.6,0.4c0,0.3,0.3,0.4,0.9,0.6c0.9,0.2,1.4,0.6,1.4,1.3c0,0.7-0.6,1.2-1.5,1.2
			C112.3,195.1,111.7,194.8,111.4,194.2"/>
		<path class="st23" d="M117.8,191.1h0.7v0.6c0.3-0.5,0.8-0.7,1.4-0.7c0.9,0,1.5,0.6,1.5,1.6v2.4h-0.7v-2.4c0-0.7-0.3-1-1-1
			c-0.7,0-1.2,0.4-1.2,1.2v2.2h-0.7V191.1z"/>
		<path class="st23" d="M125,192.6c0-0.7-0.4-1-0.9-1c-0.5,0-0.8,0.2-1.1,0.6l-0.5-0.4c0.4-0.5,0.9-0.8,1.6-0.8c1,0,1.6,0.5,1.6,1.6
			v2.4H125v-0.4c-0.3,0.3-0.7,0.5-1.2,0.5c-0.8,0-1.5-0.4-1.5-1.3c0-0.8,0.7-1.2,1.5-1.2L125,192.6L125,192.6z M123.9,193.2
			c-0.5,0-0.9,0.2-0.9,0.6c0,0.4,0.3,0.7,0.9,0.7c0.6,0,1.1-0.3,1.1-0.9v-0.4H123.9z"/>
		<path class="st23" d="M126.6,191.7v-0.6h0.5v-1.5h0.7v1.5h1v0.6h-1v2.2c0,0.4,0.1,0.6,0.4,0.6c0.2,0,0.3-0.1,0.4-0.2l0.3,0.5
			c-0.2,0.2-0.5,0.3-0.8,0.3c-0.6,0-1.1-0.4-1.1-1.2v-2.3H126.6z"/>
		<path class="st23" d="M129.8,193.5v-2.4h0.7v2.4c0,0.7,0.3,1,1,1c0.7,0,1.2-0.4,1.2-1.2v-2.2h0.7v3.9h-0.7v-0.6
			c-0.3,0.5-0.8,0.7-1.4,0.7C130.4,195.1,129.8,194.6,129.8,193.5"/>
		<path class="st23" d="M134.6,191.1h0.7v0.7c0.3-0.5,0.7-0.8,1.2-0.8c0.3,0,0.4,0,0.6,0.2l-0.3,0.6c-0.1-0.1-0.3-0.1-0.5-0.1
			c-0.6,0-1,0.5-1,1.3v2.1h-0.7V191.1z"/>
		<path class="st23" d="M140.2,192.6c0-0.7-0.4-1-0.9-1c-0.5,0-0.8,0.2-1.1,0.6l-0.5-0.4c0.4-0.5,0.9-0.8,1.6-0.8
			c1,0,1.6,0.5,1.6,1.6v2.4h-0.7v-0.4c-0.3,0.3-0.7,0.5-1.2,0.5c-0.8,0-1.5-0.4-1.5-1.3c0-0.8,0.7-1.2,1.5-1.2L140.2,192.6
			L140.2,192.6z M139,193.2c-0.5,0-0.9,0.2-0.9,0.6c0,0.4,0.3,0.7,0.9,0.7c0.6,0,1.1-0.3,1.1-0.9v-0.4H139z"/>
		<rect x="142.1" y="186.5" class="st23" width="0.7" height="8.5"/>
		<path class="st23" d="M146,194.5c0.6,0,1-0.2,1.2-0.5l0.5,0.4c-0.4,0.4-0.9,0.7-1.7,0.7c-1.3,0-2.2-0.9-2.2-2.1
			c0-1.2,0.9-2.1,2.1-2.1c1.3,0,2,1,2,2.3h-3.3C144.8,194,145.3,194.5,146,194.5 M147.2,192.7c-0.1-0.6-0.5-1.1-1.2-1.1
			c-0.7,0-1.2,0.4-1.3,1.1H147.2z"/>
		<path class="st23" d="M148.5,194.2l0.6-0.4c0.2,0.4,0.6,0.6,1.2,0.6c0.5,0,0.8-0.2,0.8-0.5c0-0.4-0.3-0.5-1-0.7
			c-0.8-0.2-1.3-0.5-1.3-1.2c0-0.6,0.5-1.1,1.3-1.1c0.7,0,1.1,0.3,1.4,0.6L151,192c-0.2-0.3-0.5-0.4-0.9-0.4c-0.4,0-0.6,0.2-0.6,0.4
			c0,0.3,0.3,0.4,0.9,0.6c0.9,0.2,1.4,0.6,1.4,1.3c0,0.7-0.6,1.2-1.5,1.2C149.5,195.1,148.9,194.8,148.5,194.2"/>
		<polygon class="st23" points="154.4,191.1 155.2,191.1 156.4,193.8 157.6,191.1 158.3,191.1 155.6,197.6 154.8,197.6 156.1,194.7 
					"/>
		<path class="st23" d="M161,193c0-1.2,0.9-2.1,2.1-2.1c1.2,0,2.1,0.9,2.1,2.1c0,1.2-0.9,2.1-2.1,2.1C161.9,195.1,161,194.2,161,193
			 M164.4,193c0-0.8-0.5-1.5-1.3-1.5c-0.8,0-1.3,0.6-1.3,1.5c0,0.8,0.5,1.4,1.3,1.4C163.9,194.5,164.4,193.9,164.4,193"/>
		<path class="st23" d="M166.2,191.1h0.7v0.7c0.3-0.5,0.7-0.8,1.2-0.8c0.3,0,0.4,0,0.6,0.2l-0.3,0.6c-0.1-0.1-0.3-0.1-0.5-0.1
			c-0.6,0-1,0.5-1,1.3v2.1h-0.7V191.1z"/>
		<path class="st23" d="M169.2,196.5l0.6-0.3c0.3,0.6,0.8,0.9,1.4,0.9c0.8,0,1.3-0.5,1.3-1.4v-1.3c-0.3,0.5-0.8,0.8-1.4,0.8
			c-1.1,0-2-0.9-2-2.1c0-1.2,0.9-2.1,2-2.1c0.6,0,1.1,0.3,1.4,0.8v-0.7h0.7v4.6c0,1.2-0.7,2-2,2
			C170.2,197.7,169.6,197.2,169.2,196.5 M172.5,193c0-0.8-0.5-1.4-1.3-1.4c-0.8,0-1.3,0.6-1.3,1.4c0,0.8,0.5,1.4,1.3,1.4
			C171.9,194.5,172.5,193.9,172.5,193"/>
		<path class="st23" d="M176.9,192.6c0-0.7-0.4-1-0.9-1c-0.5,0-0.8,0.2-1.1,0.6l-0.5-0.4c0.4-0.5,0.9-0.8,1.6-0.8
			c1,0,1.6,0.5,1.6,1.6v2.4h-0.7v-0.4c-0.3,0.3-0.7,0.5-1.2,0.5c-0.8,0-1.5-0.4-1.5-1.3c0-0.8,0.7-1.2,1.5-1.2L176.9,192.6
			L176.9,192.6z M175.8,193.2c-0.5,0-0.9,0.2-0.9,0.6s0.3,0.7,0.9,0.7c0.6,0,1.1-0.3,1.1-0.9v-0.4H175.8z M176.4,188.6h0.8l-0.9,1.7
			h-0.6L176.4,188.6z"/>
		<path class="st23" d="M178.9,191.1h0.7v0.6c0.3-0.5,0.8-0.7,1.4-0.7c0.9,0,1.5,0.6,1.5,1.6v2.4h-0.7v-2.4c0-0.7-0.3-1-1-1
			c-0.7,0-1.2,0.4-1.2,1.2v2.2h-0.7V191.1z"/>
		<path class="st23" d="M183.5,189.5c0-0.3,0.2-0.5,0.5-0.5c0.3,0,0.5,0.2,0.5,0.5s-0.2,0.5-0.5,0.5
			C183.8,190,183.5,189.8,183.5,189.5 M183.6,191.1h0.7v3.9h-0.7V191.1z"/>
		<path class="st23" d="M185.4,193c0-1.2,0.9-2.1,2-2.1c0.7,0,1.2,0.2,1.6,0.6l-0.5,0.4c-0.3-0.3-0.6-0.4-1.1-0.4
			c-0.8,0-1.3,0.6-1.3,1.4c0,0.8,0.5,1.4,1.3,1.4c0.5,0,0.9-0.2,1.2-0.5l0.5,0.4c-0.4,0.4-0.9,0.7-1.7,0.7
			C186.3,195.1,185.4,194.2,185.4,193"/>
		<path class="st23" d="M189.7,193c0-1.2,0.9-2.1,2.1-2.1c1.2,0,2.1,0.9,2.1,2.1c0,1.2-0.9,2.1-2.1,2.1
			C190.6,195.1,189.7,194.2,189.7,193 M193.1,193c0-0.8-0.5-1.5-1.3-1.5c-0.8,0-1.3,0.6-1.3,1.5c0,0.8,0.5,1.4,1.3,1.4
			C192.5,194.5,193.1,193.9,193.1,193"/>
		<path class="st23" d="M194.4,194.2l0.6-0.4c0.2,0.4,0.6,0.6,1.2,0.6c0.5,0,0.8-0.2,0.8-0.5c0-0.4-0.3-0.5-1-0.7
			c-0.8-0.2-1.3-0.5-1.3-1.2c0-0.6,0.5-1.1,1.3-1.1c0.7,0,1.1,0.3,1.4,0.6l-0.5,0.4c-0.2-0.3-0.5-0.4-0.9-0.4
			c-0.4,0-0.6,0.2-0.6,0.4c0,0.3,0.3,0.4,0.9,0.6c0.9,0.2,1.4,0.6,1.4,1.3c0,0.7-0.6,1.2-1.5,1.2
			C195.3,195.1,194.7,194.8,194.4,194.2"/>
	</g>
</g>
</svg>
